<svg width="454" height="473" viewBox="0 0 454 473" fill="none" xmlns="http://www.w3.org/2000/svg">
<path fill-rule="evenodd" clip-rule="evenodd" d="M26.6415 308.35H0.5V284.827H45.1665V241.065H1.00187V164.606V157.744H6.50723L10.5279 149.515H15.5561H67.2488H67.7507H75.7806V142.688H68.2526V127.382H158.087V108.77H143.031V55.8314H203.256V18H294.596V55.4502H339.878V93.9838H324.783V123.358H376.216V107.764H437.127V138.952H422.071V152.828H451.682V206.859H445.249V236.035H452.079V267.166H418.323V281.383H450.678V296.9L445.047 296.9V312.355H437.402V327.54H375.397V312.424H362.473V348.521L377.049 348.521V409.926H315.4V395.428H287.314V454.806H187.904V395.604H143.977V410.606H60.0956V382.42L75.7077 366.795V349.285L77.7881 349.212V327.081H26.6415V311.317V310.372L26.6415 308.35ZM203.977 439.255V410.08H233.87V439.255H203.977ZM117.883 371.85V326.864H132.994V308.469L143.692 301.183H154.654H170.896L171.097 277.785V267.654H195.728V296.397H187.698V310.985V327.081H241.599V320.039H248.671V345.693H252.439V352.735H248.926V379.395H218.814V363.802H173.143V379.395H125.466L117.883 371.85ZM69.8437 284.828V221.984H151.563V191.242H143.797V176.924L195.748 176.678V250.888L154.517 251.134V277.54H83.8065V284.828H69.8437ZM98.1978 143.205H127.975V198.395H106.474V172.731L98.1978 164.27V149.496V143.205ZM240.896 296.041V282.312V270.24L238.888 266.719L240.896 263.701V251.125L238.888 247.604L240.896 244.586V232.01L238.888 228.992L240.896 225.974V213.362H256.685V232.416L278.753 232.319V206.054L338.83 206.15V169.277L270.931 169.278L256.866 190.137L254.353 195.586H243.728L240.972 192.9V146.497H227.597V205.853L230.858 207.362V221.368L227.847 222.453V282.312H219.315V296.041H240.896ZM294.596 281.306H256.74V240.562H301.8V214.116H323.749V251.814H358.334V248.22H361.106V251.814H376.183L391.348 267.311V281.314H323.704V363.802H279.071V352.735H275.778V345.693H279.071V334.909H294.596V281.306ZM407.296 236.191V206.859H435.903V236.191H407.296ZM174.147 161.085V93.6798L180.503 86.8191H308.937L309.106 153.036H272.384V138.503L256.454 123.358H210.784V161.085H174.147ZM361.081 224.968H358.334V221.565L354.756 205.853V138.952H398.82V168.127H361.081V224.968Z" fill="#271406"/>
<path d="M75.7806 149.515H67.2488M75.7806 149.515V142.688H68.2526V127.382H158.087V108.77H143.031V55.8314H203.256V18H294.596V55.4502H339.878V93.9838H324.783V123.358H376.216V107.764H437.127V138.952H422.071V152.828H451.682V206.859H445.249V236.035H452.079V267.166H418.323V281.383H450.678V296.9L445.047 296.9V312.355H437.402V327.54H375.397V312.424H362.473V348.521L377.049 348.521V409.926H315.4V395.428H287.314V454.806H187.904V395.604H143.977V410.606H60.0956V382.42L75.7077 366.795V349.285L77.7881 349.212V327.081H26.6415V311.317V310.372L26.6415 308.35H0.5V284.827H45.1665V241.065H1.00187V164.606V157.744H6.50723L10.5279 149.515H15.5561H67.2488M75.7806 149.515H67.7507H67.2488M203.977 410.08V439.255H233.87V410.08H203.977ZM117.883 326.864V371.85L125.466 379.395H173.143V363.802H218.814V379.395H248.926V352.735H252.439V345.693H248.671V320.039H241.599V327.081H187.698V310.985V296.397H195.728V267.654H171.097V277.785L170.896 301.183H154.654H143.692L132.994 308.469V326.864H117.883ZM69.8437 221.984V284.828H83.8065V277.54H154.517V251.134L195.748 250.888V176.678L143.797 176.924V191.242H151.563V221.984H69.8437ZM127.975 143.205H98.1978V149.496V164.27L106.474 172.731V198.395H127.975V143.205ZM240.896 282.312V296.041H219.315V282.312H227.847V222.453L230.858 221.368V207.362L227.597 205.853V146.497H240.972V192.9L243.728 195.586H254.353L256.866 190.137L270.931 169.278L338.83 169.277V206.15L278.753 206.054V232.319L256.685 232.416V213.362H240.896V225.974L238.888 228.992L240.896 232.01V244.586L238.888 247.604L240.896 251.125V263.701L238.888 266.719L240.896 270.24V282.312ZM256.74 281.306H294.596V334.909H279.071V345.693H275.778V352.735H279.071V363.802H323.704V281.314H391.348V267.311L376.183 251.814H361.106V248.22H358.334V251.814H323.749V214.116H301.8V240.562H256.74V281.306ZM407.296 206.859V236.191H435.903V206.859H407.296ZM174.147 93.6798V161.085H210.784V123.358H256.454L272.384 138.503V153.036H309.106L308.937 86.8191H180.503L174.147 93.6798ZM358.334 224.968H361.081V168.127H398.82V138.952H354.756V205.853L358.334 221.565V224.968Z" stroke="#B27C40"/>
<path d="M3.93213 251.254H8.36053V274.196H3.93213V251.254Z" fill="#271406"/>
<path d="M350.134 89.6748V94.202H376.232V98.2261H381.25V89.6748H350.134Z" fill="#271406"/>
<path d="M3.93213 251.254H8.36053V274.196H3.93213V251.254Z" stroke="#B27C40" stroke-width="0.5"/>
<path d="M350.134 89.6748V94.202H376.232V98.2261H381.25V89.6748H350.134Z" stroke="#B27C40" stroke-width="0.5"/>
<path d="M227.671 192.54H240.719M256.548 190.888V213.127M340.097 93.933C340.498 93.933 364.354 93.933 376.231 93.933V108.287M79.05 349.005H75.611M34.6392 308.304V300.959H40.9819V308.05M195.902 228.941H210.743V236.211H195.902M174.465 92.8826L169.694 87.1712L174.211 82.644L180 88.1658M230.173 146.558V139.474H236.719V146.558M422.404 107.784V115.832M422.404 115.832H437.962M422.404 115.832V123.88H437.962M452.115 259.886H436.958V266.989M453.018 266.424V281.37H450.424M271.613 296.212V303.924H279.18M339.479 293V300.362M384.261 281.499V289.374H391.077V281.367M381.247 257.049L387.273 251.647L392.019 256.316L386.158 262.114M118.772 372.395L107.731 383.436L112.472 388.232L123.412 377.472M143.364 176.787V165.455H150.05V176.787M69.8475 226.496V214.476H76.6147V222.506M8.36035 248.629V276.718H37.3111V248.629H8.36035ZM50.0156 308.422H94.4543V311.839V315.028H91.6709V311.11H50.0156V308.422ZM94.4401 323.222V349.255H91.6709V323.088L94.4401 323.222Z" stroke="#B27C40"/>
<path d="M24.9224 308.19H52.5252M94.6824 315.028V325.088M117.515 328.106V311.986H124.91M133.066 311.986H124.91M133.326 308.131H124.91V311.986M143.651 301.008V277.707M241.746 323.497H234.01V327.042M241.214 320.05V312.003H248.692V320.05M279.16 311.058V296.172H241.229M199.128 236.342V240.171M195.706 244.275H199.128V240.171M199.128 240.171H202.822V236.342M203.086 55.9724C204.692 55.9724 223.915 55.9724 233.785 55.9724M209.376 18.2459V23.7791H221.923V18.2459M243.181 17.8057V24.0554H255.727V17.8057M271.7 18.2459V23.7791H284.021V18.2459M290.955 18.2459V22.6775H294.478M340.097 63.5177H293.695M301.532 86.8941V82.3669M308.597 87.6627V79.1113H301.532V82.3669M301.532 82.3669H297.517V86.8941M154.505 301.066V277.707" stroke="#B27C40" stroke-width="0.5"/>
<path d="M98.682 164.589H26.4279V180.522H31.2516V188.267V188.881M0.83252 164.589H19.9036V180.522H16.6193V225.213H31.2516V203.905V202.933M31.2516 188.881H37.4691V195.907M31.2516 188.881V195.907M37.4691 195.907H31.2516M37.4691 195.907H45.499V202.933H31.2516M31.2516 195.907V202.933M82.1355 186.371L77.1168 181.225L72.0981 185.87L77.1168 191.39L79.6262 188.881M82.1355 186.371L84.6449 184.364L90.1655 188.881L84.6449 193.899L79.6262 188.881M82.1355 186.371L79.6262 188.881" stroke="#B27C40"/>
<path d="M325.04 94.202H323.535M310.486 94.202H308.98M325.04 123.377H323.033M310.486 123.377H308.98M354.7 169.655H353.145M340.44 169.655H339.093" stroke="#B27C40"/>
<path d="M328.052 169.655V165.491H332.067M332.067 165.491V169.655M332.067 165.491V162.11H338.473V169.655M407.347 206.957H384.763V191.448H429.43V207.382" stroke="#B27C40" stroke-width="0.5"/>
<path d="M384.763 207.382C384.763 208.186 384.763 211.557 384.763 213.401H392.291M399.6 213.401V207.01M399.6 213.401H392.291M399.6 213.401V217.161M407.347 221.282H399.6V217.161M392.291 213.401V217.161H399.6M360.824 225.159V248.183M339.059 281.829V341.567M350.636 386.96V380.924H335.58V386.96M350.636 386.96V391.487H335.58V387.463V386.96M350.636 386.96H335.58M403.332 327.768V312.233L407.151 312.233M444.318 312.233H425.414M407.151 312.233V327.768M407.151 312.233L418.388 312.233M418.388 312.233V315.022H425.414V312.233M418.388 312.233H425.414" stroke="#B27C40" stroke-width="0.5"/>
<path d="M219.145 410.602V379.917M60.1851 392.482H64.7288V405.531H74.1048V410.733" stroke="#B27C40" stroke-width="0.5"/>
<path d="M53.5283 195.907H36.9668V188.881H31.9482V180.851H27.4316V180.718H26.9297V166.134H19.9033V180.718H16.8926V187.877H23.918V213.975H11.3711V158.769H53.5283V195.907Z" fill="#F08234" fill-opacity="0.23"/>
<path d="M38.7598 183.821V175.821H41.8223C42.4004 175.821 42.8809 175.912 43.2637 176.094C43.6491 176.274 43.9368 176.52 44.127 176.833C44.3197 177.145 44.416 177.499 44.416 177.895C44.416 178.221 44.3535 178.499 44.2285 178.731C44.1035 178.96 43.9355 179.146 43.7246 179.29C43.5137 179.433 43.278 179.536 43.0176 179.598V179.676C43.3014 179.692 43.5736 179.779 43.834 179.938C44.097 180.094 44.3118 180.316 44.4785 180.602C44.6452 180.889 44.7285 181.235 44.7285 181.641C44.7285 182.055 44.6283 182.428 44.4277 182.758C44.2272 183.087 43.9251 183.346 43.5215 183.536C43.1178 183.726 42.61 183.821 41.998 183.821H38.7598ZM40.209 182.61H41.7676C42.2936 182.61 42.6725 182.51 42.9043 182.309C43.1387 182.106 43.2559 181.846 43.2559 181.528C43.2559 181.291 43.1973 181.077 43.0801 180.887C42.9629 180.695 42.7962 180.544 42.5801 180.434C42.3639 180.322 42.1061 180.266 41.8066 180.266H40.209V182.61ZM40.209 179.223H41.6426C41.8926 179.223 42.1178 179.178 42.3184 179.087C42.5189 178.993 42.6764 178.861 42.791 178.692C42.9082 178.52 42.9668 178.317 42.9668 178.083C42.9668 177.773 42.8574 177.518 42.6387 177.317C42.4225 177.116 42.1009 177.016 41.6738 177.016H40.209V179.223Z" fill="white"/>
<path d="M445.49 176.194H452.014V207.382H445.49V176.194Z" fill="#F08234" fill-opacity="0.23"/>
<path d="M445.49 229.515H436.456V207.382H429.674V191.234H384.506V207.382H384.517V213.632H407.567V214.178H392.046V217.266H407.567V229.515H377.235V176.194H445.49V229.515ZM399.585 221.463H407.475V217.683H399.585V221.463Z" fill="#F08234" fill-opacity="0.23"/>
<path d="M402.138 187.194H400.591L403.407 179.194H405.196L408.017 187.194H406.47L404.333 180.835H404.271L402.138 187.194ZM402.188 184.058H406.407V185.222H402.188V184.058Z" fill="white"/>
<path d="M6.35303 158.267H54.0307V165.795M16.8923 187.375H24.4204V214.476H16.8923" stroke="#B27C40" stroke-opacity="0.23"/>
<path d="M0.83252 164.525H6.51579V157.765" stroke="#B27C40"/>
</svg>
