<svg width="393" height="473" viewBox="0 0 393 473" fill="none" xmlns="http://www.w3.org/2000/svg">
<path d="M21.6971 336.181H15.852V334.363H32.0737L32.0737 349.149H21.6971L21.6971 336.181Z" fill="#271406" fill-opacity="0.9" stroke="#B27C40" stroke-opacity="0.23" stroke-width="0.5"/>
<path fill-rule="evenodd" clip-rule="evenodd" d="M320.91 134.305V120.245H378.558V160.612H376.55V170.444H362.559V198.264H365.106V232.587H383.828V275.304H392.491V325.451H322.429V343.316H272.697V371.164H219.874V407.459L203.489 407.467V406.039H177.815V424.904L145.232 455L123.629 438.855V406.284H99.1694V371.004H32.4482V334.436H7.9708V317.868H0.500166V254.153H16.6712L16.6732 223.418H0.68483L0.566613 193.721H32.9909L73.8201 169.488H84.7487V159.154H117.845V176.173H120.186V153.969H134.388V152.466H120.65V99.1574H183.577V71.8164H158.862V36.1296L187.61 18H233.702L258.728 36.6475V95.3721H328.783V113.874H318.638V134.305H320.91ZM345.628 176.243V160.029H327.833V152.631H321.1V149.242H318.584V160.029H285.555V121.118H258.675V135.322H243.185V137.338H276.337V212.157H265.966V215.037H276.337V244.272H310.648V232.565H345.682V202.363H327.833V176.243H345.628ZM271.727 285.899H243.787V290.693H236.409V292.535H230.037V251.096H206.256V247.876H230.245V225.983H216.562V198.528H236.433V212.235H246.953V215.236H236.409V266.887H248.681V268.616H236.582V284.171H271.727V285.899ZM165.716 133.238V134.537H162.634V164.62L187.23 164.536V166.068H162.634V198.789H180.12V247.684H190.85V251.013H159.138V278.986H153.041V272.649L99.156 272.227V324.582H75.3761V311.054H92.7108V261.126H75.4314V254.789H102.804V262.279H117.319V251.642H120.653V262.279H156.375V236.93H152.691V233.246H149.461V198.103H146.467V196.602H159.104V153.969H145.551V152.466H149.806L159.954 142.593V133.238H165.716ZM233.266 159.992V166.208H208.351V164.536H219.874V148.569L178.075 148.75V134.537H174.934V133.238L184.509 133.235V121.128H211.719V135.095H225.635V159.992H233.266ZM243.713 102.8L243.824 71.8164H197.089L196.978 102.8H243.713ZM130.948 203.737V233.246H120.653V243.541H117.319V238.346H102.792V240.094H68.9313V225.515H39.6126V254.213H33.1819V223.103L74.3413 198.906H99.1846V209.276H117.922V192.043H120.232V196.602H135.746V198.448L130.948 203.737ZM276.337 257.981H310.603V275.529H300.105V324.621H282.954V308.121H285.885V289.084H282.905V285.899H280.222V284.397H283.251V268.616H264.238V266.887H276.337V257.981ZM257.55 314.705V350.644H180.12V384.156H142.832V352.502H121.297V300.716H153.142V293.227H159.057V310.942L170.325 322.252H179.9V343.122H209.413V322.35H218.722L229.96 311.201V306.762H236.582V314.705H257.55ZM99.1023 352.032V339.466H75.1918V346.066H53.879V317.978H47.1857V352.032H99.1023Z" fill="#271406" stroke="#B27C40"/>
<path d="M249.282 134.952C248.37 134.952 247.63 134.212 247.63 133.3C247.63 132.387 248.37 131.647 249.282 131.647C250.195 131.647 250.935 132.387 250.935 133.3C250.935 134.212 250.195 134.952 249.282 134.952Z" stroke="#B27C40"/>
<path d="M187.634 164.41H208.376M211.011 166.138V176.817H184.277V166.138M208.952 339.095H179.568M300.56 289.426H307.473M307.473 289.426V275.6M307.473 289.426V296.916H300.56M384.101 275.6H370.859V296.916H388.687M392.744 296.916H388.687M388.687 296.916V303.253H392.744M345.88 202.433V183.998H339.162M265.414 213.379L257.519 218.564M246.978 213.956L255.1 209.18M264.262 268.686H248.13M265.991 266.958V260.045H247.285V266.958M127.714 152.311V107.294L156.171 107.294V98.7329M159.673 98.7329V110.615H131.441V152.311M84.5032 169.604H88.7613V166.588M88.7613 159.225V166.588M88.7613 166.588H90.6248V159.225M7.81208 318.232V312.79M0.524765 311.135L7.81208 311.135V312.79M0.524765 312.79H7.81208M28.7815 317.829H16.5174M268.493 180.541H265.414V177.265H268.871M171.262 430.978V420.793H177.572M123.626 432.465H127.051V421.56H123.626M208.151 166.532H187.451V173.824H208.151V166.532ZM264.262 266.749H249.052V262.349H264.262V266.749Z" stroke="#B27C40" stroke-width="0.5"/>
<path d="M121.1 315.928H117.7M121.1 309.124H114.051V315.928H117.7M117.7 315.928V319.384H121.292M59.9589 346.095V340.334H53.4832M75.5809 261.197H69.4731V256.012H75.5809M39.4625 248.522H46.9105V261.773H33.4203V254.187M46.8497 318.025H27.5354M18.0432 318.025H7.96461M38.6425 190.287L42.6939 197.084L36.5568 200.849L32.4753 193.798M236.607 238.152H244.097V232.168H236.607M276.361 184.36H268.871V177.285H276.361M56.848 290.003L29.769 297.492L27.4644 289.426L54.5434 281.937L56.848 290.003Z" stroke="#B27C40"/>
<path d="M183.601 99.1815V106.1H177.804L177.804 99.1815M127.454 154.04V160.953H120.436M158.827 176.508H149.032V170.171H158.827M155.946 254.638H149.032V262.349M166.893 250.827V257.74H163.205M158.827 257.74H163.205M163.205 257.74V261.427H158.827M223.224 250.827V282.796H230.269M321.877 282.513V290.003H350.109V282.513H328.215M321.877 282.513V276.176H328.215V282.513M321.877 282.513H328.215M360.479 325.722V318.475H353.566V325.722M322.454 335.744H314.753V343.581M338.941 232.967V239.941H332.382V232.967M335.307 160.144L327.927 152.668M318.997 152.312H311.507V156.056M311.507 159.801V156.056M311.507 156.056H307.474V159.801M285.58 121.209V114.288H279.818V121.209M258.501 127.539H251.011V135.028M225.66 156.243H240.373V166.138H233.15M211.833 296.916V279.633H201.462V272.719H187.634V279.633H177.264V296.916H211.833ZM201.462 321.689V323.061H188.152V321.689H201.462Z" stroke="#B27C40"/>
<path d="M240.64 160.038H233.15M180.144 204.738H187.058V198.85H180.144" stroke="#B27C40"/>
<path d="M239.199 219.641C238.128 219.641 237.259 218.772 237.259 217.7C237.259 216.629 238.128 215.76 239.199 215.76C240.271 215.76 241.14 216.629 241.14 217.7C241.14 218.772 240.271 219.641 239.199 219.641Z" stroke="#B27C40"/>
<path d="M15.8518 318.232V334.363M40.8154 318.232V349.149H32.0735" stroke="#B27C40" stroke-opacity="0.23" stroke-width="0.5"/>
<path d="M361.055 317.656H352.989V325.145H323.029V281.937H323.03V290.579H350.685V281.937H328.791V275.6H392.466V275.82L370.593 275.62V296.716L392.466 296.916H389.005V303.557H392.466V325.145H361.055V317.656Z" fill="#F08234" fill-opacity="0.23"/>
<path d="M360.626 301.463H359.165C359.123 301.223 359.047 301.011 358.935 300.826C358.823 300.639 358.683 300.48 358.517 300.35C358.35 300.219 358.16 300.122 357.946 300.057C357.735 299.989 357.507 299.955 357.263 299.955C356.828 299.955 356.442 300.064 356.106 300.283C355.771 300.499 355.507 300.817 355.317 301.236C355.127 301.653 355.032 302.162 355.032 302.764C355.032 303.376 355.127 303.891 355.317 304.311C355.51 304.727 355.773 305.042 356.106 305.256C356.442 305.467 356.826 305.572 357.259 305.572C357.498 305.572 357.722 305.541 357.931 305.479C358.142 305.413 358.33 305.318 358.497 305.193C358.666 305.068 358.808 304.915 358.923 304.732C359.04 304.55 359.121 304.342 359.165 304.107L360.626 304.115C360.571 304.495 360.453 304.852 360.271 305.186C360.091 305.519 359.855 305.813 359.563 306.068C359.272 306.321 358.931 306.519 358.54 306.662C358.149 306.803 357.716 306.873 357.239 306.873C356.536 306.873 355.909 306.71 355.356 306.385C354.804 306.059 354.369 305.589 354.052 304.975C353.734 304.36 353.575 303.623 353.575 302.764C353.575 301.902 353.735 301.165 354.056 300.553C354.376 299.938 354.812 299.468 355.364 299.143C355.916 298.817 356.541 298.654 357.239 298.654C357.685 298.654 358.099 298.717 358.481 298.842C358.864 298.967 359.205 299.15 359.505 299.393C359.804 299.632 360.05 299.926 360.243 300.275C360.438 300.622 360.566 301.018 360.626 301.463Z" fill="white"/>
<path d="M169.773 264.654H219.322V308.438H169.773V264.654ZM212.408 279.632H200.886V272.719H188.21V279.632H177.84V296.916H212.408V279.632Z" fill="#F08234" fill-opacity="0.23"/>
<path d="M190.151 289.48V281.48H193.214C193.792 281.48 194.272 281.571 194.655 281.754C195.041 281.933 195.328 282.179 195.519 282.492C195.711 282.804 195.808 283.159 195.808 283.554C195.808 283.88 195.745 284.159 195.62 284.39C195.495 284.62 195.327 284.806 195.116 284.949C194.905 285.092 194.67 285.195 194.409 285.258V285.336C194.693 285.351 194.965 285.439 195.226 285.597C195.489 285.754 195.703 285.975 195.87 286.261C196.037 286.548 196.12 286.894 196.12 287.301C196.12 287.715 196.02 288.087 195.819 288.418C195.619 288.746 195.317 289.005 194.913 289.195C194.509 289.385 194.002 289.48 193.39 289.48H190.151ZM191.601 288.269H193.159C193.685 288.269 194.064 288.169 194.296 287.969C194.53 287.765 194.647 287.505 194.647 287.187C194.647 286.95 194.589 286.737 194.472 286.547C194.354 286.354 194.188 286.203 193.972 286.094C193.756 285.982 193.498 285.926 193.198 285.926H191.601V288.269ZM191.601 284.883H193.034C193.284 284.883 193.509 284.837 193.71 284.746C193.91 284.652 194.068 284.521 194.183 284.351C194.3 284.179 194.358 283.976 194.358 283.742C194.358 283.432 194.249 283.177 194.03 282.976C193.814 282.776 193.493 282.676 193.065 282.676H191.601V284.883Z" fill="white"/>
<path d="M7.56787 311.041H0.385254V317.656H0.353027L0.379395 274.736H51.6567L51.6528 282.798L51.4878 282.209L26.8833 289.062L29.4048 298.114L51.647 291.919L51.6313 317.656H7.56787V311.041Z" fill="#F08234" fill-opacity="0.23"/>
<path d="M14.8774 304.459H13.3306L16.147 296.459H17.936L20.7563 304.459H19.2095L17.0728 298.1H17.0103L14.8774 304.459ZM14.9282 301.322H19.147V302.486H14.9282V301.322Z" fill="white"/>
</svg>
