<svg width="451" height="474" viewBox="0 0 451 474" fill="none" xmlns="http://www.w3.org/2000/svg">
<path d="M57.5 295C57.5 296.105 56.6046 297 55.5 297C54.3954 297 53.5 296.105 53.5 295C53.5 293.895 54.3954 293 55.5 293C56.6046 293 57.5 293.895 57.5 295Z" fill="#171717"/>
<path d="M56.5 295C56.5 295.552 56.0523 296 55.5 296C54.9477 296 54.5 295.552 54.5 295C54.5 294.448 54.9477 294 55.5 294C56.0523 294 56.5 294.448 56.5 295Z" fill="white"/>
<path d="M368.5 297C368.5 298.105 367.605 299 366.5 299C365.395 299 364.5 298.105 364.5 297C364.5 295.895 365.395 295 366.5 295C367.605 295 368.5 295.895 368.5 297Z" fill="#171717"/>
<path d="M367.5 297C367.5 297.552 367.052 298 366.5 298C365.948 298 365.5 297.552 365.5 297C365.5 296.448 365.948 296 366.5 296C367.052 296 367.5 296.448 367.5 297Z" fill="white"/>
</svg>
