<svg width="468" height="473" viewBox="0 0 468 473" fill="none" xmlns="http://www.w3.org/2000/svg">
<path d="M42 337C42 338.105 41.1046 339 40 339C38.8954 339 38 338.105 38 337C38 335.895 38.8954 335 40 335C41.1046 335 42 335.895 42 337Z" fill="#171717"/>
<path d="M41 337C41 337.552 40.5523 338 40 338C39.4477 338 39 337.552 39 337C39 336.448 39.4477 336 40 336C40.5523 336 41 336.448 41 337Z" fill="white"/>
<path d="M429 257C429 258.105 428.105 259 427 259C425.895 259 425 258.105 425 257C425 255.895 425.895 255 427 255C428.105 255 429 255.895 429 257Z" fill="#171717"/>
<path d="M428 257C428 257.552 427.552 258 427 258C426.448 258 426 257.552 426 257C426 256.448 426.448 256 427 256C427.552 256 428 256.448 428 257Z" fill="white"/>
</svg>
