<svg width="385" height="473" viewBox="0 0 385 473" fill="none" xmlns="http://www.w3.org/2000/svg">
<path d="M350 210C350 211.105 349.105 212 348 212C346.895 212 346 211.105 346 210C346 208.895 346.895 208 348 208C349.105 208 350 208.895 350 210Z" fill="#171717"/>
<path d="M349 210C349 210.552 348.552 211 348 211C347.448 211 347 210.552 347 210C347 209.448 347.448 209 348 209C348.552 209 349 209.448 349 210Z" fill="white"/>
<path d="M120 288C120 289.105 119.105 290 118 290C116.895 290 116 289.105 116 288C116 286.895 116.895 286 118 286C119.105 286 120 286.895 120 288Z" fill="#171717"/>
<path d="M119 288C119 288.552 118.552 289 118 289C117.448 289 117 288.552 117 288C117 287.448 117.448 287 118 287C118.552 287 119 287.448 119 288Z" fill="white"/>
</svg>
