<svg width="454" height="473" viewBox="0 0 454 473" fill="none" xmlns="http://www.w3.org/2000/svg">
<path fill-rule="evenodd" clip-rule="evenodd" d="M426.876 164.455H453.018V187.978H408.351V231.741H452.516V308.2V315.061H447.01L442.99 323.291H437.961H386.269H385.767H377.737V330.118H385.265V345.424H295.43V364.035H310.486V416.974H250.262V454.806H158.921V417.356H113.64V378.822H128.735V349.448H77.302V365.041H16.3902V333.854H31.4463V319.978H1.83591V265.946H8.26874V236.771H1.43852V205.639H35.1949V191.423H2.83963V175.906L8.47067 175.906V160.451H16.1152V145.266H78.1203V160.382H91.0445V124.285L76.4682 124.285V62.8794H138.117V77.3781H166.203V18H265.614V77.202H309.541V62.1997H393.422V90.386L377.81 106.011V123.52L375.729 123.594V145.725H426.876V161.489V162.434L426.876 164.455ZM249.541 33.551V62.7262H219.648V33.551H249.541ZM335.634 100.956V145.942H320.524V164.336L309.826 171.623H298.863H282.621L282.42 195.021V205.152H257.79V176.409H265.82V161.821V145.725H211.919V152.767H204.846V127.113H201.079V120.071H204.592V93.4104H234.704V109.004H280.374V93.4104H328.052L335.634 100.956ZM383.674 187.978V250.822H301.955V281.564H309.72V295.882L257.769 296.128V221.918L299 221.672V195.266H369.711V187.978H383.674ZM355.32 329.601H325.543V274.411H347.044V300.075L355.32 308.536V323.31V329.601ZM212.622 176.765V190.493V202.566L214.629 206.087L212.622 209.105V221.681L214.629 225.202L212.622 228.22V240.795L214.629 243.813L212.622 246.832V259.444H196.832V240.39L174.764 240.487V266.752L114.688 266.656V303.529L182.586 303.528L196.651 282.669L199.165 277.22H209.789L212.546 279.905V326.309H225.921V266.952L222.659 265.443V251.437L225.67 250.353V190.493H234.202V176.765H212.622ZM158.922 191.499H196.778V232.244H151.718V258.69H129.769V220.992H95.184V224.586H92.4118V220.992H77.3343L62.17 205.494V191.492H129.813V109.004H174.447V120.071H177.739V127.113H174.447V137.897H158.922V191.499ZM46.2215 236.615V265.946H17.6149V236.615H46.2215ZM279.37 311.721V379.126L273.014 385.987H144.58L144.412 319.77H181.134V334.302L197.064 349.448H242.734V311.721H279.37ZM92.4364 247.838H95.184V251.241L98.7614 266.952V333.854H54.6971V304.679H92.4364V247.838Z" fill="#271406"/>
<path d="M377.737 323.291H386.269M377.737 323.291V330.118H385.265V345.424H295.43V364.035H310.486V416.974H250.262V454.806H158.921V417.356H113.64V378.822H128.735V349.448H77.302V365.041H16.3902V333.854H31.4463V319.978H1.83591V265.946H8.26874V236.771H1.43852V205.639H35.1949V191.423H2.83963V175.906L8.47067 175.906V160.451H16.1152V145.266H78.1203V160.382H91.0445V124.285L76.4682 124.285V62.8794H138.117V77.3781H166.203V18H265.614V77.202H309.541V62.1997H393.422V90.386L377.81 106.011V123.52L375.729 123.594V145.725H426.876V161.489V162.434L426.876 164.455H453.018V187.978H408.351V231.741H452.516V308.2V315.061H447.01L442.99 323.291H437.961H386.269M377.737 323.291H385.767H386.269M249.541 62.7262V33.551H219.648V62.7262H249.541ZM335.634 145.942V100.956L328.052 93.4104H280.374V109.004H234.704V93.4104H204.592V120.071H201.079V127.113H204.846V152.767H211.919V145.725H265.82V161.821V176.409H257.79V205.152H282.42V195.021L282.621 171.623H298.863H309.826L320.524 164.336V145.942H335.634ZM383.674 250.822V187.978H369.711V195.266H299V221.672L257.769 221.918V296.128L309.72 295.882V281.564H301.955V250.822H383.674ZM325.543 329.601H355.32V323.31V308.536L347.044 300.075V274.411H325.543V329.601ZM212.622 190.493V176.765H234.202V190.493H225.67V250.353L222.659 251.437V265.443L225.921 266.952V326.309H212.546V279.905L209.789 277.22H199.165L196.651 282.669L182.586 303.528L114.688 303.529V266.656L174.764 266.752V240.487L196.832 240.39V259.444H212.622V246.832L214.629 243.813L212.622 240.795V228.22L214.629 225.202L212.622 221.681V209.105L214.629 206.087L212.622 202.566V190.493ZM196.778 191.499H158.922V137.897H174.447V127.113H177.739V120.071H174.447V109.004H129.813V191.492H62.17V205.494L77.3343 220.992H92.4118V224.586H95.184V220.992H129.769V258.69H151.718V232.244H196.778V191.499ZM46.2215 265.946V236.615H17.6149V265.946H46.2215ZM279.37 379.126V311.721H242.734V349.448H197.064L181.134 334.302V319.77H144.412L144.58 385.987H273.014L279.37 379.126ZM95.184 247.838H92.4364V304.679H54.6971V333.854H98.7614V266.952L95.184 251.241V247.838Z" stroke="#B27C40"/>
<path d="M449.585 221.552H445.157V198.609H449.585V221.552Z" fill="#271406"/>
<path d="M103.383 383.131V378.604H77.286V374.58H72.2673V383.131H103.383Z" fill="#271406"/>
<path d="M449.585 221.552H445.157V198.609H449.585V221.552Z" stroke="#B27C40" stroke-width="0.5"/>
<path d="M103.383 383.131V378.604H77.286V374.58H72.2673V383.131H103.383Z" stroke="#B27C40" stroke-width="0.5"/>
<path d="M225.847 280.266H212.798M196.97 281.918V259.679M113.421 378.873C113.019 378.873 89.1637 378.873 77.2861 378.873V364.519M374.468 123.8H377.907M418.878 164.502V171.847H412.536V164.756M257.616 243.865H242.775V236.595H257.616M279.053 379.923L283.823 385.635L279.306 390.162L273.517 384.64M223.344 326.248V333.332H216.799V326.248M31.114 365.022V356.974M31.114 356.974H15.556M31.114 356.974V348.926H15.556M1.40247 212.919H16.5597V205.817M0.499807 206.381V191.436H3.09381M181.904 176.593V168.882H174.338M114.038 179.806V172.444M69.2562 191.307V183.432H62.4402V191.439M72.2708 215.756L66.245 221.158L61.499 216.49L67.3591 210.692M334.746 100.411L345.787 89.37L341.046 84.5738L330.106 95.3343M310.154 296.019V307.351H303.468V296.019M383.67 246.309V258.33H376.903V250.3M445.157 224.177V196.087H416.207V224.177H445.157ZM403.502 164.384H359.063V160.967V157.778H361.847V161.696H403.502V164.384ZM359.077 149.584V123.55H361.847V149.718L359.077 149.584Z" stroke="#B27C40"/>
<path d="M428.595 164.616H400.992M358.835 157.778V147.718M336.003 144.699V160.82H328.607M320.452 160.82H328.607M320.191 164.675H328.607V160.82M309.867 171.797V195.099M211.772 149.309H219.508V145.764M212.304 152.756V160.802H204.826V152.756M174.358 161.748V176.634H212.289M254.389 236.463V232.635M257.812 228.531H254.389V232.635M254.389 232.635H250.695V236.463M250.431 416.833C248.825 416.833 229.602 416.833 219.732 416.833M244.142 454.56V449.027H231.595V454.56M210.337 455V448.75H197.79V455M181.818 454.56V449.027H169.497V454.56M162.562 454.56V450.128H159.04M113.421 409.288H159.823M151.985 385.912V390.439M144.921 385.143V393.694H151.985V390.439M151.985 390.439H156V385.912M299.013 171.74V195.099" stroke="#B27C40" stroke-width="0.5"/>
<path d="M354.836 308.216H427.09V292.283H422.266V284.539V283.925M452.685 308.216H433.614V292.283H436.898V247.593H422.266V268.901V269.873M422.266 283.925H416.049V276.899M422.266 283.925V276.899M416.049 276.899H422.266M416.049 276.899H408.019V269.873H422.266M422.266 276.899V269.873M371.382 286.434L376.401 291.581L381.419 286.936L376.401 281.416L373.891 283.925M371.382 286.434L368.873 288.442L363.352 283.925L368.873 278.906L373.891 283.925M371.382 286.434L373.891 283.925" stroke="#B27C40"/>
<path d="M128.477 378.604H129.983M143.031 378.604H144.537M128.477 349.429H130.485M143.031 349.429H144.537M98.8177 303.151H100.373M113.078 303.151H114.425" stroke="#B27C40"/>
<path d="M125.466 303.151V307.315H121.451M121.451 307.315V303.151M121.451 307.315V310.696H115.044V303.151M46.1703 265.849H68.7545V281.358H24.088V265.424" stroke="#B27C40" stroke-width="0.5"/>
<path d="M68.7547 265.424C68.7547 264.619 68.7547 261.249 68.7547 259.405H61.2266M53.9172 259.405V265.796M53.9172 259.405H61.2266M53.9172 259.405V255.645M46.1705 251.524H53.9172V255.645M61.2266 259.405V255.645H53.9172M92.694 247.647V224.623M114.459 190.977V131.239M102.882 85.846V91.8822H117.938V85.846M102.882 85.846V81.3188H117.938V85.343V85.846M102.882 85.846H117.938M50.1855 145.038V160.573L46.3662 160.573M9.20002 160.573H28.1032M46.3662 160.573V145.038M46.3662 160.573L35.1294 160.573M35.1294 160.573V157.784H28.1032V160.573M35.1294 160.573H28.1032" stroke="#B27C40" stroke-width="0.5"/>
<path d="M234.372 62.2041V92.8883M393.333 80.3238H388.789V67.2752H379.413V62.0731" stroke="#B27C40" stroke-width="0.5"/>
<path d="M399.989 276.899H416.551V283.925H421.569V291.955H426.086V292.088H426.588V306.672H433.614V292.088H436.625V284.929H429.6V258.831H442.146V314.037H399.989V276.899Z" fill="#F08234" fill-opacity="0.23"/>
<path d="M408.306 297.906V289.906H411.369C411.947 289.906 412.427 289.997 412.81 290.18C413.195 290.359 413.483 290.606 413.673 290.918C413.866 291.231 413.962 291.585 413.962 291.981C413.962 292.306 413.9 292.585 413.775 292.816C413.65 293.046 413.482 293.232 413.271 293.375C413.06 293.518 412.824 293.621 412.564 293.684V293.762C412.848 293.777 413.12 293.865 413.38 294.024C413.643 294.18 413.858 294.401 414.025 294.688C414.192 294.974 414.275 295.32 414.275 295.727C414.275 296.141 414.175 296.513 413.974 296.844C413.774 297.172 413.472 297.431 413.068 297.621C412.664 297.811 412.156 297.906 411.544 297.906H408.306ZM409.755 296.695H411.314C411.84 296.695 412.219 296.595 412.451 296.395C412.685 296.191 412.802 295.931 412.802 295.613C412.802 295.376 412.744 295.163 412.626 294.973C412.509 294.78 412.343 294.629 412.126 294.52C411.91 294.408 411.653 294.352 411.353 294.352H409.755V296.695ZM409.755 293.309H411.189C411.439 293.309 411.664 293.263 411.865 293.172C412.065 293.078 412.223 292.947 412.337 292.777C412.455 292.606 412.513 292.402 412.513 292.168C412.513 291.858 412.404 291.603 412.185 291.402C411.969 291.202 411.647 291.102 411.22 291.102H409.755V293.309Z" fill="white"/>
<path d="M8.02783 296.611H1.50352V265.424H8.02783V296.611Z" fill="#F08234" fill-opacity="0.23"/>
<path d="M8.02734 243.291H17.0615V265.424H23.8438V281.571H69.0117V265.424H69.001V259.174H45.9502V258.628H61.4717V255.54H45.9502V243.291H76.2822V296.611H8.02734V243.291ZM53.9326 251.343H46.043V255.123H53.9326V251.343Z" fill="#F08234" fill-opacity="0.23"/>
<path d="M46.9829 294.533H45.436L48.2524 286.533H50.0415L52.8618 294.533H51.3149L49.1782 288.173H49.1157L46.9829 294.533ZM47.0337 291.396H51.2524V292.56H47.0337V291.396Z" fill="white"/>
<path d="M447.165 314.539H399.487V307.011M436.625 285.431H429.097V258.33H436.625" stroke="#B27C40" stroke-opacity="0.23"/>
<path d="M452.685 308.281H447.002V315.041" stroke="#B27C40"/>
</svg>
