<svg width="410" height="474" viewBox="0 0 410 474" fill="none" xmlns="http://www.w3.org/2000/svg">
<path d="M84.5 172V176H65.5V172H84.5Z" fill="#FB5757" fill-opacity="0.71"/>
<path d="M107.5 172V176H89.5V172H107.5Z" fill="#FB5757" fill-opacity="0.71"/>
<path d="M129.5 172V176H113.5V172H129.5Z" fill="#FB5757" fill-opacity="0.71"/>
<path d="M279.5 200V204H269.5V200H279.5Z" fill="#FB5757" fill-opacity="0.71"/>
<path d="M210.5 173.5V177.5H186.5V173.5H210.5Z" fill="#FB5757" fill-opacity="0.71"/>
<path d="M370 209V213H353.5V209H370Z" fill="#FB5757" fill-opacity="0.71"/>
<path d="M82 226V230H68.5V226H82Z" fill="#57FBA9" fill-opacity="0.71"/>
<path d="M264 300.5V324.5H260V300.5H264Z" fill="#57FBA9" fill-opacity="0.71"/>
<path d="M289 266H325V270H289V266Z" fill="#57FBA9" fill-opacity="0.71"/>
<path d="M136.5 252H132.5V238H136.5V252Z" fill="#57FBA9" fill-opacity="0.71"/>
</svg>
