<svg width="447" height="473" viewBox="0 0 447 473" fill="none" xmlns="http://www.w3.org/2000/svg">
<path fill-rule="evenodd" clip-rule="evenodd" d="M413.213 176.444V149.701H336.271V179H338.084V179.836H330.417V174.835L277.264 130.888V109.985H270.74V107.121H277.079V76.5709H273.687V74.2223H277.206V23.6223L262.443 18H221.556L216.445 22.6001V55.8223L220.534 59.4V69.1111L220.023 72.6889V76.559H193.446V83.6853H190.38V76.559H169.684L150.004 57.3556H122.405L113.411 65.5334V120.733L118.828 128.4L116.272 129.422L114.739 127.378H113.717L90.7177 142.642V151.529H33.7419L33.7419 177.099H45.231L45.1897 196.178H28.3663L10.4771 249.022H0.499807V291.562H16.8719L33.244 291.562L37.5647 286.845L41.8904 291.188L37.0453 296.027L71.3293 330.151H100.234V389.655L126.494 424.844L155.115 426.378V455H207.757L219.512 432.511H244.044V427.4H246.599V432.511H328.884L338.595 421.778L332.462 415.644L342.683 404.4L344.728 405.933L361.594 386H433.657L446.434 373.222V288.889L433.657 276.111H405.036V253.111H419.858V179.511H410.147V176.956H413.213V176.444ZM382.831 170.453V177.097H386.126V179.723H382.548L372.979 189.562V236.286H357.505V237.714H356.483V217.844H354.95V216.822H356.483V179.511H355.461V179H356.483V170.453H382.831ZM384.593 276.111V253.495H350.35V271.448L331.725 289.911H283.632V319.044H354.438L370.282 302.689L361.594 294V276.111H384.593ZM332.973 265.941V217.844V216.311C330.998 213.357 329.798 211.768 327.351 209.156L276.218 167.015H247.41V196.218H260.399V296.256H269.844V294.352H262.208V265.941H332.973ZM256.821 76.2668H253.754V74.2223H256.821V76.2668ZM233.822 76.2668L236.889 76.2667V74.2223H233.822V76.2668ZM219.001 122.778H248.132V109.489L253.521 109.489V106.933H213.89V109.489H219.001V122.778ZM196.513 109.489V106.933H193.446V100.289H190.38V103.867H167.381L167.381 196.259H220.023L220.023 166.733H190.38V109.489H196.513ZM123.427 140.156L124.961 142.711L111.161 152.232L111.161 181.556H66.1856V189.222H89.1845V215.8H137.227V239.311L143.669 246.199L146.506 236.256H167.971L170.447 245.956L176.433 239.822V236.276H190.38L190.38 210.642H153.581V167.04L156.648 167.756L156.648 167.04L136.924 167.04L136.924 156.511L125.198 139.046L123.427 140.156ZM346.772 342.556V369.133H345.239V342.556H346.772ZM416.28 361.978H392.77V363.511H416.28V361.978ZM322.751 407.978L332.973 396.222L330.928 394.689L320.707 406.444L322.751 407.978ZM244.044 415.133H246.599V409.511H244.044V415.133ZM326.329 378.844V342.556H283.397V346.133H263.662V354.067H270.62V379.356H243.022V376.289H240.294V379.356H204.179V381.911H244.044V397.244H246.599V392.133H285.953V393.667H287.997V392.133H302.819L310.996 398.267L321.218 386.511L320.707 386V384.978L326.329 378.844ZM240.294 365.842H243.117V333.446H230.244V296.044L219.699 263.333H183.736V252.089L175.558 260.393V263.333H138.76V260.267L131.094 253.111L123.938 260.267V276.295H137.317V299.663H163.972V351.18H240.294V365.842ZM176.58 364.958V381.911H137.227V375.778L126.152 365.841V364.958H176.58ZM150.221 351.193H125.983V350.148L137.303 340.068V313.53H150.221V351.193ZM233.566 220.4C228.345 220.4 224.111 224.633 224.111 229.856C224.111 235.078 228.345 239.311 233.566 239.311C238.788 239.311 243.022 235.078 243.022 229.856C243.022 224.633 238.788 220.4 233.566 220.4ZM393.026 319.556C387.804 319.556 383.57 323.789 383.57 329.011C383.57 334.233 387.804 338.467 393.026 338.467C398.247 338.467 402.481 334.233 402.481 329.011C402.481 323.789 398.247 319.556 393.026 319.556Z" fill="#271406" stroke="#B27C40"/>
<path d="M311.508 342.909V336.775H298.219V342.909M346.773 369.487H353.417V362.842H346.773M388.682 320.931L383.571 316.331L379.482 320.42L384.593 325.531M290.042 290.264V283.62H283.635V290.264M419.858 233.02H406.57V226.376H419.858" stroke="#B27C40"/>
<path d="M230.245 296.398L236.378 294.353L234.845 288.22L228.2 290.265M242.511 233.02H260.399M242.511 226.376H260.399M230.089 238.73L224.623 244.265L220.023 240.176L225.134 234.553M182.203 196.22V198.265M182.203 210.531V208.487M167.381 168.109H163.804V167.087H167.381M90.7181 151.242V164.531H84.2057V151.242M41.6538 291.798L46.7647 286.687L42.676 282.087L37.5651 287.198M89.1849 216.153H82.5407V210.531H89.1849M125.983 351.087H119.85V350.065H125.983M125.983 365.909H119.85V364.887H125.983M332.973 218.198H335.018V217.176H332.973M357.505 253.465V251.931H356.483V253.465M102.473 263.176V237.109H75.8966V263.176H102.473ZM55.9642 263.176H29.3877V237.109H55.9642V263.176ZM110.651 290.265L92.7625 308.153L86.1184 301.509L104.006 283.62L110.651 290.265ZM345.75 179.865H347.284V178.842H345.75V179.865Z" stroke="#B27C40"/>
<path d="M416.28 369.487V363.865V356.709H429.568V369.487H416.28Z" stroke="#B27C40"/>
<path d="M416.28 306.109H429.568V293.331H416.28V306.109Z" stroke="#B27C40"/>
<path d="M425.991 306.109V322.976M425.991 356.709V333.198M424.969 306.109V352.62M424.969 356.709V352.62M424.969 352.62H418.325V356.709M425.991 333.198H432.635V326.554H429.569M425.991 333.198V326.554M425.991 326.554V322.976M425.991 326.554H429.569M425.991 322.976H429.569V326.554M392.403 364.075H370.283M263.466 346.487H256.821M243.022 346.487H250.177M250.177 346.487V343.165M250.177 346.487H256.821M243.022 339.842H250.177V343.165M250.177 343.165H256.821V346.487M210.313 379.709V372.553M204.179 379.709V372.553M204.179 372.553V369.487H210.313V372.553M204.179 372.553H210.313M410.147 179.865H386.126M386.126 177.309H410.147M95.318 216.153V223.309H89.185V219.731M89.185 216.153V219.731M89.185 219.731H85.6074V216.665M75.8967 252.953H55.9644M55.9644 246.82H75.8967M144.893 167.087V159.42H136.716M119.85 365.909H100.429M119.85 364.887H100.429M119.85 351.087H100.429M119.85 350.065H100.429M290.042 432.865V429.287H285.953V432.865M250.688 432.865V429.798M246.6 429.287H250.688V429.798M252.733 432.865L253.244 431.842V430.82L252.222 429.798H250.688M246.6 411.398H248.644L249.666 412.42V412.931L248.133 413.953H247.622L247.111 413.442H246.6M246.6 397.598H248.644L249.666 395.553H250.688L251.199 394.531V392.487M265.51 322.465L253.244 326.042L251.711 319.909L263.466 316.842L265.51 322.465Z" stroke="#B27C40" stroke-width="0.5"/>
<path d="M118.827 366.42V349.553M105.539 366.42V349.553" stroke="#B27C40" stroke-opacity="0.23"/>
<path fill-rule="evenodd" clip-rule="evenodd" d="M414.747 352.62H374.882V312.753H414.747V352.62ZM388.682 320.453C389.982 319.778 391.46 319.398 393.026 319.398C398.248 319.398 402.481 323.631 402.481 328.853C402.481 334.075 398.248 338.309 393.026 338.309C387.804 338.309 383.571 334.075 383.571 328.853C383.571 327.752 383.759 326.695 384.105 325.713L378.971 320.42L383.571 315.82L388.682 320.453Z" fill="#F08234" fill-opacity="0.23"/>
<path d="M403.271 347.745V339.745H406.333C406.911 339.745 407.392 339.836 407.774 340.018C408.16 340.198 408.448 340.444 408.638 340.757C408.83 341.069 408.927 341.423 408.927 341.819C408.927 342.145 408.864 342.423 408.739 342.655C408.614 342.884 408.446 343.07 408.235 343.214C408.024 343.357 407.789 343.46 407.528 343.522V343.6C407.812 343.616 408.084 343.703 408.345 343.862C408.608 344.018 408.823 344.24 408.989 344.526C409.156 344.813 409.239 345.159 409.239 345.565C409.239 345.979 409.139 346.352 408.938 346.682C408.738 347.01 408.436 347.27 408.032 347.46C407.629 347.65 407.121 347.745 406.509 347.745H403.271ZM404.72 346.534H406.278C406.804 346.534 407.183 346.434 407.415 346.233C407.649 346.03 407.767 345.77 407.767 345.452C407.767 345.215 407.708 345.001 407.591 344.811C407.474 344.619 407.307 344.468 407.091 344.358C406.875 344.246 406.617 344.19 406.317 344.19H404.72V346.534ZM404.72 343.147H406.153C406.403 343.147 406.629 343.102 406.829 343.01C407.03 342.917 407.187 342.785 407.302 342.616C407.419 342.444 407.478 342.241 407.478 342.007C407.478 341.697 407.368 341.441 407.149 341.241C406.933 341.04 406.612 340.94 406.185 340.94H404.72V343.147Z" fill="white"/>
<path fill-rule="evenodd" clip-rule="evenodd" d="M75.3853 270.331H0.766587V249.375H10.4772L15.5881 235.575H75.3853V246.82H56.475V236.597H28.8764V263.686H56.475V252.953H75.3853V270.331Z" fill="#F08234" fill-opacity="0.23"/>
<path d="M14.8486 262.901H13.3018L16.1182 254.901H17.9072L20.7275 262.901H19.1807L17.0439 256.541H16.9814L14.8486 262.901ZM14.8994 259.764H19.1182V260.928H14.8994V259.764Z" fill="white"/>
</svg>
