<svg width="448" height="474" viewBox="0 0 448 474" fill="none" xmlns="http://www.w3.org/2000/svg">
<path fill-rule="evenodd" clip-rule="evenodd" d="M413.419 177.105V150.331H336.388V179.664H338.203V180.175H330.528V175.058L277.314 131.053V110.073H270.662V107.515H277.314V76.8128H273.732V74.766H277.314V24.1082L262.476 18.4795H221.542L216.425 23.0848V56.345L220.519 59.9269V69.6491L220.007 73.231V76.8128H193.4V83.9766H190.33V76.8128H169.61L149.908 57.8801H122.278L113.579 66.0672V121.33L118.696 129.006L116.138 130.029L114.603 127.982H113.579L90.5541 142.822V151.52H33.5131V177.44H45.0153V196.55H28.6418L10.2217 249.766H0.49992V291.98H33.0146L37.3403 287.632L41.6709 291.98L37.3403 296.33L71.1106 330.614H100.081V389.971L126.371 425.789L155.025 427.325V455.979H207.727L219.495 433.465H244.055V428.348H246.614V433.465H328.993L338.715 422.719L332.575 416.579L342.808 405.322L344.855 406.857L361.74 386.901H433.885L446.677 374.108V289.678L433.885 276.886H405.232V253.86H420.07V180.175H410.349V177.617H413.419V177.105ZM382.718 170.965V177.617H386.3V180.175H382.718L372.997 189.898V236.709H357.646V237.997H356.623V218.553H355.088V217.529H356.623V180.175H355.6V179.664H356.623V170.965H382.718ZM384.765 276.886V253.86H350.483V271.769L331.551 290.702H283.689V319.868H354.576L370.438 303.494L361.74 294.795V276.886H384.765ZM333.086 266.14V218.553V217.018C331.11 214.06 329.908 212.469 327.458 209.854L276.802 167.383H247.637V196.55H260.429V296.842H269.639V294.795H262.241V266.14H333.086ZM256.847 76.8129H253.777V74.7661H256.847V76.8129ZM233.822 76.8129L236.892 76.8128V74.7661H233.822V76.8129ZM218.984 123.377H248.149V110.073L253.544 110.073V107.515H213.867V110.073H218.984V123.377ZM196.47 110.073V107.515H193.4V100.863H190.33V104.444H167.305V196.55H220.007V167.383H190.33V110.073H196.47ZM123.301 140.775L124.836 143.333L111.021 152.544V182.222H65.9938V189.898H89.019V216.506H137.116V240.044L143.768 246.184L146.326 236.674H167.816L170.375 246.696L176.746 240.556V236.674H190.33V210.877H153.49V168.406H156.56V167.383H136.604V157.149L125.348 139.24L123.301 140.775ZM346.901 343.406V370.015H345.366V343.406H346.901ZM416.489 362.851H392.952V364.386H416.489V362.851ZM322.853 408.903L333.086 397.134L331.04 395.599L320.806 407.368L322.853 408.903ZM244.055 416.067H246.614V410.439H244.055V416.067ZM326.435 379.737V343.406H283.454V346.988H263.696V354.931H270.662V380.249H243.032V377.178H240.302V380.249H204.145V382.807H244.055V398.158H246.614V393.041H286.012V394.576H288.059V393.041H302.898L311.084 399.181L321.318 387.412L320.806 386.901V385.877L326.435 379.737ZM240.302 366.433H243.032V334H230.24V296.842L220.007 264.094H183.678V252.836L175.491 260.512V264.094H138.651V261.023L130.976 253.86L123.813 261.023V276.886H137.628V299.912H164.235V351.594H240.302V366.433ZM176.515 365.409V382.807H137.116V376.667L126.029 366.718V365.409H176.515ZM149.908 351.594H125.859V350.57L137.628 340.336V313.984H149.908V351.594ZM233.566 221.111C228.338 221.111 224.1 225.349 224.1 230.577C224.1 235.806 228.338 240.044 233.566 240.044C238.794 240.044 243.032 235.806 243.032 230.577C243.032 225.349 238.794 221.111 233.566 221.111ZM393.208 320.38C387.98 320.38 383.742 324.618 383.742 329.846C383.742 335.075 387.98 339.313 393.208 339.313C398.435 339.313 402.674 335.075 402.674 329.846C402.674 324.618 398.435 320.38 393.208 320.38Z" fill="#271406" stroke="#B27C40"/>
<path d="M311.596 343.406V337.266H298.293V343.406M346.901 370.014H353.553V363.362H346.901M388.858 321.403L383.742 316.798L379.648 320.892L384.765 326.009M290.106 290.702V284.049H283.692V290.702M420.07 233.392H406.767V226.74H420.07" stroke="#B27C40"/>
<path d="M230.24 296.842L236.38 294.795L234.845 288.655L228.194 290.702M242.52 233.392H260.429M242.52 226.74H260.429M229.729 239.532L224.612 244.649L220.007 240.555L225.124 234.927M182.143 196.55V198.596M182.143 210.877V208.83M167.305 168.406H163.723V167.383H167.305M90.5541 151.52V164.824H84.414V151.52M41.4337 292.237L46.5504 287.12L42.457 282.514L37.3403 287.631M89.0191 216.506H82.3674V210.877H89.0191M125.859 351.593H119.719V350.57H125.859M125.859 366.433H119.719V365.409H125.859M333.086 218.553H335.133V217.529H333.086M357.646 253.86V252.324H356.623V253.86M102.323 263.582V237.485H75.7156V263.582H102.323ZM55.7604 263.582H29.1535V237.485H55.7604V263.582ZM110.509 290.702L92.6008 308.611L85.9491 301.959L103.858 284.05L110.509 290.702ZM345.878 180.175H347.413V179.152H345.878V180.175Z" stroke="#B27C40"/>
<path d="M416.489 370.014V364.386V357.222H429.792V370.014H416.489Z" stroke="#B27C40"/>
<path d="M416.489 306.564H429.792V293.772H416.489V306.564Z" stroke="#B27C40"/>
<path d="M426.211 306.565V323.45M426.211 357.222V333.684M425.187 306.565V353.129M425.187 357.222V353.129M425.187 353.129H418.536V357.222M426.211 333.684H432.862V327.032H429.792M426.211 333.684V327.032M426.211 327.032V323.45M426.211 327.032H429.792M426.211 323.45H429.792V327.032M392.584 364.596H370.438M263.499 346.988H256.847M243.032 346.988H250.196M250.196 346.988V343.662M250.196 346.988H256.847M243.032 340.336H250.196V343.662M250.196 343.662H256.847V346.988M210.285 380.248V373.085M204.145 380.248V373.085M204.145 373.085V370.015H210.285V373.085M204.145 373.085H210.285M410.349 180.175H386.3M386.3 177.617H410.349M95.1593 216.506V223.67H89.0192V220.088M89.0192 216.506V220.088M89.0192 220.088H85.4375V217.017M75.7158 253.348H55.7606M55.7606 247.208H75.7158M144.791 167.383V159.708H136.605M119.72 366.433H100.276M119.72 365.409H100.276M119.72 351.593H100.276M119.72 350.57H100.276M290.106 433.465V429.883H286.013V433.465M250.707 433.465V430.395M246.614 429.883H250.707V430.395M252.754 433.465L253.266 432.441V431.418L252.242 430.395H250.707M246.614 411.974H248.661L249.684 412.997V413.509L248.149 414.532H247.637L247.126 414.02H246.614M246.614 398.158H248.661L249.684 396.111H250.707L251.219 395.088V393.041M265.546 322.939L253.266 326.52L251.731 320.38L263.499 317.31L265.546 322.939Z" stroke="#B27C40" stroke-width="0.5"/>
<path d="M118.696 366.944V350.058M105.392 366.944V350.058" stroke="#B27C40" stroke-opacity="0.23"/>
<path fill-rule="evenodd" clip-rule="evenodd" d="M414.954 353.128H375.043V313.216H414.954V353.128ZM388.858 320.924C390.161 320.249 391.64 319.868 393.208 319.868C398.435 319.868 402.674 324.106 402.674 329.335C402.674 334.563 398.435 338.801 393.208 338.801C387.98 338.801 383.742 334.563 383.742 329.335C383.742 328.232 383.93 327.174 384.276 326.19L379.137 320.892L383.742 316.286L388.858 320.924Z" fill="#F08234" fill-opacity="0.23"/>
<path d="M403.463 348.235V340.235H406.525C407.104 340.235 407.584 340.326 407.967 340.509C408.352 340.688 408.64 340.935 408.83 341.247C409.023 341.56 409.119 341.914 409.119 342.31C409.119 342.635 409.057 342.914 408.932 343.146C408.807 343.375 408.639 343.561 408.428 343.704C408.217 343.847 407.981 343.95 407.721 344.013V344.091C408.005 344.106 408.277 344.194 408.537 344.353C408.8 344.509 409.015 344.73 409.182 345.017C409.348 345.303 409.432 345.649 409.432 346.056C409.432 346.47 409.331 346.842 409.131 347.173C408.93 347.501 408.628 347.76 408.225 347.95C407.821 348.14 407.313 348.235 406.701 348.235H403.463ZM404.912 347.024H406.471C406.997 347.024 407.376 346.924 407.607 346.724C407.842 346.521 407.959 346.26 407.959 345.942C407.959 345.705 407.9 345.492 407.783 345.302C407.666 345.109 407.499 344.958 407.283 344.849C407.067 344.737 406.809 344.681 406.51 344.681H404.912V347.024ZM404.912 343.638H406.346C406.596 343.638 406.821 343.592 407.021 343.501C407.222 343.407 407.38 343.276 407.494 343.106C407.611 342.935 407.67 342.731 407.67 342.497C407.67 342.187 407.561 341.932 407.342 341.731C407.126 341.531 406.804 341.431 406.377 341.431H404.912V343.638Z" fill="white"/>
<path fill-rule="evenodd" clip-rule="evenodd" d="M75.2036 270.745H0.499603V249.766H10.2214L15.3381 235.95H75.2036V247.207H56.2718V236.973H28.6415V264.093H56.2718V253.348H75.2036V270.745Z" fill="#F08234" fill-opacity="0.23"/>
<path d="M14.5962 263.294H13.0493L15.8657 255.294H17.6548L20.4751 263.294H18.9282L16.7915 256.934H16.729L14.5962 263.294ZM14.647 260.157H18.8657V261.321H14.647V260.157Z" fill="white"/>
</svg>
