<svg width="448" height="474" viewBox="0 0 448 474" fill="none" xmlns="http://www.w3.org/2000/svg">
<path fill-rule="evenodd" clip-rule="evenodd" d="M33.7586 296.895V323.669H110.789V294.336H108.974V293.825H116.649V298.942L169.863 342.948V363.927H176.515V366.486H169.863V397.187H173.445V399.234H169.863V449.892L184.702 455.521H225.635L230.752 450.915V417.655L226.659 414.073V404.351L227.17 400.769V397.187H253.777V390.024H256.847V397.187H277.567L297.269 416.12H324.9L333.598 407.933V352.67L328.481 344.994L331.04 343.971L332.575 346.018H333.598L356.623 331.179V322.48H413.664V296.56H402.162V277.45H418.535L436.956 224.234H446.677V182.02H414.163L409.837 186.369L405.506 182.02L409.837 177.67L376.067 143.386H347.096V84.0294L320.806 48.2107L292.153 46.6756V18.0206H239.45L227.682 40.5352H203.122V45.6522H200.563V40.5352H118.184L108.463 51.2809L114.603 57.4212L104.369 68.6785L102.323 67.1434L85.4374 87.0996H13.2918L0.5 99.892V184.322L13.2918 197.114H41.9454V220.14H27.1069V293.825H36.8287V296.383H33.7586V296.895ZM64.4589 303.035V296.383H60.8772V293.825H64.4589L74.1807 284.102V237.291H89.5308V236.003H90.5541V255.448H92.0892V256.471H90.5541V293.825H91.5775V294.336H90.5541V303.035H64.4589ZM62.4122 197.114V220.14H96.6942V202.231L115.626 183.298H163.488V154.132H92.6008L76.739 170.506L85.4374 179.205V197.114H62.4122ZM114.091 207.86V255.448V256.983C116.068 259.94 117.269 261.531 119.719 264.146L170.375 306.617H199.54V277.45H186.748V177.158H177.538V179.205H184.936V207.86H114.091ZM190.33 397.187H193.4V399.234H190.33V397.187ZM213.355 397.187L210.285 397.187V399.234H213.355V397.187ZM228.194 350.623H199.028V363.927L193.633 363.927V366.486H233.31V363.927H228.194V350.623ZM250.707 363.927V366.486H253.777V373.138H256.847V369.556H279.872V277.45H227.17V306.617H256.847V363.927H250.707ZM323.876 333.225L322.341 330.667L336.156 321.456V291.778H381.183V284.102H358.158V257.494H310.061V233.956L303.409 227.816L300.851 237.326H279.361L276.802 227.304L270.431 233.445V237.326H256.847V263.123H293.688V305.594H290.618V306.617H310.573V316.851L321.83 334.76L323.876 333.225ZM100.276 130.594V103.986H101.811V130.594H100.276ZM30.6886 111.149H54.2255V109.614H30.6886V111.149ZM124.324 65.0966L114.091 76.8657L116.138 78.4007L126.371 66.6317L124.324 65.0966ZM203.122 57.9329H200.563V63.5616H203.122V57.9329ZM120.743 94.2633V130.594H163.723V127.012H183.481V119.07H176.515V93.7516H204.145V96.8218H206.875V93.7516H243.032V91.1931H203.122V75.8423H200.563V80.9592H161.165V79.4241H159.118V80.9592H144.28L136.093 74.8189L125.859 86.5879L126.371 87.0996V88.123L120.743 94.2633ZM206.875 107.567H204.145V140H216.937V177.158L227.17 209.907H263.499V221.164L271.686 213.488V209.907H308.526V212.977L316.201 220.14L323.365 212.977V197.114H309.549V174.088H282.943V122.407H206.875V107.567ZM270.662 108.591V91.1931H310.061V97.3335L321.149 107.282V108.591H270.662ZM297.269 122.407H321.318V123.43L309.549 133.664V160.016H297.269V122.407ZM213.611 252.889C218.839 252.889 223.077 248.651 223.077 243.423C223.077 238.195 218.839 233.956 213.611 233.956C208.383 233.956 204.145 238.195 204.145 243.423C204.145 248.651 208.383 252.889 213.611 252.889ZM53.9696 153.62C59.1975 153.62 63.4356 149.382 63.4356 144.154C63.4356 138.926 59.1975 134.687 53.9696 134.687C48.7418 134.687 44.5037 138.926 44.5037 144.154C44.5037 149.382 48.7418 153.62 53.9696 153.62Z" fill="#271406" stroke="#B27C40"/>
<path d="M135.581 130.594V136.734H148.885V130.594M100.276 103.985H93.6242V110.638H100.276M58.3189 152.597L63.4356 157.202L67.529 153.108L62.4122 147.991M157.071 183.298V189.95H163.486V183.298M27.1069 240.608H40.4104V247.26H27.1069" stroke="#B27C40"/>
<path d="M216.937 177.158L210.797 179.205L212.332 185.345L218.984 183.298M204.657 240.608H186.748M204.657 247.26H186.748M217.449 234.468L222.565 229.351L227.17 233.445L222.054 239.073M265.034 277.45V275.404M265.034 263.123V265.17M279.872 305.594H283.454V306.617H279.872M356.623 322.48V309.176H362.763V322.48M405.744 181.763L400.627 186.88L404.72 191.486L409.837 186.369M358.158 257.494H364.81V263.123H358.158M321.318 122.407H327.458V123.43H321.318M321.318 107.567H327.458V108.591H321.318M114.091 255.447H112.044V256.471H114.091M89.5308 220.14V221.676H90.5541V220.14M344.855 210.418V236.515H371.462V210.418H344.855ZM391.417 210.418H418.024V236.515H391.417V210.418ZM336.668 183.298L354.576 165.389L361.228 172.041L343.32 189.95L336.668 183.298ZM101.299 293.825H99.7642V294.848H101.299V293.825Z" stroke="#B27C40"/>
<path d="M30.6882 103.985V109.614V116.778H17.3848V103.985H30.6882Z" stroke="#B27C40"/>
<path d="M30.6882 167.436H17.3848V180.228H30.6882V167.436Z" stroke="#B27C40"/>
<path d="M20.9667 167.436V150.55M20.9667 116.778V140.316M21.99 167.436V120.871M21.99 116.778V120.871M21.99 120.871H28.6417V116.778M20.9667 140.316H14.3149V146.968H17.385M20.9667 140.316V146.968M20.9667 146.968V150.55M20.9667 146.968H17.385M20.9667 150.55H17.385V146.968M54.5932 109.404H76.7388M183.678 127.012H190.33M204.145 127.012H196.982M196.982 127.012V130.338M196.982 127.012H190.33M204.145 133.664H196.982V130.338M196.982 130.338H190.33V127.012M236.892 93.7517V100.915M243.032 93.7517V100.915M243.032 100.915V103.986H236.892V100.915M243.032 100.915H236.892M36.8285 293.825H60.877M60.877 296.383H36.8285M352.018 257.494V250.331H358.158V253.912M358.158 257.494V253.912M358.158 253.912H361.74V256.983M371.461 220.652H391.417M391.417 226.793H371.461M302.386 306.617V314.293H310.573M327.458 107.567H346.901M327.458 108.591H346.901M327.458 122.407H346.901M327.458 123.43H346.901M157.071 40.5353V44.1171H161.165V40.5353M196.47 40.5353V43.6055M200.563 44.1171H196.47V43.6055M194.423 40.5353L193.912 41.5587V42.5821L194.935 43.6055H196.47M200.563 62.0265H198.517L197.493 61.0031V60.4914L199.028 59.468H199.54L200.052 59.9797H200.563M200.563 75.8423H198.517L197.493 77.8891H196.47L195.958 78.9125V80.9593M181.631 151.062L193.912 147.48L195.447 153.62L183.678 156.69L181.631 151.062Z" stroke="#B27C40" stroke-width="0.5"/>
<path d="M328.481 107.056V123.942M341.785 107.056V123.942" stroke="#B27C40" stroke-opacity="0.23"/>
<path fill-rule="evenodd" clip-rule="evenodd" d="M32.2236 120.871H72.134V160.784H32.2236V120.871ZM58.3189 153.076C57.0166 153.75 55.5377 154.132 53.9697 154.132C48.7418 154.132 44.5037 149.893 44.5037 144.665C44.5037 139.437 48.7418 135.199 53.9697 135.199C59.1975 135.199 63.4356 139.437 63.4356 144.665C63.4356 145.767 63.2472 146.826 62.901 147.809L68.0406 153.108L63.4356 157.714L58.3189 153.076Z" fill="#F08234" fill-opacity="0.23"/>
<path d="M37.106 134.43V126.43H40.1685C40.7466 126.43 41.2271 126.521 41.6099 126.703C41.9953 126.883 42.283 127.129 42.4731 127.442C42.6659 127.754 42.7622 128.108 42.7622 128.504C42.7622 128.83 42.6997 129.108 42.5747 129.34C42.4497 129.569 42.2817 129.755 42.0708 129.899C41.8599 130.042 41.6242 130.145 41.3638 130.207V130.285C41.6476 130.301 41.9198 130.388 42.1802 130.547C42.4432 130.703 42.658 130.925 42.8247 131.211C42.9914 131.498 43.0747 131.844 43.0747 132.25C43.0747 132.664 42.9744 133.037 42.7739 133.367C42.5734 133.696 42.2713 133.955 41.8677 134.145C41.464 134.335 40.9562 134.43 40.3442 134.43H37.106ZM38.5552 133.219H40.1138C40.6398 133.219 41.0187 133.119 41.2505 132.918C41.4849 132.715 41.6021 132.455 41.6021 132.137C41.6021 131.9 41.5435 131.686 41.4263 131.496C41.3091 131.304 41.1424 131.153 40.9263 131.043C40.7101 130.931 40.4523 130.875 40.1528 130.875H38.5552V133.219ZM38.5552 129.832H39.9888C40.2388 129.832 40.464 129.787 40.6646 129.696C40.8651 129.602 41.0226 129.47 41.1372 129.301C41.2544 129.129 41.313 128.926 41.313 128.692C41.313 128.382 41.2036 128.127 40.9849 127.926C40.7687 127.726 40.4471 127.625 40.02 127.625H38.5552V129.832Z" fill="white"/>
<path fill-rule="evenodd" clip-rule="evenodd" d="M371.974 203.255H446.678V224.234H436.956L431.839 238.05H371.974V226.793H390.905V237.026H418.536V209.907H390.905V220.652H371.974V203.255Z" fill="#F08234" fill-opacity="0.23"/>
<path d="M428.027 219.372H426.48L429.297 211.372H431.086L433.906 219.372H432.359L430.223 213.012H430.16L428.027 219.372ZM428.078 216.235H432.297V217.399H428.078V216.235Z" fill="white"/>
</svg>
