<svg width="458" height="473" viewBox="0 0 458 473" fill="none" xmlns="http://www.w3.org/2000/svg">
<path d="M354 137C354 138.105 353.105 139 352 139C350.895 139 350 138.105 350 137C350 135.895 350.895 135 352 135C353.105 135 354 135.895 354 137Z" fill="#171717"/>
<path d="M353 137C353 137.552 352.552 138 352 138C351.448 138 351 137.552 351 137C351 136.448 351.448 136 352 136C352.552 136 353 136.448 353 137Z" fill="white"/>
<path d="M134 154C134 155.105 133.105 156 132 156C130.895 156 130 155.105 130 154C130 152.895 130.895 152 132 152C133.105 152 134 152.895 134 154Z" fill="#171717"/>
<path d="M133 154C133 154.552 132.552 155 132 155C131.448 155 131 154.552 131 154C131 153.448 131.448 153 132 153C132.552 153 133 153.448 133 154Z" fill="white"/>
<path d="M82 360C82 361.105 81.1046 362 80 362C78.8954 362 78 361.105 78 360C78 358.895 78.8954 358 80 358C81.1046 358 82 358.895 82 360Z" fill="#171717"/>
<path d="M81 360C81 360.552 80.5523 361 80 361C79.4477 361 79 360.552 79 360C79 359.448 79.4477 359 80 359C80.5523 359 81 359.448 81 360Z" fill="white"/>
<path d="M378 372C378 373.105 377.105 374 376 374C374.895 374 374 373.105 374 372C374 370.895 374.895 370 376 370C377.105 370 378 370.895 378 372Z" fill="#171717"/>
<path d="M377 372C377 372.552 376.552 373 376 373C375.448 373 375 372.552 375 372C375 371.448 375.448 371 376 371C376.552 371 377 371.448 377 372Z" fill="white"/>
</svg>
