<svg width="393" height="474" viewBox="0 0 393 474" fill="none" xmlns="http://www.w3.org/2000/svg">
<path d="M42 332C42 333.105 41.1046 334 40 334C38.8954 334 38 333.105 38 332C38 330.895 38.8954 330 40 330C41.1046 330 42 330.895 42 332Z" fill="#171717"/>
<path d="M41 332C41 332.552 40.5523 333 40 333C39.4477 333 39 332.552 39 332C39 331.448 39.4477 331 40 331C40.5523 331 41 331.448 41 332Z" fill="white"/>
<path d="M371 264C371 265.105 370.105 266 369 266C367.895 266 367 265.105 367 264C367 262.895 367.895 262 369 262C370.105 262 371 262.895 371 264Z" fill="#171717"/>
<path d="M370 264C370 264.552 369.552 265 369 265C368.448 265 368 264.552 368 264C368 263.448 368.448 263 369 263C369.552 263 370 263.448 370 264Z" fill="white"/>
</svg>
