<svg width="469" height="473" viewBox="0 0 469 473" fill="none" xmlns="http://www.w3.org/2000/svg">
<path d="M45.6955 265.404H36.3765V283.773H45.6955V265.404Z" fill="#271406"/>
<path d="M147.176 124.163H143.545V160.052H147.176V124.163Z" fill="#271406"/>
<path d="M141.924 350.898C141.924 353.665 139.681 355.908 136.914 355.908C134.147 355.908 131.904 353.665 131.904 350.898C131.904 348.131 134.147 345.888 136.914 345.888C139.681 345.888 141.924 348.131 141.924 350.898Z" fill="#271406"/>
<path fill-rule="evenodd" clip-rule="evenodd" d="M108.212 403.939V353.901L77.9738 353.901V368.53H17.7179V331.855H18.7886V284.033L0.5 284.033V271.072L18.8023 252.457V160.052V153.201H30.8476L37.9022 160.052H50.2376V156.972H42.6357V130.764H120.502V160.368H124.171V109.492H147.334L193.366 93.6091H240.397V45.0103C241 29.5656 252.482 18.0059 267.877 18.0059C283.271 18.0059 294.88 29.9293 295.82 45.0103V51.1064H380.455L441.502 112.156V159.286H419.055V161.241L434.168 161.241V198.497H400.881V220.294H408.226V209.018H442.565L468.168 234.761V257.647L441.358 295.873H406.306V288.271L395.454 288.271V295.873H369.49V352.154L328.741 392.688H295.776V454.766H205.324V414.609L194.582 403.939H108.212ZM63.2687 240.632V244.687V269.013L62.6956 332.262H155.362V381.637H171.963V289.348H204.821L212.345 296.872H214.351V260.189H231.738L238.327 254.107C238.625 252.562 237.376 251.93 236.019 251.782H229.937V250.262H181.247V265.465H165.575H151.153L136.106 254.316H99.4002V226.552H106.642V217.321H79.8307V221.544L55.8032 221.543V235.341H63.2687V240.632ZM120.36 232.063V197.048H124.106V208.12H143.265V178.297H170.982V133.978H188.156V143.316L229.157 143.316V119.573L261.683 119.571V108.649L265.213 108.626V80.8307L269.161 81.0903V106.9L281.864 106.666V110.823H265.38V119.002L254.732 154.409L207.329 168.599V219.289H173.833V232.063H120.36ZM63.1933 145.391V160.421H105.563V145.391H63.1933ZM45.6955 265.404H36.3765V283.773H45.6955V265.404ZM218.287 219.538V198.998H223.798L255.36 184.469L267.722 184.373V176.954H269.889V210.02H317.985V217.535H309.969V239.693H262.374V263.768H247.675V219.538H218.287ZM147.176 124.163H143.545V160.052H147.176V124.163ZM215.354 403.204L205.762 394.386L210.679 389.376V340.006H201.31V309.411H217.267L237.925 329.975H264.477L264.389 333.815H262.889L262.879 356.057H307.642V367.091H302.454L298.614 359.568H225.385V393.674L215.354 403.204ZM284.671 183.365V195.021H309.504V146.344H322.68L341.432 154.984H367.785V133.699H363.224L352.074 122.55L357.142 117.482L352.074 112.414L347.006 116.975L336.364 106.332V87.5809H333.323L329.269 89.6081H295.558V80.2382H291.766V119.002H276.055V123.056L278.083 130.658V153.971L284.671 168.161V183.365ZM360.307 104.27L364.821 99.7555L354.608 89.7242V66.1505H366.264L373.36 76.1818V86.2132L395.658 108.784H408.328V115.806H371.839L360.307 104.27ZM284.57 319.236V333.486H318.677V367.091H324.498L327.705 359.568V269.787H384.884L421.619 261.011V253.606L367.831 234.677V220.294H379.367V198.564L375.137 198.497V177.956H341.939V232.017L351.061 241.582V264.452H288.218V259.756H284.57V277.654H299.368V319.236H284.57ZM136.914 355.908C139.681 355.908 141.924 353.665 141.924 350.898C141.924 348.131 139.681 345.888 136.914 345.888C134.147 345.888 131.904 348.131 131.904 350.898C131.904 353.665 134.147 355.908 136.914 355.908Z" fill="#271406"/>
<path d="M45.6955 265.404H36.3765V283.773H45.6955V265.404Z" stroke="#B27C40"/>
<path d="M147.176 124.163H143.545V160.052H147.176V124.163Z" stroke="#B27C40"/>
<path d="M141.924 350.898C141.924 353.665 139.681 355.908 136.914 355.908C134.147 355.908 131.904 353.665 131.904 350.898C131.904 348.131 134.147 345.888 136.914 345.888C139.681 345.888 141.924 348.131 141.924 350.898Z" stroke="#B27C40"/>
<path fill-rule="evenodd" clip-rule="evenodd" d="M108.212 403.939V353.901L77.9738 353.901V368.53H17.7179V331.855H18.7886V284.033L0.5 284.033V271.072L18.8023 252.457V160.052V153.201H30.8476L37.9022 160.052H50.2376V156.972H42.6357V130.764H120.502V160.368H124.171V109.492H147.334L193.366 93.6091H240.397V45.0103C241 29.5656 252.482 18.0059 267.877 18.0059C283.271 18.0059 294.88 29.9293 295.82 45.0103V51.1064H380.455L441.502 112.156V159.286H419.055V161.241L434.168 161.241V198.497H400.881V220.294H408.226V209.018H442.565L468.168 234.761V257.647L441.358 295.873H406.306V288.271L395.454 288.271V295.873H369.49V352.154L328.741 392.688H295.776V454.766H205.324V414.609L194.582 403.939H108.212ZM63.2687 240.632V244.687V269.013L62.6956 332.262H155.362V381.637H171.963V289.348H204.821L212.345 296.872H214.351V260.189H231.738L238.327 254.107C238.625 252.562 237.376 251.93 236.019 251.782H229.937V250.262H181.247V265.465H165.575H151.153L136.106 254.316H99.4002V226.552H106.642V217.321H79.8307V221.544L55.8032 221.543V235.341H63.2687V240.632ZM120.36 232.063V197.048H124.106V208.12H143.265V178.297H170.982V133.978H188.156V143.316L229.157 143.316V119.573L261.683 119.571V108.649L265.213 108.626V80.8307L269.161 81.0903V106.9L281.864 106.666V110.823H265.38V119.002L254.732 154.409L207.329 168.599V219.289H173.833V232.063H120.36ZM63.1933 145.391V160.421H105.563V145.391H63.1933ZM45.6955 265.404H36.3765V283.773H45.6955V265.404ZM218.287 219.538V198.998H223.798L255.36 184.469L267.722 184.373V176.954H269.889V210.02H317.985V217.535H309.969V239.693H262.374V263.768H247.675V219.538H218.287ZM147.176 124.163H143.545V160.052H147.176V124.163ZM215.354 403.204L205.762 394.386L210.679 389.376V340.006H201.31V309.411H217.267L237.925 329.975H264.477L264.389 333.815H262.889L262.879 356.057H307.642V367.091H302.454L298.614 359.568H225.385V393.674L215.354 403.204ZM284.671 183.365V195.021H309.504V146.344H322.68L341.432 154.984H367.785V133.699H363.224L352.074 122.55L357.142 117.482L352.074 112.414L347.006 116.975L336.364 106.332V87.5809H333.323L329.269 89.6081H295.558V80.2382H291.766V119.002H276.055V123.056L278.083 130.658V153.971L284.671 168.161V183.365ZM360.307 104.27L364.821 99.7555L354.608 89.7242V66.1505H366.264L373.36 76.1818V86.2132L395.658 108.784H408.328V115.806H371.839L360.307 104.27ZM284.57 319.236V333.486H318.677V367.091H324.498L327.705 359.568V269.787H384.884L421.619 261.011V253.606L367.831 234.677V220.294H379.367V198.564L375.137 198.497V177.956H341.939V232.017L351.061 241.582V264.452H288.218V259.756H284.57V277.654H299.368V319.236H284.57ZM136.914 355.908C139.681 355.908 141.924 353.665 141.924 350.898C141.924 348.131 139.681 345.888 136.914 345.888C134.147 345.888 131.904 348.131 131.904 350.898C131.904 353.665 134.147 355.908 136.914 355.908Z" stroke="#B27C40"/>
<path d="M170.978 133.699V127.447H178.748V130.741M178.748 133.699V130.741M178.748 130.741H182.125V133.699M124.255 160.052V178.579H120.162V183.588H97.0787V192.185H120.36V197.048M143.342 160.052V178.297" stroke="#B27C40"/>
<path d="M135.674 331.855V346.552M131.112 331.855V376.96M201.05 332.984H194.79V340.006M194.79 383.141V340.006M201.05 340.006H194.79" stroke="#B27C40"/>
<path d="M206.118 340.006V344.525H210.679" stroke="#B27C40"/>
<path d="M232.816 219.538V226.787H240.58V219.538" stroke="#B27C40"/>
<path d="M173.983 232.063H203.257" stroke="#B27C40"/>
<path d="M120.558 239.693V232.671H128.081V239.693H120.558Z" stroke="#B27C40"/>
<path d="M15.2446 283.71V276.93H18.8023V283.71" stroke="#B27C40"/>
<path d="M36.8491 350.1H33.3015V342.498H47.4917V350.1H43.9442M36.8491 350.1V353.647H43.9442V350.1M36.8491 350.1H43.9442" stroke="#B27C40"/>
<path d="M18.7663 194.874H26.0949M18.7663 202.763H40.9086V194.874H29.5706M26.0949 194.874H29.5706M26.0949 194.874V191.65M18.7663 187.922H26.0949V191.65M29.5706 194.874V191.65H26.0949M69.7906 160.421V167.654M69.7906 167.654L70.051 170.942M69.7906 167.654H76.8013M78.0146 160.421V167.654H76.8013M80.4332 217.32V209.718H87.5283V217.32M62.7649 160.421C62.7649 160.822 62.7649 167.602 62.7649 170.942H70.051M70.051 170.942L71.4953 177.956L78.5092 176.453L76.8013 167.654" stroke="#B27C40"/>
<path d="M151.655 231.562V236.071H193.448" stroke="#B27C40"/>
<path d="M247.845 257.614L238.723 264.709" stroke="#B27C40"/>
<path d="M251.352 264.127V289.177H258.824V263.626" stroke="#B27C40"/>
<path d="M261.865 263.438H265.92V240.079" stroke="#B27C40"/>
<path d="M291.766 195.021V202.116M291.766 209.718V202.116M291.766 202.116H295.82V209.718M323.187 247.727V255.329H330.789V247.727H323.187Z" stroke="#B27C40"/>
<path d="M342.032 177.875H334.937V184.97H342.032M281.864 106.332C281.864 105.927 281.864 99.2685 281.864 95.8899H269.161V106.332H281.864Z" stroke="#B27C40"/>
<path d="M205.104 445.357H235.512V455.006M205.104 429.707H208.584V420.76H205.104M257.811 455.006L257.811 445.254H295.839M295.778 420.691H292.434V429.716H295.44M328.506 329.975H341.248V352.05M369.305 324.363H362.024V331.96H369.305M341.456 282.281V283.801H340.442V314.209H341.456V315.729H338.922V282.281H341.456ZM341.456 282.281H348.044M419.163 159.396V133.192M419.163 133.192H416.944M419.163 133.192H420.998M420.998 133.192V159.039M420.998 133.192C420.998 132.787 420.998 128.969 420.998 127.111M420.998 127.111H424.039M420.998 127.111H416.944M436.044 259.786L444.659 245.089L451.18 248.778L442.564 263.475L436.044 259.786ZM382.482 140.794V157.012H389.577V149.917H404.274V140.794H382.482Z" stroke="#B27C40"/>
<path d="M354.608 65.6489H347.006V69.3364M354.608 69.8432H350.807M350.807 69.8432H347.006V69.3364M350.807 69.8432V73.3907H354.608M347.513 70.35H310.01V69.3364H347.006" stroke="#B27C40"/>
<path d="M416.943 125.083V126.604H418.464V127.611H420.496V132.684H418.464V159.08H419.164V161.588H434.211V176.929H375.387V115.961H407.821L416.943 125.083ZM381.975 157.518H390.084V150.423H404.78V140.287H381.975V157.518Z" fill="#F08234" fill-opacity="0.23"/>
<path d="M405.077 164.971H403.53L406.346 156.971H408.135L410.956 164.971H409.409L407.272 158.611H407.21L405.077 164.971ZM405.128 161.834H409.346V162.998H405.128V161.834Z" fill="white"/>
<path d="M107.168 209.519H98.9312V217.033H79.2944V221.542L66.1997 221.375V170.942H70.0972L71.1274 177.956L78.8501 176.453L76.7915 167.936H78.3354V160.922L66.1997 160.43V160.421H107.168V209.519ZM79.9263 216.876H88.0356V209.187H79.9263V216.876ZM98.187 192.484H106.084V183.467H98.187V192.484Z" fill="#F08234" fill-opacity="0.23"/>
<path d="M80.7155 193.351V185.351H83.778C84.3561 185.351 84.8366 185.442 85.2194 185.625C85.6048 185.804 85.8926 186.05 86.0827 186.363C86.2754 186.675 86.3718 187.03 86.3718 187.425C86.3718 187.751 86.3093 188.03 86.1843 188.261C86.0593 188.491 85.8913 188.677 85.6804 188.82C85.4694 188.963 85.2337 189.066 84.9733 189.129V189.207C85.2572 189.222 85.5293 189.31 85.7897 189.468C86.0528 189.625 86.2676 189.846 86.4343 190.132C86.6009 190.419 86.6843 190.765 86.6843 191.172C86.6843 191.586 86.584 191.958 86.3835 192.289C86.183 192.617 85.8809 192.876 85.4772 193.066C85.0736 193.256 84.5658 193.351 83.9538 193.351H80.7155ZM82.1647 192.14H83.7233C84.2494 192.14 84.6283 192.04 84.86 191.839C85.0944 191.636 85.2116 191.376 85.2116 191.058C85.2116 190.821 85.153 190.608 85.0358 190.418C84.9186 190.225 84.752 190.074 84.5358 189.964C84.3197 189.852 84.0619 189.797 83.7624 189.797H82.1647V192.14ZM82.1647 188.754H83.5983C83.8483 188.754 84.0736 188.708 84.2741 188.617C84.4746 188.523 84.6322 188.392 84.7468 188.222C84.864 188.05 84.9225 187.847 84.9225 187.613C84.9225 187.303 84.8132 187.048 84.5944 186.847C84.3783 186.647 84.0567 186.547 83.6296 186.547H82.1647V188.754Z" fill="white"/>
<path d="M124.284 178.297H142.769M123.511 160.052C123.916 160.052 137.225 160.054 143.475 160.054M104.521 191.149V184.579H97.9884V191.149H104.521Z" stroke="#B27C40" stroke-opacity="0.23"/>
</svg>
