<svg width="467" height="473" viewBox="0 0 467 473" fill="none" xmlns="http://www.w3.org/2000/svg">
<path fill-rule="evenodd" clip-rule="evenodd" d="M16.9805 296.574V214.172H0.5V106.251H32.9294V134.959H77.5864V110.504H73.3333V86.0487H139.255V112.099H204.646V18H243.987V83.9221H315.225V56.809H409.855V84.9854H388.058V88.1752H391.248V95.618H436.968V113.162H465.676V130.174H463.55V188.653H465.676V204.602H455.044L425.272 183.337H390.185V234.373H401.349V217.893H432.715V280.094H447.601V308.27H424.741V360.123H331.706V397.584H247.708V455H229.101L214.215 453.937V452.342L195.077 453.937V452.342H183.381V401.305H185.507V395.771H178.064V399.71H107.889V386.951H67.4854V288.068H79.7129V281.157H52.5998V296.574H16.9805ZM293.96 100.934V108.909H343.401V131.769H357.615V110.504H366.793L372.109 104.124V88.1752H375.299V84.9854H349.781V74.8844H346.855V100.934H293.96ZM392.311 108.909V134.959H424.741V108.909H392.311ZM338.617 157.819L325.858 181.742V183.869H333.3V200.349L327.984 210.982V231.184H357.755V213.64H373.173V198.754H350.313V162.072L344.465 149.313H343.401V157.819H338.617ZM240.797 216.298V264.676H238.67V288.068H279.074V281.157H292.365V310.928H363.603V288.068H394.97V291.79H397.096V280.094H404.539V257.234H397.096L381.679 273.182H357.755V248.196H338.617V264.145H306.719L294.491 251.917V182.805H282.796V210.45H236.012V213.64C236.381 215.036 236.79 215.663 238.139 216.298H240.797ZM115.864 343.889H146.698V319.966H161.052V336.446H188.165V319.966H190.824V332.193H238.67V304.549H279.074V327.94H380.084V304.549H394.97V300.827H397.096V311.46H389.122V334.32H293.428V376.319H247.708V364.623H237.075V378.445H144.04L140.319 374.192V355.054H115.864V343.889ZM169.027 223.209H162.647V167.282H188.697V131.769H204.646V138.148H231.227V112.099L240.265 100.934H281.201V141.87H298.744V168.451H263.657V196.096H256.214V182.274H212.62V194.501L222.445 204.602V211.513H200.925V223.209H197.735V207.792H169.027V223.209ZM91.9403 134.959V110.504H103.636V102.529H118.522V131.769H173.454V156.224H145.635V180.147H114.269V134.959H91.9403ZM77.5863 168.983H40.3722V186.527C40.3722 186.952 65.1816 186.704 77.5863 186.527V168.983ZM115.332 288.068V329.004H122.243V288.6H188.165V303.485H190.824V264.145H200.925V239.69H163.179L145.103 257.765H132.344V225.336H95.6617L85.0291 214.172H40.3722V245.006H98.8515V281.157H96.1934V288.068H115.332Z" fill="#271406"/>
<path d="M16.9805 214.172H17.4805V213.672H16.9805V214.172ZM16.9805 296.574H16.4805V297.074H16.9805V296.574ZM0.5 214.172H0V214.672H0.5V214.172ZM0.5 106.251V105.751H0V106.251H0.5ZM32.9294 106.251H33.4294V105.751H32.9294V106.251ZM32.9294 134.959H32.4294V135.459H32.9294V134.959ZM77.5864 134.959V135.459H78.0864V134.959H77.5864ZM77.5864 110.504H78.0864V110.004H77.5864V110.504ZM73.3333 110.504H72.8333V111.004H73.3333V110.504ZM73.3333 86.0487V85.5487H72.8333V86.0487H73.3333ZM139.255 86.0487H139.755V85.5487H139.255V86.0487ZM139.255 112.099H138.755V112.599H139.255V112.099ZM204.646 112.099V112.599H205.146V112.099H204.646ZM204.646 18V17.5H204.146V18H204.646ZM243.987 18H244.487V17.5H243.987V18ZM243.987 83.9221H243.487V84.4221H243.987V83.9221ZM315.225 83.9221V84.4221H315.725V83.9221H315.225ZM315.225 56.809V56.309H314.725V56.809H315.225ZM409.855 56.809H410.355V56.309H409.855V56.809ZM409.855 84.9854V85.4854H410.355V84.9854H409.855ZM388.058 84.9854V84.4854H387.558V84.9854H388.058ZM388.058 88.1752H387.558V88.6752H388.058V88.1752ZM391.248 88.1752H391.748V87.6752H391.248V88.1752ZM391.248 95.618H390.748V96.118H391.248V95.618ZM436.968 95.618H437.468V95.118H436.968V95.618ZM436.968 113.162H436.468V113.662H436.968V113.162ZM465.676 113.162H466.176V112.662H465.676V113.162ZM465.676 130.174V130.674H466.176V130.174H465.676ZM463.55 130.174V129.674H463.05V130.174H463.55ZM463.55 188.653H463.05V189.153H463.55V188.653ZM465.676 188.653H466.176V188.153H465.676V188.653ZM465.676 204.602V205.102H466.176V204.602H465.676ZM455.044 204.602L454.753 205.009L454.884 205.102H455.044V204.602ZM425.272 183.337L425.563 182.93L425.433 182.837H425.272V183.337ZM390.185 183.337V182.837H389.685V183.337H390.185ZM390.185 234.373H389.685V234.873H390.185V234.373ZM401.349 234.373V234.873H401.849V234.373H401.349ZM401.349 217.893V217.393H400.849V217.893H401.349ZM432.715 217.893H433.215V217.393H432.715V217.893ZM432.715 280.094H432.215V280.594H432.715V280.094ZM447.601 280.094H448.101V279.594H447.601V280.094ZM447.601 308.27V308.77H448.101V308.27H447.601ZM424.741 308.27V307.77H424.241V308.27H424.741ZM424.741 360.123V360.623H425.241V360.123H424.741ZM331.706 360.123V359.623H331.206V360.123H331.706ZM331.706 397.584V398.084H332.206V397.584H331.706ZM247.708 397.584V397.084H247.208V397.584H247.708ZM247.708 455V455.5H248.208V455H247.708ZM229.101 455L229.065 455.499L229.083 455.5H229.101V455ZM214.215 453.937H213.715V454.402L214.18 454.435L214.215 453.937ZM214.215 452.342H214.715V451.798L214.174 451.844L214.215 452.342ZM195.077 453.937H194.577V454.48L195.118 454.435L195.077 453.937ZM195.077 452.342H195.577V451.842H195.077V452.342ZM183.381 452.342H182.881V452.842H183.381V452.342ZM183.381 401.305V400.805H182.881V401.305H183.381ZM185.507 401.305V401.805H186.007V401.305H185.507ZM185.507 395.771H186.007V395.271H185.507V395.771ZM178.064 395.771V395.271H177.564V395.771H178.064ZM178.064 399.71V400.21H178.564V399.71H178.064ZM107.889 399.71H107.389V400.21H107.889V399.71ZM107.889 386.951H108.389V386.451H107.889V386.951ZM67.4854 386.951H66.9854V387.451H67.4854V386.951ZM67.4854 288.068V287.568H66.9854V288.068H67.4854ZM79.7129 288.068V288.568H80.2129V288.068H79.7129ZM79.7129 281.157H80.2129V280.657H79.7129V281.157ZM52.5998 281.157V280.657H52.0998V281.157H52.5998ZM52.5998 296.574V297.074H53.0998V296.574H52.5998ZM293.96 108.909H293.46V109.409H293.96V108.909ZM293.96 100.934V100.434H293.46V100.934H293.96ZM343.401 108.909H343.901V108.409H343.401V108.909ZM343.401 131.769H342.901V132.269H343.401V131.769ZM357.615 131.769V132.269H358.115V131.769H357.615ZM357.615 110.504V110.004H357.115V110.504H357.615ZM366.793 110.504V111.004H367.027L367.177 110.824L366.793 110.504ZM372.109 104.124L372.494 104.444L372.609 104.305V104.124H372.109ZM372.109 88.1752V87.6752H371.609V88.1752H372.109ZM375.299 88.1752V88.6752H375.799V88.1752H375.299ZM375.299 84.9854H375.799V84.4854H375.299V84.9854ZM349.781 84.9854H349.281V85.4854H349.781V84.9854ZM349.781 74.8844H350.281V74.3844H349.781V74.8844ZM346.855 74.8844V74.3844H346.355V74.8844H346.855ZM346.855 100.934V101.434H347.355V100.934H346.855ZM392.311 134.959H391.811V135.459H392.311V134.959ZM392.311 108.909V108.409H391.811V108.909H392.311ZM424.741 134.959V135.459H425.241V134.959H424.741ZM424.741 108.909H425.241V108.409H424.741V108.909ZM325.858 181.742L325.416 181.507L325.358 181.617V181.742H325.858ZM338.617 157.819V157.319H338.317L338.176 157.583L338.617 157.819ZM325.858 183.869H325.358V184.369H325.858V183.869ZM333.3 183.869H333.8V183.369H333.3V183.869ZM333.3 200.349L333.748 200.573L333.8 200.467V200.349H333.3ZM327.984 210.982L327.537 210.758L327.484 210.864V210.982H327.984ZM327.984 231.184H327.484V231.684H327.984V231.184ZM357.755 231.184V231.684H358.255V231.184H357.755ZM357.755 213.64V213.14H357.255V213.64H357.755ZM373.173 213.64V214.14H373.673V213.64H373.173ZM373.173 198.754H373.673V198.254H373.173V198.754ZM350.313 198.754H349.813V199.254H350.313V198.754ZM350.313 162.072H350.813V161.963L350.767 161.863L350.313 162.072ZM344.465 149.313L344.919 149.104L344.786 148.813H344.465V149.313ZM343.401 149.313V148.813H342.901V149.313H343.401ZM343.401 157.819V158.319H343.901V157.819H343.401ZM240.797 264.676V265.176H241.297V264.676H240.797ZM240.797 216.298H241.297V215.798H240.797V216.298ZM238.67 264.676V264.176H238.17V264.676H238.67ZM238.67 288.068H238.17V288.568H238.67V288.068ZM279.074 288.068V288.568H279.574V288.068H279.074ZM279.074 281.157V280.657H278.574V281.157H279.074ZM292.365 281.157H292.865V280.657H292.365V281.157ZM292.365 310.928H291.865V311.428H292.365V310.928ZM363.603 310.928V311.428H364.103V310.928H363.603ZM363.603 288.068V287.568H363.103V288.068H363.603ZM394.97 288.068H395.47V287.568H394.97V288.068ZM394.97 291.79H394.47V292.29H394.97V291.79ZM397.096 291.79V292.29H397.596V291.79H397.096ZM397.096 280.094V279.594H396.596V280.094H397.096ZM404.539 280.094V280.594H405.039V280.094H404.539ZM404.539 257.234H405.039V256.734H404.539V257.234ZM397.096 257.234V256.734H396.884L396.737 256.886L397.096 257.234ZM381.679 273.182V273.682H381.891L382.038 273.53L381.679 273.182ZM357.755 273.182H357.255V273.682H357.755V273.182ZM357.755 248.196H358.255V247.696H357.755V248.196ZM338.617 248.196V247.696H338.117V248.196H338.617ZM338.617 264.145V264.645H339.117V264.145H338.617ZM306.719 264.145L306.365 264.498L306.512 264.645H306.719V264.145ZM294.491 251.917H293.991V252.124L294.138 252.271L294.491 251.917ZM294.491 182.805H294.991V182.305H294.491V182.805ZM282.796 182.805V182.305H282.296V182.805H282.796ZM282.796 210.45V210.95H283.296V210.45H282.796ZM236.012 210.45V209.95H235.512V210.45H236.012ZM236.012 213.64H235.512V213.705L235.529 213.768L236.012 213.64ZM238.139 216.298L237.926 216.75L238.027 216.798H238.139V216.298ZM146.698 343.889V344.389H147.198V343.889H146.698ZM115.864 343.889V343.389H115.364V343.889H115.864ZM146.698 319.966V319.466H146.198V319.966H146.698ZM161.052 319.966H161.552V319.466H161.052V319.966ZM161.052 336.446H160.552V336.946H161.052V336.446ZM188.165 336.446V336.946H188.665V336.446H188.165ZM188.165 319.966V319.466H187.665V319.966H188.165ZM190.824 319.966H191.324V319.466H190.824V319.966ZM190.824 332.193H190.324V332.693H190.824V332.193ZM238.67 332.193V332.693H239.17V332.193H238.67ZM238.67 304.549V304.049H238.17V304.549H238.67ZM279.074 304.549H279.574V304.049H279.074V304.549ZM279.074 327.94H278.574V328.44H279.074V327.94ZM380.084 327.94V328.44H380.584V327.94H380.084ZM380.084 304.549V304.049H379.584V304.549H380.084ZM394.97 304.549V305.049H395.47V304.549H394.97ZM394.97 300.827V300.327H394.47V300.827H394.97ZM397.096 300.827H397.596V300.327H397.096V300.827ZM397.096 311.46V311.96H397.596V311.46H397.096ZM389.122 311.46V310.96H388.622V311.46H389.122ZM389.122 334.32V334.82H389.622V334.32H389.122ZM293.428 334.32V333.82H292.928V334.32H293.428ZM293.428 376.319V376.819H293.928V376.319H293.428ZM247.708 376.319H247.208V376.819H247.708V376.319ZM247.708 364.623H248.208V364.123H247.708V364.623ZM237.075 364.623V364.123H236.575V364.623H237.075ZM237.075 378.445V378.945H237.575V378.445H237.075ZM144.04 378.445L143.664 378.775L143.813 378.945H144.04V378.445ZM140.319 374.192H139.819V374.38L139.942 374.521L140.319 374.192ZM140.319 355.054H140.819V354.554H140.319V355.054ZM115.864 355.054H115.364V355.554H115.864V355.054ZM162.647 223.209H162.147V223.709H162.647V223.209ZM169.027 223.209V223.709H169.527V223.209H169.027ZM162.647 167.282V166.782H162.147V167.282H162.647ZM188.697 167.282V167.782H189.197V167.282H188.697ZM188.697 131.769V131.269H188.197V131.769H188.697ZM204.646 131.769H205.146V131.269H204.646V131.769ZM204.646 138.148H204.146V138.648H204.646V138.148ZM231.227 138.148V138.648H231.727V138.148H231.227ZM231.227 112.099L230.839 111.784L230.727 111.922V112.099H231.227ZM240.265 100.934V100.434H240.027L239.877 100.62L240.265 100.934ZM281.201 100.934H281.701V100.434H281.201V100.934ZM281.201 141.87H280.701V142.37H281.201V141.87ZM298.744 141.87H299.244V141.37H298.744V141.87ZM298.744 168.451V168.951H299.244V168.451H298.744ZM263.657 168.451V167.951H263.157V168.451H263.657ZM263.657 196.096V196.596H264.157V196.096H263.657ZM256.214 196.096H255.714V196.596H256.214V196.096ZM256.214 182.274H256.714V181.774H256.214V182.274ZM212.62 182.274V181.774H212.12V182.274H212.62ZM212.62 194.501H212.12V194.704L212.262 194.85L212.62 194.501ZM222.445 204.602H222.945V204.399L222.804 204.254L222.445 204.602ZM222.445 211.513V212.013H222.945V211.513H222.445ZM200.925 211.513V211.013H200.425V211.513H200.925ZM200.925 223.209V223.709H201.425V223.209H200.925ZM197.735 223.209H197.235V223.709H197.735V223.209ZM197.735 207.792H198.235V207.292H197.735V207.792ZM169.027 207.792V207.292H168.527V207.792H169.027ZM91.9403 110.504V110.004H91.4403V110.504H91.9403ZM91.9403 134.959H91.4403V135.459H91.9403V134.959ZM103.636 110.504V111.004H104.136V110.504H103.636ZM103.636 102.529V102.029H103.136V102.529H103.636ZM118.522 102.529H119.022V102.029H118.522V102.529ZM118.522 131.769H118.022V132.269H118.522V131.769ZM173.454 131.769H173.954V131.269H173.454V131.769ZM173.454 156.224V156.724H173.954V156.224H173.454ZM145.635 156.224V155.724H145.135V156.224H145.635ZM145.635 180.147V180.647H146.135V180.147H145.635ZM114.269 180.147H113.769V180.647H114.269V180.147ZM114.269 134.959H114.769V134.459H114.269V134.959ZM40.3722 168.983V168.483H39.8722V168.983H40.3722ZM77.5863 168.983H78.0863V168.483H77.5863V168.983ZM77.5863 186.527L77.5935 187.027L78.0863 187.02V186.527H77.5863ZM115.332 329.004H114.832V329.504H115.332V329.004ZM115.332 288.068H115.832V287.568H115.332V288.068ZM122.243 329.004V329.504H122.743V329.004H122.243ZM122.243 288.6V288.1H121.743V288.6H122.243ZM188.165 288.6H188.665V288.1H188.165V288.6ZM188.165 303.485H187.665V303.985H188.165V303.485ZM190.824 303.485V303.985H191.324V303.485H190.824ZM190.824 264.145V263.645H190.324V264.145H190.824ZM200.925 264.145V264.645H201.425V264.145H200.925ZM200.925 239.69H201.425V239.19H200.925V239.69ZM163.179 239.69V239.19H162.972L162.825 239.336L163.179 239.69ZM145.103 257.765V258.265H145.31L145.457 258.119L145.103 257.765ZM132.344 257.765H131.844V258.265H132.344V257.765ZM132.344 225.336H132.844V224.836H132.344V225.336ZM95.6617 225.336L95.2997 225.681L95.4475 225.836H95.6617V225.336ZM85.0291 214.172L85.3912 213.827L85.2434 213.672H85.0291V214.172ZM40.3722 214.172V213.672H39.8722V214.172H40.3722ZM40.3722 245.006H39.8722V245.506H40.3722V245.006ZM98.8515 245.006H99.3515V244.506H98.8515V245.006ZM98.8515 281.157V281.657H99.3515V281.157H98.8515ZM96.1934 281.157V280.657H95.6934V281.157H96.1934ZM96.1934 288.068H95.6934V288.568H96.1934V288.068ZM16.9805 214.172H16.4805V296.574H16.9805H17.4805V214.172H16.9805ZM0.5 214.172V214.672H16.9805V214.172V213.672H0.5V214.172ZM0.5 106.251H0V214.172H0.5H1V106.251H0.5ZM32.9294 106.251V105.751H0.5V106.251V106.751H32.9294V106.251ZM32.9294 134.959H33.4294V106.251H32.9294H32.4294V134.959H32.9294ZM77.5864 134.959V134.459H32.9294V134.959V135.459H77.5864V134.959ZM77.5864 110.504H77.0864V134.959H77.5864H78.0864V110.504H77.5864ZM73.3333 110.504V111.004H77.5864V110.504V110.004H73.3333V110.504ZM73.3333 86.0487H72.8333V110.504H73.3333H73.8333V86.0487H73.3333ZM139.255 86.0487V85.5487H73.3333V86.0487V86.5487H139.255V86.0487ZM139.255 112.099H139.755V86.0487H139.255H138.755V112.099H139.255ZM204.646 112.099V111.599H139.255V112.099V112.599H204.646V112.099ZM204.646 18H204.146V112.099H204.646H205.146V18H204.646ZM243.987 18V17.5H204.646V18V18.5H243.987V18ZM243.987 83.9221H244.487V18H243.987H243.487V83.9221H243.987ZM315.225 83.9221V83.4221H243.987V83.9221V84.4221H315.225V83.9221ZM315.225 56.809H314.725V83.9221H315.225H315.725V56.809H315.225ZM409.855 56.809V56.309H315.225V56.809V57.309H409.855V56.809ZM409.855 84.9854H410.355V56.809H409.855H409.355V84.9854H409.855ZM388.058 84.9854V85.4854H409.855V84.9854V84.4854H388.058V84.9854ZM388.058 88.1752H388.558V84.9854H388.058H387.558V88.1752H388.058ZM391.248 88.1752V87.6752H388.058V88.1752V88.6752H391.248V88.1752ZM391.248 95.618H391.748V88.1752H391.248H390.748V95.618H391.248ZM436.968 95.618V95.118H391.248V95.618V96.118H436.968V95.618ZM436.968 113.162H437.468V95.618H436.968H436.468V113.162H436.968ZM465.676 113.162V112.662H436.968V113.162V113.662H465.676V113.162ZM465.676 130.174H466.176V113.162H465.676H465.176V130.174H465.676ZM463.55 130.174V130.674H465.676V130.174V129.674H463.55V130.174ZM463.55 188.653H464.05V130.174H463.55H463.05V188.653H463.55ZM465.676 188.653V188.153H463.55V188.653V189.153H465.676V188.653ZM465.676 204.602H466.176V188.653H465.676H465.176V204.602H465.676ZM455.044 204.602V205.102H465.676V204.602V204.102H455.044V204.602ZM425.272 183.337L424.982 183.744L454.753 205.009L455.044 204.602L455.334 204.195L425.563 182.93L425.272 183.337ZM390.185 183.337V183.837H425.272V183.337V182.837H390.185V183.337ZM390.185 234.373H390.685V183.337H390.185H389.685V234.373H390.185ZM401.349 234.373V233.873H390.185V234.373V234.873H401.349V234.373ZM401.349 217.893H400.849V234.373H401.349H401.849V217.893H401.349ZM432.715 217.893V217.393H401.349V217.893V218.393H432.715V217.893ZM432.715 280.094H433.215V217.893H432.715H432.215V280.094H432.715ZM447.601 280.094V279.594H432.715V280.094V280.594H447.601V280.094ZM447.601 308.27H448.101V280.094H447.601H447.101V308.27H447.601ZM424.741 308.27V308.77H447.601V308.27V307.77H424.741V308.27ZM424.741 360.123H425.241V308.27H424.741H424.241V360.123H424.741ZM331.706 360.123V360.623H424.741V360.123V359.623H331.706V360.123ZM331.706 397.584H332.206V360.123H331.706H331.206V397.584H331.706ZM247.708 397.584V398.084H331.706V397.584V397.084H247.708V397.584ZM247.708 455H248.208V397.584H247.708H247.208V455H247.708ZM229.101 455V455.5H247.708V455V454.5H229.101V455ZM214.215 453.937L214.18 454.435L229.065 455.499L229.101 455L229.137 454.501L214.251 453.438L214.215 453.937ZM214.215 452.342H213.715V453.937H214.215H214.715V452.342H214.215ZM195.077 453.937L195.118 454.435L214.257 452.84L214.215 452.342L214.174 451.844L195.035 453.438L195.077 453.937ZM195.077 452.342H194.577V453.937H195.077H195.577V452.342H195.077ZM183.381 452.342V452.842H195.077V452.342V451.842H183.381V452.342ZM183.381 401.305H182.881V452.342H183.381H183.881V401.305H183.381ZM185.507 401.305V400.805H183.381V401.305V401.805H185.507V401.305ZM185.507 395.771H185.007V401.305H185.507H186.007V395.771H185.507ZM178.064 395.771V396.271H185.507V395.771V395.271H178.064V395.771ZM178.064 399.71H178.564V395.771H178.064H177.564V399.71H178.064ZM107.889 399.71V400.21H178.064V399.71V399.21H107.889V399.71ZM107.889 386.951H107.389V399.71H107.889H108.389V386.951H107.889ZM67.4854 386.951V387.451H107.889V386.951V386.451H67.4854V386.951ZM67.4854 288.068H66.9854V386.951H67.4854H67.9854V288.068H67.4854ZM79.7129 288.068V287.568H67.4854V288.068V288.568H79.7129V288.068ZM79.7129 281.157H79.2129V288.068H79.7129H80.2129V281.157H79.7129ZM52.5998 281.157V281.657H79.7129V281.157V280.657H52.5998V281.157ZM52.5998 296.574H53.0998V281.157H52.5998H52.0998V296.574H52.5998ZM16.9805 296.574V297.074H52.5998V296.574V296.074H16.9805V296.574ZM293.96 108.909H294.46V100.934H293.96H293.46V108.909H293.96ZM343.401 108.909V108.409H293.96V108.909V109.409H343.401V108.909ZM343.401 131.769H343.901V108.909H343.401H342.901V131.769H343.401ZM357.615 131.769V131.269H343.401V131.769V132.269H357.615V131.769ZM357.615 110.504H357.115V131.769H357.615H358.115V110.504H357.615ZM366.793 110.504V110.004H357.615V110.504V111.004H366.793V110.504ZM372.109 104.124L371.725 103.804L366.409 110.184L366.793 110.504L367.177 110.824L372.494 104.444L372.109 104.124ZM372.109 88.1752H371.609V104.124H372.109H372.609V88.1752H372.109ZM375.299 88.1752V87.6752H372.109V88.1752V88.6752H375.299V88.1752ZM375.299 84.9854H374.799V88.1752H375.299H375.799V84.9854H375.299ZM349.781 84.9854V85.4854H375.299V84.9854V84.4854H349.781V84.9854ZM349.781 74.8844H349.281V84.9854H349.781H350.281V74.8844H349.781ZM346.855 74.8844V75.3844H349.781V74.8844V74.3844H346.855V74.8844ZM346.855 100.934H347.355V74.8844H346.855H346.355V100.934H346.855ZM293.96 100.934V101.434H346.855V100.934V100.434H293.96V100.934ZM392.311 134.959H392.811V108.909H392.311H391.811V134.959H392.311ZM424.741 134.959V134.459H392.311V134.959V135.459H424.741V134.959ZM424.741 108.909H424.241V134.959H424.741H425.241V108.909H424.741ZM392.311 108.909V109.409H424.741V108.909V108.409H392.311V108.909ZM325.858 181.742L326.299 181.977L339.058 158.054L338.617 157.819L338.176 157.583L325.416 181.507L325.858 181.742ZM325.858 183.869H326.358V181.742H325.858H325.358V183.869H325.858ZM333.3 183.869V183.369H325.858V183.869V184.369H333.3V183.869ZM333.3 200.349H333.8V183.869H333.3H332.8V200.349H333.3ZM327.984 210.982L328.431 211.205L333.748 200.573L333.3 200.349L332.853 200.126L327.537 210.758L327.984 210.982ZM327.984 231.184H328.484V210.982H327.984H327.484V231.184H327.984ZM357.755 231.184V230.684H327.984V231.184V231.684H357.755V231.184ZM357.755 213.64H357.255V231.184H357.755H358.255V213.64H357.755ZM373.173 213.64V213.14H357.755V213.64V214.14H373.173V213.64ZM373.173 198.754H372.673V213.64H373.173H373.673V198.754H373.173ZM350.313 198.754V199.254H373.173V198.754V198.254H350.313V198.754ZM350.313 162.072H349.813V198.754H350.313H350.813V162.072H350.313ZM344.465 149.313L344.01 149.521L349.858 162.28L350.313 162.072L350.767 161.863L344.919 149.104L344.465 149.313ZM343.401 149.313V149.813H344.465V149.313V148.813H343.401V149.313ZM343.401 157.819H343.901V149.313H343.401H342.901V157.819H343.401ZM338.617 157.819V158.319H343.401V157.819V157.319H338.617V157.819ZM240.797 264.676H241.297V216.298H240.797H240.297V264.676H240.797ZM238.67 264.676V265.176H240.797V264.676V264.176H238.67V264.676ZM238.67 288.068H239.17V264.676H238.67H238.17V288.068H238.67ZM279.074 288.068V287.568H238.67V288.068V288.568H279.074V288.068ZM279.074 281.157H278.574V288.068H279.074H279.574V281.157H279.074ZM292.365 281.157V280.657H279.074V281.157V281.657H292.365V281.157ZM292.365 310.928H292.865V281.157H292.365H291.865V310.928H292.365ZM363.603 310.928V310.428H292.365V310.928V311.428H363.603V310.928ZM363.603 288.068H363.103V310.928H363.603H364.103V288.068H363.603ZM394.97 288.068V287.568H363.603V288.068V288.568H394.97V288.068ZM394.97 291.79H395.47V288.068H394.97H394.47V291.79H394.97ZM397.096 291.79V291.29H394.97V291.79V292.29H397.096V291.79ZM397.096 280.094H396.596V291.79H397.096H397.596V280.094H397.096ZM404.539 280.094V279.594H397.096V280.094V280.594H404.539V280.094ZM404.539 257.234H404.039V280.094H404.539H405.039V257.234H404.539ZM397.096 257.234V257.734H404.539V257.234V256.734H397.096V257.234ZM381.679 273.182L382.038 273.53L397.456 257.581L397.096 257.234L396.737 256.886L381.319 272.835L381.679 273.182ZM357.755 273.182V273.682H381.679V273.182V272.682H357.755V273.182ZM357.755 248.196H357.255V273.182H357.755H358.255V248.196H357.755ZM338.617 248.196V248.696H357.755V248.196V247.696H338.617V248.196ZM338.617 264.145H339.117V248.196H338.617H338.117V264.145H338.617ZM306.719 264.145V264.645H338.617V264.145V263.645H306.719V264.145ZM294.491 251.917L294.138 252.271L306.365 264.498L306.719 264.145L307.072 263.791L294.845 251.564L294.491 251.917ZM294.491 182.805H293.991V251.917H294.491H294.991V182.805H294.491ZM282.796 182.805V183.305H294.491V182.805V182.305H282.796V182.805ZM282.796 210.45H283.296V182.805H282.796H282.296V210.45H282.796ZM236.012 210.45V210.95H282.796V210.45V209.95H236.012V210.45ZM236.012 213.64H236.512V210.45H236.012H235.512V213.64H236.012ZM238.139 216.298L238.352 215.846C237.716 215.546 237.354 215.273 237.104 214.949C236.849 214.619 236.675 214.191 236.496 213.512L236.012 213.64L235.529 213.768C235.718 214.485 235.933 215.069 236.312 215.56C236.696 216.057 237.213 216.415 237.926 216.75L238.139 216.298ZM240.797 216.298V215.798H238.139V216.298V216.798H240.797V216.298ZM146.698 343.889V343.389H115.864V343.889V344.389H146.698V343.889ZM146.698 319.966H146.198V343.889H146.698H147.198V319.966H146.698ZM161.052 319.966V319.466H146.698V319.966V320.466H161.052V319.966ZM161.052 336.446H161.552V319.966H161.052H160.552V336.446H161.052ZM188.165 336.446V335.946H161.052V336.446V336.946H188.165V336.446ZM188.165 319.966H187.665V336.446H188.165H188.665V319.966H188.165ZM190.824 319.966V319.466H188.165V319.966V320.466H190.824V319.966ZM190.824 332.193H191.324V319.966H190.824H190.324V332.193H190.824ZM238.67 332.193V331.693H190.824V332.193V332.693H238.67V332.193ZM238.67 304.549H238.17V332.193H238.67H239.17V304.549H238.67ZM279.074 304.549V304.049H238.67V304.549V305.049H279.074V304.549ZM279.074 327.94H279.574V304.549H279.074H278.574V327.94H279.074ZM380.084 327.94V327.44H279.074V327.94V328.44H380.084V327.94ZM380.084 304.549H379.584V327.94H380.084H380.584V304.549H380.084ZM394.97 304.549V304.049H380.084V304.549V305.049H394.97V304.549ZM394.97 300.827H394.47V304.549H394.97H395.47V300.827H394.97ZM397.096 300.827V300.327H394.97V300.827V301.327H397.096V300.827ZM397.096 311.46H397.596V300.827H397.096H396.596V311.46H397.096ZM389.122 311.46V311.96H397.096V311.46V310.96H389.122V311.46ZM389.122 334.32H389.622V311.46H389.122H388.622V334.32H389.122ZM293.428 334.32V334.82H389.122V334.32V333.82H293.428V334.32ZM293.428 376.319H293.928V334.32H293.428H292.928V376.319H293.428ZM247.708 376.319V376.819H293.428V376.319V375.819H247.708V376.319ZM247.708 364.623H247.208V376.319H247.708H248.208V364.623H247.708ZM237.075 364.623V365.123H247.708V364.623V364.123H237.075V364.623ZM237.075 378.445H237.575V364.623H237.075H236.575V378.445H237.075ZM144.04 378.445V378.945H237.075V378.445V377.945H144.04V378.445ZM140.319 374.192L139.942 374.521L143.664 378.775L144.04 378.445L144.416 378.116L140.695 373.863L140.319 374.192ZM140.319 355.054H139.819V374.192H140.319H140.819V355.054H140.319ZM115.864 355.054V355.554H140.319V355.054V354.554H115.864V355.054ZM115.864 343.889H115.364V355.054H115.864H116.364V343.889H115.864ZM162.647 223.209V223.709H169.027V223.209V222.709H162.647V223.209ZM162.647 167.282H162.147V223.209H162.647H163.147V167.282H162.647ZM188.697 167.282V166.782H162.647V167.282V167.782H188.697V167.282ZM188.697 131.769H188.197V167.282H188.697H189.197V131.769H188.697ZM204.646 131.769V131.269H188.697V131.769V132.269H204.646V131.769ZM204.646 138.148H205.146V131.769H204.646H204.146V138.148H204.646ZM231.227 138.148V137.648H204.646V138.148V138.648H231.227V138.148ZM231.227 112.099H230.727V138.148H231.227H231.727V112.099H231.227ZM240.265 100.934L239.877 100.62L230.839 111.784L231.227 112.099L231.616 112.413L240.654 101.249L240.265 100.934ZM281.201 100.934V100.434H240.265V100.934V101.434H281.201V100.934ZM281.201 141.87H281.701V100.934H281.201H280.701V141.87H281.201ZM298.744 141.87V141.37H281.201V141.87V142.37H298.744V141.87ZM298.744 168.451H299.244V141.87H298.744H298.244V168.451H298.744ZM263.657 168.451V168.951H298.744V168.451V167.951H263.657V168.451ZM263.657 196.096H264.157V168.451H263.657H263.157V196.096H263.657ZM256.214 196.096V196.596H263.657V196.096V195.596H256.214V196.096ZM256.214 182.274H255.714V196.096H256.214H256.714V182.274H256.214ZM212.62 182.274V182.774H256.214V182.274V181.774H212.62V182.274ZM212.62 194.501H213.12V182.274H212.62H212.12V194.501H212.62ZM222.445 204.602L222.804 204.254L212.979 194.153L212.62 194.501L212.262 194.85L222.087 204.951L222.445 204.602ZM222.445 211.513H222.945V204.602H222.445H221.945V211.513H222.445ZM200.925 211.513V212.013H222.445V211.513V211.013H200.925V211.513ZM200.925 223.209H201.425V211.513H200.925H200.425V223.209H200.925ZM197.735 223.209V223.709H200.925V223.209V222.709H197.735V223.209ZM197.735 207.792H197.235V223.209H197.735H198.235V207.792H197.735ZM169.027 207.792V208.292H197.735V207.792V207.292H169.027V207.792ZM169.027 223.209H169.527V207.792H169.027H168.527V223.209H169.027ZM91.9403 110.504H91.4403V134.959H91.9403H92.4403V110.504H91.9403ZM103.636 110.504V110.004H91.9403V110.504V111.004H103.636V110.504ZM103.636 102.529H103.136V110.504H103.636H104.136V102.529H103.636ZM118.522 102.529V102.029H103.636V102.529V103.029H118.522V102.529ZM118.522 131.769H119.022V102.529H118.522H118.022V131.769H118.522ZM173.454 131.769V131.269H118.522V131.769V132.269H173.454V131.769ZM173.454 156.224H173.954V131.769H173.454H172.954V156.224H173.454ZM145.635 156.224V156.724H173.454V156.224V155.724H145.635V156.224ZM145.635 180.147H146.135V156.224H145.635H145.135V180.147H145.635ZM114.269 180.147V180.647H145.635V180.147V179.647H114.269V180.147ZM114.269 134.959H113.769V180.147H114.269H114.769V134.959H114.269ZM91.9403 134.959V135.459H114.269V134.959V134.459H91.9403V134.959ZM40.3722 168.983V169.483H77.5863V168.983V168.483H40.3722V168.983ZM40.3722 186.527H40.8722V168.983H40.3722H39.8722V186.527H40.3722ZM77.5863 186.527L77.5792 186.027C71.3778 186.115 62.0761 186.222 54.3255 186.253C50.4497 186.268 46.9644 186.265 44.4492 186.231C43.1906 186.214 42.1801 186.19 41.4863 186.157C41.1376 186.14 40.8789 186.122 40.7117 186.102C40.6248 186.092 40.5809 186.084 40.5666 186.08C40.5554 186.077 40.5829 186.083 40.6236 186.104C40.6435 186.115 40.693 186.142 40.7431 186.196C40.7962 186.254 40.8722 186.366 40.8722 186.527H40.3722H39.8722C39.8722 186.694 39.9512 186.813 40.0104 186.877C40.0665 186.937 40.125 186.972 40.1568 186.988C40.2215 187.023 40.2848 187.04 40.3209 187.049C40.4012 187.07 40.4982 187.084 40.5961 187.095C40.7983 187.119 41.0847 187.139 41.4386 187.156C42.1501 187.19 43.1747 187.214 44.4358 187.231C46.96 187.265 50.4523 187.268 54.3295 187.253C62.0848 187.222 71.3902 187.115 77.5935 187.027L77.5863 186.527ZM77.5863 168.983H77.0863V186.527H77.5863H78.0863V168.983H77.5863ZM115.332 329.004H115.832V288.068H115.332H114.832V329.004H115.332ZM122.243 329.004V328.504H115.332V329.004V329.504H122.243V329.004ZM122.243 288.6H121.743V329.004H122.243H122.743V288.6H122.243ZM188.165 288.6V288.1H122.243V288.6V289.1H188.165V288.6ZM188.165 303.485H188.665V288.6H188.165H187.665V303.485H188.165ZM190.824 303.485V302.985H188.165V303.485V303.985H190.824V303.485ZM190.824 264.145H190.324V303.485H190.824H191.324V264.145H190.824ZM200.925 264.145V263.645H190.824V264.145V264.645H200.925V264.145ZM200.925 239.69H200.425V264.145H200.925H201.425V239.69H200.925ZM163.179 239.69V240.19H200.925V239.69V239.19H163.179V239.69ZM145.103 257.765L145.457 258.119L163.532 240.043L163.179 239.69L162.825 239.336L144.75 257.412L145.103 257.765ZM132.344 257.765V258.265H145.103V257.765V257.265H132.344V257.765ZM132.344 225.336H131.844V257.765H132.344H132.844V225.336H132.344ZM95.6617 225.336V225.836H132.344V225.336V224.836H95.6617V225.336ZM85.0291 214.172L84.6671 214.516L95.2997 225.681L95.6617 225.336L96.0238 224.991L85.3912 213.827L85.0291 214.172ZM40.3722 214.172V214.672H85.0291V214.172V213.672H40.3722V214.172ZM40.3722 245.006H40.8722V214.172H40.3722H39.8722V245.006H40.3722ZM98.8515 245.006V244.506H40.3722V245.006V245.506H98.8515V245.006ZM98.8515 281.157H99.3515V245.006H98.8515H98.3515V281.157H98.8515ZM96.1934 281.157V281.657H98.8515V281.157V280.657H96.1934V281.157ZM96.1934 288.068H96.6934V281.157H96.1934H95.6934V288.068H96.1934ZM115.332 288.068V287.568H96.1934V288.068V288.568H115.332V288.068Z" fill="#B27C40"/>
<path d="M338.617 248.196H326.921" stroke="#B27C40"/>
<path d="M282.796 197.159H277.479V200.881V201.412M277.479 201.412H276.948V210.45M277.479 201.412H282.796M350.313 170.578H357.755M357.755 170.578V163.135M357.755 170.578H365.73V163.135H357.755M357.755 131.769V163.135" stroke="#B27C40" stroke-width="0.5"/>
<path d="M365.73 213.64V229.057H357.755M425.273 308.27H417.298V315.713M424.741 319.966H417.298V315.713M424.741 315.713H417.298" stroke="#B27C40"/>
<path d="M424.741 328.472H420.488V345.749H424.741M424.741 355.054H417.298V359.838M303.529 334.32V342.826H310.972M318.415 334.32V342.826H310.972M310.972 342.826V334.32" stroke="#B27C40"/>
<path d="M343.401 131.769V137.085H344.465V131.769M417.298 134.959V142.933H424.741V134.959M434.842 151.971V166.856H442.285V151.971H434.842Z" stroke="#B27C40"/>
<path d="M294.492 210.45H299.276M294.492 217.361H305.124V210.45H299.276M299.276 210.45V206.197H294.492M294.492 182.805H308.846V183.869H294.492" stroke="#B27C40"/>
<path d="M298.745 153.034H306.719V148.781H298.745M307.251 148.781V141.87H298.745" stroke="#B27C40"/>
<path d="M106.826 151.971H99.3832V158.882H106.826M24.4233 106.251V113.693H28.1448M32.9294 113.693H28.1448M28.1448 113.693V117.946H32.9294M118.522 124.326H126.496V131.769M162.647 201.944H154.673V209.387H162.647M197.735 223.209H181.254M67.4854 377.914H78.118L98.3199 380.572V378.977H107.889V386.951M115.864 355.054H106.826V347.611H115.864M127.56 288.6V329.004H121.712M147.23 288.6V296.043M180.723 288.6V296.043H188.165M238.67 288.068H223.253V281.157H238.67M238.67 268.929H233.886V264.676H238.67M240.797 247.133H231.759V239.69H240.797M222.721 210.45H224.316V211.513H222.721" stroke="#B27C40"/>
<path d="M236.012 210.45H234.417V211.831M236.012 210.45V211.831H234.417M236.012 210.45L234.417 211.831" stroke="#B27C40"/>
<path d="M68.0171 245.006V252.981H75.9915V245.006M16.9806 245.538H24.4234V237.563H16.9806" stroke="#B27C40"/>
<path d="M0.5 206.197H9.53771M9.53771 206.197V214.171M9.53771 206.197V196.096H0.5M9.53771 206.197H16.9805V214.171" stroke="#B27C40"/>
<path d="M69.6119 186.527V194.501H77.5864V186.527M0.5 154.629H21.2336V163.667H0.5M56.3212 168.983V161.54H63.764V168.983M131.281 225.336V207.792H132.344V225.336" stroke="#B27C40"/>
<path d="M36.1193 296.574V294.448H24.955M24.955 294.448V296.574M24.955 294.448V288.6H16.9806M79.7129 288.068V311.991M79.7129 316.245H67.4855M79.7129 316.245V311.991M79.7129 316.245H83.4344V311.991H79.7129" stroke="#B27C40"/>
<path d="M282.546 168.701V210.2H263.907V168.701H282.546Z" stroke="#B27C40" stroke-width="0.5"/>
<path d="M425.272 217.893V280.789M380.084 304.549V288.068M234.417 264.676H223.785V239.158M113.206 194.501H131.281V225.336H95.6618L85.0292 214.172H113.206V194.501Z" stroke="#B27C40" stroke-width="0.5"/>
<path d="M131.281 194.501V188.653H114.801V194.501H106.826V134.959" stroke="#B27C40" stroke-width="0.5"/>
<circle cx="195.608" cy="327.94" r="4.28467" stroke="#B27C40"/>
<circle cx="201.456" cy="329.535" r="1.87652" stroke="#B27C40" stroke-width="0.5"/>
<circle cx="78.6496" cy="247.133" r="2.40815" stroke="#B27C40" stroke-width="0.5"/>
<path d="M39.8406 135.49H48.3467V145.984H39.8406V135.49Z" fill="#F08234" fill-opacity="0.2"/>
<path d="M78.118 168.451H106.562V175.09H78.118V168.451Z" fill="#F08234" fill-opacity="0.2"/>
<path d="M106.826 151.439H98.8516V159.414H106.826V168.451H64.2959V161.009H55.7891V168.451H48.3467V135.49H106.826V151.439Z" fill="#F08234" fill-opacity="0.2"/>
<path d="M70.401 162.971V154.971H73.4635C74.0416 154.971 74.5221 155.062 74.9049 155.244C75.2903 155.424 75.5781 155.67 75.7682 155.983C75.9609 156.295 76.0573 156.649 76.0573 157.045C76.0573 157.371 75.9948 157.649 75.8698 157.881C75.7448 158.11 75.5768 158.296 75.3658 158.44C75.1549 158.583 74.9192 158.686 74.6588 158.748V158.826C74.9427 158.842 75.2148 158.929 75.4752 159.088C75.7382 159.244 75.9531 159.466 76.1198 159.752C76.2864 160.039 76.3698 160.385 76.3698 160.791C76.3698 161.205 76.2695 161.578 76.069 161.908C75.8684 162.236 75.5664 162.496 75.1627 162.686C74.7591 162.876 74.2513 162.971 73.6393 162.971H70.401ZM71.8502 161.76H73.4088C73.9349 161.76 74.3138 161.66 74.5455 161.459C74.7799 161.256 74.8971 160.996 74.8971 160.678C74.8971 160.441 74.8385 160.227 74.7213 160.037C74.6041 159.845 74.4375 159.693 74.2213 159.584C74.0052 159.472 73.7474 159.416 73.4479 159.416H71.8502V161.76ZM71.8502 158.373H73.2838C73.5338 158.373 73.7591 158.328 73.9596 158.236C74.1601 158.143 74.3177 158.011 74.4323 157.842C74.5494 157.67 74.608 157.467 74.608 157.233C74.608 156.923 74.4987 156.667 74.2799 156.467C74.0638 156.266 73.7421 156.166 73.3151 156.166H71.8502V158.373Z" fill="white"/>
<path d="M425.272 113.693H465.145V129.642H425.272V113.693Z" fill="#F08234" fill-opacity="0.23"/>
<path d="M463.155 189.185H425.096V189.184L432.715 189.152L425.096 183.843V182.805H412.161V189.185H412.119V135.49H416.766V143.465H425.273V129.642H463.155V189.185ZM434.31 167.388H442.816V151.439H434.31V167.388Z" fill="#F08234" fill-opacity="0.23"/>
<path d="M465.145 204.071H455.044L434.31 189.185H465.145V204.071Z" fill="#F08234" fill-opacity="0.23"/>
<path d="M443.569 140.642H442.022L444.839 132.642H446.628L449.448 140.642H447.901L445.765 134.283H445.702L443.569 140.642ZM443.62 137.506H447.839V138.67H443.62V137.506Z" fill="white"/>
</svg>
