<svg width="435" height="473" viewBox="0 0 435 473" fill="none" xmlns="http://www.w3.org/2000/svg">
<path fill-rule="evenodd" clip-rule="evenodd" d="M413.627 338.839V326.034H416.668H427.495V318.707V277.074L414.07 264.004H406.981V254.3H417.348V216.152H358.331V229.799H345.482V220.015V213.371V196.612H355.717V152.66H354.92V146.811C351.692 134.929 338.922 127.582 333.772 127.582H323.462H298.527V124.926H299.549V100.11H298.527V97.3855H302.103V87.723C302.103 87.723 301.1 83.8424 299.817 81.6616C298.445 79.3264 296.707 77.7054 295.272 76.4222C293.605 74.9319 291.453 73.3995 289.381 72.5631C286.348 71.3389 283.587 71.1648 283.587 71.1648H250.172V27.4496C250.172 27.4496 248.998 23.3278 247.212 21.3951C245.458 19.4973 241.531 18 241.531 18H217.383C217.383 18 214.418 19.0621 211.734 21.138C209.324 23.0019 208.694 25.9052 208.694 25.9052V92.1052H210.401V100.091H119.489C119.489 100.091 115.516 101.504 112.868 104.398C110.445 107.046 109.444 109.283 109.444 109.283V158.506H120.092V189.493V195.725H106.832V185.328H61.8279V220.236H72.1246V253.436H59.1659V244.395C59.1659 244.395 59.1659 242.643 57.3378 241.166C55.5098 239.688 55.0472 239.473 55.0472 239.473H28.2257L19.6367 242.286V243.341H18.381V244.646H16.9747L13.961 251.477V281.595V288.294H21.3381H27.7234V294.673H13.961V314.865L8.23505 318.933H5.32184L0.500001 321.244V343.026C0.500001 343.026 0.494665 344.583 1.25305 346.672C2.15676 349.161 4.04624 352.469 6.95764 355.666C9.2024 358.131 12.3674 360.621 15.217 361.826C18.1958 363.085 20.7417 363.284 20.7417 363.284H65.9466V359.718H72.1246V366.85H99.4485C99.4485 366.85 102.095 366.302 105.017 364.689C107.385 363.382 109.848 361.22 111.913 359.314C114.162 357.238 116.414 354.062 117.592 351.252C118.831 348.296 118.937 345.755 118.937 345.755V335.96H124.914V369.864H188.15V434.859L203.269 455H243.401L246.967 449.626V400.955H347.623L361.034 388.047V373.481H434.115V330.486H416.435V338.839H413.627ZM376.04 247.593H385.885V264.084H372.171V270.874H365.693H324.222V284.455H314.928V255.245H238.262V247.658H250.287V209.731V203.199H260.454V189.466H266.182V203.199H307.872V179.565L316.293 170.992L321.042 175.81V240.962L334.353 254.3H376.04V247.593ZM379.673 318.998V325.041H356.59V295.047H379.673V301.252H372.054V318.998H379.673ZM419.983 349.988V359.18H400.062V349.988H419.983ZM378.753 349.896V355.762H349.894V349.896H369.157H375.745H378.753ZM334.429 355.762V362.801H331.729V355.718H304.486L293.802 367.977V379.683H277.287V344.566H279.883L285.247 349.896H314.985V304.886L304.69 304.764V299.105H334.538V316.869H326.048V349.896H336.279V355.762H334.429ZM280.336 333.587H277.219L277.242 316.825L266.829 306.574H243.14V300.248H246.673V281.708H277.103L277.242 269.771H293.681V322.292V328.693H285.3L280.336 333.587ZM290.242 175.39L304.817 160.371L299.009 154.083H279.884V127.582H282.806V124.926H281.623V100.11H282.806V97.3855H278.626C278.626 97.3855 277.124 95.051 275.767 94.1386C274.409 93.2262 271.672 92.7129 271.672 92.7129H234.106H228.095H226.245V100.091H228.095V120.938H178.526V151.345H184.74V134.181H233.496V165.319V169.218V175.39H283.718H290.242ZM161.504 136.842H164.294L164.383 169.218H198.422V175.004H188.143V220.144H198.51V226.311H166.057C166.057 226.311 163.197 226.475 160.383 227.668C158.728 228.369 157.184 229.74 155.996 230.802C154.551 232.092 152.913 233.956 151.945 235.768C150.899 237.726 150.58 239.586 150.58 239.586V271.569H157.217V277.266H145.293C145.293 277.266 143.051 278.224 142.059 279.354C141.085 280.463 140.418 282.758 140.418 282.758V301.295H123.99V254.028V246.689H116.995H116.766C116.766 246.689 112.56 245.763 110.563 244.047C108.681 242.429 107.124 238.702 107.124 238.702V229.442H93.3139V220.087H103.401V217.923L104.42 217.064H106.647V213.563H120.012V223.714H142.446L147.315 219.769V218.05H147.92V182.87H154.95V163.057H147.877V159.034H161.504V136.842ZM222.002 255.245H211.658V300.309H221.885V306.608H198.553L188.21 316.913V332.273H162.934V324.301H172.966C172.966 324.301 175.634 323.469 176.779 322.216C177.981 320.901 178.527 318.002 178.527 318.002V277.266H171.8V257.145L181.521 247.658H216.015H222.002V255.245ZM250.28 317.202H257.864V379.694H213.61H207.203V317.202H215.242V327.782H250.28V317.202ZM154.107 343.044H188.21V349.095H146.046V321.591H102.82H96.9894V315.98H152.396V341.022L154.107 343.044ZM72.0503 321.591H75.1771V315.945H55.5214H49.1637V329.104H27.4063L25.7994 331.883C28.3327 334.388 33.4688 339.474 33.7468 339.787C34.0247 340.1 36.1208 341.452 37.1341 342.089H66.3178V345.476H72.0503V321.591ZM42.0037 268.113H72.1171V294.511H42.0037V268.113Z" fill="#271406"/>
<path d="M333.772 127.582C338.922 127.582 351.692 134.929 354.92 146.811V152.66H355.717V196.612H345.482V213.371M333.772 127.582C333.772 127.582 326.939 127.582 323.462 127.582M333.772 127.582H323.462M323.462 127.582H298.527V124.926H299.549V100.11H298.527V97.3855H302.103V87.723C302.103 87.723 301.1 83.8424 299.817 81.6616C298.445 79.3264 296.707 77.7054 295.272 76.4222C293.605 74.9319 291.453 73.3995 289.381 72.5631C286.348 71.3389 283.587 71.1648 283.587 71.1648H250.172V27.4496C250.172 27.4496 248.998 23.3278 247.212 21.3951C245.458 19.4973 241.531 18 241.531 18H217.383C217.383 18 214.418 19.0621 211.734 21.138C209.324 23.0019 208.694 25.9052 208.694 25.9052V92.1052H210.401V100.091H119.489C119.489 100.091 115.516 101.504 112.868 104.398C110.445 107.046 109.444 109.283 109.444 109.283V158.506H120.092V189.493M120.092 195.725H106.832V185.328H61.8279V220.236H72.1246V253.436H59.1659V244.395C59.1659 244.395 59.1659 242.643 57.3378 241.166C55.5098 239.688 55.0472 239.473 55.0472 239.473H28.2257L19.6367 242.286V243.341H18.381V244.646H16.9747L13.961 251.477V281.595M120.092 195.725H126.814V189.493H120.092M120.092 195.725V189.493M250.287 203.199H260.454V189.466H266.182V203.199H307.872V179.565L316.293 170.992L321.042 175.81V240.962L334.353 254.3H376.04V247.593H385.885V264.084H372.171V270.874M250.287 203.199V209.731M250.287 203.199H242.95V209.731H250.287M372.171 270.874V277.347H365.693V270.874M372.171 270.874H365.693M293.681 328.693H285.3L280.336 333.587H277.219L277.242 316.825L266.829 306.574H243.14V300.248H246.673V281.708H277.103L277.242 269.771H293.681V322.292M293.681 328.693H300.249V322.292H293.681M293.681 328.693V322.292M290.242 175.39L304.817 160.371L299.009 154.083H279.884V127.582H282.806V124.926H281.623V100.11H282.806V97.3855H278.626C278.626 97.3855 277.124 95.051 275.767 94.1386C274.409 93.2262 271.672 92.7129 271.672 92.7129H234.106M290.242 175.39V182.244H283.718V175.39M290.242 175.39H283.718M233.496 175.39H283.718M233.496 175.39H219.051V169.218H229.142M233.496 175.39V169.218M222.002 247.658V255.245H211.658V300.309H221.885V306.608H198.553L188.21 316.913V332.273H162.934V324.301H172.966C172.966 324.301 175.634 323.469 176.779 322.216C177.981 320.901 178.527 318.002 178.527 318.002V277.266H171.8V257.145L181.521 247.658H216.015M222.002 247.658V233.789H216.015V247.658M222.002 247.658H216.015M207.203 379.694V317.202H215.242V327.782H250.28V317.202H257.864V379.694H213.61M207.203 379.694V386.813H213.61V379.694M207.203 379.694H213.61M96.9894 321.591V315.98H152.396V341.022L154.107 343.044H188.21V349.095H146.046V321.591H102.82M96.9894 321.591H102.82M96.9894 321.591V328.317H102.82V321.591M49.1637 315.945V329.104H27.4063L25.7994 331.883C28.3327 334.388 33.4688 339.474 33.7468 339.787C34.0247 340.1 36.1208 341.452 37.1341 342.089H66.3178V345.476H72.0503V321.591H75.1771V315.945H55.5214M49.1637 315.945V308.701H55.5214V315.945M49.1637 315.945H55.5214M365.693 270.874H324.222V284.455H314.928V255.245H238.262V247.658H250.287V209.731M405.149 298.4L407.22 302.107L412.72 299.097L409.573 292.831L403.827 296.033L405.149 298.4ZM407.22 302.107L408.287 304.488L401.994 307.881L398.82 301.697L405.149 298.4M427.495 318.707V326.034H416.668M427.495 318.707V277.074L414.07 264.004H406.981V254.3H417.348V216.152H358.331V229.799H345.482V220.015M427.495 318.707H420.166V321.88M420.166 325.809V321.88M420.166 321.88H416.668V326.034M416.668 326.034H413.627V338.839H416.435V330.486H434.115V373.481H361.034V388.047L347.623 400.955H246.967V449.626L243.401 455H203.269L188.15 434.859V369.864H124.914V335.96H118.937V345.755C118.937 345.755 118.831 348.296 117.592 351.252C116.414 354.062 114.162 357.238 111.913 359.314C109.848 361.22 107.385 363.382 105.017 364.689C102.095 366.302 99.4485 366.85 99.4485 366.85H72.1246V359.718H65.9466V363.284H20.7417C20.7417 363.284 18.1958 363.085 15.217 361.826C12.3674 360.621 9.2024 358.131 6.95764 355.666C4.04624 352.469 2.15676 349.161 1.25305 346.672C0.494665 344.583 0.500001 343.026 0.500001 343.026V321.244L5.32184 318.933H8.23505L13.961 314.865V294.673H27.7234V288.294H21.3381M375.745 349.896H378.753V355.762H349.894V349.896H369.157M375.745 349.896V343.289H369.157V349.896M375.745 349.896H369.157M345.482 220.015H338.519V213.371H345.482M345.482 220.015V213.371M233.496 169.218H229.142M233.496 169.218V165.319M229.142 169.218V165.319H233.496M233.496 165.319V134.181H184.74V151.345H178.526V120.938H228.095V100.091H226.245V92.7129H228.095M21.3381 288.294H13.961V281.595M21.3381 288.294V281.595H13.961M123.99 254.028V246.689H116.995M123.99 254.028V301.295H140.418V282.758C140.418 282.758 141.085 280.463 142.059 279.354C143.051 278.224 145.293 277.266 145.293 277.266H157.217V271.569H150.58V239.586C150.58 239.586 150.899 237.726 151.945 235.768C152.913 233.956 154.551 232.092 155.996 230.802C157.184 229.74 158.728 228.369 160.383 227.668C163.197 226.475 166.057 226.311 166.057 226.311H198.51V220.144H188.143V175.004H198.422V169.218H164.383L164.294 136.842H161.504V159.034H147.877V163.057H154.95V182.87H147.92V218.05H147.315V219.769L142.446 223.714H120.012V213.563H106.647V217.064H104.42L103.401 217.923V220.087H93.3139V229.442H107.124V238.702C107.124 238.702 108.681 242.429 110.563 244.047C112.56 245.763 116.766 246.689 116.766 246.689H116.995M123.99 254.028H116.995V246.689M234.106 92.7129V85.6149H228.095V92.7129M234.106 92.7129H228.095M379.673 325.041V318.998H372.054V301.252H379.673V295.047H356.59V325.041H379.673ZM419.983 359.18V349.988H400.062V359.18H419.983ZM334.429 362.801V355.762H336.279V349.896H326.048V316.869H334.538V299.105H304.69V304.764L314.985 304.886V349.896H285.247L279.883 344.566H277.287V379.683H293.802V367.977L304.486 355.718H331.729V362.801H334.429ZM72.1171 268.113H42.0037V294.511H72.1171V268.113ZM34.5141 260.533V254.172H28.4454V260.533H34.5141ZM111.845 276.426L99.6634 280.966L97.3614 274.923L109.511 270.191L111.845 276.426Z" stroke="#B27C40"/>
<path d="M406.43 373.473V359.18M361.074 355.711V373.511M400.152 349.983H378.808M417.403 222.995H358.25M250.15 57.2557H247.847V50.2481H250.15M233.708 18.0326V21.3702H226.613V18.0326M208.62 30.6896H211.483V37.2862H208.817M147.956 162.961V164.964M147.956 182.955V172.102M147.956 172.102H143.789V164.964H147.956M147.956 172.102V164.964M243.145 300.237H221.956V293.519H218.629M218.629 293.519V300.237M218.629 293.519V286.93H211.684M178.544 301.432H174.668V298.396M174.668 298.396H178.415M174.668 298.396H171.599V277.24M171.664 257.536V247.459H181.677" stroke="#B27C40" stroke-width="0.5"/>
<circle cx="223.443" cy="198.682" r="5.13981" transform="rotate(-180 223.443 198.682)" stroke="#B27C40"/>
<circle cx="137.253" cy="128.115" r="3.08195" transform="rotate(-180 137.253 128.115)" stroke="#B27C40"/>
<path d="M400.28 355.807H378.612" stroke="#F08234" stroke-opacity="0.2" stroke-dasharray="2 2"/>
<path d="M243.267 306.597H221.599" stroke="#F08234" stroke-opacity="0.2" stroke-dasharray="2 2"/>
<path d="M97.0771 321.544H74.7973M97.0762 316H74.7973" stroke="#F08234" stroke-opacity="0.2" stroke-dasharray="2 2"/>
<path d="M413.168 349.549V325.564H416.174V321.361H419.71V318.225H427.172V301.833H408.855L407.904 302.577L408.855 304.849L401.79 308.567L398.279 301.833H372.375V318.523H380.101V325.547H356.222V349.549H368.657V342.981H376.217V349.549H413.168Z" fill="#F08234" fill-opacity="0.23"/>
<path d="M390.234 334.876V326.876H393.297C393.875 326.876 394.355 326.967 394.738 327.15C395.124 327.329 395.411 327.575 395.602 327.888C395.794 328.2 395.891 328.555 395.891 328.95C395.891 329.276 395.828 329.555 395.703 329.786C395.578 330.015 395.41 330.202 395.199 330.345C394.988 330.488 394.753 330.591 394.492 330.653V330.732C394.776 330.747 395.048 330.834 395.309 330.993C395.572 331.15 395.786 331.371 395.953 331.657C396.12 331.944 396.203 332.29 396.203 332.696C396.203 333.111 396.103 333.483 395.902 333.814C395.702 334.142 395.4 334.401 394.996 334.591C394.592 334.781 394.085 334.876 393.473 334.876H390.234ZM391.684 333.665H393.242C393.768 333.665 394.147 333.565 394.379 333.364C394.613 333.161 394.73 332.901 394.73 332.583C394.73 332.346 394.672 332.133 394.555 331.943C394.438 331.75 394.271 331.599 394.055 331.489C393.839 331.377 393.581 331.321 393.281 331.321H391.684V333.665ZM391.684 330.278H393.117C393.367 330.278 393.592 330.233 393.793 330.142C393.993 330.048 394.151 329.916 394.266 329.747C394.383 329.575 394.441 329.372 394.441 329.138C394.441 328.828 394.332 328.573 394.113 328.372C393.897 328.172 393.576 328.071 393.148 328.071H391.684V330.278Z" fill="white"/>
<path fill-rule="evenodd" clip-rule="evenodd" d="M58.6465 253.801V267.572H41.4525V294.9H28.2491V287.868H21.8106V281.222H14.482V251.611L17.3304 245.113H18.8436V243.903H20.127V242.702L28.3512 239.92H54.9171L57.5214 241.886L58.6465 243.665V253.801ZM34.9307 261.033V253.701H27.963V261.033H34.9307Z" fill="#F08234" fill-opacity="0.23"/>
<path d="M25.7495 279.61H24.2026L27.019 271.61H28.8081L31.6284 279.61H30.0815L27.9448 273.251H27.8823L25.7495 279.61ZM25.8003 276.473H30.019V277.637H25.8003V276.473Z" fill="white"/>
</svg>
