<svg width="434" height="473" viewBox="0 0 434 473" fill="none" xmlns="http://www.w3.org/2000/svg">
<path d="M39.6123 229.23C39.6123 230.335 38.7169 231.23 37.6123 231.23C36.5077 231.23 35.6123 230.335 35.6123 229.23C35.6123 228.125 36.5077 227.23 37.6123 227.23C38.7169 227.23 39.6123 228.125 39.6123 229.23Z" fill="#171717"/>
<path d="M38.6123 229.23C38.6123 229.782 38.1646 230.23 37.6123 230.23C37.06 230.23 36.6123 229.782 36.6123 229.23C36.6123 228.678 37.06 228.23 37.6123 228.23C38.1646 228.23 38.6123 228.678 38.6123 229.23Z" fill="white"/>
<path d="M338.894 259.73C338.894 260.835 337.998 261.73 336.894 261.73C335.789 261.73 334.894 260.835 334.894 259.73C334.894 258.625 335.789 257.73 336.894 257.73C337.998 257.73 338.894 258.625 338.894 259.73Z" fill="#171717"/>
<path d="M337.894 259.73C337.894 260.282 337.446 260.73 336.894 260.73C336.341 260.73 335.894 260.282 335.894 259.73C335.894 259.178 336.341 258.73 336.894 258.73C337.446 258.73 337.894 259.178 337.894 259.73Z" fill="white"/>
</svg>
