<svg width="447" height="474" viewBox="0 0 447 474" fill="none" xmlns="http://www.w3.org/2000/svg">
<path d="M355 302C355 303.105 354.105 304 353 304C351.895 304 351 303.105 351 302C351 300.895 351.895 300 353 300C354.105 300 355 300.895 355 302Z" fill="#171717"/>
<path d="M354 302C354 302.552 353.552 303 353 303C352.448 303 352 302.552 352 302C352 301.448 352.448 301 353 301C353.552 301 354 301.448 354 302Z" fill="white"/>
<path d="M54 228C54 229.105 53.1046 230 52 230C50.8954 230 50 229.105 50 228C50 226.895 50.8954 226 52 226C53.1046 226 54 226.895 54 228Z" fill="#171717"/>
<path d="M53 228C53 228.552 52.5523 229 52 229C51.4477 229 51 228.552 51 228C51 227.448 51.4477 227 52 227C52.5523 227 53 227.448 53 228Z" fill="white"/>
</svg>
