<svg width="458" height="473" viewBox="0 0 458 473" fill="none" xmlns="http://www.w3.org/2000/svg">
<rect x="157" y="390" width="4" height="25" fill="#57FBA9" fill-opacity="0.71"/>
<rect x="289" y="416" width="4" height="38" fill="#57FBA9" fill-opacity="0.71"/>
<rect x="298" y="27" width="4" height="39" fill="#57FBA9" fill-opacity="0.71"/>
<rect x="142" y="22.4418" width="4" height="60.1306" transform="rotate(-37.6217 142 22.4418)" fill="#57FBA9" fill-opacity="0.71"/>
<rect x="61" y="161" width="4" height="20" fill="#FB5757" fill-opacity="0.71"/>
<rect x="95" y="224" width="4" height="24" transform="rotate(-90 95 224)" fill="#FB5757" fill-opacity="0.71"/>
<rect x="42" y="300" width="4" height="28" transform="rotate(-90 42 300)" fill="#FB5757" fill-opacity="0.71"/>
<rect x="391" y="327" width="4" height="38" transform="rotate(-90 391 327)" fill="#FB5757" fill-opacity="0.71"/>
<rect x="373" y="169" width="4" height="32" transform="rotate(-90 373 169)" fill="#FB5757" fill-opacity="0.71"/>
<rect x="327" y="252" width="4" height="32" fill="#FB5757" fill-opacity="0.71"/>
<rect x="289" y="299" width="4" height="19" fill="#FB5757" fill-opacity="0.71"/>
</svg>
