<svg width="414" height="473" viewBox="0 0 414 473" fill="none" xmlns="http://www.w3.org/2000/svg">
<path d="M64 306C64 307.105 63.1046 308 62 308C60.8954 308 60 307.105 60 306C60 304.895 60.8954 304 62 304C63.1046 304 64 304.895 64 306Z" fill="#171717"/>
<path d="M63 306C63 306.552 62.5523 307 62 307C61.4477 307 61 306.552 61 306C61 305.448 61.4477 305 62 305C62.5523 305 63 305.448 63 306Z" fill="white"/>
<path d="M344 226C344 227.105 343.105 228 342 228C340.895 228 340 227.105 340 226C340 224.895 340.895 224 342 224C343.105 224 344 224.895 344 226Z" fill="#171717"/>
<path d="M343 226C343 226.552 342.552 227 342 227C341.448 227 341 226.552 341 226C341 225.448 341.448 225 342 225C342.552 225 343 225.448 343 226Z" fill="white"/>
</svg>
