<svg width="493" height="473" viewBox="0 0 493 473" fill="none" xmlns="http://www.w3.org/2000/svg">
<path fill-rule="evenodd" clip-rule="evenodd" d="M75.5638 284.391V268.765H94.0973L94.0973 324.534L114.625 345.127L114.625 360.042H94.2879V380.019L192.087 426.978H223.903L223.903 454.614H301.039V389.823H371.461C371.633 369.168 371.58 330.525 371.58 330.525H345.049V324.28H448.791L448.737 238.035H466.447L491.539 212.799V69.1921H372.439V18H260.247C258.549 19.2729 257.386 19.2895 255.083 19.6793L246.305 21.7447C244.025 22.364 243.326 23.1037 242.69 24.8429C239.683 30.3954 238.646 33.6903 236.494 38.2683L229.781 59.4392V62.5374L225.134 68.2174V79.933H96.6272V122.435H22.8707V154.45H33.3689C33.541 170.285 33.3689 201.955 33.3689 201.955H0.611694V264.464C0.611694 274.873 9.56061 284.391 19.9697 284.391H75.5638ZM196.645 115.723V144.639V145.155H204.996V151.468H245.566V181.817H256.632V170.974H248.37V141.025H279.352V148.77H289.922V142.331H281.539V69.159H254.05V115.723H196.645ZM289.417 220.536L281.934 220.544V173.039H269.541V170.974H321.774V119.337H374.879V130.181L370.748 136.377V143.606C372.523 147.299 374.596 147.274 374.596 152.438H373.304L360.682 164.579V193.846H368.683H376.301V200.393H368.683L368.465 200.393L336.8 200.391V192.694C336.8 192.694 305.596 192.515 289.417 192.688V220.536ZM205.068 352.261V396.535H223.879V356.097H240.86V353.456H211.722V301.657H243.84V284.322H153.889V344.914H147.98V352.261H205.068ZM317.243 364.574H269.541V248.221H239.592V261.337H225.134V236.118H336.823V211.188H339.802V251.659H378.111V255.667H370.508L367.551 266.125L364.539 268.973L366.346 272.314L370.836 282.333L371.877 289.133L337.32 298.191V301.169C336.573 301.9 335.059 303.425 334.971 303.688C334.883 303.951 332.087 305.696 330.7 306.536H327.274V329.354V330.525L321.83 340.394L320.228 343.437C319.479 345.145 318.657 345.702 317.243 346.748V364.574ZM75.0877 242.232V219.652H125.294V227.515H158.516V178.857H204.996V166.843H219.454V181.387H187.536V236.552H204.006V250.45H161.32V259.272H144.452V230.312H101.723L93.935 238.617V242.232H75.0877ZM52.7363 154.45V161.163H91.2808V195.759H133.805V145.155C150.881 145.155 160.454 145.155 177.529 145.155V115.723H118.664V154.45H52.7363ZM21.9732 236.579V227.448H33.2324V236.579H21.9732ZM54.6375 197.824V182.85H61.3693V197.824H54.6375ZM423.207 242.148H420.235V211.25H403.086V188.014H469.487V192.632H422.981V203.924H428.288C429.353 204.84 430.569 206.08 430.673 207.611C430.568 209.2 429.442 210.034 428.288 211.25H423.207V242.148ZM399.97 130.697H404.116V150.24H391.608V152.624H404.116V164.521H415.219V122.952H402.835V92.2529H337.701V99.4011H399.97V130.697ZM434.777 157.032V133.632H437.535V141.024H462.837V133.632H465.834V157.032H434.777ZM431.944 99.5224V92.1721H478.053V99.5224H431.944ZM406.207 284.817H396.551V294.473L406.207 294.527V284.817Z" fill="#271406"/>
<path d="M340.412 289.133L327.274 294.161V300.731L337.32 298.191L371.877 289.133L370.836 282.333L366.346 272.314L364.539 268.973L360.938 272.314C359.506 274.2 356.602 278.016 356.431 278.187C356.26 278.358 345.68 285.556 340.412 289.133Z" fill="#271406"/>
<path d="M337.32 298.191L327.274 300.731V306.536H330.7C332.087 305.696 334.883 303.951 334.971 303.688C335.059 303.425 336.573 301.9 337.32 301.169V298.191Z" fill="#271406"/>
<path d="M371.58 330.525C371.58 330.525 371.633 369.168 371.461 389.823H301.039V454.614H223.903L223.903 426.978H192.087L94.2879 380.019V360.042H114.625L114.625 345.127L94.0973 324.534L94.0973 268.765H75.5638V284.391H19.9697C9.56061 284.391 0.611694 274.873 0.611694 264.464V201.955M371.58 330.525C371.167 330.525 353.827 330.525 345.049 330.525M371.58 330.525H345.049M345.049 330.525V324.28H448.791L448.737 238.035H466.447L491.539 212.799V69.1921H372.439V18H260.247C258.549 19.2729 257.386 19.2895 255.083 19.6793L246.305 21.7447C244.025 22.364 243.326 23.1037 242.69 24.8429C239.683 30.3954 238.646 33.6903 236.494 38.2683L229.781 59.4392V62.5374L225.134 68.2174V79.933H96.6272V122.435H22.8707V154.45H33.3689C33.541 170.285 33.3689 201.955 33.3689 201.955M33.3689 201.955C33.3689 201.955 11.4553 201.955 0.611694 201.955M33.3689 201.955H0.611694M368.683 200.393V193.846M368.683 200.393L368.465 200.393M368.683 200.393H376.301M364.539 268.973L360.938 272.314C359.506 274.2 356.602 278.016 356.431 278.187C356.26 278.358 345.68 285.556 340.412 289.133L327.274 294.161V300.731M364.539 268.973L367.551 266.125L370.508 255.667H378.111V251.659H339.802V211.188H336.823V236.118H225.134V261.337H239.592V248.221H269.541V364.574H317.243V346.748C318.657 345.702 319.479 345.145 320.228 343.437L321.83 340.394L327.274 330.525V329.354V306.536M364.539 268.973L366.346 272.314L370.836 282.333L371.877 289.133L337.32 298.191M327.274 300.731L337.32 298.191M327.274 300.731V306.536M337.32 298.191V301.169C336.573 301.9 335.059 303.425 334.971 303.688C334.883 303.951 332.087 305.696 330.7 306.536H327.274M396.551 294.527V294.473M396.551 294.473V284.817H406.207V294.527L396.551 294.473ZM368.683 193.846H360.682V164.579L373.304 152.438H374.596C374.596 147.274 372.523 147.299 370.748 143.606V136.377L374.879 130.181V119.337H321.774V170.974H269.541V173.039H281.934V220.544L289.417 220.536V192.688C305.596 192.515 336.8 192.694 336.8 192.694V200.391L368.465 200.393M368.683 193.846H376.301V200.393M376.301 200.393L368.465 200.393M196.645 144.639V115.723H254.05V69.159H281.539V142.331H289.922V148.77H279.352V141.025H248.37V170.974H256.632V181.817H245.566V151.468H204.996V145.155H196.645V144.639ZM205.068 396.535V352.261H147.98V344.914H153.889V284.322H243.84V301.657H211.722V353.456H240.86V356.097H223.879V396.535H205.068ZM75.0877 219.652V242.232H93.935V238.617L101.723 230.312H144.452V259.272H161.32V250.45H204.006V236.552H187.536V181.387H219.454V166.843H204.996V178.857H158.516V227.515H125.294V219.652H75.0877ZM52.7363 161.163V154.45H118.664V115.723H177.529V145.155C160.454 145.155 150.881 145.155 133.805 145.155V195.759H91.2808V161.163H52.7363ZM21.9732 227.448V236.579H33.2324V227.448H21.9732ZM54.6375 182.85V197.824H61.3693V182.85H54.6375ZM420.235 242.148H423.207V211.25H428.288C429.442 210.034 430.568 209.2 430.673 207.611C430.569 206.08 429.353 204.84 428.288 203.924H422.981V192.632H469.487V188.014H403.086V211.25H420.235V242.148ZM404.116 164.521H415.219V122.952H402.835V92.2529H337.701V99.4011H399.97V130.697H404.116V150.24H391.608V152.624H404.116V164.521ZM434.777 133.632V157.032H465.834V133.632H462.837V141.024H437.535V133.632H434.777ZM431.944 92.1721V99.5224H478.053V92.1721H431.944Z" stroke="#B27C40"/>
<path d="M204.775 284.503C204.775 284.089 204.775 278.997 204.775 276.415H211.709V284.503" stroke="#B27C40"/>
<path d="M269.542 353.263H261.28V360.563M261.28 360.563L261.279 364.588H269.541L269.542 360.563H261.28Z" stroke="#B27C40"/>
<path d="M245.272 181.817V184.399M281.934 197.824H277.803M277.803 197.824H245.272V184.399M277.803 197.824V212.799H281.934M245.272 173.555H240.109V184.399H245.272" stroke="#B27C40"/>
<path d="M187.44 190.079H191.571M203.963 181.817V190.079H191.571M191.571 190.079V194.21H187.44M196.6 145.155V151.432H204.996M118.565 115.723V106.945H125.776V115.723M97.0442 131.214H23.2043" stroke="#B27C40"/>
<path d="M78.2507 161.163C78.2507 161.576 78.2507 164.466 78.2507 166.015H82.7875M82.7875 166.015V161.163M82.7875 166.015L82.7875 169.941H91.2746M21.9578 236.552V253.104H29.2381V237.068M62.2057 284.414L62.2057 280.2H66.3366M75.5665 276.173H66.8185L66.8185 284.414M144.065 251.655H135.717V259.272H144.065M147.682 344.874H139.937V352.288H147.682M182.199 352.812V373.465M182.199 381.727V397.218H189.505V381.727H185.374M182.199 381.727H185.374M182.199 381.727V373.465M185.374 381.727V373.465H182.199M228.07 319.505H229.678V321.102M228.07 319.505V321.102H229.678M228.07 319.505L229.678 321.102M228.07 336.608H229.619V338.157M228.07 336.608V338.157H229.619M228.07 336.608L229.619 338.157M405.978 285.044L409.579 283.244L413.899 284.204L416.239 284.744H435.742V291.045H434.842V294.585H405.978M378.039 251.761V243.682H371.224M371.224 243.682H367.144V251.516H371.224V243.682ZM111.534 287.155L102.217 296.054L109.941 312.457L130.209 319.259L142.644 314.264L146.754 298.707L140.979 287.469L121.862 283.024L111.534 287.155Z" stroke="#B27C40"/>
<path d="M470.712 99.1992V107.461H478.013V99.1992M461.974 91.9701V68.7338M431.812 99.3295L415.286 123.048M402.754 91.9701V84.2247H395.565V91.9701M372.814 39.1154H362.507V35.4111M362.507 17.6139V31.7143M372.814 31.7143H362.507M362.507 31.7143V35.4111M352.159 17.6139V26.3368L362.507 35.4111" stroke="#B27C40"/>
<path d="M61.5312 197.574V236.839H33.1035V235.479H60.335V197.574H61.5312Z" stroke="#B27C40" stroke-width="0.5"/>
<path d="M245.789 183.967C236.261 186.285 229.187 194.874 229.187 205.115C229.187 217.135 238.932 226.879 250.952 226.88C262.972 226.88 272.716 217.135 272.717 205.115C272.717 202.364 272.205 199.732 271.273 197.308H271.808C272.718 199.738 273.217 202.368 273.217 205.115C273.216 217.411 263.248 227.38 250.952 227.38C238.656 227.379 228.687 217.411 228.687 205.115C228.687 194.596 235.982 185.781 245.789 183.452V183.967Z" fill="#B27C40"/>
<path d="M446.198 157.034V165.919H453.928V157.034H446.198Z" stroke="#B27C40"/>
<path d="M244.756 173.039H239.592V184.915H244.756V209.245H204.479V182.333H219.971V166.326H244.756V173.039Z" fill="#F08234" fill-opacity="0.23"/>
<path d="M281.418 198.34H277.287V209.184H281.418L244.756 209.225V198.34L281.418 198.3V198.34Z" fill="#F08234" fill-opacity="0.23"/>
<path d="M217.661 197.981V189.981H220.724C221.302 189.981 221.782 190.072 222.165 190.254C222.551 190.434 222.838 190.68 223.028 190.992C223.221 191.305 223.318 191.659 223.318 192.055C223.318 192.38 223.255 192.659 223.13 192.891C223.005 193.12 222.837 193.306 222.626 193.449C222.415 193.593 222.179 193.696 221.919 193.758V193.836C222.203 193.852 222.475 193.939 222.735 194.098C222.998 194.254 223.213 194.476 223.38 194.762C223.547 195.048 223.63 195.395 223.63 195.801C223.63 196.215 223.53 196.587 223.329 196.918C223.129 197.246 222.827 197.505 222.423 197.696C222.019 197.886 221.512 197.981 220.9 197.981H217.661ZM219.11 196.77H220.669C221.195 196.77 221.574 196.67 221.806 196.469C222.04 196.266 222.157 196.005 222.157 195.688C222.157 195.451 222.099 195.237 221.982 195.047C221.864 194.854 221.698 194.703 221.482 194.594C221.265 194.482 221.008 194.426 220.708 194.426H219.11V196.77ZM219.11 193.383H220.544C220.794 193.383 221.019 193.337 221.22 193.246C221.42 193.153 221.578 193.021 221.693 192.852C221.81 192.68 221.868 192.477 221.868 192.242C221.868 191.933 221.759 191.677 221.54 191.477C221.324 191.276 221.002 191.176 220.575 191.176H219.11V193.383Z" fill="white"/>
<path d="M470.18 107.977H478.284V99.7156H492.093V164.26H454.217V157.549H466.101L466.102 140.509H466.179V133.37H463.177V140.509H438.057V132.762H438.011V99.7156H470.18V107.977Z" fill="#F08234" fill-opacity="0.2"/>
<path d="M448.986 123.625H447.439L450.256 115.625H452.045L454.865 123.625H453.318L451.182 117.265H451.119L448.986 123.625ZM449.037 120.488H453.256V121.652H449.037V120.488Z" fill="white"/>
<path d="M33.0471 198.341H60.0994V235.185H33.0471V198.341Z" fill="#F08234" fill-opacity="0.23"/>
<path d="M33.0471 182.334H53.7016V198.341H33.0471V182.334Z" fill="#F08234" fill-opacity="0.23"/>
<path d="M0 202.472H33.0472V227.257H0V202.472Z" fill="#F08234" fill-opacity="0.23"/>
<path d="M41.7166 211.269H40.2556C40.2139 211.03 40.1371 210.817 40.0251 210.632C39.9132 210.445 39.7738 210.286 39.6072 210.156C39.4405 210.026 39.2504 209.928 39.0369 209.863C38.8259 209.795 38.5981 209.761 38.3533 209.761C37.9184 209.761 37.533 209.871 37.197 210.089C36.8611 210.306 36.5981 210.623 36.408 211.043C36.2179 211.459 36.1228 211.968 36.1228 212.57C36.1228 213.182 36.2179 213.698 36.408 214.117C36.6007 214.533 36.8637 214.849 37.197 215.062C37.533 215.273 37.9171 215.379 38.3494 215.379C38.5889 215.379 38.8129 215.347 39.0212 215.285C39.2322 215.22 39.421 215.125 39.5876 215C39.7569 214.875 39.8988 214.721 40.0134 214.539C40.1306 214.356 40.2113 214.148 40.2556 213.914L41.7166 213.922C41.6619 214.302 41.5434 214.658 41.3611 214.992C41.1814 215.325 40.9457 215.619 40.6541 215.875C40.3624 216.127 40.0212 216.325 39.6306 216.468C39.24 216.609 38.8064 216.679 38.3298 216.679C37.6267 216.679 36.9991 216.517 36.447 216.191C35.8949 215.866 35.46 215.395 35.1423 214.781C34.8246 214.166 34.6658 213.429 34.6658 212.57C34.6658 211.708 34.8259 210.971 35.1462 210.359C35.4666 209.744 35.9028 209.274 36.4548 208.949C37.0069 208.623 37.6319 208.461 38.3298 208.461C38.7751 208.461 39.1892 208.523 39.572 208.648C39.9548 208.773 40.296 208.957 40.5955 209.199C40.8949 209.438 41.141 209.733 41.3337 210.082C41.5291 210.428 41.6567 210.824 41.7166 211.269Z" fill="white"/>
</svg>
