<svg width="385" height="473" viewBox="0 0 385 473" fill="none" xmlns="http://www.w3.org/2000/svg">
<rect x="211" y="56" width="37" height="9" rx="2" transform="rotate(180 211 56)" fill="#18181B" fill-opacity="0.8"/>
<rect x="210.75" y="55.75" width="36.5" height="8.5" rx="1.75" transform="rotate(180 210.75 55.75)" stroke="#27272A" stroke-opacity="0.8" stroke-width="0.5"/>
<path d="M177.006 54H176.307L177.878 49.6364H178.638L180.209 54H179.51L178.276 50.429H178.242L177.006 54ZM177.123 52.2912H179.39V52.8452H177.123V52.2912ZM180.108 50.2031V49.6364H183.485V50.2031H182.124V54H181.467V50.2031H180.108ZM184.231 54V49.6364H184.89V51.7202H184.943L186.773 49.6364H187.602L185.842 51.6009L187.608 54H186.816L185.405 52.0504L184.89 52.6428V54H184.231ZM192.184 50.7827C192.161 50.581 192.067 50.4247 191.902 50.3139C191.738 50.2017 191.53 50.1456 191.28 50.1456C191.101 50.1456 190.946 50.174 190.816 50.2308C190.685 50.2862 190.583 50.3629 190.511 50.4609C190.44 50.5575 190.404 50.6676 190.404 50.7912C190.404 50.8949 190.429 50.9844 190.477 51.0597C190.527 51.1349 190.591 51.1982 190.671 51.2493C190.752 51.299 190.838 51.3409 190.931 51.375C191.023 51.4077 191.112 51.4347 191.197 51.456L191.623 51.5668C191.762 51.6009 191.905 51.647 192.051 51.7053C192.198 51.7635 192.333 51.8402 192.458 51.9354C192.583 52.0305 192.684 52.1484 192.761 52.2891C192.839 52.4297 192.878 52.598 192.878 52.794C192.878 53.0412 192.814 53.2607 192.686 53.4524C192.56 53.6442 192.376 53.7955 192.135 53.9062C191.895 54.017 191.604 54.0724 191.263 54.0724C190.936 54.0724 190.654 54.0206 190.415 53.9169C190.176 53.8132 189.99 53.6662 189.855 53.4759C189.72 53.2841 189.645 53.0568 189.631 52.794H190.292C190.304 52.9517 190.355 53.0831 190.445 53.1882C190.536 53.2919 190.652 53.3693 190.792 53.4205C190.934 53.4702 191.09 53.495 191.259 53.495C191.445 53.495 191.61 53.4659 191.755 53.4077C191.902 53.348 192.017 53.2656 192.1 53.1605C192.184 53.054 192.226 52.9297 192.226 52.7876C192.226 52.6584 192.189 52.5526 192.115 52.4702C192.043 52.3878 191.944 52.3196 191.819 52.2656C191.696 52.2116 191.556 52.1641 191.4 52.1229L190.884 51.9822C190.534 51.8871 190.257 51.7472 190.053 51.5625C189.85 51.3778 189.748 51.1335 189.748 50.8295C189.748 50.5781 189.816 50.3587 189.953 50.1712C190.089 49.9837 190.274 49.8381 190.507 49.7344C190.74 49.6293 191.002 49.5767 191.295 49.5767C191.591 49.5767 191.851 49.6286 192.077 49.7322C192.304 49.8359 192.483 49.9787 192.614 50.1605C192.745 50.3409 192.813 50.5483 192.819 50.7827H192.184ZM193.614 55.2273V50.7273H194.236V51.2578H194.289C194.326 51.1896 194.379 51.1108 194.449 51.0213C194.519 50.9318 194.615 50.8537 194.739 50.7869C194.862 50.7188 195.026 50.6847 195.229 50.6847C195.493 50.6847 195.729 50.7514 195.936 50.8849C196.144 51.0185 196.306 51.2109 196.424 51.4624C196.544 51.7138 196.603 52.0163 196.603 52.37C196.603 52.7237 196.544 53.027 196.426 53.2798C196.308 53.5312 196.146 53.7251 195.941 53.8615C195.735 53.9964 195.499 54.0639 195.235 54.0639C195.036 54.0639 194.874 54.0305 194.747 53.9638C194.622 53.897 194.524 53.8189 194.453 53.7294C194.382 53.6399 194.328 53.5604 194.289 53.4908H194.251V55.2273H193.614ZM194.238 52.3636C194.238 52.5937 194.271 52.7955 194.338 52.9688C194.405 53.142 194.502 53.2777 194.628 53.3757C194.754 53.4723 194.909 53.5206 195.093 53.5206C195.283 53.5206 195.442 53.4702 195.57 53.3693C195.698 53.267 195.794 53.1286 195.86 52.9538C195.926 52.7791 195.96 52.5824 195.96 52.3636C195.96 52.1477 195.927 51.9538 195.862 51.782C195.798 51.6101 195.701 51.4744 195.572 51.375C195.444 51.2756 195.284 51.2259 195.093 51.2259C194.908 51.2259 194.752 51.2734 194.624 51.3686C194.497 51.4638 194.401 51.5966 194.336 51.767C194.271 51.9375 194.238 52.1364 194.238 52.3636ZM198.269 54.0724C198.062 54.0724 197.874 54.0341 197.707 53.9574C197.539 53.8793 197.406 53.7663 197.308 53.6186C197.212 53.4709 197.164 53.2898 197.164 53.0753C197.164 52.8906 197.199 52.7386 197.27 52.6193C197.341 52.5 197.437 52.4055 197.558 52.3359C197.678 52.2663 197.813 52.2138 197.963 52.1783C198.112 52.1428 198.264 52.1158 198.419 52.0973C198.615 52.0746 198.774 52.0561 198.896 52.0419C199.018 52.0263 199.107 52.0014 199.162 51.9673C199.218 51.9332 199.245 51.8778 199.245 51.8011V51.7862C199.245 51.6001 199.193 51.456 199.088 51.3537C198.984 51.2514 198.829 51.2003 198.623 51.2003C198.409 51.2003 198.24 51.2479 198.116 51.343C197.994 51.4368 197.909 51.5412 197.862 51.6562L197.264 51.5199C197.335 51.321 197.438 51.1605 197.575 51.0384C197.713 50.9148 197.871 50.8253 198.05 50.7699C198.229 50.7131 198.417 50.6847 198.615 50.6847C198.745 50.6847 198.884 50.7003 199.03 50.7315C199.178 50.7614 199.316 50.8168 199.443 50.8977C199.573 50.9787 199.678 51.0945 199.761 51.245C199.843 51.3942 199.884 51.5881 199.884 51.8267V54H199.262V53.5526H199.237C199.195 53.6349 199.134 53.7159 199.051 53.7955C198.969 53.875 198.863 53.9411 198.734 53.9936C198.605 54.0462 198.45 54.0724 198.269 54.0724ZM198.408 53.5611C198.584 53.5611 198.735 53.5263 198.86 53.4567C198.986 53.3871 199.082 53.2962 199.147 53.1839C199.214 53.0703 199.247 52.9489 199.247 52.8196V52.3977C199.225 52.4205 199.181 52.4418 199.115 52.4616C199.051 52.4801 198.978 52.4964 198.896 52.5107C198.813 52.5234 198.733 52.5355 198.655 52.5469C198.577 52.5568 198.512 52.5653 198.459 52.5724C198.335 52.5881 198.222 52.6143 198.12 52.6513C198.019 52.6882 197.938 52.7415 197.877 52.8111C197.818 52.8793 197.788 52.9702 197.788 53.0838C197.788 53.2415 197.846 53.3608 197.963 53.4418C198.079 53.5213 198.227 53.5611 198.408 53.5611ZM201.442 54L200.479 50.7273H201.138L201.779 53.1307H201.811L202.455 50.7273H203.113L203.752 53.12H203.784L204.421 50.7273H205.08L204.119 54H203.469L202.804 51.6371H202.755L202.09 54H201.442ZM206.321 52.0568V54H205.684V50.7273H206.296V51.2599H206.336C206.411 51.0866 206.529 50.9474 206.69 50.8423C206.852 50.7372 207.056 50.6847 207.301 50.6847C207.524 50.6847 207.72 50.7315 207.887 50.8253C208.055 50.9176 208.185 51.0554 208.277 51.2386C208.369 51.4219 208.416 51.6484 208.416 51.9183V54H207.779V51.995C207.779 51.7578 207.717 51.5724 207.593 51.4389C207.47 51.304 207.3 51.2365 207.084 51.2365C206.936 51.2365 206.805 51.2685 206.69 51.3324C206.576 51.3963 206.486 51.4901 206.419 51.6136C206.354 51.7358 206.321 51.8835 206.321 52.0568Z" fill="white"/>
<rect x="286" y="156" width="28" height="9" rx="2" transform="rotate(180 286 156)" fill="#18181B" fill-opacity="0.8"/>
<rect x="285.75" y="155.75" width="27.5" height="8.5" rx="1.75" transform="rotate(180 285.75 155.75)" stroke="#27272A" stroke-opacity="0.8" stroke-width="0.5"/>
<path d="M260.822 154V149.636H262.42C262.73 149.636 262.986 149.687 263.189 149.79C263.392 149.891 263.544 150.028 263.645 150.201C263.746 150.373 263.797 150.567 263.797 150.783C263.797 150.964 263.763 151.118 263.696 151.243C263.63 151.366 263.54 151.466 263.428 151.541C263.317 151.615 263.195 151.669 263.062 151.703V151.746C263.206 151.753 263.348 151.8 263.486 151.886C263.625 151.972 263.74 152.093 263.831 152.251C263.922 152.408 263.967 152.6 263.967 152.826C263.967 153.049 263.915 153.249 263.809 153.427C263.706 153.603 263.545 153.743 263.328 153.847C263.111 153.949 262.833 154 262.495 154H260.822ZM261.481 153.435H262.431C262.746 153.435 262.972 153.374 263.108 153.252C263.245 153.13 263.313 152.977 263.313 152.794C263.313 152.656 263.278 152.53 263.209 152.415C263.139 152.3 263.04 152.208 262.91 152.14C262.782 152.072 262.63 152.038 262.454 152.038H261.481V153.435ZM261.481 151.524H262.363C262.51 151.524 262.643 151.496 262.761 151.439C262.88 151.382 262.975 151.303 263.044 151.2C263.116 151.097 263.151 150.974 263.151 150.834C263.151 150.653 263.088 150.502 262.961 150.38C262.835 150.258 262.641 150.197 262.38 150.197H261.481V151.524ZM266.336 154V149.636H266.994V153.433H268.972V154H266.336ZM271.05 154.066C270.743 154.066 270.475 153.996 270.247 153.855C270.018 153.714 269.84 153.518 269.714 153.265C269.588 153.012 269.524 152.717 269.524 152.379C269.524 152.039 269.588 151.742 269.714 151.488C269.84 151.234 270.018 151.036 270.247 150.896C270.475 150.755 270.743 150.685 271.05 150.685C271.357 150.685 271.625 150.755 271.853 150.896C272.082 151.036 272.259 151.234 272.386 151.488C272.512 151.742 272.576 152.039 272.576 152.379C272.576 152.717 272.512 153.012 272.386 153.265C272.259 153.518 272.082 153.714 271.853 153.855C271.625 153.996 271.357 154.066 271.05 154.066ZM271.052 153.531C271.251 153.531 271.416 153.479 271.546 153.374C271.677 153.268 271.774 153.129 271.836 152.954C271.9 152.779 271.932 152.587 271.932 152.376C271.932 152.168 271.9 151.976 271.836 151.801C271.774 151.625 271.677 151.484 271.546 151.377C271.416 151.271 271.251 151.217 271.052 151.217C270.852 151.217 270.686 151.271 270.554 151.377C270.423 151.484 270.326 151.625 270.262 151.801C270.199 151.976 270.168 152.168 270.168 152.376C270.168 152.587 270.199 152.779 270.262 152.954C270.326 153.129 270.423 153.268 270.554 153.374C270.686 153.479 270.852 153.531 271.052 153.531ZM273.338 154V149.636H273.975V151.258H274.013C274.05 151.19 274.103 151.111 274.173 151.021C274.243 150.932 274.339 150.854 274.463 150.787C274.586 150.719 274.75 150.685 274.953 150.685C275.217 150.685 275.453 150.751 275.66 150.885C275.868 151.018 276.03 151.211 276.148 151.462C276.267 151.714 276.327 152.016 276.327 152.37C276.327 152.724 276.268 153.027 276.15 153.28C276.032 153.531 275.87 153.725 275.665 153.862C275.459 153.996 275.223 154.064 274.959 154.064C274.76 154.064 274.598 154.031 274.471 153.964C274.346 153.897 274.248 153.819 274.177 153.729C274.106 153.64 274.052 153.56 274.013 153.491H273.96V154H273.338ZM273.962 152.364C273.962 152.594 273.995 152.795 274.062 152.969C274.129 153.142 274.226 153.278 274.352 153.376C274.478 153.472 274.633 153.521 274.816 153.521C275.007 153.521 275.166 153.47 275.294 153.369C275.422 153.267 275.518 153.129 275.584 152.954C275.65 152.779 275.684 152.582 275.684 152.364C275.684 152.148 275.651 151.954 275.586 151.782C275.522 151.61 275.425 151.474 275.296 151.375C275.168 151.276 275.008 151.226 274.816 151.226C274.632 151.226 274.476 151.273 274.348 151.369C274.221 151.464 274.125 151.597 274.06 151.767C273.995 151.937 273.962 152.136 273.962 152.364ZM277.094 154V149.636H277.731V151.258H277.769C277.806 151.19 277.859 151.111 277.929 151.021C277.998 150.932 278.095 150.854 278.219 150.787C278.342 150.719 278.506 150.685 278.709 150.685C278.973 150.685 279.209 150.751 279.416 150.885C279.623 151.018 279.786 151.211 279.904 151.462C280.023 151.714 280.083 152.016 280.083 152.37C280.083 152.724 280.024 153.027 279.906 153.28C279.788 153.531 279.626 153.725 279.42 153.862C279.214 153.996 278.979 154.064 278.715 154.064C278.516 154.064 278.354 154.031 278.227 153.964C278.102 153.897 278.004 153.819 277.933 153.729C277.862 153.64 277.807 153.56 277.769 153.491H277.716V154H277.094ZM277.718 152.364C277.718 152.594 277.751 152.795 277.818 152.969C277.885 153.142 277.981 153.278 278.108 153.376C278.234 153.472 278.389 153.521 278.572 153.521C278.763 153.521 278.922 153.47 279.05 153.369C279.177 153.267 279.274 153.129 279.339 152.954C279.406 152.779 279.44 152.582 279.44 152.364C279.44 152.148 279.407 151.954 279.342 151.782C279.278 151.61 279.181 151.474 279.052 151.375C278.924 151.276 278.764 151.226 278.572 151.226C278.388 151.226 278.231 151.273 278.104 151.369C277.977 151.464 277.881 151.597 277.816 151.767C277.751 151.937 277.718 152.136 277.718 152.364ZM281.09 155.227C280.995 155.227 280.908 155.219 280.83 155.204C280.752 155.19 280.693 155.174 280.655 155.157L280.809 154.635C280.925 154.666 281.029 154.68 281.12 154.675C281.21 154.671 281.291 154.637 281.36 154.573C281.431 154.509 281.494 154.405 281.548 154.26L281.627 154.043L280.429 150.727H281.111L281.94 153.267H281.974L282.803 150.727H283.487L282.138 154.437C282.076 154.607 281.996 154.751 281.899 154.869C281.803 154.989 281.688 155.078 281.554 155.138C281.421 155.197 281.266 155.227 281.09 155.227Z" fill="white"/>
<rect x="207" y="147" width="38" height="9" rx="2" transform="rotate(180 207 147)" fill="#18181B" fill-opacity="0.8"/>
<rect x="206.75" y="146.75" width="37.5" height="8.5" rx="1.75" transform="rotate(180 206.75 146.75)" stroke="#27272A" stroke-opacity="0.8" stroke-width="0.5"/>
<path d="M171.924 140.636H172.723L174.112 144.028H174.163L175.552 140.636H176.351V145H175.725V141.842H175.684L174.397 144.994H173.878L172.591 141.84H172.55V145H171.924V140.636ZM177.257 145V141.727H177.894V145H177.257ZM177.579 141.222C177.468 141.222 177.373 141.185 177.294 141.112C177.215 141.036 177.176 140.947 177.176 140.843C177.176 140.738 177.215 140.648 177.294 140.575C177.373 140.499 177.468 140.462 177.579 140.462C177.69 140.462 177.784 140.499 177.862 140.575C177.942 140.648 177.982 140.738 177.982 140.843C177.982 140.947 177.942 141.036 177.862 141.112C177.784 141.185 177.69 141.222 177.579 141.222ZM179.977 145.064C179.712 145.064 179.477 144.996 179.269 144.862C179.063 144.725 178.901 144.531 178.783 144.28C178.667 144.027 178.609 143.724 178.609 143.37C178.609 143.016 178.668 142.714 178.786 142.462C178.905 142.211 179.068 142.018 179.276 141.885C179.483 141.751 179.718 141.685 179.981 141.685C180.184 141.685 180.347 141.719 180.471 141.787C180.596 141.854 180.693 141.932 180.761 142.021C180.83 142.111 180.884 142.19 180.923 142.258H180.961V140.636H181.598V145H180.976V144.491H180.923C180.884 144.56 180.829 144.64 180.756 144.729C180.685 144.819 180.587 144.897 180.462 144.964C180.337 145.031 180.176 145.064 179.977 145.064ZM180.117 144.521C180.301 144.521 180.455 144.472 180.582 144.376C180.71 144.278 180.806 144.142 180.872 143.969C180.938 143.795 180.972 143.594 180.972 143.364C180.972 143.136 180.939 142.937 180.874 142.767C180.808 142.597 180.712 142.464 180.586 142.369C180.46 142.273 180.303 142.226 180.117 142.226C179.926 142.226 179.766 142.276 179.638 142.375C179.51 142.474 179.413 142.61 179.348 142.782C179.284 142.954 179.252 143.148 179.252 143.364C179.252 143.582 179.285 143.779 179.35 143.954C179.416 144.129 179.512 144.267 179.64 144.369C179.769 144.47 179.928 144.521 180.117 144.521ZM184.146 145V140.636H185.744C186.054 140.636 186.31 140.687 186.514 140.79C186.717 140.891 186.869 141.028 186.97 141.201C187.07 141.373 187.121 141.567 187.121 141.783C187.121 141.964 187.087 142.118 187.021 142.243C186.954 142.366 186.864 142.466 186.752 142.541C186.641 142.615 186.519 142.669 186.386 142.703V142.746C186.531 142.753 186.672 142.8 186.81 142.886C186.949 142.972 187.064 143.093 187.155 143.251C187.246 143.408 187.291 143.6 187.291 143.826C187.291 144.049 187.239 144.249 187.134 144.427C187.03 144.603 186.869 144.743 186.652 144.847C186.435 144.949 186.157 145 185.819 145H184.146ZM184.805 144.435H185.755C186.07 144.435 186.296 144.374 186.433 144.252C186.569 144.13 186.637 143.977 186.637 143.794C186.637 143.656 186.602 143.53 186.533 143.415C186.463 143.3 186.364 143.208 186.234 143.14C186.107 143.072 185.955 143.038 185.778 143.038H184.805V144.435ZM184.805 142.524H185.687C185.835 142.524 185.967 142.496 186.085 142.439C186.205 142.382 186.299 142.303 186.369 142.2C186.44 142.097 186.475 141.974 186.475 141.834C186.475 141.653 186.412 141.502 186.286 141.38C186.159 141.258 185.965 141.197 185.704 141.197H184.805V142.524ZM189.4 145.066C189.093 145.066 188.825 144.996 188.596 144.855C188.368 144.714 188.19 144.518 188.064 144.265C187.937 144.012 187.874 143.717 187.874 143.379C187.874 143.039 187.937 142.742 188.064 142.488C188.19 142.234 188.368 142.036 188.596 141.896C188.825 141.755 189.093 141.685 189.4 141.685C189.706 141.685 189.974 141.755 190.203 141.896C190.432 142.036 190.609 142.234 190.736 142.488C190.862 142.742 190.925 143.039 190.925 143.379C190.925 143.717 190.862 144.012 190.736 144.265C190.609 144.518 190.432 144.714 190.203 144.855C189.974 144.996 189.706 145.066 189.4 145.066ZM189.402 144.531C189.601 144.531 189.765 144.479 189.896 144.374C190.027 144.268 190.123 144.129 190.186 143.954C190.25 143.779 190.282 143.587 190.282 143.376C190.282 143.168 190.25 142.976 190.186 142.801C190.123 142.625 190.027 142.484 189.896 142.377C189.765 142.271 189.601 142.217 189.402 142.217C189.201 142.217 189.035 142.271 188.903 142.377C188.772 142.484 188.675 142.625 188.611 142.801C188.549 142.976 188.517 143.168 188.517 143.376C188.517 143.587 188.549 143.779 188.611 143.954C188.675 144.129 188.772 144.268 188.903 144.374C189.035 144.479 189.201 144.531 189.402 144.531ZM193.164 141.727V142.239H191.376V141.727H193.164ZM191.856 140.943H192.493V144.039C192.493 144.163 192.511 144.256 192.548 144.318C192.585 144.379 192.633 144.421 192.691 144.444C192.751 144.465 192.815 144.476 192.885 144.476C192.936 144.476 192.981 144.472 193.019 144.465C193.057 144.458 193.087 144.452 193.109 144.448L193.224 144.974C193.187 144.989 193.134 145.003 193.066 145.017C192.998 145.033 192.913 145.041 192.81 145.043C192.643 145.045 192.486 145.016 192.342 144.953C192.197 144.891 192.079 144.794 191.99 144.663C191.9 144.533 191.856 144.369 191.856 144.171V140.943ZM195.396 141.727V142.239H193.609V141.727H195.396ZM194.088 140.943H194.725V144.039C194.725 144.163 194.744 144.256 194.781 144.318C194.818 144.379 194.865 144.421 194.923 144.444C194.983 144.465 195.048 144.476 195.117 144.476C195.168 144.476 195.213 144.472 195.252 144.465C195.29 144.458 195.32 144.452 195.341 144.448L195.456 144.974C195.419 144.989 195.367 145.003 195.298 145.017C195.23 145.033 195.145 145.041 195.043 145.043C194.875 145.045 194.719 145.016 194.574 144.953C194.429 144.891 194.312 144.794 194.222 144.663C194.133 144.533 194.088 144.369 194.088 144.171V140.943ZM197.445 145.066C197.138 145.066 196.87 144.996 196.641 144.855C196.413 144.714 196.235 144.518 196.109 144.265C195.982 144.012 195.919 143.717 195.919 143.379C195.919 143.039 195.982 142.742 196.109 142.488C196.235 142.234 196.413 142.036 196.641 141.896C196.87 141.755 197.138 141.685 197.445 141.685C197.751 141.685 198.019 141.755 198.248 141.896C198.476 142.036 198.654 142.234 198.78 142.488C198.907 142.742 198.97 143.039 198.97 143.379C198.97 143.717 198.907 144.012 198.78 144.265C198.654 144.518 198.476 144.714 198.248 144.855C198.019 144.996 197.751 145.066 197.445 145.066ZM197.447 144.531C197.646 144.531 197.81 144.479 197.941 144.374C198.072 144.268 198.168 144.129 198.231 143.954C198.295 143.779 198.327 143.587 198.327 143.376C198.327 143.168 198.295 142.976 198.231 142.801C198.168 142.625 198.072 142.484 197.941 142.377C197.81 142.271 197.646 142.217 197.447 142.217C197.246 142.217 197.08 142.271 196.948 142.377C196.817 142.484 196.72 142.625 196.656 142.801C196.594 142.976 196.562 143.168 196.562 143.376C196.562 143.587 196.594 143.779 196.656 143.954C196.72 144.129 196.817 144.268 196.948 144.374C197.08 144.479 197.246 144.531 197.447 144.531ZM199.681 145V141.727H200.293V142.26H200.333C200.401 142.08 200.513 141.939 200.668 141.838C200.823 141.736 201.008 141.685 201.224 141.685C201.443 141.685 201.626 141.736 201.774 141.838C201.923 141.94 202.033 142.081 202.104 142.26H202.138C202.216 142.085 202.34 141.946 202.511 141.842C202.681 141.737 202.884 141.685 203.12 141.685C203.417 141.685 203.659 141.778 203.847 141.964C204.036 142.15 204.13 142.43 204.13 142.805V145H203.493V142.865C203.493 142.643 203.433 142.483 203.312 142.384C203.191 142.284 203.047 142.234 202.879 142.234C202.672 142.234 202.511 142.298 202.396 142.426C202.281 142.553 202.223 142.715 202.223 142.914V145H201.588V142.825C201.588 142.647 201.533 142.504 201.422 142.396C201.311 142.288 201.167 142.234 200.989 142.234C200.869 142.234 200.757 142.266 200.655 142.33C200.554 142.393 200.472 142.48 200.41 142.592C200.349 142.705 200.318 142.835 200.318 142.982V145H199.681Z" fill="white"/>
<rect x="132" y="143" width="28" height="9" rx="2" transform="rotate(180 132 143)" fill="#18181B" fill-opacity="0.8"/>
<rect x="131.75" y="142.75" width="27.5" height="8.5" rx="1.75" transform="rotate(180 131.75 142.75)" stroke="#27272A" stroke-opacity="0.8" stroke-width="0.5"/>
<path d="M107.053 141H106.354L107.925 136.636H108.685L110.256 141H109.557L108.323 137.429H108.289L107.053 141ZM107.17 139.291H109.437V139.845H107.17V139.291ZM112.474 141V136.636H113.132V140.433H115.109V141H112.474ZM117.188 141.066C116.881 141.066 116.613 140.996 116.384 140.855C116.156 140.714 115.978 140.518 115.852 140.265C115.725 140.012 115.662 139.717 115.662 139.379C115.662 139.039 115.725 138.742 115.852 138.488C115.978 138.234 116.156 138.036 116.384 137.896C116.613 137.755 116.881 137.685 117.188 137.685C117.494 137.685 117.762 137.755 117.991 137.896C118.22 138.036 118.397 138.234 118.524 138.488C118.65 138.742 118.713 139.039 118.713 139.379C118.713 139.717 118.65 140.012 118.524 140.265C118.397 140.518 118.22 140.714 117.991 140.855C117.762 140.996 117.494 141.066 117.188 141.066ZM117.19 140.531C117.389 140.531 117.553 140.479 117.684 140.374C117.815 140.268 117.911 140.129 117.974 139.954C118.038 139.779 118.07 139.587 118.07 139.376C118.07 139.168 118.038 138.976 117.974 138.801C117.911 138.625 117.815 138.484 117.684 138.377C117.553 138.271 117.389 138.217 117.19 138.217C116.99 138.217 116.823 138.271 116.691 138.377C116.561 138.484 116.463 138.625 116.399 138.801C116.337 138.976 116.306 139.168 116.306 139.376C116.306 139.587 116.337 139.779 116.399 139.954C116.463 140.129 116.561 140.268 116.691 140.374C116.823 140.479 116.99 140.531 117.19 140.531ZM119.475 141V136.636H120.113V138.258H120.151C120.188 138.19 120.241 138.111 120.311 138.021C120.38 137.932 120.477 137.854 120.6 137.787C120.724 137.719 120.887 137.685 121.091 137.685C121.355 137.685 121.591 137.751 121.798 137.885C122.005 138.018 122.168 138.211 122.286 138.462C122.405 138.714 122.465 139.016 122.465 139.37C122.465 139.724 122.406 140.027 122.288 140.28C122.17 140.531 122.008 140.725 121.802 140.862C121.596 140.996 121.361 141.064 121.097 141.064C120.898 141.064 120.735 141.031 120.609 140.964C120.484 140.897 120.386 140.819 120.315 140.729C120.244 140.64 120.189 140.56 120.151 140.491H120.098V141H119.475ZM120.1 139.364C120.1 139.594 120.133 139.795 120.2 139.969C120.267 140.142 120.363 140.278 120.49 140.376C120.616 140.472 120.771 140.521 120.954 140.521C121.145 140.521 121.304 140.47 121.431 140.369C121.559 140.267 121.656 140.129 121.721 139.954C121.788 139.779 121.821 139.582 121.821 139.364C121.821 139.148 121.789 138.954 121.723 138.782C121.659 138.61 121.563 138.474 121.434 138.375C121.306 138.276 121.146 138.226 120.954 138.226C120.77 138.226 120.613 138.273 120.485 138.369C120.359 138.464 120.263 138.597 120.198 138.767C120.132 138.937 120.1 139.136 120.1 139.364ZM123.231 141V136.636H123.868V138.258H123.907C123.944 138.19 123.997 138.111 124.067 138.021C124.136 137.932 124.233 137.854 124.356 137.787C124.48 137.719 124.643 137.685 124.846 137.685C125.111 137.685 125.346 137.751 125.554 137.885C125.761 138.018 125.924 138.211 126.042 138.462C126.161 138.714 126.221 139.016 126.221 139.37C126.221 139.724 126.162 140.027 126.044 140.28C125.926 140.531 125.764 140.725 125.558 140.862C125.352 140.996 125.117 141.064 124.853 141.064C124.654 141.064 124.491 141.031 124.365 140.964C124.24 140.897 124.142 140.819 124.071 140.729C124 140.64 123.945 140.56 123.907 140.491H123.854V141H123.231ZM123.856 139.364C123.856 139.594 123.889 139.795 123.956 139.969C124.023 140.142 124.119 140.278 124.246 140.376C124.372 140.472 124.527 140.521 124.71 140.521C124.9 140.521 125.059 140.47 125.187 140.369C125.315 140.267 125.412 140.129 125.477 139.954C125.544 139.779 125.577 139.582 125.577 139.364C125.577 139.148 125.545 138.954 125.479 138.782C125.415 138.61 125.319 138.474 125.189 138.375C125.062 138.276 124.902 138.226 124.71 138.226C124.525 138.226 124.369 138.273 124.241 138.369C124.115 138.464 124.019 138.597 123.954 138.767C123.888 138.937 123.856 139.136 123.856 139.364ZM127.227 142.227C127.132 142.227 127.046 142.219 126.968 142.204C126.889 142.19 126.831 142.174 126.793 142.157L126.946 141.635C127.063 141.666 127.166 141.68 127.257 141.675C127.348 141.671 127.428 141.637 127.498 141.573C127.569 141.509 127.632 141.405 127.686 141.26L127.764 141.043L126.567 137.727H127.249L128.078 140.267H128.112L128.941 137.727H129.624L128.276 141.437C128.213 141.607 128.134 141.751 128.037 141.869C127.941 141.989 127.825 142.078 127.692 142.138C127.558 142.197 127.404 142.227 127.227 142.227Z" fill="white"/>
<rect x="93" y="196" width="24" height="9" rx="2" transform="rotate(180 93 196)" fill="#18181B" fill-opacity="0.8"/>
<rect x="92.75" y="195.75" width="23.5" height="8.5" rx="1.75" transform="rotate(180 92.75 195.75)" stroke="#27272A" stroke-opacity="0.8" stroke-width="0.5"/>
<path d="M72.0131 194H71.3142L72.8845 189.636H73.6452L75.2155 194H74.5166L73.2829 190.429H73.2488L72.0131 194ZM72.1302 192.291H74.3973V192.845H72.1302V192.291ZM77.4335 189.636H78.2325L79.6217 193.028H79.6729L81.0621 189.636H81.8611V194H81.2346V190.842H81.1942L79.9072 193.994H79.3873L78.1004 190.84H78.0599V194H77.4335V189.636ZM83.7195 194.072C83.5122 194.072 83.3247 194.034 83.157 193.957C82.9894 193.879 82.8566 193.766 82.7586 193.619C82.662 193.471 82.6137 193.29 82.6137 193.075C82.6137 192.891 82.6492 192.739 82.7203 192.619C82.7913 192.5 82.8872 192.406 83.0079 192.336C83.1286 192.266 83.2636 192.214 83.4127 192.178C83.5619 192.143 83.7139 192.116 83.8687 192.097C84.0647 192.075 84.2238 192.056 84.346 192.042C84.4681 192.026 84.5569 192.001 84.6123 191.967C84.6677 191.933 84.6954 191.878 84.6954 191.801V191.786C84.6954 191.6 84.6428 191.456 84.5377 191.354C84.434 191.251 84.2792 191.2 84.0732 191.2C83.8588 191.2 83.6897 191.248 83.5661 191.343C83.444 191.437 83.3595 191.541 83.3126 191.656L82.7139 191.52C82.7849 191.321 82.8886 191.161 83.0249 191.038C83.1627 190.915 83.3211 190.825 83.5001 190.77C83.6791 190.713 83.8673 190.685 84.0647 190.685C84.1954 190.685 84.3339 190.7 84.4802 190.732C84.6279 190.761 84.7657 190.817 84.8936 190.898C85.0228 190.979 85.1286 191.094 85.211 191.245C85.2934 191.394 85.3346 191.588 85.3346 191.827V194H84.7124V193.553H84.6869C84.6457 193.635 84.5839 193.716 84.5015 193.795C84.4191 193.875 84.3133 193.941 84.184 193.994C84.0548 194.046 83.8999 194.072 83.7195 194.072ZM83.858 193.561C84.0342 193.561 84.1847 193.526 84.3097 193.457C84.4362 193.387 84.532 193.296 84.5974 193.184C84.6642 193.07 84.6975 192.949 84.6975 192.82V192.398C84.6748 192.42 84.6308 192.442 84.5654 192.462C84.5015 192.48 84.4284 192.496 84.346 192.511C84.2636 192.523 84.1833 192.536 84.1052 192.547C84.0271 192.557 83.9617 192.565 83.9092 192.572C83.7856 192.588 83.6727 192.614 83.5704 192.651C83.4695 192.688 83.3886 192.741 83.3275 192.811C83.2678 192.879 83.238 192.97 83.238 193.084C83.238 193.241 83.2963 193.361 83.4127 193.442C83.5292 193.521 83.6776 193.561 83.858 193.561ZM86.1831 194V190.727H86.8202V194H86.1831ZM86.5049 190.222C86.3941 190.222 86.2989 190.185 86.2194 190.112C86.1412 190.036 86.1022 189.947 86.1022 189.843C86.1022 189.738 86.1412 189.648 86.2194 189.575C86.2989 189.499 86.3941 189.462 86.5049 189.462C86.6157 189.462 86.7101 189.499 86.7883 189.575C86.8678 189.648 86.9076 189.738 86.9076 189.843C86.9076 189.947 86.8678 190.036 86.7883 190.112C86.7101 190.185 86.6157 190.222 86.5049 190.222ZM88.3144 192.057V194H87.6773V190.727H88.2888V191.26H88.3293C88.4046 191.087 88.5225 190.947 88.683 190.842C88.8449 190.737 89.0487 190.685 89.2945 190.685C89.5175 190.685 89.7128 190.732 89.8804 190.825C90.048 190.918 90.178 191.055 90.2703 191.239C90.3627 191.422 90.4088 191.648 90.4088 191.918V194H89.7718V191.995C89.7718 191.758 89.71 191.572 89.5864 191.439C89.4628 191.304 89.2931 191.237 89.0771 191.237C88.9294 191.237 88.798 191.268 88.683 191.332C88.5693 191.396 88.4791 191.49 88.4124 191.614C88.347 191.736 88.3144 191.884 88.3144 192.057Z" fill="white"/>
<rect x="203" y="228" width="33" height="9" rx="2" transform="rotate(180 203 228)" fill="#18181B" fill-opacity="0.8"/>
<rect x="202.75" y="227.75" width="32.5" height="8.5" rx="1.75" transform="rotate(180 202.75 227.75)" stroke="#27272A" stroke-opacity="0.8" stroke-width="0.5"/>
<path d="M172.606 221.636H173.405L174.795 225.028H174.846L176.235 221.636H177.034V226H176.407V222.842H176.367L175.08 225.994H174.56L173.273 222.84H173.233V226H172.606V221.636ZM177.94 226V222.727H178.577V226H177.94ZM178.262 222.222C178.151 222.222 178.056 222.185 177.976 222.112C177.898 222.036 177.859 221.947 177.859 221.843C177.859 221.738 177.898 221.648 177.976 221.575C178.056 221.499 178.151 221.462 178.262 221.462C178.373 221.462 178.467 221.499 178.545 221.575C178.625 221.648 178.664 221.738 178.664 221.843C178.664 221.947 178.625 222.036 178.545 222.112C178.467 222.185 178.373 222.222 178.262 222.222ZM180.659 226.064C180.395 226.064 180.159 225.996 179.952 225.862C179.746 225.725 179.584 225.531 179.466 225.28C179.35 225.027 179.291 224.724 179.291 224.37C179.291 224.016 179.35 223.714 179.468 223.462C179.588 223.211 179.751 223.018 179.958 222.885C180.166 222.751 180.401 222.685 180.664 222.685C180.867 222.685 181.03 222.719 181.154 222.787C181.279 222.854 181.375 222.932 181.443 223.021C181.513 223.111 181.567 223.19 181.605 223.258H181.644V221.636H182.281V226H181.659V225.491H181.605C181.567 225.56 181.512 225.64 181.439 225.729C181.368 225.819 181.27 225.897 181.145 225.964C181.02 226.031 180.858 226.064 180.659 226.064ZM180.8 225.521C180.983 225.521 181.138 225.472 181.264 225.376C181.392 225.278 181.489 225.142 181.554 224.969C181.621 224.795 181.654 224.594 181.654 224.364C181.654 224.136 181.622 223.937 181.556 223.767C181.491 223.597 181.395 223.464 181.269 223.369C181.142 223.273 180.986 223.226 180.8 223.226C180.608 223.226 180.448 223.276 180.32 223.375C180.193 223.474 180.096 223.61 180.031 223.782C179.967 223.954 179.935 224.148 179.935 224.364C179.935 224.582 179.968 224.779 180.033 224.954C180.098 225.129 180.195 225.267 180.323 225.369C180.452 225.47 180.611 225.521 180.8 225.521ZM187.209 222.783C187.186 222.581 187.093 222.425 186.928 222.314C186.763 222.202 186.556 222.146 186.306 222.146C186.127 222.146 185.972 222.174 185.841 222.231C185.71 222.286 185.609 222.363 185.536 222.461C185.465 222.558 185.43 222.668 185.43 222.791C185.43 222.895 185.454 222.984 185.502 223.06C185.552 223.135 185.617 223.198 185.696 223.249C185.777 223.299 185.864 223.341 185.956 223.375C186.048 223.408 186.137 223.435 186.222 223.456L186.649 223.567C186.788 223.601 186.931 223.647 187.077 223.705C187.223 223.763 187.359 223.84 187.484 223.935C187.609 224.031 187.71 224.148 187.786 224.289C187.865 224.43 187.904 224.598 187.904 224.794C187.904 225.041 187.84 225.261 187.712 225.452C187.585 225.644 187.401 225.795 187.16 225.906C186.92 226.017 186.629 226.072 186.289 226.072C185.962 226.072 185.679 226.021 185.441 225.917C185.202 225.813 185.015 225.666 184.88 225.476C184.745 225.284 184.671 225.057 184.656 224.794H185.317C185.33 224.952 185.381 225.083 185.47 225.188C185.561 225.292 185.677 225.369 185.818 225.42C185.96 225.47 186.115 225.495 186.284 225.495C186.47 225.495 186.636 225.466 186.781 225.408C186.927 225.348 187.042 225.266 187.126 225.161C187.21 225.054 187.252 224.93 187.252 224.788C187.252 224.658 187.215 224.553 187.141 224.47C187.068 224.388 186.97 224.32 186.845 224.266C186.721 224.212 186.581 224.164 186.425 224.123L185.909 223.982C185.56 223.887 185.283 223.747 185.078 223.562C184.875 223.378 184.774 223.134 184.774 222.83C184.774 222.578 184.842 222.359 184.978 222.171C185.115 221.984 185.299 221.838 185.532 221.734C185.765 221.629 186.028 221.577 186.32 221.577C186.616 221.577 186.877 221.629 187.102 221.732C187.33 221.836 187.509 221.979 187.639 222.161C187.77 222.341 187.838 222.548 187.844 222.783H187.209ZM190.167 222.727V223.239H188.379V222.727H190.167ZM188.859 221.943H189.496V225.039C189.496 225.163 189.514 225.256 189.551 225.318C189.588 225.379 189.636 225.421 189.694 225.444C189.754 225.465 189.818 225.476 189.888 225.476C189.939 225.476 189.984 225.472 190.022 225.465C190.06 225.458 190.09 225.452 190.112 225.448L190.227 225.974C190.19 225.989 190.137 226.003 190.069 226.017C190.001 226.033 189.915 226.041 189.813 226.043C189.646 226.045 189.489 226.016 189.344 225.953C189.2 225.891 189.082 225.794 188.993 225.663C188.903 225.533 188.859 225.369 188.859 225.171V221.943ZM191.824 226.072C191.617 226.072 191.429 226.034 191.262 225.957C191.094 225.879 190.961 225.766 190.863 225.619C190.767 225.471 190.718 225.29 190.718 225.075C190.718 224.891 190.754 224.739 190.825 224.619C190.896 224.5 190.992 224.406 191.112 224.336C191.233 224.266 191.368 224.214 191.517 224.178C191.666 224.143 191.818 224.116 191.973 224.097C192.169 224.075 192.328 224.056 192.45 224.042C192.573 224.026 192.661 224.001 192.717 223.967C192.772 223.933 192.8 223.878 192.8 223.801V223.786C192.8 223.6 192.747 223.456 192.642 223.354C192.539 223.251 192.384 223.2 192.178 223.2C191.963 223.2 191.794 223.248 191.671 223.343C191.548 223.437 191.464 223.541 191.417 223.656L190.818 223.52C190.889 223.321 190.993 223.161 191.129 223.038C191.267 222.915 191.426 222.825 191.605 222.77C191.784 222.713 191.972 222.685 192.169 222.685C192.3 222.685 192.438 222.7 192.585 222.732C192.732 222.761 192.87 222.817 192.998 222.898C193.127 222.979 193.233 223.094 193.316 223.245C193.398 223.394 193.439 223.588 193.439 223.827V226H192.817V225.553H192.791C192.75 225.635 192.688 225.716 192.606 225.795C192.524 225.875 192.418 225.941 192.289 225.994C192.159 226.046 192.004 226.072 191.824 226.072ZM191.963 225.561C192.139 225.561 192.289 225.526 192.414 225.457C192.541 225.387 192.637 225.296 192.702 225.184C192.769 225.07 192.802 224.949 192.802 224.82V224.398C192.779 224.42 192.735 224.442 192.67 224.462C192.606 224.48 192.533 224.496 192.45 224.511C192.368 224.523 192.288 224.536 192.21 224.547C192.132 224.557 192.066 224.565 192.014 224.572C191.89 224.588 191.777 224.614 191.675 224.651C191.574 224.688 191.493 224.741 191.432 224.811C191.372 224.879 191.343 224.97 191.343 225.084C191.343 225.241 191.401 225.361 191.517 225.442C191.634 225.521 191.782 225.561 191.963 225.561ZM194.288 226V222.727H194.925V226H194.288ZM194.609 222.222C194.499 222.222 194.403 222.185 194.324 222.112C194.246 222.036 194.207 221.947 194.207 221.843C194.207 221.738 194.246 221.648 194.324 221.575C194.403 221.499 194.499 221.462 194.609 221.462C194.72 221.462 194.815 221.499 194.893 221.575C194.972 221.648 195.012 221.738 195.012 221.843C195.012 221.947 194.972 222.036 194.893 222.112C194.815 222.185 194.72 222.222 194.609 222.222ZM195.782 226V222.727H196.398V223.247H196.432C196.491 223.071 196.596 222.933 196.747 222.832C196.899 222.729 197.071 222.678 197.263 222.678C197.302 222.678 197.349 222.68 197.403 222.683C197.459 222.685 197.502 222.689 197.533 222.693V223.303C197.508 223.295 197.462 223.288 197.397 223.279C197.331 223.269 197.266 223.264 197.201 223.264C197.05 223.264 196.916 223.296 196.798 223.36C196.682 223.423 196.589 223.51 196.521 223.622C196.453 223.733 196.419 223.859 196.419 224.001V226H195.782ZM200.537 223.526L199.96 223.629C199.935 223.555 199.897 223.484 199.844 223.418C199.793 223.351 199.724 223.296 199.636 223.254C199.548 223.211 199.438 223.19 199.305 223.19C199.125 223.19 198.974 223.23 198.854 223.311C198.733 223.391 198.673 223.494 198.673 223.62C198.673 223.729 198.713 223.817 198.794 223.884C198.875 223.951 199.006 224.006 199.186 224.048L199.706 224.168C200.007 224.237 200.232 224.344 200.379 224.489C200.527 224.634 200.601 224.822 200.601 225.054C200.601 225.25 200.544 225.425 200.43 225.578C200.318 225.73 200.161 225.849 199.96 225.936C199.759 226.023 199.527 226.066 199.263 226.066C198.896 226.066 198.597 225.988 198.366 225.832C198.134 225.674 197.992 225.45 197.94 225.161L198.555 225.067C198.594 225.227 198.673 225.349 198.792 225.431C198.911 225.512 199.067 225.553 199.259 225.553C199.467 225.553 199.634 225.509 199.759 225.423C199.884 225.335 199.947 225.227 199.947 225.101C199.947 224.999 199.908 224.913 199.832 224.843C199.756 224.773 199.641 224.721 199.484 224.685L198.93 224.564C198.625 224.494 198.399 224.384 198.253 224.232C198.108 224.08 198.036 223.887 198.036 223.654C198.036 223.461 198.089 223.292 198.197 223.147C198.305 223.002 198.455 222.889 198.645 222.808C198.835 222.726 199.053 222.685 199.299 222.685C199.653 222.685 199.931 222.761 200.134 222.915C200.337 223.067 200.472 223.271 200.537 223.526Z" fill="white"/>
<rect x="207" y="297" width="27" height="9" rx="2" transform="rotate(180 207 297)" fill="#18181B" fill-opacity="0.8"/>
<rect x="206.75" y="296.75" width="26.5" height="8.5" rx="1.75" transform="rotate(180 206.75 296.75)" stroke="#27272A" stroke-opacity="0.8" stroke-width="0.5"/>
<path d="M182.492 290.636H183.291L184.68 294.028H184.731L186.121 290.636H186.92V295H186.293V291.842H186.253L184.966 294.994H184.446L183.159 291.84H183.119V295H182.492V290.636ZM187.826 295V291.727H188.463V295H187.826ZM188.147 291.222C188.037 291.222 187.941 291.185 187.862 291.112C187.784 291.036 187.745 290.947 187.745 290.843C187.745 290.738 187.784 290.648 187.862 290.575C187.941 290.499 188.037 290.462 188.147 290.462C188.258 290.462 188.353 290.499 188.431 290.575C188.51 290.648 188.55 290.738 188.55 290.843C188.55 290.947 188.51 291.036 188.431 291.112C188.353 291.185 188.258 291.222 188.147 291.222ZM190.545 295.064C190.281 295.064 190.045 294.996 189.838 294.862C189.632 294.725 189.47 294.531 189.352 294.28C189.235 294.027 189.177 293.724 189.177 293.37C189.177 293.016 189.236 292.714 189.354 292.462C189.473 292.211 189.637 292.018 189.844 291.885C190.051 291.751 190.286 291.685 190.549 291.685C190.752 291.685 190.916 291.719 191.039 291.787C191.164 291.854 191.261 291.932 191.329 292.021C191.399 292.111 191.453 292.19 191.491 292.258H191.529V290.636H192.166V295H191.544V294.491H191.491C191.453 294.56 191.397 294.64 191.325 294.729C191.254 294.819 191.156 294.897 191.031 294.964C190.906 295.031 190.744 295.064 190.545 295.064ZM190.686 294.521C190.869 294.521 191.024 294.472 191.15 294.376C191.278 294.278 191.375 294.142 191.44 293.969C191.507 293.795 191.54 293.594 191.54 293.364C191.54 293.136 191.507 292.937 191.442 292.767C191.377 292.597 191.281 292.464 191.154 292.369C191.028 292.273 190.872 292.226 190.686 292.226C190.494 292.226 190.334 292.276 190.206 292.375C190.078 292.474 189.982 292.61 189.916 292.782C189.853 292.954 189.821 293.148 189.821 293.364C189.821 293.582 189.853 293.779 189.919 293.954C189.984 294.129 190.081 294.267 190.208 294.369C190.338 294.47 190.497 294.521 190.686 294.521ZM194.5 291.203V290.636H197.877V291.203H196.515V295H195.859V291.203H194.5ZM199.476 295.066C199.169 295.066 198.901 294.996 198.672 294.855C198.444 294.714 198.266 294.518 198.14 294.265C198.013 294.012 197.95 293.717 197.95 293.379C197.95 293.039 198.013 292.742 198.14 292.488C198.266 292.234 198.444 292.036 198.672 291.896C198.901 291.755 199.169 291.685 199.476 291.685C199.783 291.685 200.05 291.755 200.279 291.896C200.508 292.036 200.685 292.234 200.812 292.488C200.938 292.742 201.001 293.039 201.001 293.379C201.001 293.717 200.938 294.012 200.812 294.265C200.685 294.518 200.508 294.714 200.279 294.855C200.05 294.996 199.783 295.066 199.476 295.066ZM199.478 294.531C199.677 294.531 199.842 294.479 199.972 294.374C200.103 294.268 200.199 294.129 200.262 293.954C200.326 293.779 200.358 293.587 200.358 293.376C200.358 293.168 200.326 292.976 200.262 292.801C200.199 292.625 200.103 292.484 199.972 292.377C199.842 292.271 199.677 292.217 199.478 292.217C199.278 292.217 199.111 292.271 198.979 292.377C198.849 292.484 198.751 292.625 198.687 292.801C198.625 292.976 198.594 293.168 198.594 293.376C198.594 293.587 198.625 293.779 198.687 293.954C198.751 294.129 198.849 294.268 198.979 294.374C199.111 294.479 199.278 294.531 199.478 294.531ZM201.712 296.227V291.727H202.335V292.258H202.388C202.425 292.19 202.478 292.111 202.548 292.021C202.617 291.932 202.714 291.854 202.837 291.787C202.961 291.719 203.124 291.685 203.328 291.685C203.592 291.685 203.828 291.751 204.035 291.885C204.242 292.018 204.405 292.211 204.523 292.462C204.642 292.714 204.702 293.016 204.702 293.37C204.702 293.724 204.643 294.027 204.525 294.28C204.407 294.531 204.245 294.725 204.039 294.862C203.833 294.996 203.598 295.064 203.334 295.064C203.135 295.064 202.972 295.031 202.846 294.964C202.721 294.897 202.623 294.819 202.552 294.729C202.481 294.64 202.426 294.56 202.388 294.491H202.35V296.227H201.712ZM202.337 293.364C202.337 293.594 202.37 293.795 202.437 293.969C202.504 294.142 202.6 294.278 202.727 294.376C202.853 294.472 203.008 294.521 203.191 294.521C203.381 294.521 203.541 294.47 203.668 294.369C203.796 294.267 203.893 294.129 203.958 293.954C204.025 293.779 204.058 293.582 204.058 293.364C204.058 293.148 204.026 292.954 203.96 292.782C203.896 292.61 203.8 292.474 203.671 292.375C203.543 292.276 203.383 292.226 203.191 292.226C203.006 292.226 202.85 292.273 202.722 292.369C202.596 292.464 202.5 292.597 202.435 292.767C202.369 292.937 202.337 293.136 202.337 293.364Z" fill="white"/>
<rect x="154" y="272" width="22" height="9" rx="2" transform="rotate(180 154 272)" fill="#18181B" fill-opacity="0.8"/>
<rect x="153.75" y="271.75" width="21.5" height="8.5" rx="1.75" transform="rotate(180 153.75 271.75)" stroke="#27272A" stroke-opacity="0.8" stroke-width="0.5"/>
<path d="M135.05 270H134.351L135.922 265.636H136.682L138.253 270H137.554L136.32 266.429H136.286L135.05 270ZM135.167 268.291H137.434V268.845H135.167V268.291ZM140.471 270V265.636H141.129V269.433H143.106V270H140.471ZM143.806 270V266.727H144.443V270H143.806ZM144.128 266.222C144.017 266.222 143.922 266.185 143.842 266.112C143.764 266.036 143.725 265.947 143.725 265.843C143.725 265.738 143.764 265.648 143.842 265.575C143.922 265.499 144.017 265.462 144.128 265.462C144.239 265.462 144.333 265.499 144.411 265.575C144.491 265.648 144.531 265.738 144.531 265.843C144.531 265.947 144.491 266.036 144.411 266.112C144.333 266.185 144.239 266.222 144.128 266.222ZM145.937 268.057V270H145.3V266.727H145.912V267.26H145.952C146.028 267.087 146.146 266.947 146.306 266.842C146.468 266.737 146.672 266.685 146.918 266.685C147.141 266.685 147.336 266.732 147.503 266.825C147.671 266.918 147.801 267.055 147.893 267.239C147.986 267.422 148.032 267.648 148.032 267.918V270H147.395V267.995C147.395 267.758 147.333 267.572 147.209 267.439C147.086 267.304 146.916 267.237 146.7 267.237C146.552 267.237 146.421 267.268 146.306 267.332C146.192 267.396 146.102 267.49 146.035 267.614C145.97 267.736 145.937 267.884 145.937 268.057ZM149.472 268.89L149.468 268.112H149.579L150.883 266.727H151.646L150.158 268.304H150.058L149.472 268.89ZM148.886 270V265.636H149.523V270H148.886ZM150.953 270L149.781 268.445L150.22 267.999L151.735 270H150.953Z" fill="white"/>
<rect x="92" y="263" width="17" height="9" rx="2" transform="rotate(180 92 263)" fill="#18181B" fill-opacity="0.8"/>
<rect x="91.75" y="262.75" width="16.5" height="8.5" rx="1.75" transform="rotate(180 91.75 262.75)" stroke="#27272A" stroke-opacity="0.8" stroke-width="0.5"/>
<path d="M77.1594 256.636H77.9072L79.0471 258.62H79.094L80.2339 256.636H80.9818L79.3987 259.287V261H78.7425V259.287L77.1594 256.636ZM82.0067 261.072C81.7993 261.072 81.6118 261.034 81.4442 260.957C81.2765 260.879 81.1437 260.766 81.0457 260.619C80.9491 260.471 80.9008 260.29 80.9008 260.075C80.9008 259.891 80.9363 259.739 81.0074 259.619C81.0784 259.5 81.1743 259.406 81.295 259.336C81.4157 259.266 81.5507 259.214 81.6998 259.178C81.849 259.143 82.001 259.116 82.1558 259.097C82.3518 259.075 82.5109 259.056 82.6331 259.042C82.7552 259.026 82.844 259.001 82.8994 258.967C82.9548 258.933 82.9825 258.878 82.9825 258.801V258.786C82.9825 258.6 82.93 258.456 82.8248 258.354C82.7211 258.251 82.5663 258.2 82.3604 258.2C82.1459 258.2 81.9768 258.248 81.8532 258.343C81.7311 258.437 81.6466 258.541 81.5997 258.656L81.001 258.52C81.072 258.321 81.1757 258.161 81.3121 258.038C81.4498 257.915 81.6082 257.825 81.7872 257.77C81.9662 257.713 82.1544 257.685 82.3518 257.685C82.4825 257.685 82.621 257.7 82.7673 257.732C82.915 257.761 83.0528 257.817 83.1807 257.898C83.3099 257.979 83.4157 258.094 83.4981 258.245C83.5805 258.394 83.6217 258.588 83.6217 258.827V261H82.9996V260.553H82.974C82.9328 260.635 82.871 260.716 82.7886 260.795C82.7062 260.875 82.6004 260.941 82.4711 260.994C82.3419 261.046 82.1871 261.072 82.0067 261.072ZM82.1452 260.561C82.3213 260.561 82.4719 260.526 82.5969 260.457C82.7233 260.387 82.8192 260.296 82.8845 260.184C82.9513 260.07 82.9846 259.949 82.9846 259.82V259.398C82.9619 259.42 82.9179 259.442 82.8525 259.462C82.7886 259.48 82.7155 259.496 82.6331 259.511C82.5507 259.523 82.4704 259.536 82.3923 259.547C82.3142 259.557 82.2488 259.565 82.1963 259.572C82.0727 259.588 81.9598 259.614 81.8575 259.651C81.7567 259.688 81.6757 259.741 81.6146 259.811C81.555 259.879 81.5251 259.97 81.5251 260.084C81.5251 260.241 81.5834 260.361 81.6998 260.442C81.8163 260.521 81.9648 260.561 82.1452 260.561ZM84.4703 261V257.727H85.086V258.247H85.1201C85.1798 258.071 85.2849 257.933 85.4355 257.832C85.5874 257.729 85.7593 257.678 85.9511 257.678C85.9909 257.678 86.0377 257.68 86.0917 257.683C86.1471 257.685 86.1904 257.689 86.2217 257.693V258.303C86.1961 258.295 86.1507 258.288 86.0853 258.279C86.02 258.269 85.9546 258.264 85.8893 258.264C85.7387 258.264 85.6045 258.296 85.4866 258.36C85.3701 258.423 85.2778 258.51 85.2096 258.622C85.1414 258.733 85.1073 258.859 85.1073 259.001V261H84.4703ZM87.8809 261.064C87.6167 261.064 87.3809 260.996 87.1736 260.862C86.9676 260.725 86.8057 260.531 86.6878 260.28C86.5713 260.027 86.5131 259.724 86.5131 259.37C86.5131 259.016 86.572 258.714 86.6899 258.462C86.8092 258.211 86.9726 258.018 87.18 257.885C87.3873 257.751 87.6224 257.685 87.8852 257.685C88.0883 257.685 88.2517 257.719 88.3753 257.787C88.5003 257.854 88.5969 257.932 88.665 258.021C88.7346 258.111 88.7886 258.19 88.827 258.258H88.8653V256.636H89.5024V261H88.8802V260.491H88.827C88.7886 260.56 88.7332 260.64 88.6608 260.729C88.5898 260.819 88.4917 260.897 88.3667 260.964C88.2417 261.031 88.0798 261.064 87.8809 261.064ZM88.0216 260.521C88.2048 260.521 88.3596 260.472 88.4861 260.376C88.6139 260.278 88.7105 260.142 88.7758 259.969C88.8426 259.795 88.876 259.594 88.876 259.364C88.876 259.136 88.8433 258.937 88.778 258.767C88.7126 258.597 88.6167 258.464 88.4903 258.369C88.3639 258.273 88.2077 258.226 88.0216 258.226C87.8298 258.226 87.67 258.276 87.5422 258.375C87.4143 258.474 87.3177 258.61 87.2524 258.782C87.1885 258.954 87.1565 259.148 87.1565 259.364C87.1565 259.582 87.1892 259.779 87.2545 259.954C87.3199 260.129 87.4165 260.267 87.5443 260.369C87.6736 260.47 87.8327 260.521 88.0216 260.521Z" fill="white"/>
<rect x="32" y="264" width="24" height="9" rx="2" transform="rotate(180 32 264)" fill="#18181B" fill-opacity="0.8"/>
<rect x="31.75" y="263.75" width="23.5" height="8.5" rx="1.75" transform="rotate(180 31.75 263.75)" stroke="#27272A" stroke-opacity="0.8" stroke-width="0.5"/>
<path d="M10.5917 262V257.636H12.1471C12.4866 257.636 12.7678 257.698 12.9909 257.822C13.2139 257.945 13.3808 258.114 13.4916 258.329C13.6024 258.542 13.6578 258.782 13.6578 259.049C13.6578 259.317 13.6017 259.559 13.4894 259.773C13.3786 259.987 13.211 260.156 12.9866 260.281C12.7636 260.404 12.483 260.466 12.145 260.466H11.0754V259.908H12.0853C12.2998 259.908 12.4738 259.871 12.6073 259.797C12.7409 259.722 12.8389 259.619 12.9014 259.49C12.9639 259.361 12.9951 259.214 12.9951 259.049C12.9951 258.884 12.9639 258.738 12.9014 258.61C12.8389 258.482 12.7401 258.382 12.6052 258.31C12.4717 258.237 12.2955 258.201 12.0768 258.201H11.2501V262H10.5917ZM15.716 262.066C15.4092 262.066 15.1414 261.996 14.9127 261.855C14.684 261.714 14.5065 261.518 14.3801 261.265C14.2536 261.012 14.1904 260.717 14.1904 260.379C14.1904 260.039 14.2536 259.742 14.3801 259.488C14.5065 259.234 14.684 259.036 14.9127 258.896C15.1414 258.755 15.4092 258.685 15.716 258.685C16.0228 258.685 16.2906 258.755 16.5193 258.896C16.748 259.036 16.9255 259.234 17.0519 259.488C17.1784 259.742 17.2416 260.039 17.2416 260.379C17.2416 260.717 17.1784 261.012 17.0519 261.265C16.9255 261.518 16.748 261.714 16.5193 261.855C16.2906 261.996 16.0228 262.066 15.716 262.066ZM15.7181 261.531C15.917 261.531 16.0818 261.479 16.2124 261.374C16.3431 261.268 16.4397 261.129 16.5022 260.954C16.5661 260.779 16.5981 260.587 16.5981 260.376C16.5981 260.168 16.5661 259.976 16.5022 259.801C16.4397 259.625 16.3431 259.484 16.2124 259.377C16.0818 259.271 15.917 259.217 15.7181 259.217C15.5178 259.217 15.3517 259.271 15.2195 259.377C15.0889 259.484 14.9916 259.625 14.9276 259.801C14.8651 259.976 14.8339 260.168 14.8339 260.376C14.8339 260.587 14.8651 260.779 14.9276 260.954C14.9916 261.129 15.0889 261.268 15.2195 261.374C15.3517 261.479 15.5178 261.531 15.7181 261.531ZM19.3312 262.066C19.0145 262.066 18.7417 261.994 18.5131 261.851C18.2858 261.706 18.1111 261.506 17.9889 261.252C17.8667 260.998 17.8057 260.707 17.8057 260.379C17.8057 260.046 17.8682 259.753 17.9932 259.499C18.1182 259.243 18.2943 259.043 18.5216 258.9C18.7488 258.756 19.0166 258.685 19.3248 258.685C19.5734 258.685 19.795 258.731 19.9896 258.823C20.1842 258.914 20.3412 259.042 20.4605 259.207C20.5812 259.371 20.653 259.564 20.6757 259.784H20.0557C20.0216 259.631 19.9434 259.499 19.8213 259.388C19.7006 259.277 19.5386 259.222 19.3355 259.222C19.1579 259.222 19.0024 259.268 18.8689 259.362C18.7368 259.455 18.6338 259.587 18.5599 259.759C18.4861 259.929 18.4491 260.131 18.4491 260.364C18.4491 260.602 18.4854 260.808 18.5578 260.982C18.6302 261.155 18.7325 261.289 18.8646 261.384C18.9981 261.479 19.1551 261.527 19.3355 261.527C19.4562 261.527 19.5656 261.505 19.6636 261.461C19.7631 261.415 19.8461 261.351 19.9129 261.267C19.9811 261.183 20.0287 261.082 20.0557 260.964H20.6757C20.653 261.176 20.5841 261.365 20.469 261.531C20.354 261.697 20.1998 261.828 20.0067 261.923C19.8149 262.018 19.5898 262.066 19.3312 262.066ZM21.9429 260.89L21.9387 260.112H22.0494L23.3534 258.727H24.1162L22.629 260.304H22.5289L21.9429 260.89ZM21.357 262V257.636H21.9941V262H21.357ZM23.4237 262L22.2519 260.445L22.6908 259.999L24.2057 262H23.4237ZM25.9726 262.066C25.6501 262.066 25.3724 261.997 25.1395 261.859C24.9079 261.72 24.729 261.525 24.6025 261.273C24.4775 261.021 24.415 260.724 24.415 260.385C24.415 260.05 24.4775 259.754 24.6025 259.499C24.729 259.243 24.9051 259.043 25.1309 258.9C25.3582 258.756 25.6238 258.685 25.9278 258.685C26.1125 258.685 26.2915 258.715 26.4648 258.776C26.6381 258.837 26.7936 258.933 26.9314 259.064C27.0692 259.195 27.1778 259.364 27.2574 259.573C27.3369 259.781 27.3767 260.033 27.3767 260.33V260.555H24.7751V260.078H26.7524C26.7524 259.911 26.7183 259.762 26.6501 259.633C26.5819 259.502 26.4861 259.399 26.3625 259.324C26.2403 259.249 26.0969 259.211 25.9321 259.211C25.7531 259.211 25.5969 259.255 25.4633 259.343C25.3312 259.43 25.229 259.543 25.1565 259.684C25.0855 259.823 25.05 259.974 25.05 260.138V260.511C25.05 260.729 25.0883 260.915 25.165 261.069C25.2432 261.222 25.3518 261.339 25.491 261.42C25.6302 261.5 25.7929 261.54 25.979 261.54C26.0997 261.54 26.2098 261.523 26.3092 261.489C26.4086 261.453 26.4946 261.401 26.567 261.331C26.6395 261.261 26.6949 261.175 26.7332 261.073L27.3362 261.182C27.2879 261.359 27.2013 261.515 27.0763 261.648C26.9527 261.781 26.7971 261.884 26.6096 261.957C26.4236 262.03 26.2112 262.066 25.9726 262.066ZM29.6112 258.727V259.239H27.8236V258.727H29.6112ZM28.303 257.943H28.9401V261.039C28.9401 261.163 28.9585 261.256 28.9955 261.318C29.0324 261.379 29.08 261.421 29.1382 261.444C29.1979 261.465 29.2625 261.476 29.3321 261.476C29.3833 261.476 29.428 261.472 29.4664 261.465C29.5047 261.458 29.5345 261.452 29.5558 261.448L29.6709 261.974C29.634 261.989 29.5814 262.003 29.5132 262.017C29.445 262.033 29.3598 262.041 29.2575 262.043C29.0899 262.045 28.9337 262.016 28.7888 261.953C28.6439 261.891 28.5267 261.794 28.4372 261.663C28.3477 261.533 28.303 261.369 28.303 261.171V257.943Z" fill="white"/>
<rect x="30" y="310" width="28" height="9" rx="2" transform="rotate(180 30 310)" fill="#18181B" fill-opacity="0.8"/>
<rect x="29.75" y="309.75" width="27.5" height="8.5" rx="1.75" transform="rotate(180 29.75 309.75)" stroke="#27272A" stroke-opacity="0.8" stroke-width="0.5"/>
<path d="M5.28746 308H4.5886L6.15891 303.636H6.91957L8.48988 308H7.79102L6.55735 304.429H6.52326L5.28746 308ZM5.40465 306.291H7.6717V306.845H5.40465L5.40465 306.291ZM10.7079 308V303.636H13.4437V304.203H11.3663V305.533H13.301V306.097H11.3663V307.433H13.4693V308H10.7079ZM14.9091 303.636V308H14.272V303.636H14.9091ZM15.8173 308V303.636H16.4544V305.258H16.4927C16.5297 305.19 16.5829 305.111 16.6525 305.021C16.7221 304.932 16.8187 304.854 16.9423 304.787C17.0659 304.719 17.2292 304.685 17.4324 304.685C17.6966 304.685 17.9324 304.751 18.1397 304.885C18.3471 305.018 18.5098 305.211 18.6277 305.462C18.747 305.714 18.8066 306.016 18.8066 306.37C18.8066 306.724 18.7477 307.027 18.6298 307.28C18.5119 307.531 18.35 307.725 18.144 307.862C17.938 307.996 17.7029 308.064 17.4387 308.064C17.2399 308.064 17.0772 308.031 16.9508 307.964C16.8258 307.897 16.7278 307.819 16.6568 307.729C16.5858 307.64 16.5311 307.56 16.4927 307.491H16.4395V308H15.8173ZM16.4416 306.364C16.4416 306.594 16.475 306.795 16.5417 306.969C16.6085 307.142 16.7051 307.278 16.8315 307.376C16.9579 307.472 17.1127 307.521 17.296 307.521C17.4863 307.521 17.6454 307.47 17.7733 307.369C17.9011 307.267 17.9977 307.129 18.063 306.954C18.1298 306.779 18.1632 306.582 18.1632 306.364C18.1632 306.148 18.1305 305.954 18.0652 305.782C18.0012 305.61 17.9047 305.474 17.7754 305.375C17.6475 305.276 17.4877 305.226 17.296 305.226C17.1113 305.226 16.9551 305.273 16.8272 305.369C16.7008 305.464 16.6049 305.597 16.5396 305.767C16.4743 305.937 16.4416 306.136 16.4416 306.364ZM20.9006 308.066C20.5938 308.066 20.326 307.996 20.0973 307.855C19.8686 307.714 19.6911 307.518 19.5646 307.265C19.4382 307.012 19.375 306.717 19.375 306.379C19.375 306.039 19.4382 305.742 19.5646 305.488C19.6911 305.234 19.8686 305.036 20.0973 304.896C20.326 304.755 20.5938 304.685 20.9006 304.685C21.2074 304.685 21.4751 304.755 21.7038 304.896C21.9325 305.036 22.1101 305.234 22.2365 305.488C22.3629 305.742 22.4261 306.039 22.4261 306.379C22.4261 306.717 22.3629 307.012 22.2365 307.265C22.1101 307.518 21.9325 307.714 21.7038 307.855C21.4751 307.996 21.2074 308.066 20.9006 308.066ZM20.9027 307.531C21.1016 307.531 21.2663 307.479 21.397 307.374C21.5277 307.268 21.6243 307.129 21.6868 306.954C21.7507 306.779 21.7827 306.587 21.7827 306.376C21.7827 306.168 21.7507 305.976 21.6868 305.801C21.6243 305.625 21.5277 305.484 21.397 305.377C21.2663 305.271 21.1016 305.217 20.9027 305.217C20.7024 305.217 20.5362 305.271 20.4041 305.377C20.2734 305.484 20.1761 305.625 20.1122 305.801C20.0497 305.976 20.0185 306.168 20.0185 306.376C20.0185 306.587 20.0497 306.779 20.1122 306.954C20.1761 307.129 20.2734 307.268 20.4041 307.374C20.5362 307.479 20.7024 307.531 20.9027 307.531ZM23.7472 308L22.7841 304.727H23.4425L24.0838 307.131H24.1158L24.7592 304.727H25.4176L26.0568 307.12H26.0888L26.7259 304.727H27.3842L26.4233 308H25.7734L25.1087 305.637H25.0597L24.3949 308H23.7472Z" fill="white"/>
<rect x="83" y="388" width="22" height="9" rx="2" transform="rotate(180 83 388)" fill="#18181B" fill-opacity="0.8"/>
<rect x="82.75" y="387.75" width="21.5" height="8.5" rx="1.75" transform="rotate(180 82.75 387.75)" stroke="#27272A" stroke-opacity="0.8" stroke-width="0.5"/>
<path d="M67.4992 383.055H66.8344C66.8089 382.913 66.7613 382.788 66.6917 382.68C66.6221 382.572 66.5368 382.481 66.436 382.406C66.3351 382.33 66.2222 382.273 66.0972 382.235C65.9736 382.197 65.8422 382.178 65.703 382.178C65.4516 382.178 65.2265 382.241 65.0276 382.367C64.8302 382.494 64.6739 382.679 64.5589 382.923C64.4452 383.168 64.3884 383.466 64.3884 383.818C64.3884 384.173 64.4452 384.473 64.5589 384.717C64.6739 384.962 64.8309 385.146 65.0297 385.271C65.2286 385.396 65.4523 385.459 65.7009 385.459C65.8387 385.459 65.9694 385.44 66.093 385.403C66.218 385.365 66.3309 385.309 66.4317 385.235C66.5326 385.161 66.6178 385.071 66.6874 384.964C66.7584 384.857 66.8074 384.733 66.8344 384.594L67.4992 384.596C67.4637 384.81 67.3948 385.008 67.2925 385.188C67.1917 385.367 67.0617 385.522 66.9026 385.653C66.7449 385.782 66.5645 385.882 66.3614 385.953C66.1583 386.024 65.9367 386.06 65.6966 386.06C65.3188 386.06 64.9822 385.97 64.6867 385.791C64.3912 385.611 64.1583 385.353 63.9878 385.018C63.8188 384.683 63.7343 384.283 63.7343 383.818C63.7343 383.352 63.8195 382.952 63.99 382.619C64.1604 382.283 64.3934 382.026 64.6888 381.847C64.9843 381.667 65.3202 381.577 65.6966 381.577C65.9282 381.577 66.1441 381.61 66.3444 381.677C66.5461 381.742 66.7272 381.839 66.8877 381.967C67.0482 382.093 67.181 382.248 67.2861 382.431C67.3912 382.613 67.4623 382.821 67.4992 383.055ZM68.2359 386V382.727H68.8517V383.247H68.8857C68.9454 383.071 69.0505 382.933 69.2011 382.832C69.3531 382.729 69.5249 382.678 69.7167 382.678C69.7565 382.678 69.8034 382.68 69.8573 382.683C69.9127 382.685 69.9561 382.689 69.9873 382.693V383.303C69.9617 383.295 69.9163 383.288 69.8509 383.279C69.7856 383.269 69.7203 383.264 69.6549 383.264C69.5044 383.264 69.3701 383.296 69.2522 383.36C69.1357 383.423 69.0434 383.51 68.9752 383.622C68.907 383.733 68.873 383.859 68.873 384.001V386H68.2359ZM71.4617 386.072C71.2544 386.072 71.0669 386.034 70.8992 385.957C70.7316 385.879 70.5988 385.766 70.5008 385.619C70.4042 385.471 70.3559 385.29 70.3559 385.075C70.3559 384.891 70.3914 384.739 70.4624 384.619C70.5335 384.5 70.6294 384.406 70.7501 384.336C70.8708 384.266 71.0058 384.214 71.1549 384.178C71.3041 384.143 71.4561 384.116 71.6109 384.097C71.8069 384.075 71.966 384.056 72.0882 384.042C72.2103 384.026 72.2991 384.001 72.3545 383.967C72.4099 383.933 72.4376 383.878 72.4376 383.801V383.786C72.4376 383.6 72.385 383.456 72.2799 383.354C72.1762 383.251 72.0214 383.2 71.8154 383.2C71.6009 383.2 71.4319 383.248 71.3083 383.343C71.1862 383.437 71.1017 383.541 71.0548 383.656L70.4561 383.52C70.5271 383.321 70.6308 383.161 70.7671 383.038C70.9049 382.915 71.0633 382.825 71.2423 382.77C71.4213 382.713 71.6095 382.685 71.8069 382.685C71.9376 382.685 72.0761 382.7 72.2224 382.732C72.3701 382.761 72.5079 382.817 72.6357 382.898C72.765 382.979 72.8708 383.094 72.9532 383.245C73.0356 383.394 73.0768 383.588 73.0768 383.827V386H72.4546V385.553H72.4291C72.3879 385.635 72.3261 385.716 72.2437 385.795C72.1613 385.875 72.0555 385.941 71.9262 385.994C71.797 386.046 71.6421 386.072 71.4617 386.072ZM71.6002 385.561C71.7764 385.561 71.9269 385.526 72.0519 385.457C72.1784 385.387 72.2742 385.296 72.3396 385.184C72.4063 385.07 72.4397 384.949 72.4397 384.82V384.398C72.417 384.42 72.373 384.442 72.3076 384.462C72.2437 384.48 72.1705 384.496 72.0882 384.511C72.0058 384.523 71.9255 384.536 71.8474 384.547C71.7693 384.557 71.7039 384.565 71.6514 384.572C71.5278 384.588 71.4149 384.614 71.3126 384.651C71.2117 384.688 71.1308 384.741 71.0697 384.811C71.01 384.879 70.9802 384.97 70.9802 385.084C70.9802 385.241 71.0384 385.361 71.1549 385.442C71.2714 385.521 71.4198 385.561 71.6002 385.561ZM74.5624 384.057V386H73.9253V382.727H74.5368V383.26H74.5773C74.6526 383.087 74.7705 382.947 74.931 382.842C75.093 382.737 75.2968 382.685 75.5425 382.685C75.7655 382.685 75.9608 382.732 76.1285 382.825C76.2961 382.918 76.426 383.055 76.5184 383.239C76.6107 383.422 76.6569 383.648 76.6569 383.918V386H76.0198V383.995C76.0198 383.758 75.958 383.572 75.8344 383.439C75.7108 383.304 75.5411 383.237 75.3252 383.237C75.1775 383.237 75.0461 383.268 74.931 383.332C74.8174 383.396 74.7272 383.49 74.6604 383.614C74.5951 383.736 74.5624 383.884 74.5624 384.057ZM78.9218 386.066C78.5993 386.066 78.3216 385.997 78.0887 385.859C77.8572 385.72 77.6782 385.525 77.5518 385.273C77.4268 385.021 77.3643 384.724 77.3643 384.385C77.3643 384.05 77.4268 383.754 77.5518 383.499C77.6782 383.243 77.8543 383.043 78.0802 382.9C78.3074 382.756 78.5731 382.685 78.877 382.685C79.0617 382.685 79.2407 382.715 79.414 382.776C79.5873 382.837 79.7428 382.933 79.8806 383.064C80.0184 383.195 80.127 383.364 80.2066 383.573C80.2861 383.781 80.3259 384.033 80.3259 384.33V384.555H77.7243V384.078H79.7016C79.7016 383.911 79.6675 383.762 79.5993 383.633C79.5312 383.502 79.4353 383.399 79.3117 383.324C79.1895 383.249 79.0461 383.211 78.8813 383.211C78.7023 383.211 78.5461 383.255 78.4126 383.343C78.2805 383.43 78.1782 383.543 78.1057 383.684C78.0347 383.823 77.9992 383.974 77.9992 384.138V384.511C77.9992 384.729 78.0376 384.915 78.1143 385.069C78.1924 385.222 78.301 385.339 78.4403 385.42C78.5795 385.5 78.7421 385.54 78.9282 385.54C79.0489 385.54 79.159 385.523 79.2584 385.489C79.3579 385.453 79.4438 385.401 79.5162 385.331C79.5887 385.261 79.6441 385.175 79.6824 385.073L80.2854 385.182C80.2371 385.359 80.1505 385.515 80.0255 385.648C79.9019 385.781 79.7464 385.884 79.5589 385.957C79.3728 386.03 79.1604 386.066 78.9218 386.066Z" fill="white"/>
<rect x="214" y="420" width="37" height="9" rx="2" transform="rotate(180 214 420)" fill="#18181B" fill-opacity="0.8"/>
<rect x="213.75" y="419.75" width="36.5" height="8.5" rx="1.75" transform="rotate(180 213.75 419.75)" stroke="#27272A" stroke-opacity="0.8" stroke-width="0.5"/>
<path d="M181.109 418H179.696V413.636H181.154C181.581 413.636 181.948 413.724 182.255 413.898C182.562 414.072 182.797 414.321 182.96 414.646C183.125 414.97 183.208 415.359 183.208 415.812C183.208 416.266 183.124 416.657 182.958 416.984C182.794 417.31 182.555 417.562 182.242 417.738C181.93 417.913 181.552 418 181.109 418ZM180.355 417.425H181.073C181.405 417.425 181.681 417.362 181.901 417.237C182.122 417.111 182.286 416.928 182.396 416.69C182.505 416.45 182.56 416.157 182.56 415.812C182.56 415.469 182.505 415.179 182.396 414.94C182.288 414.702 182.127 414.521 181.912 414.397C181.698 414.273 181.431 414.212 181.113 414.212H180.355V417.425ZM184.026 418V413.636H186.762V414.203H184.685V415.533H186.619V416.097H184.685V417.433H186.788V418H184.026ZM187.642 418V413.636H190.347V414.203H188.3V415.533H190.154V416.097H188.3V418H187.642ZM195.125 414.783C195.102 414.581 195.009 414.425 194.844 414.314C194.679 414.202 194.472 414.146 194.222 414.146C194.043 414.146 193.888 414.174 193.757 414.231C193.626 414.286 193.525 414.363 193.452 414.461C193.381 414.558 193.346 414.668 193.346 414.791C193.346 414.895 193.37 414.984 193.418 415.06C193.468 415.135 193.533 415.198 193.612 415.249C193.693 415.299 193.78 415.341 193.872 415.375C193.964 415.408 194.053 415.435 194.138 415.456L194.565 415.567C194.704 415.601 194.847 415.647 194.993 415.705C195.139 415.763 195.275 415.84 195.4 415.935C195.525 416.031 195.626 416.148 195.702 416.289C195.781 416.43 195.82 416.598 195.82 416.794C195.82 417.041 195.756 417.261 195.628 417.452C195.501 417.644 195.317 417.795 195.076 417.906C194.836 418.017 194.545 418.072 194.205 418.072C193.878 418.072 193.595 418.021 193.357 417.917C193.118 417.813 192.931 417.666 192.796 417.476C192.661 417.284 192.587 417.057 192.572 416.794H193.233C193.246 416.952 193.297 417.083 193.386 417.188C193.477 417.292 193.593 417.369 193.734 417.42C193.876 417.47 194.031 417.495 194.2 417.495C194.386 417.495 194.552 417.466 194.697 417.408C194.843 417.348 194.958 417.266 195.042 417.161C195.126 417.054 195.168 416.93 195.168 416.788C195.168 416.658 195.131 416.553 195.057 416.47C194.984 416.388 194.886 416.32 194.761 416.266C194.637 416.212 194.497 416.164 194.341 416.123L193.825 415.982C193.476 415.887 193.199 415.747 192.994 415.562C192.791 415.378 192.69 415.134 192.69 414.83C192.69 414.578 192.758 414.359 192.894 414.171C193.031 413.984 193.215 413.838 193.448 413.734C193.681 413.629 193.944 413.577 194.237 413.577C194.532 413.577 194.793 413.629 195.018 413.732C195.246 413.836 195.425 413.979 195.555 414.161C195.686 414.341 195.754 414.548 195.76 414.783H195.125ZM196.555 419.227V414.727H197.177V415.258H197.231C197.268 415.19 197.321 415.111 197.39 415.021C197.46 414.932 197.557 414.854 197.68 414.787C197.804 414.719 197.967 414.685 198.17 414.685C198.434 414.685 198.67 414.751 198.878 414.885C199.085 415.018 199.248 415.211 199.366 415.462C199.485 415.714 199.545 416.016 199.545 416.37C199.545 416.724 199.486 417.027 199.368 417.28C199.25 417.531 199.088 417.725 198.882 417.862C198.676 417.996 198.441 418.064 198.177 418.064C197.978 418.064 197.815 418.031 197.689 417.964C197.564 417.897 197.466 417.819 197.395 417.729C197.324 417.64 197.269 417.56 197.231 417.491H197.192V419.227H196.555ZM197.18 416.364C197.18 416.594 197.213 416.795 197.28 416.969C197.346 417.142 197.443 417.278 197.569 417.376C197.696 417.472 197.851 417.521 198.034 417.521C198.224 417.521 198.383 417.47 198.511 417.369C198.639 417.267 198.736 417.129 198.801 416.954C198.868 416.779 198.901 416.582 198.901 416.364C198.901 416.148 198.868 415.954 198.803 415.782C198.739 415.61 198.643 415.474 198.513 415.375C198.385 415.276 198.226 415.226 198.034 415.226C197.849 415.226 197.693 415.273 197.565 415.369C197.439 415.464 197.343 415.597 197.278 415.767C197.212 415.937 197.18 416.136 197.18 416.364ZM201.211 418.072C201.003 418.072 200.816 418.034 200.648 417.957C200.481 417.879 200.348 417.766 200.25 417.619C200.153 417.471 200.105 417.29 200.105 417.075C200.105 416.891 200.14 416.739 200.211 416.619C200.282 416.5 200.378 416.406 200.499 416.336C200.62 416.266 200.755 416.214 200.904 416.178C201.053 416.143 201.205 416.116 201.36 416.097C201.556 416.075 201.715 416.056 201.837 416.042C201.959 416.026 202.048 416.001 202.104 415.967C202.159 415.933 202.187 415.878 202.187 415.801V415.786C202.187 415.6 202.134 415.456 202.029 415.354C201.925 415.251 201.77 415.2 201.564 415.2C201.35 415.2 201.181 415.248 201.057 415.343C200.935 415.437 200.851 415.541 200.804 415.656L200.205 415.52C200.276 415.321 200.38 415.161 200.516 415.038C200.654 414.915 200.812 414.825 200.991 414.77C201.17 414.713 201.358 414.685 201.556 414.685C201.687 414.685 201.825 414.7 201.971 414.732C202.119 414.761 202.257 414.817 202.385 414.898C202.514 414.979 202.62 415.094 202.702 415.245C202.785 415.394 202.826 415.588 202.826 415.827V418H202.204V417.553H202.178C202.137 417.635 202.075 417.716 201.993 417.795C201.91 417.875 201.805 417.941 201.675 417.994C201.546 418.046 201.391 418.072 201.211 418.072ZM201.349 417.561C201.525 417.561 201.676 417.526 201.801 417.457C201.927 417.387 202.023 417.296 202.089 417.184C202.155 417.07 202.189 416.949 202.189 416.82V416.398C202.166 416.42 202.122 416.442 202.057 416.462C201.993 416.48 201.92 416.496 201.837 416.511C201.755 416.523 201.675 416.536 201.596 416.547C201.518 416.557 201.453 416.565 201.4 416.572C201.277 416.588 201.164 416.614 201.062 416.651C200.961 416.688 200.88 416.741 200.819 416.811C200.759 416.879 200.729 416.97 200.729 417.084C200.729 417.241 200.787 417.361 200.904 417.442C201.02 417.521 201.169 417.561 201.349 417.561ZM204.384 418L203.421 414.727H204.079L204.721 417.131H204.752L205.396 414.727H206.054L206.694 417.12H206.725L207.363 414.727H208.021L207.06 418H206.41L205.745 415.637H205.696L205.032 418H204.384ZM209.263 416.057V418H208.626V414.727H209.237V415.26H209.278C209.353 415.087 209.471 414.947 209.631 414.842C209.793 414.737 209.997 414.685 210.243 414.685C210.466 414.685 210.661 414.732 210.829 414.825C210.996 414.918 211.126 415.055 211.219 415.239C211.311 415.422 211.357 415.648 211.357 415.918V418H210.72V415.995C210.72 415.758 210.658 415.572 210.535 415.439C210.411 415.304 210.241 415.237 210.025 415.237C209.878 415.237 209.746 415.268 209.631 415.332C209.518 415.396 209.427 415.49 209.361 415.614C209.295 415.736 209.263 415.884 209.263 416.057Z" fill="white"/>
<rect x="348" y="395" width="18" height="9" rx="2" transform="rotate(180 348 395)" fill="#18181B" fill-opacity="0.8"/>
<rect x="347.75" y="394.75" width="17.5" height="8.5" rx="1.75" transform="rotate(180 347.75 394.75)" stroke="#27272A" stroke-opacity="0.8" stroke-width="0.5"/>
<path d="M333.148 393H332.449L334.019 388.636H334.78L336.35 393H335.651L334.418 389.429H334.384L333.148 393ZM333.265 391.291H335.532V391.845H333.265V391.291ZM336.929 393V389.727H337.545V390.247H337.579C337.639 390.071 337.744 389.933 337.894 389.832C338.046 389.729 338.218 389.678 338.41 389.678C338.45 389.678 338.497 389.68 338.551 389.683C338.606 389.685 338.649 389.689 338.681 389.693V390.303C338.655 390.295 338.61 390.288 338.544 390.279C338.479 390.269 338.414 390.264 338.348 390.264C338.198 390.264 338.063 390.296 337.946 390.36C337.829 390.423 337.737 390.51 337.669 390.622C337.6 390.733 337.566 390.859 337.566 391.001V393H336.929ZM340.493 393.066C340.177 393.066 339.904 392.994 339.675 392.851C339.448 392.706 339.273 392.506 339.151 392.252C339.029 391.998 338.968 391.707 338.968 391.379C338.968 391.046 339.03 390.753 339.155 390.499C339.28 390.243 339.456 390.043 339.684 389.9C339.911 389.756 340.179 389.685 340.487 389.685C340.736 389.685 340.957 389.731 341.152 389.823C341.346 389.914 341.503 390.042 341.623 390.207C341.743 390.371 341.815 390.564 341.838 390.784H341.218C341.184 390.631 341.106 390.499 340.983 390.388C340.863 390.277 340.701 390.222 340.498 390.222C340.32 390.222 340.165 390.268 340.031 390.362C339.899 390.455 339.796 390.587 339.722 390.759C339.648 390.929 339.611 391.131 339.611 391.364C339.611 391.602 339.647 391.808 339.72 391.982C339.792 392.155 339.895 392.289 340.027 392.384C340.16 392.479 340.317 392.527 340.498 392.527C340.618 392.527 340.728 392.505 340.826 392.461C340.925 392.415 341.008 392.351 341.075 392.267C341.143 392.183 341.191 392.082 341.218 391.964H341.838C341.815 392.176 341.746 392.365 341.631 392.531C341.516 392.697 341.362 392.828 341.169 392.923C340.977 393.018 340.752 393.066 340.493 393.066ZM343.156 391.057V393H342.519V388.636H343.148V390.26H343.188C343.265 390.084 343.382 389.944 343.54 389.84C343.697 389.737 343.903 389.685 344.158 389.685C344.382 389.685 344.578 389.731 344.746 389.823C344.915 389.915 345.045 390.053 345.138 390.237C345.231 390.418 345.278 390.646 345.278 390.918V393H344.641V390.995C344.641 390.755 344.579 390.569 344.456 390.437C344.332 390.303 344.16 390.237 343.94 390.237C343.79 390.237 343.655 390.268 343.535 390.332C343.418 390.396 343.324 390.49 343.256 390.614C343.19 390.736 343.156 390.884 343.156 391.057Z" fill="white"/>
<rect x="307" y="337" width="22" height="9" rx="2" transform="rotate(180 307 337)" fill="#18181B" fill-opacity="0.8"/>
<rect x="306.75" y="336.75" width="21.5" height="8.5" rx="1.75" transform="rotate(180 306.75 336.75)" stroke="#27272A" stroke-opacity="0.8" stroke-width="0.5"/>
<path d="M287.452 331.203V330.636H290.829V331.203H289.467V335H288.811V331.203H287.452ZM292.428 335.066C292.121 335.066 291.853 334.996 291.625 334.855C291.396 334.714 291.218 334.518 291.092 334.265C290.966 334.012 290.902 333.717 290.902 333.379C290.902 333.039 290.966 332.742 291.092 332.488C291.218 332.234 291.396 332.036 291.625 331.896C291.853 331.755 292.121 331.685 292.428 331.685C292.735 331.685 293.002 331.755 293.231 331.896C293.46 332.036 293.637 332.234 293.764 332.488C293.89 332.742 293.953 333.039 293.953 333.379C293.953 333.717 293.89 334.012 293.764 334.265C293.637 334.518 293.46 334.714 293.231 334.855C293.002 334.996 292.735 335.066 292.428 335.066ZM292.43 334.531C292.629 334.531 292.794 334.479 292.924 334.374C293.055 334.268 293.152 334.129 293.214 333.954C293.278 333.779 293.31 333.587 293.31 333.376C293.31 333.168 293.278 332.976 293.214 332.801C293.152 332.625 293.055 332.484 292.924 332.377C292.794 332.271 292.629 332.217 292.43 332.217C292.23 332.217 292.064 332.271 291.931 332.377C291.801 332.484 291.703 332.625 291.64 332.801C291.577 332.976 291.546 333.168 291.546 333.376C291.546 333.587 291.577 333.779 291.64 333.954C291.703 334.129 291.801 334.268 291.931 334.374C292.064 334.479 292.23 334.531 292.43 334.531ZM295.275 335L294.311 331.727H294.97L295.611 334.131H295.643L296.287 331.727H296.945L297.584 334.12H297.616L298.253 331.727H298.912L297.951 335H297.301L296.636 332.637H296.587L295.922 335H295.275ZM300.827 335.066C300.505 335.066 300.227 334.997 299.994 334.859C299.762 334.72 299.583 334.525 299.457 334.273C299.332 334.021 299.27 333.724 299.27 333.385C299.27 333.05 299.332 332.754 299.457 332.499C299.583 332.243 299.76 332.043 299.985 331.9C300.213 331.756 300.478 331.685 300.782 331.685C300.967 331.685 301.146 331.715 301.319 331.776C301.493 331.837 301.648 331.933 301.786 332.064C301.924 332.195 302.032 332.364 302.112 332.573C302.191 332.781 302.231 333.033 302.231 333.33V333.555H299.63V333.078H301.607C301.607 332.911 301.573 332.762 301.505 332.633C301.436 332.502 301.341 332.399 301.217 332.324C301.095 332.249 300.951 332.211 300.787 332.211C300.608 332.211 300.451 332.255 300.318 332.343C300.186 332.43 300.083 332.543 300.011 332.684C299.94 332.823 299.904 332.974 299.904 333.138V333.511C299.904 333.729 299.943 333.915 300.02 334.069C300.098 334.222 300.206 334.339 300.346 334.42C300.485 334.5 300.647 334.54 300.833 334.54C300.954 334.54 301.064 334.523 301.164 334.489C301.263 334.453 301.349 334.401 301.422 334.331C301.494 334.261 301.549 334.175 301.588 334.073L302.191 334.182C302.142 334.359 302.056 334.515 301.931 334.648C301.807 334.781 301.652 334.884 301.464 334.957C301.278 335.03 301.066 335.066 300.827 335.066ZM302.938 335V331.727H303.554V332.247H303.588C303.648 332.071 303.753 331.933 303.903 331.832C304.055 331.729 304.227 331.678 304.419 331.678C304.459 331.678 304.506 331.68 304.559 331.683C304.615 331.685 304.658 331.689 304.689 331.693V332.303C304.664 332.295 304.618 332.288 304.553 332.279C304.488 332.269 304.422 332.264 304.357 332.264C304.206 332.264 304.072 332.296 303.954 332.36C303.838 332.423 303.746 332.51 303.677 332.622C303.609 332.733 303.575 332.859 303.575 333.001V335H302.938Z" fill="white"/>
<rect x="385" y="322" width="27" height="9" rx="2" transform="rotate(180 385 322)" fill="#18181B" fill-opacity="0.8"/>
<rect x="384.75" y="321.75" width="26.5" height="8.5" rx="1.75" transform="rotate(180 384.75 321.75)" stroke="#27272A" stroke-opacity="0.8" stroke-width="0.5"/>
<path d="M360.557 320V315.636H362.155C362.464 315.636 362.721 315.687 362.924 315.79C363.127 315.891 363.279 316.028 363.38 316.201C363.481 316.373 363.531 316.567 363.531 316.783C363.531 316.964 363.498 317.118 363.431 317.243C363.364 317.366 363.275 317.466 363.162 317.541C363.052 317.615 362.929 317.669 362.796 317.703V317.746C362.941 317.753 363.082 317.8 363.22 317.886C363.359 317.972 363.474 318.093 363.565 318.251C363.656 318.408 363.701 318.6 363.701 318.826C363.701 319.049 363.649 319.249 363.544 319.427C363.44 319.603 363.28 319.743 363.062 319.847C362.845 319.949 362.567 320 362.229 320H360.557ZM361.215 319.435H362.165C362.481 319.435 362.706 319.374 362.843 319.252C362.979 319.13 363.047 318.977 363.047 318.794C363.047 318.656 363.013 318.53 362.943 318.415C362.873 318.3 362.774 318.208 362.645 318.14C362.517 318.072 362.365 318.038 362.189 318.038H361.215V319.435ZM361.215 317.524H362.097C362.245 317.524 362.378 317.496 362.495 317.439C362.615 317.382 362.709 317.303 362.779 317.2C362.85 317.097 362.885 316.974 362.885 316.834C362.885 316.653 362.822 316.502 362.696 316.38C362.569 316.258 362.375 316.197 362.114 316.197H361.215V317.524ZM366.07 320V315.636H368.806V316.203H366.729V317.533H368.663V318.097H366.729V319.433H368.832V320H366.07ZM370.271 315.636V320H369.634V315.636H370.271ZM371.18 320V315.636H371.817V317.258H371.855C371.892 317.19 371.945 317.111 372.015 317.021C372.084 316.932 372.181 316.854 372.305 316.787C372.428 316.719 372.592 316.685 372.795 316.685C373.059 316.685 373.295 316.751 373.502 316.885C373.709 317.018 373.872 317.211 373.99 317.462C374.109 317.714 374.169 318.016 374.169 318.37C374.169 318.724 374.11 319.027 373.992 319.28C373.874 319.531 373.712 319.725 373.506 319.862C373.3 319.996 373.065 320.064 372.801 320.064C372.602 320.064 372.44 320.031 372.313 319.964C372.188 319.897 372.09 319.819 372.019 319.729C371.948 319.64 371.893 319.56 371.855 319.491H371.802V320H371.18ZM371.804 318.364C371.804 318.594 371.837 318.795 371.904 318.969C371.971 319.142 372.067 319.278 372.194 319.376C372.32 319.472 372.475 319.521 372.658 319.521C372.849 319.521 373.008 319.47 373.136 319.369C373.263 319.267 373.36 319.129 373.425 318.954C373.492 318.779 373.525 318.582 373.525 318.364C373.525 318.148 373.493 317.954 373.427 317.782C373.364 317.61 373.267 317.474 373.138 317.375C373.01 317.276 372.85 317.226 372.658 317.226C372.474 317.226 372.317 317.273 372.19 317.369C372.063 317.464 371.967 317.597 371.902 317.767C371.837 317.937 371.804 318.136 371.804 318.364ZM376.263 320.066C375.956 320.066 375.688 319.996 375.46 319.855C375.231 319.714 375.053 319.518 374.927 319.265C374.801 319.012 374.737 318.717 374.737 318.379C374.737 318.039 374.801 317.742 374.927 317.488C375.053 317.234 375.231 317.036 375.46 316.896C375.688 316.755 375.956 316.685 376.263 316.685C376.57 316.685 376.837 316.755 377.066 316.896C377.295 317.036 377.472 317.234 377.599 317.488C377.725 317.742 377.788 318.039 377.788 318.379C377.788 318.717 377.725 319.012 377.599 319.265C377.472 319.518 377.295 319.714 377.066 319.855C376.837 319.996 376.57 320.066 376.263 320.066ZM376.265 319.531C376.464 319.531 376.629 319.479 376.759 319.374C376.89 319.268 376.987 319.129 377.049 318.954C377.113 318.779 377.145 318.587 377.145 318.376C377.145 318.168 377.113 317.976 377.049 317.801C376.987 317.625 376.89 317.484 376.759 317.377C376.629 317.271 376.464 317.217 376.265 317.217C376.065 317.217 375.899 317.271 375.766 317.377C375.636 317.484 375.538 317.625 375.475 317.801C375.412 317.976 375.381 318.168 375.381 318.376C375.381 318.587 375.412 318.779 375.475 318.954C375.538 319.129 375.636 319.268 375.766 319.374C375.899 319.479 376.065 319.531 376.265 319.531ZM379.109 320L378.146 316.727H378.805L379.446 319.131H379.478L380.122 316.727H380.78L381.419 319.12H381.451L382.088 316.727H382.747L381.786 320H381.136L380.471 317.637H380.422L379.757 320H379.109Z" fill="white"/>
<rect x="253" y="292" width="22" height="9" rx="2" transform="rotate(180 253 292)" fill="#18181B" fill-opacity="0.8"/>
<rect x="252.75" y="291.75" width="21.5" height="8.5" rx="1.75" transform="rotate(180 252.75 291.75)" stroke="#27272A" stroke-opacity="0.8" stroke-width="0.5"/>
<path d="M233.819 290V285.636H235.417C235.727 285.636 235.983 285.687 236.186 285.79C236.39 285.891 236.542 286.028 236.642 286.201C236.743 286.373 236.794 286.567 236.794 286.783C236.794 286.964 236.76 287.118 236.694 287.243C236.627 287.366 236.537 287.466 236.425 287.541C236.314 287.615 236.192 287.669 236.059 287.703V287.746C236.203 287.753 236.345 287.8 236.483 287.886C236.622 287.972 236.737 288.093 236.828 288.251C236.919 288.408 236.964 288.6 236.964 288.826C236.964 289.049 236.912 289.249 236.806 289.427C236.703 289.603 236.542 289.743 236.325 289.847C236.108 289.949 235.83 290 235.492 290H233.819ZM234.478 289.435H235.428C235.743 289.435 235.969 289.374 236.105 289.252C236.242 289.13 236.31 288.977 236.31 288.794C236.31 288.656 236.275 288.53 236.206 288.415C236.136 288.3 236.037 288.208 235.907 288.14C235.779 288.072 235.627 288.038 235.451 288.038H234.478V289.435ZM234.478 287.524H235.36C235.507 287.524 235.64 287.496 235.758 287.439C235.877 287.382 235.972 287.303 236.042 287.2C236.113 287.097 236.148 286.974 236.148 286.834C236.148 286.653 236.085 286.502 235.958 286.38C235.832 286.258 235.638 286.197 235.377 286.197H234.478V287.524ZM239.333 290V285.636H239.991V289.433H241.969V290H239.333ZM242.669 290V286.727H243.306V290H242.669ZM242.99 286.222C242.879 286.222 242.784 286.185 242.705 286.112C242.627 286.036 242.588 285.947 242.588 285.843C242.588 285.738 242.627 285.648 242.705 285.575C242.784 285.499 242.879 285.462 242.99 285.462C243.101 285.462 243.195 285.499 243.274 285.575C243.353 285.648 243.393 285.738 243.393 285.843C243.393 285.947 243.353 286.036 243.274 286.112C243.195 286.185 243.101 286.222 242.99 286.222ZM244.8 288.057V290H244.163V286.727H244.774V287.26H244.815C244.89 287.087 245.008 286.947 245.168 286.842C245.33 286.737 245.534 286.685 245.78 286.685C246.003 286.685 246.198 286.732 246.366 286.825C246.533 286.918 246.663 287.055 246.756 287.239C246.848 287.422 246.894 287.648 246.894 287.918V290H246.257V287.995C246.257 287.758 246.195 287.572 246.072 287.439C245.948 287.304 245.778 287.237 245.562 287.237C245.415 287.237 245.283 287.268 245.168 287.332C245.055 287.396 244.964 287.49 244.898 287.614C244.832 287.736 244.8 287.884 244.8 288.057ZM248.335 288.89L248.33 288.112H248.441L249.745 286.727H250.508L249.021 288.304H248.92L248.335 288.89ZM247.749 290V285.636H248.386V290H247.749ZM249.815 290L248.643 288.445L249.082 287.999L250.597 290H249.815Z" fill="white"/>
<rect x="332" y="228" width="24" height="9" rx="2" transform="rotate(180 332 228)" fill="#18181B" fill-opacity="0.8"/>
<rect x="331.75" y="227.75" width="23.5" height="8.5" rx="1.75" transform="rotate(180 331.75 227.75)" stroke="#27272A" stroke-opacity="0.8" stroke-width="0.5"/>
<path d="M310.782 226V221.636H312.38C312.69 221.636 312.946 221.687 313.149 221.79C313.352 221.891 313.504 222.028 313.605 222.201C313.706 222.373 313.757 222.567 313.757 222.783C313.757 222.964 313.723 223.118 313.656 223.243C313.59 223.366 313.5 223.466 313.388 223.541C313.277 223.615 313.155 223.669 313.021 223.703V223.746C313.166 223.753 313.308 223.8 313.445 223.886C313.585 223.972 313.7 224.093 313.791 224.251C313.882 224.408 313.927 224.6 313.927 224.826C313.927 225.049 313.874 225.249 313.769 225.427C313.666 225.603 313.505 225.743 313.288 225.847C313.07 225.949 312.793 226 312.455 226H310.782ZM311.441 225.435H312.391C312.706 225.435 312.932 225.374 313.068 225.252C313.205 225.13 313.273 224.977 313.273 224.794C313.273 224.656 313.238 224.53 313.169 224.415C313.099 224.3 312.999 224.208 312.87 224.14C312.742 224.072 312.59 224.038 312.414 224.038H311.441V225.435ZM311.441 223.524H312.323C312.47 223.524 312.603 223.496 312.721 223.439C312.84 223.382 312.935 223.303 313.004 223.2C313.075 223.097 313.111 222.974 313.111 222.834C313.111 222.653 313.048 222.502 312.921 222.38C312.795 222.258 312.601 222.197 312.34 222.197H311.441V223.524ZM316.296 221.636H317.095L318.484 225.028H318.535L319.924 221.636H320.723V226H320.097V222.842H320.056L318.77 225.994H318.25L316.963 222.84H316.922V226H316.296V221.636ZM322.582 226.072C322.374 226.072 322.187 226.034 322.019 225.957C321.852 225.879 321.719 225.766 321.621 225.619C321.524 225.471 321.476 225.29 321.476 225.075C321.476 224.891 321.512 224.739 321.583 224.619C321.654 224.5 321.749 224.406 321.87 224.336C321.991 224.266 322.126 224.214 322.275 224.178C322.424 224.143 322.576 224.116 322.731 224.097C322.927 224.075 323.086 224.056 323.208 224.042C323.33 224.026 323.419 224.001 323.475 223.967C323.53 223.933 323.558 223.878 323.558 223.801V223.786C323.558 223.6 323.505 223.456 323.4 223.354C323.296 223.251 323.142 223.2 322.936 223.2C322.721 223.2 322.552 223.248 322.428 223.343C322.306 223.437 322.222 223.541 322.175 223.656L321.576 223.52C321.647 223.321 321.751 223.161 321.887 223.038C322.025 222.915 322.183 222.825 322.362 222.77C322.541 222.713 322.73 222.685 322.927 222.685C323.058 222.685 323.196 222.7 323.343 222.732C323.49 222.761 323.628 222.817 323.756 222.898C323.885 222.979 323.991 223.094 324.073 223.245C324.156 223.394 324.197 223.588 324.197 223.827V226H323.575V225.553H323.549C323.508 225.635 323.446 225.716 323.364 225.795C323.281 225.875 323.176 225.941 323.046 225.994C322.917 226.046 322.762 226.072 322.582 226.072ZM322.72 225.561C322.896 225.561 323.047 225.526 323.172 225.457C323.298 225.387 323.394 225.296 323.46 225.184C323.526 225.07 323.56 224.949 323.56 224.82V224.398C323.537 224.42 323.493 224.442 323.428 224.462C323.364 224.48 323.291 224.496 323.208 224.511C323.126 224.523 323.046 224.536 322.968 224.547C322.889 224.557 322.824 224.565 322.771 224.572C322.648 224.588 322.535 224.614 322.433 224.651C322.332 224.688 322.251 224.741 322.19 224.811C322.13 224.879 322.1 224.97 322.1 225.084C322.1 225.241 322.159 225.361 322.275 225.442C322.392 225.521 322.54 225.561 322.72 225.561ZM325.045 226V222.727H325.683V226H325.045ZM325.367 222.222C325.256 222.222 325.161 222.185 325.082 222.112C325.004 222.036 324.964 221.947 324.964 221.843C324.964 221.738 325.004 221.648 325.082 221.575C325.161 221.499 325.256 221.462 325.367 221.462C325.478 221.462 325.572 221.499 325.651 221.575C325.73 221.648 325.77 221.738 325.77 221.843C325.77 221.947 325.73 222.036 325.651 222.112C325.572 222.185 325.478 222.222 325.367 222.222ZM327.177 224.057V226H326.54V222.727H327.151V223.26H327.192C327.267 223.087 327.385 222.947 327.545 222.842C327.707 222.737 327.911 222.685 328.157 222.685C328.38 222.685 328.575 222.732 328.743 222.825C328.91 222.918 329.04 223.055 329.133 223.239C329.225 223.422 329.271 223.648 329.271 223.918V226H328.634V223.995C328.634 223.758 328.572 223.572 328.449 223.439C328.325 223.304 328.155 223.237 327.939 223.237C327.792 223.237 327.66 223.268 327.545 223.332C327.432 223.396 327.341 223.49 327.275 223.614C327.209 223.736 327.177 223.884 327.177 224.057Z" fill="white"/>
<rect x="213" y="328" width="40" height="9" rx="2" transform="rotate(180 213 328)" fill="#18181B" fill-opacity="0.8"/>
<rect x="212.75" y="327.75" width="39.5" height="8.5" rx="1.75" transform="rotate(180 212.75 327.75)" stroke="#27272A" stroke-opacity="0.8" stroke-width="0.5"/>
<path d="M175.784 321.636H176.583L177.972 325.028H178.023L179.413 321.636H180.212V326H179.585V322.842H179.545L178.258 325.994H177.738L176.451 322.84H176.411V326H175.784V321.636ZM181.118 326V322.727H181.755V326H181.118ZM181.439 322.222C181.329 322.222 181.233 322.185 181.154 322.112C181.076 322.036 181.037 321.947 181.037 321.843C181.037 321.738 181.076 321.648 181.154 321.575C181.233 321.499 181.329 321.462 181.439 321.462C181.55 321.462 181.645 321.499 181.723 321.575C181.802 321.648 181.842 321.738 181.842 321.843C181.842 321.947 181.802 322.036 181.723 322.112C181.645 322.185 181.55 322.222 181.439 322.222ZM183.837 326.064C183.573 326.064 183.337 325.996 183.13 325.862C182.924 325.725 182.762 325.531 182.644 325.28C182.527 325.027 182.469 324.724 182.469 324.37C182.469 324.016 182.528 323.714 182.646 323.462C182.765 323.211 182.929 323.018 183.136 322.885C183.343 322.751 183.578 322.685 183.841 322.685C184.044 322.685 184.208 322.719 184.331 322.787C184.456 322.854 184.553 322.932 184.621 323.021C184.691 323.111 184.745 323.19 184.783 323.258H184.821V321.636H185.458V326H184.836V325.491H184.783C184.745 325.56 184.689 325.64 184.617 325.729C184.546 325.819 184.448 325.897 184.323 325.964C184.198 326.031 184.036 326.064 183.837 326.064ZM183.978 325.521C184.161 325.521 184.316 325.472 184.442 325.376C184.57 325.278 184.667 325.142 184.732 324.969C184.799 324.795 184.832 324.594 184.832 324.364C184.832 324.136 184.799 323.937 184.734 323.767C184.669 323.597 184.573 323.464 184.446 323.369C184.32 323.273 184.164 323.226 183.978 323.226C183.786 323.226 183.626 323.276 183.498 323.375C183.37 323.474 183.274 323.61 183.208 323.782C183.145 323.954 183.113 324.148 183.113 324.364C183.113 324.582 183.145 324.779 183.211 324.954C183.276 325.129 183.373 325.267 183.5 325.369C183.63 325.47 183.789 325.521 183.978 325.521ZM188.861 326L187.651 321.636H188.343L189.194 325.016H189.234L190.118 321.636H190.804L191.689 325.018H191.729L192.577 321.636H193.272L192.059 326H191.397L190.478 322.732H190.444L189.526 326H188.861ZM193.821 326V322.727H194.458V326H193.821ZM194.143 322.222C194.032 322.222 193.937 322.185 193.857 322.112C193.779 322.036 193.74 321.947 193.74 321.843C193.74 321.738 193.779 321.648 193.857 321.575C193.937 321.499 194.032 321.462 194.143 321.462C194.253 321.462 194.348 321.499 194.426 321.575C194.506 321.648 194.545 321.738 194.545 321.843C194.545 321.947 194.506 322.036 194.426 322.112C194.348 322.185 194.253 322.222 194.143 322.222ZM195.952 324.057V326H195.315V322.727H195.926V323.26H195.967C196.042 323.087 196.16 322.947 196.321 322.842C196.483 322.737 196.686 322.685 196.932 322.685C197.155 322.685 197.35 322.732 197.518 322.825C197.686 322.918 197.816 323.055 197.908 323.239C198 323.422 198.047 323.648 198.047 323.918V326H197.409V323.995C197.409 323.758 197.348 323.572 197.224 323.439C197.1 323.304 196.931 323.237 196.715 323.237C196.567 323.237 196.436 323.268 196.321 323.332C196.207 323.396 196.117 323.49 196.05 323.614C195.985 323.736 195.952 323.884 195.952 324.057ZM200.126 326.064C199.862 326.064 199.626 325.996 199.419 325.862C199.213 325.725 199.051 325.531 198.933 325.28C198.816 325.027 198.758 324.724 198.758 324.37C198.758 324.016 198.817 323.714 198.935 323.462C199.054 323.211 199.218 323.018 199.425 322.885C199.632 322.751 199.868 322.685 200.13 322.685C200.333 322.685 200.497 322.719 200.62 322.787C200.745 322.854 200.842 322.932 200.91 323.021C200.98 323.111 201.034 323.19 201.072 323.258H201.11V321.636H201.748V326H201.125V325.491H201.072C201.034 325.56 200.978 325.64 200.906 325.729C200.835 325.819 200.737 325.897 200.612 325.964C200.487 326.031 200.325 326.064 200.126 326.064ZM200.267 325.521C200.45 325.521 200.605 325.472 200.731 325.376C200.859 325.278 200.956 325.142 201.021 324.969C201.088 324.795 201.121 324.594 201.121 324.364C201.121 324.136 201.088 323.937 201.023 323.767C200.958 323.597 200.862 323.464 200.735 323.369C200.609 323.273 200.453 323.226 200.267 323.226C200.075 323.226 199.915 323.276 199.787 323.375C199.659 323.474 199.563 323.61 199.498 323.782C199.434 323.954 199.402 324.148 199.402 324.364C199.402 324.582 199.434 324.779 199.5 324.954C199.565 325.129 199.662 325.267 199.789 325.369C199.919 325.47 200.078 325.521 200.267 325.521ZM204.035 326.066C203.729 326.066 203.461 325.996 203.232 325.855C203.003 325.714 202.826 325.518 202.699 325.265C202.573 325.012 202.51 324.717 202.51 324.379C202.51 324.039 202.573 323.742 202.699 323.488C202.826 323.234 203.003 323.036 203.232 322.896C203.461 322.755 203.729 322.685 204.035 322.685C204.342 322.685 204.61 322.755 204.839 322.896C205.067 323.036 205.245 323.234 205.371 323.488C205.498 323.742 205.561 324.039 205.561 324.379C205.561 324.717 205.498 325.012 205.371 325.265C205.245 325.518 205.067 325.714 204.839 325.855C204.61 325.996 204.342 326.066 204.035 326.066ZM204.037 325.531C204.236 325.531 204.401 325.479 204.532 325.374C204.662 325.268 204.759 325.129 204.822 324.954C204.885 324.779 204.917 324.587 204.917 324.376C204.917 324.168 204.885 323.976 204.822 323.801C204.759 323.625 204.662 323.484 204.532 323.377C204.401 323.271 204.236 323.217 204.037 323.217C203.837 323.217 203.671 323.271 203.539 323.377C203.408 323.484 203.311 323.625 203.247 323.801C203.184 323.976 203.153 324.168 203.153 324.376C203.153 324.587 203.184 324.779 203.247 324.954C203.311 325.129 203.408 325.268 203.539 325.374C203.671 325.479 203.837 325.531 204.037 325.531ZM206.882 326L205.919 322.727H206.577L207.219 325.131H207.251L207.894 322.727H208.552L209.192 325.12H209.224L209.861 322.727H210.519L209.558 326H208.908L208.243 323.637H208.194L207.53 326H206.882Z" fill="white"/>
</svg>
