<svg width="385" height="473" viewBox="0 0 385 473" fill="none" xmlns="http://www.w3.org/2000/svg">
<path d="M105 245C105 246.105 104.105 247 103 247C101.895 247 101 246.105 101 245C101 243.895 101.895 243 103 243C104.105 243 105 243.895 105 245Z" fill="#171717"/>
<path d="M104 245C104 245.552 103.552 246 103 246C102.448 246 102 245.552 102 245C102 244.448 102.448 244 103 244C103.552 244 104 244.448 104 245Z" fill="white"/>
<path d="M335 284C335 285.105 334.105 286 333 286C331.895 286 331 285.105 331 284C331 282.895 331.895 282 333 282C334.105 282 335 282.895 335 284Z" fill="#171717"/>
<path d="M334 284C334 284.552 333.552 285 333 285C332.448 285 332 284.552 332 284C332 283.448 332.448 283 333 283C333.552 283 334 283.448 334 284Z" fill="white"/>
</svg>
