<svg width="415" height="473" viewBox="0 0 415 473" fill="none" xmlns="http://www.w3.org/2000/svg">
<path fill-rule="evenodd" clip-rule="evenodd" d="M224.916 18.2399H161.067V54.5349L105.287 110.314V138.558H119.471V165.701H63.5961V235.606H50.6883V227.64L44.5949 221.625H0.499987V278.458L14.3619 278.458V291.53H0.503082V334.439H29.6217V332.613H42.4915V337.98H45.2063L52.8494 345.548V348.231H58.1848V361.163H42.4915V376.753C44.4152 384.952 46.0352 387.078 54.3881 390.267H136.398L140.6 394.265V445.386H180.691C192.873 446.767 199.592 449.326 211.529 453.872L212.638 454.294L228.635 455L234.001 450.65H243.417C248.832 449.122 251.386 448.803 256.035 448.222C256.78 448.129 257.579 448.03 258.452 447.917L261.287 441.337L276.271 428.177L280.85 416.821V368.356H267.171V348.226H366.903C372.793 347.372 375.126 344.177 377.585 340.808C377.731 340.608 377.877 340.408 378.024 340.207C378.62 338.76 378.851 337.415 378.851 335.624V312.565H368.832V306.27H413.81L413.81 263.339H399.879V236.415H413.803L413.803 207.644H396.483L396.483 194.354H409.071L409.071 158.628H343.238V172.691H330.154V137.592H303.977L301.288 139.889L297.523 136.125L301.972 131.52V117.002L293.758 108.525H280.576V109.777H224.916V18.2399ZM374.432 207.644V194.738H287.304V154.408L289.455 152.257L285.153 147.955L280.85 152.257V194.738H224.378V207.644H252.883V249.587H273.321V221.625H343.238L347.003 227.54L358.297 221.625L355.608 215.71L357.222 214.634V207.644H374.432ZM308.279 334.01V278.086L294.296 264.643H252.058V268.089H252.883V292.605H221.151V306.048H280.85V334.01H308.279ZM322.801 312.606H346.465V306.153H328.717V240.983H322.801V312.606ZM196.375 245.823H183.09V236.41H190.228V193.663H183.467V184.171H196.375V245.823ZM189.282 85.3521H196.274V138.276H252.119V165.701H166.396L154.302 179.348V193.396H141.452V110.22L161.861 89.6984H189.282V85.3521ZM92.3038 194.539H105.212V210.475H141.613V208.719H168.248V221.625H161.567L161.623 264.356H186.013L196.405 274.746V292.422H199.479V305.545H196.405V319.236H134.226V219.756H105.415V221.625H92.3038V194.539ZM92.0729 263.568L104.443 263.539L106.594 263.568C110.359 263.03 112.553 260.177 112.553 257.119C112.553 252.961 109.821 250.879 106.594 250.341H91.5351L29.5186 250.341V307.234L42.5869 307.234V263.54L92.0729 263.568ZM150.773 361.066V348.329H119.78L105.146 333.534V308.984H112.259V303.092H105.146V292.359H92.6468V320.173H85.4288V348.206H83.7482V361.066H150.773ZM252.364 334.529V396.313H238.9V382.221H182.177V396.351H169.228V341.252H238.9V334.529H252.364Z" fill="#271406"/>
<path d="M212.638 454.294L228.635 455L234.001 450.65H243.417C248.832 449.122 251.386 448.803 256.035 448.222C256.78 448.129 257.579 448.03 258.452 447.917L261.287 441.337L276.271 428.177L280.85 416.821V368.356H267.171V348.226H366.903C372.793 347.372 375.126 344.177 377.585 340.808C377.731 340.608 377.877 340.408 378.024 340.207C378.62 338.76 378.851 337.415 378.851 335.624V312.565H368.832V306.27H413.81L413.81 263.339H399.879V236.415H413.803L413.803 207.644H396.483L396.483 194.354H409.071L409.071 158.628H343.238V172.691H330.154V137.592H303.977L301.288 139.889L297.523 136.125L301.972 131.52V117.002L293.758 108.525H280.576V109.777H224.916V18.2399H161.067V54.5349L105.287 110.314V138.558H119.471V165.701H63.5961V235.606H50.6883V227.64L44.5949 221.625H0.499987V278.458L14.3619 278.458V291.53H0.503082V334.439H29.6217V332.613H42.4915V337.98H45.2063L52.8494 345.548V348.231H58.1848V361.163H42.4915V376.753C44.4152 384.952 46.0352 387.078 54.3881 390.267H136.398L140.6 394.265V445.386H180.691C192.873 446.767 199.592 449.326 211.529 453.872M212.638 454.294C212.263 454.152 211.893 454.011 211.529 453.872M212.638 454.294L211.529 453.872M42.5869 307.234L29.5186 307.234V250.341L91.5351 250.341H106.594C109.821 250.879 112.553 252.961 112.553 257.119C112.553 260.177 110.359 263.03 106.594 263.568L104.443 263.539L92.0729 263.568L42.5869 263.54M42.5869 307.234C42.5869 290.003 42.5869 280.771 42.5869 263.54M42.5869 307.234V263.54M374.432 194.738V207.644H357.222V214.634L355.608 215.71L358.297 221.625L347.003 227.54L343.238 221.625H273.321V249.587H252.883V207.644H224.378V194.738H280.85V152.257L285.153 147.955L289.455 152.257L287.304 154.408V194.738H374.432ZM196.375 245.823H183.09V236.41H190.228V193.663H183.467V184.171H196.375V245.823ZM196.274 85.3521H189.282V89.6984H161.861L141.452 110.22V193.396H154.302V179.348L166.396 165.701H252.119V138.276H196.274V85.3521ZM346.465 312.606H322.801V240.983H328.717V306.153H346.465V312.606ZM308.279 334.01V278.086L294.296 264.643H252.058V268.089H252.883V292.605H221.151V306.048H280.85V334.01H308.279ZM92.3038 194.539H105.212V210.475H141.613V208.719H168.248V221.625H161.567L161.623 264.356H186.013L196.405 274.746V292.422H199.479V305.545H196.405V319.236H134.226V219.756H105.415V221.625H92.3038V194.539ZM252.364 396.313V334.529H238.9V341.252H169.228V396.351H182.177V382.221H238.9V396.313H252.364ZM150.773 361.066V348.329H119.78L105.146 333.534V308.984H112.259V303.092H105.146V292.359H92.6468V320.173H85.4288V348.206H83.7482V361.066H150.773ZM385.189 277.549L385.189 250.347H382.058V257.211H360.986V250.347H357.76L357.76 277.549H385.189Z" stroke="#B27C40"/>
<path d="M395.945 306.144V299.192H388.953V306.144M328.717 288.841H336.246V281.851H329.254" stroke="#B27C40" stroke-width="0.5"/>
<path d="M329.255 265.38H350.768V264.191C342.366 264.191 337.656 264.191 329.255 264.191" stroke="#B27C40" stroke-width="0.5"/>
<path d="M350.768 264.106V257.653H357.222V264.106H350.768Z" stroke="#B27C40"/>
<path d="M350.768 260.54H347.003V264.177" stroke="#B27C40" stroke-width="0.5"/>
<path d="M343.238 313.039V320.029H327.103V313.039M252.253 334.493V320.122H245.799V334.493M230.295 248.341L233.521 245.285L228.143 239.907L220.614 247.436M230.295 248.341L225.454 243.134M230.295 248.341L225.454 252.926M225.454 252.926L223.303 254.964L217.924 250.124L220.614 247.436M225.454 252.926L220.614 247.436M241.589 207.644V214.634H235.135V207.644M196.33 204.417H203.403V197.427H196.33M252.117 165.701V172.691H238.9V165.701M102.433 194.2V187.549C99.7029 187.549 98.172 187.549 95.4416 187.549V194.2M112.51 255.033L117.351 249.587L112.51 244.747L107.418 250.648M102.235 264.105V270.558H95.511V264.105M92.6119 316.803H71.0049V323.256H85.219M7.09626 278.624V271.634C4.15578 271.634 3.68172 271.634 0.74125 271.634M231.37 109.701V116.229H224.908V109.701M374.432 194.738C374.432 194.308 374.432 189.54 374.432 187.21H367.978V194.2M388.953 158.172V165.701H382.5V158.172M140.477 320.029V326.482H133.486V320.029M91.6185 361.604V371.936H85.1992V361.604M136.339 390.373L141.182 385.129L145.485 389.431L140.719 394.853M301.288 251.738V234.53H294.834V251.738H301.288ZM68.9464 279.7L57.1142 291.53L52.2737 286.69L64.106 274.322L69.4842 279.162L68.9464 279.7ZM310.969 163.55V182.37H304.515V163.55H310.969Z" stroke="#B27C40"/>
<path d="M343.238 320.03V327.02H336.784V323.525M336.784 320.03V323.525M336.784 323.525H333.019V320.03" stroke="#B27C40" stroke-width="0.5"/>
<path d="M249.118 172.691V176.455H242.126V172.691M252.345 285.077H224.378V292.067M413.824 292.605H371.743M238.859 334.548H217.386M168.444 334.548H203.403M217.386 334.548V332.935H203.403V334.548M217.386 334.548H203.403M134.163 278.25H127.135V306.105H112.51M56.2994 348.265C56.2993 346.585 56.2993 346.445 56.2994 344.765C52.5188 340.985 49.6001 338.181 45.8195 334.401H42.2878M220.613 18.1628V20.9689H214.159V20.4637M214.159 18.1628V20.4637M214.159 20.4637C213.729 20.4637 209.319 20.4637 207.168 20.4637M207.168 20.4637V18.1628M207.168 20.4637V20.9689H200.599V18.1628M185.915 18V21.0991H179.216V18.1302M172.387 18.3622V21.0991H165.673V19.7307M165.673 18.3622V19.7307M165.673 19.7307L162.808 22.0037H161.018" stroke="#B27C40" stroke-width="0.5"/>
<path d="M185.117 264.102C189.738 264.102 192.328 264.102 196.949 264.102" stroke="#B27C40" stroke-width="0.5"/>
<path d="M179.184 20.4637H172.412M220.824 19.2695L223.302 21.8816H225.454M4.39579 271.634V267.332H0.493244" stroke="#B27C40" stroke-width="0.5"/>
<path d="M43.1056 264.105H92.1896V316.265H43.1056V264.105ZM70.0216 279.162L64.1056 273.785L51.7355 286.69L57.1144 292.067L70.0216 279.162Z" fill="#F08234" fill-opacity="0.23"/>
<path d="M70.5977 319.513H43.1683V316.265H70.5977V319.513Z" fill="#F08234" fill-opacity="0.23"/>
<path d="M70.7629 303.605H69.216L72.0324 295.605H73.8215L76.6418 303.605H75.0949L72.9582 297.246H72.8957L70.7629 303.605ZM70.8137 300.468H75.0324V301.632H70.8137V300.468Z" fill="white"/>
<path d="M414.269 292.115H385.764V263.379H414.269V292.115Z" fill="#F08234" fill-opacity="0.23"/>
<path d="M385.765 292.129H343.814V277.898H385.765V292.129Z" fill="#F08234" fill-opacity="0.23"/>
<path d="M357.26 277.898H350.806V264.455H357.26V277.898Z" fill="#F08234" fill-opacity="0.23"/>
<path d="M350.806 277.898H343.814V265.806H350.806V277.898Z" fill="#F08234" fill-opacity="0.23"/>
<path d="M371.781 256.927H361.563V242.946H371.781V256.927Z" fill="#F08234" fill-opacity="0.23"/>
<path d="M361.562 249.936H357.259V242.946H361.562V249.936Z" fill="#F08234" fill-opacity="0.23"/>
<path d="M357.26 256.927H343.814V242.946H357.26V256.927Z" fill="#F08234" fill-opacity="0.23"/>
<path d="M350.268 260.42H343.814V256.927H350.268V260.42Z" fill="#F08234" fill-opacity="0.23"/>
<path d="M346.772 264.186H343.813V260.422H346.772V264.186Z" fill="#F08234" fill-opacity="0.23"/>
<path d="M392.432 286.398V278.398H395.494C396.073 278.398 396.553 278.489 396.936 278.671C397.321 278.851 397.609 279.097 397.799 279.41C397.992 279.722 398.088 280.076 398.088 280.472C398.088 280.798 398.026 281.076 397.901 281.308C397.776 281.537 397.608 281.723 397.397 281.867C397.186 282.01 396.95 282.113 396.69 282.175V282.253C396.974 282.269 397.246 282.356 397.506 282.515C397.769 282.671 397.984 282.893 398.151 283.179C398.317 283.466 398.401 283.812 398.401 284.218C398.401 284.632 398.3 285.005 398.1 285.335C397.899 285.663 397.597 285.923 397.194 286.113C396.79 286.303 396.282 286.398 395.67 286.398H392.432ZM393.881 285.187H395.44C395.966 285.187 396.345 285.087 396.576 284.886C396.811 284.683 396.928 284.423 396.928 284.105C396.928 283.868 396.869 283.654 396.752 283.464C396.635 283.272 396.468 283.121 396.252 283.011C396.036 282.899 395.778 282.843 395.479 282.843H393.881V285.187ZM393.881 281.8H395.315C395.565 281.8 395.79 281.755 395.991 281.663C396.191 281.57 396.349 281.438 396.463 281.269C396.58 281.097 396.639 280.894 396.639 280.66C396.639 280.35 396.53 280.094 396.311 279.894C396.095 279.693 395.773 279.593 395.346 279.593H393.881V281.8Z" fill="white"/>
</svg>
