<svg width="393" height="473" viewBox="0 0 393 473" fill="none" xmlns="http://www.w3.org/2000/svg">
<path d="M371.294 136.819H377.139V138.637H360.917L360.917 123.851H371.294L371.294 136.819Z" fill="#271406" fill-opacity="0.9" stroke="#B27C40" stroke-opacity="0.23" stroke-width="0.5"/>
<path fill-rule="evenodd" clip-rule="evenodd" d="M72.0812 338.695V352.755H14.4328V312.388H16.4411V302.556H30.4316V274.736H27.8842V240.413H9.16253V197.696H0.5V147.549H70.562V129.684H120.294V101.836H173.117V65.541L189.502 65.5327V66.9609H215.176V48.096L247.759 18L269.362 34.1449V66.7161H293.821V101.996H360.543V138.564H385.02V155.132H392.491V218.847H376.32L376.318 249.582H392.306L392.424 279.279H360L319.171 303.512H308.242V313.846H275.145V296.827H272.805V319.031H258.603V320.534H272.341V373.843H209.414V401.184H234.129V436.87L205.381 455H159.289L134.263 436.352V377.628H64.208V359.126H74.3522V338.695H72.0812ZM47.3624 296.757V312.971H65.1581V320.369H71.8904V323.758H74.4063V312.971H107.436V351.882H134.316V337.678H149.805V335.662H116.654V260.843H127.025V257.963H116.654V228.728H82.343V240.435H47.3083V270.637H65.1581V296.757H47.3624ZM121.263 187.101H149.203V182.307H156.582V180.465H162.953V221.904H186.735V225.124H162.746V247.017H176.428V274.472H156.557V260.765H146.038V257.764H156.582V206.113H144.309V204.384H156.408V188.829H121.263V187.101ZM227.275 339.762V338.463H230.357V308.38L205.761 308.464V306.932H230.357V274.211H212.871V225.316H202.141V221.987H233.852V194.014H239.95V200.351L293.835 200.773V148.418H317.615V161.946H300.28V211.874H317.559V218.211H290.187V210.721H275.672V221.358H272.337V210.721H236.616V236.07H240.3V239.754H243.53V274.897H246.524V276.398H233.887V319.031H247.44V320.534H243.184L233.036 330.407V339.762H227.275ZM159.725 313.008V306.792H184.64V308.464H173.117V324.431L214.916 324.25V338.463H218.057V339.762L208.482 339.765V351.872H181.272V337.905H167.355V313.008H159.725ZM149.277 370.2L149.166 401.184H195.901L196.012 370.2H149.277ZM262.042 269.263V239.754H272.337V229.459H275.672V234.654H290.199V232.906H324.059V247.485H353.378V218.787H359.809V249.897L318.649 274.094H293.806V263.724H275.069V280.957H272.758V276.398H257.244V274.552L262.042 269.263ZM116.654 215.019H82.3873V197.471H92.8861V148.379H110.036V164.879H107.106V183.916H110.086V187.101H112.769V188.603H109.74V204.384H128.753V206.113H116.654V215.019ZM135.44 158.295V122.356H212.871V88.8445H250.159V120.498H271.693V172.284H239.849V179.773H233.934V162.058L222.666 150.748H213.091V129.878H183.578V150.65H174.269L163.031 161.799V166.238H156.408V158.295H135.44ZM293.888 120.968V133.534H317.799V126.934H339.112V155.022H345.805V120.968H293.888Z" fill="#271406" stroke="#B27C40"/>
<path d="M143.708 338.048C144.621 338.048 145.361 338.788 145.361 339.7C145.361 340.613 144.621 341.353 143.708 341.353C142.796 341.353 142.056 340.613 142.056 339.7C142.056 338.788 142.796 338.048 143.708 338.048Z" stroke="#B27C40"/>
<path d="M205.356 308.59H184.615M181.98 306.862V296.183H208.714V306.862M184.039 133.905H213.423M92.4311 183.574H85.5173M85.5173 183.574V197.4M85.5173 183.574V176.084H92.4311M8.88933 197.4H22.1314V176.084H4.30402M0.24707 176.084H4.30402M4.30402 176.084V169.747H0.24707M47.1103 270.567V289.002H53.8291M127.576 259.621L135.472 254.436M146.013 259.044L137.89 263.82M128.729 204.314H144.861M127 206.042V212.955H145.706V206.042M265.276 320.689V365.706L236.82 365.706V374.267M233.318 374.267V362.385H261.549V320.689M308.488 303.396H304.229V306.412M304.229 313.775V306.412M304.229 306.412H302.366V313.775M385.179 154.768V160.21M392.466 161.865L385.179 161.865V160.21M392.466 160.21H385.179M364.209 155.171H376.473M124.498 292.459H127.576V295.735H124.119M221.728 42.0219V52.2066H215.419M269.365 40.5347H265.94V51.4404H269.365M184.84 306.468H205.539V299.176H184.84V306.468ZM128.729 206.251H143.939V210.651H128.729V206.251Z" stroke="#B27C40" stroke-width="0.5"/>
<path d="M271.891 157.072H275.29M271.891 163.876H278.939V157.072H275.29M275.29 157.072V153.616H271.699M333.032 126.905V132.666H339.507M317.41 211.803H323.518V216.988H317.41M353.528 224.478H346.08V211.227H359.57V218.813M346.141 154.975H365.455M374.948 154.975H385.026M354.348 282.713L350.297 275.916L356.434 272.151L360.515 279.202M156.384 234.848H148.894V240.832H156.384M116.629 288.64H124.119V295.715H116.629M336.143 182.997L363.222 175.508L365.526 183.574L338.447 191.063L336.143 182.997Z" stroke="#B27C40"/>
<path d="M209.39 373.819V366.9H215.187L215.187 373.819M265.537 318.96V312.047H272.555M234.164 296.492H243.959V302.829H234.164M237.045 218.362H243.959V210.651M226.098 222.173V215.26H229.785M234.164 215.26H229.785M229.785 215.26V211.573H234.164M169.767 222.173V190.204H162.721M71.1136 190.487V182.997H42.8822V190.487H64.7759M71.1136 190.487V196.824H64.7759V190.487M71.1136 190.487H64.7759M32.5115 147.278V154.525H39.4253V147.278M70.5374 137.256H78.2375V129.419M54.0502 240.033V233.059H60.6089V240.033M57.6844 312.856L65.0637 320.333M73.9943 320.689H81.4843V316.944M81.4843 313.199V316.944M81.4843 316.944H85.5173V313.199M107.411 351.791V358.712H113.173V351.791M134.49 345.461H141.98V337.972M167.331 316.757H152.618V306.862H159.841M181.158 176.084V193.368H191.529V200.281H205.357V193.368H215.727V176.084H181.158ZM191.529 151.311V149.939H204.839V151.311H191.529Z" stroke="#B27C40"/>
<path d="M152.351 312.962H159.841M212.847 268.262H205.933V274.15H212.847" stroke="#B27C40"/>
<path d="M153.791 253.359C154.863 253.36 155.732 254.228 155.732 255.3C155.732 256.371 154.863 257.24 153.791 257.24C152.72 257.24 151.851 256.371 151.851 255.3C151.851 254.228 152.72 253.359 153.791 253.359Z" stroke="#B27C40"/>
<path d="M377.139 154.768V138.637M352.175 154.768V123.851H360.917" stroke="#B27C40" stroke-opacity="0.23" stroke-width="0.5"/>
<path d="M31.9353 155.344H40.0017V147.855H69.9617V191.063H69.9607V182.421H42.3054V191.063H64.2V197.401H0.52417V197.18L22.3972 197.38V176.284L0.52417 176.084H3.98511V169.443H0.52417V147.855H31.9353V155.344Z" fill="#F08234" fill-opacity="0.23"/>
<path d="M37.2673 167.957H35.8064C35.7647 167.717 35.6879 167.505 35.5759 167.32C35.4639 167.132 35.3246 166.974 35.158 166.843C34.9913 166.713 34.8012 166.616 34.5876 166.55C34.3767 166.483 34.1488 166.449 33.9041 166.449C33.4692 166.449 33.0837 166.558 32.7478 166.777C32.4119 166.993 32.1488 167.311 31.9587 167.73C31.7686 168.147 31.6736 168.656 31.6736 169.257C31.6736 169.869 31.7686 170.385 31.9587 170.804C32.1514 171.221 32.4145 171.536 32.7478 171.75C33.0837 171.961 33.4679 172.066 33.9001 172.066C34.1397 172.066 34.3637 172.035 34.572 171.972C34.783 171.907 34.9718 171.812 35.1384 171.687C35.3077 171.562 35.4496 171.408 35.5642 171.226C35.6814 171.044 35.7621 170.836 35.8064 170.601L37.2673 170.609C37.2126 170.989 37.0942 171.346 36.9119 171.679C36.7322 172.013 36.4965 172.307 36.2048 172.562C35.9132 172.815 35.572 173.013 35.1814 173.156C34.7908 173.297 34.3572 173.367 33.8806 173.367C33.1775 173.367 32.5499 173.204 31.9978 172.879C31.4457 172.553 31.0108 172.083 30.6931 171.468C30.3754 170.854 30.2166 170.117 30.2166 169.257C30.2166 168.395 30.3767 167.658 30.697 167.047C31.0173 166.432 31.4535 165.962 32.0056 165.636C32.5577 165.311 33.1827 165.148 33.8806 165.148C34.3259 165.148 34.74 165.211 35.1228 165.336C35.5056 165.461 35.8468 165.644 36.1462 165.886C36.4457 166.126 36.6918 166.42 36.8845 166.769C37.0798 167.116 37.2074 167.511 37.2673 167.957Z" fill="white"/>
<path d="M223.217 208.346H173.668V164.562H223.217V208.346ZM180.582 193.368H192.105V200.281H204.781V193.368H215.151V176.084H180.582V193.368Z" fill="#F08234" fill-opacity="0.23"/>
<path d="M195.199 190.541V182.541H198.261C198.839 182.541 199.32 182.632 199.703 182.814C200.088 182.994 200.376 183.24 200.566 183.552C200.759 183.865 200.855 184.219 200.855 184.615C200.855 184.941 200.792 185.219 200.667 185.451C200.542 185.68 200.375 185.866 200.164 186.01C199.953 186.153 199.717 186.256 199.457 186.318V186.396C199.74 186.412 200.013 186.499 200.273 186.658C200.536 186.814 200.751 187.036 200.917 187.322C201.084 187.608 201.167 187.955 201.167 188.361C201.167 188.775 201.067 189.148 200.867 189.478C200.666 189.806 200.364 190.066 199.96 190.256C199.557 190.446 199.049 190.541 198.437 190.541H195.199ZM196.648 189.33H198.207C198.733 189.33 199.111 189.23 199.343 189.029C199.578 188.826 199.695 188.566 199.695 188.248C199.695 188.011 199.636 187.797 199.519 187.607C199.402 187.414 199.235 187.263 199.019 187.154C198.803 187.042 198.545 186.986 198.246 186.986H196.648V189.33ZM196.648 185.943H198.082C198.332 185.943 198.557 185.898 198.757 185.806C198.958 185.713 199.115 185.581 199.23 185.412C199.347 185.24 199.406 185.037 199.406 184.802C199.406 184.493 199.296 184.237 199.078 184.037C198.861 183.836 198.54 183.736 198.113 183.736H196.648V185.943Z" fill="white"/>
<path d="M385.423 161.959H392.606V155.344H392.638L392.612 198.264H341.334L341.338 190.202L341.503 190.791L366.108 183.938L363.586 174.886L341.344 181.081L341.36 155.344H385.423V161.959Z" fill="#F08234" fill-opacity="0.23"/>
<path d="M372.528 175.562H370.981L373.798 167.562H375.587L378.407 175.562H376.86L374.723 169.203H374.661L372.528 175.562ZM372.579 172.425H376.798V173.589H372.579V172.425Z" fill="white"/>
</svg>
