<svg width="465" height="473" viewBox="0 0 465 473" fill="none" xmlns="http://www.w3.org/2000/svg">
<path d="M32 262C32 263.105 31.1046 264 30 264C28.8954 264 28 263.105 28 262C28 260.895 28.8954 260 30 260C31.1046 260 32 260.895 32 262Z" fill="#171717"/>
<path d="M31 262C31 262.552 30.5523 263 30 263C29.4477 263 29 262.552 29 262C29 261.448 29.4477 261 30 261C30.5523 261 31 261.448 31 262Z" fill="white"/>
<path d="M382 240C382 241.105 381.105 242 380 242C378.895 242 378 241.105 378 240C378 238.895 378.895 238 380 238C381.105 238 382 238.895 382 240Z" fill="#171717"/>
<path d="M381 240C381 240.552 380.552 241 380 241C379.448 241 379 240.552 379 240C379 239.448 379.448 239 380 239C380.552 239 381 239.448 381 240Z" fill="white"/>
</svg>
