<svg width="415" height="473" viewBox="0 0 415 473" fill="none" xmlns="http://www.w3.org/2000/svg">
<path fill-rule="evenodd" clip-rule="evenodd" d="M189.394 454.76H253.243V418.465L309.023 362.686V334.442H294.839V307.299H350.714V237.394H363.622V245.36L369.715 251.375H413.81V194.542L399.948 194.542V181.47H413.807V138.561H384.688V140.387H371.818V135.02H369.104L361.461 127.452V124.769H356.125V111.837H371.818V96.2472C369.895 88.0477 368.275 85.9219 359.922 82.7331H277.912L273.71 78.7346V27.6144H233.619C221.437 26.2327 214.718 23.674 202.781 19.1279L201.672 18.7057L185.675 18L180.309 22.3499H170.893C165.478 23.8777 162.924 24.1968 158.275 24.7776C157.53 24.8707 156.731 24.9705 155.858 25.0831L153.023 31.663L138.039 44.8228L133.46 56.1789V104.644H147.139V124.774H47.4073C41.5169 125.628 39.1844 128.823 36.7252 132.192C36.5793 132.392 36.433 132.592 36.2855 132.793C35.6905 134.24 35.4589 135.585 35.4589 137.376V160.435H45.4777V166.73H0.5L0.5 209.661H14.4309V236.585H0.507022L0.507022 265.356H17.8268L17.8268 278.646H5.2393L5.2393 314.372H71.0717V300.309H84.1555V335.408H110.333L113.022 333.111L116.787 336.875L112.338 341.48V355.998L120.552 364.475H133.734V363.223H189.394V454.76ZM39.8778 265.356V278.262H127.006V318.592L124.854 320.743L129.157 325.045L133.46 320.743V278.262H189.932V265.356H161.427V223.413H140.989V251.375H71.0718L67.307 245.46L56.0126 251.375L58.7018 257.29L57.0883 258.366V265.356H39.8778ZM106.031 138.99V194.914L120.014 208.357H162.252V204.911H161.427V180.395H193.159V166.952H133.46V138.99H106.031ZM91.5092 160.394H67.8448V166.847H85.5931V232.017H91.5092V160.394ZM217.935 227.177H231.22V236.59H224.082V279.337H230.843V288.829H217.935V227.177ZM225.028 387.648H218.036V334.724H162.191V307.299H247.914L260.008 293.652V279.604H272.858V362.78L252.449 383.302H225.028V387.648ZM322.006 278.461H309.098V262.525H272.697V264.281H246.062V251.375H252.743L252.687 208.644H228.297L217.905 198.254V180.578H214.831V167.455H217.905V153.764H280.084V253.244H308.895V251.375H322.006V278.461ZM322.237 209.432L309.867 209.461L307.716 209.432C303.951 209.97 301.757 212.823 301.757 215.881C301.757 220.039 304.489 222.121 307.716 222.659H322.775L384.791 222.659V165.766L371.723 165.766V209.46L322.237 209.432ZM263.537 111.934V124.671H294.53L309.164 139.466V164.016H302.051V169.908H309.164V180.641H321.663V152.827H328.881V124.794H330.562V111.934H263.537ZM161.946 138.471V76.6871H175.41V90.7794H232.133V76.6487H245.082V131.748H175.41V138.471H161.946Z" fill="#271406"/>
<path d="M201.672 18.7057L185.675 18L180.309 22.3499H170.893C165.478 23.8777 162.924 24.1968 158.275 24.7776C157.53 24.8707 156.731 24.9705 155.858 25.0831L153.023 31.663L138.039 44.8228L133.46 56.1789V104.644H147.139V124.774H47.4073C41.5169 125.628 39.1844 128.823 36.7252 132.192C36.5793 132.392 36.433 132.592 36.2855 132.793C35.6905 134.24 35.4589 135.585 35.4589 137.376V160.435H45.4777V166.73H0.5L0.5 209.661H14.4309V236.585H0.507022L0.507022 265.356H17.8268L17.8268 278.646H5.2393L5.2393 314.372H71.0717V300.309H84.1555V335.408H110.333L113.022 333.111L116.787 336.875L112.338 341.48V355.998L120.552 364.475H133.734V363.223H189.394V454.76H253.243V418.465L309.023 362.686V334.442H294.839V307.299H350.714V237.394H363.622V245.36L369.715 251.375H413.81V194.542L399.948 194.542V181.47H413.807V138.561H384.688V140.387H371.818V135.02H369.104L361.461 127.452V124.769H356.125V111.837H371.818V96.2472C369.895 88.0477 368.275 85.9218 359.922 82.7331H277.912L273.71 78.7346V27.6144H233.619C221.437 26.2327 214.718 23.674 202.781 19.1279M201.672 18.7057C202.047 18.8483 202.417 18.989 202.781 19.1279M201.672 18.7057L202.781 19.1279M371.723 165.766L384.791 165.766V222.659L322.775 222.659H307.716C304.489 222.121 301.757 220.039 301.757 215.881C301.757 212.823 303.951 209.97 307.716 209.432L309.867 209.461L322.237 209.432L371.723 209.46M371.723 165.766C371.723 182.997 371.723 192.229 371.723 209.46M371.723 165.766V209.46M39.8778 278.262V265.356H57.0883V258.366L58.7018 257.29L56.0126 251.375L67.307 245.46L71.0718 251.375H140.989V223.413H161.427V265.356H189.932V278.262H133.46V320.743L129.157 325.045L124.854 320.743L127.006 318.592V278.262H39.8778ZM217.935 227.177H231.22V236.59H224.082V279.337H230.843V288.829H217.935V227.177ZM218.036 387.648H225.028V383.302H252.449L272.858 362.78V279.604H260.008V293.652L247.914 307.299H162.191V334.724H218.036V387.648ZM67.8448 160.394H91.5092V232.017H85.5931V166.847H67.8448V160.394ZM106.031 138.99V194.914L120.014 208.357H162.252V204.911H161.427V180.395H193.159V166.952H133.46V138.99H106.031ZM322.006 278.461H309.098V262.525H272.697V264.281H246.062V251.375H252.743L252.687 208.644H228.297L217.905 198.254V180.578H214.831V167.455H217.905V153.764H280.084V253.244H308.895V251.375H322.006V278.461ZM161.946 76.6871V138.471H175.41V131.748H245.082V76.6487H232.133V90.7794H175.41V76.6871H161.946ZM263.537 111.934V124.671H294.53L309.164 139.466V164.016H302.051V169.908H309.164V180.641H321.663V152.827H328.881V124.794H330.562V111.934H263.537ZM29.1213 195.451L29.1213 222.653H32.2522V215.789H53.3235V222.653H56.5505L56.5504 195.451H29.1213Z" stroke="#B27C40"/>
<path d="M18.365 166.856V173.808H25.3567V166.856M85.5934 184.159H78.0638V191.149H85.0555" stroke="#B27C40" stroke-width="0.5"/>
<path d="M85.0551 207.62H63.542V208.809C71.9434 208.809 76.6537 208.809 85.0551 208.809" stroke="#B27C40" stroke-width="0.5"/>
<path d="M63.5423 208.895V215.347H57.0884V208.895H63.5423Z" stroke="#B27C40"/>
<path d="M63.542 212.46H67.3068V208.823" stroke="#B27C40" stroke-width="0.5"/>
<path d="M71.0717 159.961V152.971H87.2066V159.961M162.057 138.507V152.878H168.511V138.507M184.015 224.659L180.788 227.715L186.167 233.092L193.696 225.564M184.015 224.659L188.856 229.866M184.015 224.659L188.856 220.074M188.856 220.074L191.007 218.036L196.385 222.876L193.696 225.564M188.856 220.074L193.696 225.564M172.721 265.356V258.366H179.175V265.356M217.98 268.583H210.907V275.573H217.98M162.193 307.299V300.309H175.41V307.299M311.877 278.8V285.45C314.607 285.45 316.138 285.45 318.868 285.45V278.8M301.8 217.967L296.959 223.413L301.8 228.253L306.892 222.352M312.075 208.895V202.442H318.799V208.895M321.698 156.197H343.305V149.744H329.091M407.214 194.376V201.366C410.154 201.366 410.628 201.366 413.569 201.366M182.94 363.299V356.771H189.402V363.299M39.8778 278.262C39.8778 278.692 39.8778 283.46 39.8778 285.79H46.3317V278.8M25.3564 314.828V307.299H31.8104V314.828M273.833 152.971V146.518H280.824V152.971M322.691 111.396V101.064H329.111V111.396M277.971 82.6268L273.128 87.8707L268.825 83.5689L273.591 78.1465M113.022 221.262V238.47H119.476V221.262H113.022ZM345.364 193.3L357.196 181.47L362.036 186.31L350.204 198.678L344.826 193.838L345.364 193.3ZM103.341 309.45V290.63H109.795V309.45H103.341Z" stroke="#B27C40"/>
<path d="M71.072 152.97V145.98H77.5259V149.475M77.5259 152.97V149.475M77.5259 149.475H81.2907V152.97" stroke="#B27C40" stroke-width="0.5"/>
<path d="M165.192 300.309V296.545H172.184V300.309M161.965 187.923H189.932V180.933M0.48584 180.395H42.5673M175.451 138.452H196.924M245.866 138.452H210.907M196.924 138.452V140.065H210.907V138.452M196.924 138.452H210.907M280.147 194.75H287.175V166.895H301.8M358.011 124.734C358.011 126.414 358.011 126.555 358.011 128.235C361.791 132.015 364.71 134.819 368.491 138.599H372.022M193.697 454.837V452.031H200.151V452.536M200.151 454.837V452.536M200.151 452.536C200.581 452.536 204.991 452.536 207.142 452.536M207.142 452.536V454.837M207.142 452.536V452.031H213.711V454.837M228.395 455V451.901H235.094V454.87M241.923 454.638V451.901H248.637V453.269M248.637 454.638V453.269M248.637 453.269L251.502 450.996H253.292" stroke="#B27C40" stroke-width="0.5"/>
<path d="M229.193 208.898C224.572 208.898 221.981 208.898 217.361 208.898" stroke="#B27C40" stroke-width="0.5"/>
<path d="M235.126 452.536H241.898M193.486 453.731L191.008 451.118H188.856M409.914 201.366V205.668H413.817" stroke="#B27C40" stroke-width="0.5"/>
<path d="M371.204 208.895H322.12V156.735H371.204V208.895ZM344.288 193.838L350.204 199.215L362.574 186.31L357.196 180.933L344.288 193.838Z" fill="#F08234" fill-opacity="0.23"/>
<path d="M343.712 153.487H371.142V156.735H343.712V153.487Z" fill="#F08234" fill-opacity="0.23"/>
<path d="M338.574 177.414H337.028L339.844 169.414H341.633L344.453 177.414H342.906L340.77 171.054H340.707L338.574 177.414ZM338.625 174.277H342.844V175.441H338.625V174.277Z" fill="white"/>
<path d="M0.0407715 180.885H28.5456V209.621H0.0407715V180.885Z" fill="#F08234" fill-opacity="0.23"/>
<path d="M28.5454 180.871H70.4959V195.102H28.5454V180.871Z" fill="#F08234" fill-opacity="0.23"/>
<path d="M57.0498 195.102H63.5037V208.545H57.0498V195.102Z" fill="#F08234" fill-opacity="0.23"/>
<path d="M63.5039 195.102H70.4957V207.194H63.5039V195.102Z" fill="#F08234" fill-opacity="0.23"/>
<path d="M42.5286 216.073H52.7473V230.054H42.5286V216.073Z" fill="#F08234" fill-opacity="0.23"/>
<path d="M52.7478 223.064H57.0504V230.054H52.7478V223.064Z" fill="#F08234" fill-opacity="0.23"/>
<path d="M57.0498 216.073H70.4955V230.054H57.0498V216.073Z" fill="#F08234" fill-opacity="0.23"/>
<path d="M64.0417 212.58H70.4957V216.073H64.0417V212.58Z" fill="#F08234" fill-opacity="0.23"/>
<path d="M67.5383 208.814H70.4964V212.578H67.5383V208.814Z" fill="#F08234" fill-opacity="0.23"/>
<path d="M14.8508 194.621V186.621H17.9133C18.4915 186.621 18.9719 186.712 19.3547 186.895C19.7402 187.074 20.0279 187.32 20.218 187.633C20.4107 187.945 20.5071 188.3 20.5071 188.695C20.5071 189.021 20.4446 189.3 20.3196 189.531C20.1946 189.761 20.0266 189.947 19.8157 190.09C19.6047 190.233 19.3691 190.336 19.1086 190.399V190.477C19.3925 190.492 19.6646 190.58 19.925 190.738C20.1881 190.895 20.4029 191.116 20.5696 191.402C20.7362 191.689 20.8196 192.035 20.8196 192.442C20.8196 192.856 20.7193 193.228 20.5188 193.559C20.3183 193.887 20.0162 194.146 19.6125 194.336C19.2089 194.526 18.7011 194.621 18.0891 194.621H14.8508ZM16.3 193.41H17.8586C18.3847 193.41 18.7636 193.31 18.9954 193.109C19.2297 192.906 19.3469 192.646 19.3469 192.328C19.3469 192.091 19.2883 191.878 19.1711 191.688C19.054 191.495 18.8873 191.344 18.6711 191.234C18.455 191.123 18.1972 191.067 17.8977 191.067H16.3V193.41ZM16.3 190.024H17.7336C17.9836 190.024 18.2089 189.978 18.4094 189.887C18.6099 189.793 18.7675 189.662 18.8821 189.492C18.9993 189.32 19.0579 189.117 19.0579 188.883C19.0579 188.573 18.9485 188.318 18.7297 188.117C18.5136 187.917 18.192 187.817 17.7649 187.817H16.3V190.024Z" fill="white"/>
</svg>
