<svg width="385" height="473" viewBox="0 0 385 473" fill="none" xmlns="http://www.w3.org/2000/svg">
<rect x="174" y="417" width="37" height="9" rx="2" fill="#18181B" fill-opacity="0.8"/>
<rect x="174.25" y="417.25" width="36.5" height="8.5" rx="1.75" stroke="#27272A" stroke-opacity="0.8" stroke-width="0.5"/>
<path d="M177.006 424H176.307L177.878 419.636H178.638L180.209 424H179.51L178.276 420.429H178.242L177.006 424ZM177.123 422.291H179.39V422.845H177.123V422.291ZM180.108 420.203V419.636H183.485V420.203H182.124V424H181.467V420.203H180.108ZM184.231 424V419.636H184.89V421.72H184.943L186.773 419.636H187.602L185.842 421.601L187.608 424H186.816L185.405 422.05L184.89 422.643V424H184.231ZM192.184 420.783C192.161 420.581 192.067 420.425 191.902 420.314C191.738 420.202 191.53 420.146 191.28 420.146C191.101 420.146 190.946 420.174 190.816 420.231C190.685 420.286 190.583 420.363 190.511 420.461C190.44 420.558 190.404 420.668 190.404 420.791C190.404 420.895 190.429 420.984 190.477 421.06C190.527 421.135 190.591 421.198 190.671 421.249C190.752 421.299 190.838 421.341 190.931 421.375C191.023 421.408 191.112 421.435 191.197 421.456L191.623 421.567C191.762 421.601 191.905 421.647 192.051 421.705C192.198 421.763 192.333 421.84 192.458 421.935C192.583 422.031 192.684 422.148 192.761 422.289C192.839 422.43 192.878 422.598 192.878 422.794C192.878 423.041 192.814 423.261 192.686 423.452C192.56 423.644 192.376 423.795 192.135 423.906C191.895 424.017 191.604 424.072 191.263 424.072C190.936 424.072 190.654 424.021 190.415 423.917C190.176 423.813 189.99 423.666 189.855 423.476C189.72 423.284 189.645 423.057 189.631 422.794H190.292C190.304 422.952 190.355 423.083 190.445 423.188C190.536 423.292 190.652 423.369 190.792 423.42C190.934 423.47 191.09 423.495 191.259 423.495C191.445 423.495 191.61 423.466 191.755 423.408C191.902 423.348 192.017 423.266 192.1 423.161C192.184 423.054 192.226 422.93 192.226 422.788C192.226 422.658 192.189 422.553 192.115 422.47C192.043 422.388 191.944 422.32 191.819 422.266C191.696 422.212 191.556 422.164 191.4 422.123L190.884 421.982C190.534 421.887 190.257 421.747 190.053 421.562C189.85 421.378 189.748 421.134 189.748 420.83C189.748 420.578 189.816 420.359 189.953 420.171C190.089 419.984 190.274 419.838 190.507 419.734C190.74 419.629 191.002 419.577 191.295 419.577C191.591 419.577 191.851 419.629 192.077 419.732C192.304 419.836 192.483 419.979 192.614 420.161C192.745 420.341 192.813 420.548 192.819 420.783H192.184ZM193.614 425.227V420.727H194.236V421.258H194.289C194.326 421.19 194.379 421.111 194.449 421.021C194.519 420.932 194.615 420.854 194.739 420.787C194.862 420.719 195.026 420.685 195.229 420.685C195.493 420.685 195.729 420.751 195.936 420.885C196.144 421.018 196.306 421.211 196.424 421.462C196.544 421.714 196.603 422.016 196.603 422.37C196.603 422.724 196.544 423.027 196.426 423.28C196.308 423.531 196.146 423.725 195.941 423.862C195.735 423.996 195.499 424.064 195.235 424.064C195.036 424.064 194.874 424.031 194.747 423.964C194.622 423.897 194.524 423.819 194.453 423.729C194.382 423.64 194.328 423.56 194.289 423.491H194.251V425.227H193.614ZM194.238 422.364C194.238 422.594 194.271 422.795 194.338 422.969C194.405 423.142 194.502 423.278 194.628 423.376C194.754 423.472 194.909 423.521 195.093 423.521C195.283 423.521 195.442 423.47 195.57 423.369C195.698 423.267 195.794 423.129 195.86 422.954C195.926 422.779 195.96 422.582 195.96 422.364C195.96 422.148 195.927 421.954 195.862 421.782C195.798 421.61 195.701 421.474 195.572 421.375C195.444 421.276 195.284 421.226 195.093 421.226C194.908 421.226 194.752 421.273 194.624 421.369C194.497 421.464 194.401 421.597 194.336 421.767C194.271 421.937 194.238 422.136 194.238 422.364ZM198.269 424.072C198.062 424.072 197.874 424.034 197.707 423.957C197.539 423.879 197.406 423.766 197.308 423.619C197.212 423.471 197.164 423.29 197.164 423.075C197.164 422.891 197.199 422.739 197.27 422.619C197.341 422.5 197.437 422.406 197.558 422.336C197.678 422.266 197.813 422.214 197.963 422.178C198.112 422.143 198.264 422.116 198.419 422.097C198.615 422.075 198.774 422.056 198.896 422.042C199.018 422.026 199.107 422.001 199.162 421.967C199.218 421.933 199.245 421.878 199.245 421.801V421.786C199.245 421.6 199.193 421.456 199.088 421.354C198.984 421.251 198.829 421.2 198.623 421.2C198.409 421.2 198.24 421.248 198.116 421.343C197.994 421.437 197.909 421.541 197.862 421.656L197.264 421.52C197.335 421.321 197.438 421.161 197.575 421.038C197.713 420.915 197.871 420.825 198.05 420.77C198.229 420.713 198.417 420.685 198.615 420.685C198.745 420.685 198.884 420.7 199.03 420.732C199.178 420.761 199.316 420.817 199.443 420.898C199.573 420.979 199.678 421.094 199.761 421.245C199.843 421.394 199.884 421.588 199.884 421.827V424H199.262V423.553H199.237C199.195 423.635 199.134 423.716 199.051 423.795C198.969 423.875 198.863 423.941 198.734 423.994C198.605 424.046 198.45 424.072 198.269 424.072ZM198.408 423.561C198.584 423.561 198.735 423.526 198.86 423.457C198.986 423.387 199.082 423.296 199.147 423.184C199.214 423.07 199.247 422.949 199.247 422.82V422.398C199.225 422.42 199.181 422.442 199.115 422.462C199.051 422.48 198.978 422.496 198.896 422.511C198.813 422.523 198.733 422.536 198.655 422.547C198.577 422.557 198.512 422.565 198.459 422.572C198.335 422.588 198.222 422.614 198.12 422.651C198.019 422.688 197.938 422.741 197.877 422.811C197.818 422.879 197.788 422.97 197.788 423.084C197.788 423.241 197.846 423.361 197.963 423.442C198.079 423.521 198.227 423.561 198.408 423.561ZM201.442 424L200.479 420.727H201.138L201.779 423.131H201.811L202.455 420.727H203.113L203.752 423.12H203.784L204.421 420.727H205.08L204.119 424H203.469L202.804 421.637H202.755L202.09 424H201.442ZM206.321 422.057V424H205.684V420.727H206.296V421.26H206.336C206.411 421.087 206.529 420.947 206.69 420.842C206.852 420.737 207.056 420.685 207.301 420.685C207.524 420.685 207.72 420.732 207.887 420.825C208.055 420.918 208.185 421.055 208.277 421.239C208.369 421.422 208.416 421.648 208.416 421.918V424H207.779V421.995C207.779 421.758 207.717 421.572 207.593 421.439C207.47 421.304 207.3 421.237 207.084 421.237C206.936 421.237 206.805 421.268 206.69 421.332C206.576 421.396 206.486 421.49 206.419 421.614C206.354 421.736 206.321 421.884 206.321 422.057Z" fill="white"/>
<rect x="99" y="317" width="28" height="9" rx="2" fill="#18181B" fill-opacity="0.8"/>
<rect x="99.25" y="317.25" width="27.5" height="8.5" rx="1.75" stroke="#27272A" stroke-opacity="0.8" stroke-width="0.5"/>
<path d="M101.822 324V319.636H103.42C103.73 319.636 103.986 319.687 104.189 319.79C104.392 319.891 104.544 320.028 104.645 320.201C104.746 320.373 104.797 320.567 104.797 320.783C104.797 320.964 104.763 321.118 104.696 321.243C104.63 321.366 104.54 321.466 104.428 321.541C104.317 321.615 104.195 321.669 104.062 321.703V321.746C104.206 321.753 104.348 321.8 104.486 321.886C104.625 321.972 104.74 322.093 104.831 322.251C104.922 322.408 104.967 322.6 104.967 322.826C104.967 323.049 104.915 323.249 104.809 323.427C104.706 323.603 104.545 323.743 104.328 323.847C104.111 323.949 103.833 324 103.495 324H101.822ZM102.481 323.435H103.431C103.746 323.435 103.972 323.374 104.108 323.252C104.245 323.13 104.313 322.977 104.313 322.794C104.313 322.656 104.278 322.53 104.209 322.415C104.139 322.3 104.04 322.208 103.91 322.14C103.782 322.072 103.63 322.038 103.454 322.038H102.481V323.435ZM102.481 321.524H103.363C103.51 321.524 103.643 321.496 103.761 321.439C103.88 321.382 103.975 321.303 104.044 321.2C104.116 321.097 104.151 320.974 104.151 320.834C104.151 320.653 104.088 320.502 103.961 320.38C103.835 320.258 103.641 320.197 103.38 320.197H102.481V321.524ZM107.336 324V319.636H107.994V323.433H109.972V324H107.336ZM112.05 324.066C111.743 324.066 111.475 323.996 111.247 323.855C111.018 323.714 110.84 323.518 110.714 323.265C110.588 323.012 110.524 322.717 110.524 322.379C110.524 322.039 110.588 321.742 110.714 321.488C110.84 321.234 111.018 321.036 111.247 320.896C111.475 320.755 111.743 320.685 112.05 320.685C112.357 320.685 112.625 320.755 112.853 320.896C113.082 321.036 113.259 321.234 113.386 321.488C113.512 321.742 113.576 322.039 113.576 322.379C113.576 322.717 113.512 323.012 113.386 323.265C113.259 323.518 113.082 323.714 112.853 323.855C112.625 323.996 112.357 324.066 112.05 324.066ZM112.052 323.531C112.251 323.531 112.416 323.479 112.546 323.374C112.677 323.268 112.774 323.129 112.836 322.954C112.9 322.779 112.932 322.587 112.932 322.376C112.932 322.168 112.9 321.976 112.836 321.801C112.774 321.625 112.677 321.484 112.546 321.377C112.416 321.271 112.251 321.217 112.052 321.217C111.852 321.217 111.686 321.271 111.554 321.377C111.423 321.484 111.326 321.625 111.262 321.801C111.199 321.976 111.168 322.168 111.168 322.376C111.168 322.587 111.199 322.779 111.262 322.954C111.326 323.129 111.423 323.268 111.554 323.374C111.686 323.479 111.852 323.531 112.052 323.531ZM114.338 324V319.636H114.975V321.258H115.013C115.05 321.19 115.103 321.111 115.173 321.021C115.243 320.932 115.339 320.854 115.463 320.787C115.586 320.719 115.75 320.685 115.953 320.685C116.217 320.685 116.453 320.751 116.66 320.885C116.868 321.018 117.03 321.211 117.148 321.462C117.267 321.714 117.327 322.016 117.327 322.37C117.327 322.724 117.268 323.027 117.15 323.28C117.032 323.531 116.87 323.725 116.665 323.862C116.459 323.996 116.223 324.064 115.959 324.064C115.76 324.064 115.598 324.031 115.471 323.964C115.346 323.897 115.248 323.819 115.177 323.729C115.106 323.64 115.052 323.56 115.013 323.491H114.96V324H114.338ZM114.962 322.364C114.962 322.594 114.995 322.795 115.062 322.969C115.129 323.142 115.226 323.278 115.352 323.376C115.478 323.472 115.633 323.521 115.816 323.521C116.007 323.521 116.166 323.47 116.294 323.369C116.422 323.267 116.518 323.129 116.584 322.954C116.65 322.779 116.684 322.582 116.684 322.364C116.684 322.148 116.651 321.954 116.586 321.782C116.522 321.61 116.425 321.474 116.296 321.375C116.168 321.276 116.008 321.226 115.816 321.226C115.632 321.226 115.476 321.273 115.348 321.369C115.221 321.464 115.125 321.597 115.06 321.767C114.995 321.937 114.962 322.136 114.962 322.364ZM118.094 324V319.636H118.731V321.258H118.769C118.806 321.19 118.859 321.111 118.929 321.021C118.998 320.932 119.095 320.854 119.219 320.787C119.342 320.719 119.506 320.685 119.709 320.685C119.973 320.685 120.209 320.751 120.416 320.885C120.623 321.018 120.786 321.211 120.904 321.462C121.023 321.714 121.083 322.016 121.083 322.37C121.083 322.724 121.024 323.027 120.906 323.28C120.788 323.531 120.626 323.725 120.42 323.862C120.214 323.996 119.979 324.064 119.715 324.064C119.516 324.064 119.354 324.031 119.227 323.964C119.102 323.897 119.004 323.819 118.933 323.729C118.862 323.64 118.807 323.56 118.769 323.491H118.716V324H118.094ZM118.718 322.364C118.718 322.594 118.751 322.795 118.818 322.969C118.885 323.142 118.981 323.278 119.108 323.376C119.234 323.472 119.389 323.521 119.572 323.521C119.763 323.521 119.922 323.47 120.05 323.369C120.177 323.267 120.274 323.129 120.339 322.954C120.406 322.779 120.44 322.582 120.44 322.364C120.44 322.148 120.407 321.954 120.342 321.782C120.278 321.61 120.181 321.474 120.052 321.375C119.924 321.276 119.764 321.226 119.572 321.226C119.388 321.226 119.231 321.273 119.104 321.369C118.977 321.464 118.881 321.597 118.816 321.767C118.751 321.937 118.718 322.136 118.718 322.364ZM122.09 325.227C121.995 325.227 121.908 325.219 121.83 325.204C121.752 325.19 121.693 325.174 121.655 325.157L121.809 324.635C121.925 324.666 122.029 324.68 122.12 324.675C122.21 324.671 122.291 324.637 122.36 324.573C122.431 324.509 122.494 324.405 122.548 324.26L122.627 324.043L121.429 320.727H122.111L122.94 323.267H122.974L123.803 320.727H124.487L123.138 324.437C123.076 324.607 122.996 324.751 122.899 324.869C122.803 324.989 122.688 325.078 122.554 325.138C122.421 325.197 122.266 325.227 122.09 325.227Z" fill="white"/>
<rect x="178" y="326" width="38" height="9" rx="2" fill="#18181B" fill-opacity="0.8"/>
<rect x="178.25" y="326.25" width="37.5" height="8.5" rx="1.75" stroke="#27272A" stroke-opacity="0.8" stroke-width="0.5"/>
<path d="M180.924 328.636H181.723L183.112 332.028H183.163L184.552 328.636H185.351V333H184.725V329.842H184.684L183.397 332.994H182.878L181.591 329.84H181.55V333H180.924V328.636ZM186.257 333V329.727H186.894V333H186.257ZM186.579 329.222C186.468 329.222 186.373 329.185 186.294 329.112C186.215 329.036 186.176 328.947 186.176 328.843C186.176 328.738 186.215 328.648 186.294 328.575C186.373 328.499 186.468 328.462 186.579 328.462C186.69 328.462 186.784 328.499 186.862 328.575C186.942 328.648 186.982 328.738 186.982 328.843C186.982 328.947 186.942 329.036 186.862 329.112C186.784 329.185 186.69 329.222 186.579 329.222ZM188.977 333.064C188.712 333.064 188.477 332.996 188.269 332.862C188.063 332.725 187.901 332.531 187.783 332.28C187.667 332.027 187.609 331.724 187.609 331.37C187.609 331.016 187.668 330.714 187.786 330.462C187.905 330.211 188.068 330.018 188.276 329.885C188.483 329.751 188.718 329.685 188.981 329.685C189.184 329.685 189.347 329.719 189.471 329.787C189.596 329.854 189.693 329.932 189.761 330.021C189.83 330.111 189.884 330.19 189.923 330.258H189.961V328.636H190.598V333H189.976V332.491H189.923C189.884 332.56 189.829 332.64 189.756 332.729C189.685 332.819 189.587 332.897 189.462 332.964C189.337 333.031 189.176 333.064 188.977 333.064ZM189.117 332.521C189.301 332.521 189.455 332.472 189.582 332.376C189.71 332.278 189.806 332.142 189.872 331.969C189.938 331.795 189.972 331.594 189.972 331.364C189.972 331.136 189.939 330.937 189.874 330.767C189.808 330.597 189.712 330.464 189.586 330.369C189.46 330.273 189.303 330.226 189.117 330.226C188.926 330.226 188.766 330.276 188.638 330.375C188.51 330.474 188.413 330.61 188.348 330.782C188.284 330.954 188.252 331.148 188.252 331.364C188.252 331.582 188.285 331.779 188.35 331.954C188.416 332.129 188.512 332.267 188.64 332.369C188.769 332.47 188.928 332.521 189.117 332.521ZM193.146 333V328.636H194.744C195.054 328.636 195.31 328.687 195.514 328.79C195.717 328.891 195.869 329.028 195.97 329.201C196.07 329.373 196.121 329.567 196.121 329.783C196.121 329.964 196.087 330.118 196.021 330.243C195.954 330.366 195.864 330.466 195.752 330.541C195.641 330.615 195.519 330.669 195.386 330.703V330.746C195.531 330.753 195.672 330.8 195.81 330.886C195.949 330.972 196.064 331.093 196.155 331.251C196.246 331.408 196.291 331.6 196.291 331.826C196.291 332.049 196.239 332.249 196.134 332.427C196.03 332.603 195.869 332.743 195.652 332.847C195.435 332.949 195.157 333 194.819 333H193.146ZM193.805 332.435H194.755C195.07 332.435 195.296 332.374 195.433 332.252C195.569 332.13 195.637 331.977 195.637 331.794C195.637 331.656 195.602 331.53 195.533 331.415C195.463 331.3 195.364 331.208 195.234 331.14C195.107 331.072 194.955 331.038 194.778 331.038H193.805V332.435ZM193.805 330.524H194.687C194.835 330.524 194.967 330.496 195.085 330.439C195.205 330.382 195.299 330.303 195.369 330.2C195.44 330.097 195.475 329.974 195.475 329.834C195.475 329.653 195.412 329.502 195.286 329.38C195.159 329.258 194.965 329.197 194.704 329.197H193.805V330.524ZM198.4 333.066C198.093 333.066 197.825 332.996 197.596 332.855C197.368 332.714 197.19 332.518 197.064 332.265C196.937 332.012 196.874 331.717 196.874 331.379C196.874 331.039 196.937 330.742 197.064 330.488C197.19 330.234 197.368 330.036 197.596 329.896C197.825 329.755 198.093 329.685 198.4 329.685C198.706 329.685 198.974 329.755 199.203 329.896C199.432 330.036 199.609 330.234 199.736 330.488C199.862 330.742 199.925 331.039 199.925 331.379C199.925 331.717 199.862 332.012 199.736 332.265C199.609 332.518 199.432 332.714 199.203 332.855C198.974 332.996 198.706 333.066 198.4 333.066ZM198.402 332.531C198.601 332.531 198.765 332.479 198.896 332.374C199.027 332.268 199.123 332.129 199.186 331.954C199.25 331.779 199.282 331.587 199.282 331.376C199.282 331.168 199.25 330.976 199.186 330.801C199.123 330.625 199.027 330.484 198.896 330.377C198.765 330.271 198.601 330.217 198.402 330.217C198.201 330.217 198.035 330.271 197.903 330.377C197.772 330.484 197.675 330.625 197.611 330.801C197.549 330.976 197.517 331.168 197.517 331.376C197.517 331.587 197.549 331.779 197.611 331.954C197.675 332.129 197.772 332.268 197.903 332.374C198.035 332.479 198.201 332.531 198.402 332.531ZM202.164 329.727V330.239H200.376V329.727H202.164ZM200.856 328.943H201.493V332.039C201.493 332.163 201.511 332.256 201.548 332.318C201.585 332.379 201.633 332.421 201.691 332.444C201.751 332.465 201.815 332.476 201.885 332.476C201.936 332.476 201.981 332.472 202.019 332.465C202.057 332.458 202.087 332.452 202.109 332.448L202.224 332.974C202.187 332.989 202.134 333.003 202.066 333.017C201.998 333.033 201.913 333.041 201.81 333.043C201.643 333.045 201.486 333.016 201.342 332.953C201.197 332.891 201.079 332.794 200.99 332.663C200.9 332.533 200.856 332.369 200.856 332.171V328.943ZM204.396 329.727V330.239H202.609V329.727H204.396ZM203.088 328.943H203.725V332.039C203.725 332.163 203.744 332.256 203.781 332.318C203.818 332.379 203.865 332.421 203.923 332.444C203.983 332.465 204.048 332.476 204.117 332.476C204.168 332.476 204.213 332.472 204.252 332.465C204.29 332.458 204.32 332.452 204.341 332.448L204.456 332.974C204.419 332.989 204.367 333.003 204.298 333.017C204.23 333.033 204.145 333.041 204.043 333.043C203.875 333.045 203.719 333.016 203.574 332.953C203.429 332.891 203.312 332.794 203.222 332.663C203.133 332.533 203.088 332.369 203.088 332.171V328.943ZM206.445 333.066C206.138 333.066 205.87 332.996 205.641 332.855C205.413 332.714 205.235 332.518 205.109 332.265C204.982 332.012 204.919 331.717 204.919 331.379C204.919 331.039 204.982 330.742 205.109 330.488C205.235 330.234 205.413 330.036 205.641 329.896C205.87 329.755 206.138 329.685 206.445 329.685C206.751 329.685 207.019 329.755 207.248 329.896C207.476 330.036 207.654 330.234 207.78 330.488C207.907 330.742 207.97 331.039 207.97 331.379C207.97 331.717 207.907 332.012 207.78 332.265C207.654 332.518 207.476 332.714 207.248 332.855C207.019 332.996 206.751 333.066 206.445 333.066ZM206.447 332.531C206.646 332.531 206.81 332.479 206.941 332.374C207.072 332.268 207.168 332.129 207.231 331.954C207.295 331.779 207.327 331.587 207.327 331.376C207.327 331.168 207.295 330.976 207.231 330.801C207.168 330.625 207.072 330.484 206.941 330.377C206.81 330.271 206.646 330.217 206.447 330.217C206.246 330.217 206.08 330.271 205.948 330.377C205.817 330.484 205.72 330.625 205.656 330.801C205.594 330.976 205.562 331.168 205.562 331.376C205.562 331.587 205.594 331.779 205.656 331.954C205.72 332.129 205.817 332.268 205.948 332.374C206.08 332.479 206.246 332.531 206.447 332.531ZM208.681 333V329.727H209.293V330.26H209.333C209.401 330.08 209.513 329.939 209.668 329.838C209.823 329.736 210.008 329.685 210.224 329.685C210.443 329.685 210.626 329.736 210.774 329.838C210.923 329.94 211.033 330.081 211.104 330.26H211.138C211.216 330.085 211.34 329.946 211.511 329.842C211.681 329.737 211.884 329.685 212.12 329.685C212.417 329.685 212.659 329.778 212.847 329.964C213.036 330.15 213.13 330.43 213.13 330.805V333H212.493V330.865C212.493 330.643 212.433 330.483 212.312 330.384C212.191 330.284 212.047 330.234 211.879 330.234C211.672 330.234 211.511 330.298 211.396 330.426C211.281 330.553 211.223 330.715 211.223 330.914V333H210.588V330.825C210.588 330.647 210.533 330.504 210.422 330.396C210.311 330.288 210.167 330.234 209.989 330.234C209.869 330.234 209.757 330.266 209.655 330.33C209.554 330.393 209.472 330.48 209.41 330.592C209.349 330.705 209.318 330.835 209.318 330.982V333H208.681Z" fill="white"/>
<rect x="253" y="330" width="28" height="9" rx="2" fill="#18181B" fill-opacity="0.8"/>
<rect x="253.25" y="330.25" width="27.5" height="8.5" rx="1.75" stroke="#27272A" stroke-opacity="0.8" stroke-width="0.5"/>
<path d="M256.053 337H255.354L256.925 332.636H257.685L259.256 337H258.557L257.323 333.429H257.289L256.053 337ZM256.17 335.291H258.437V335.845H256.17V335.291ZM261.474 337V332.636H262.132V336.433H264.109V337H261.474ZM266.188 337.066C265.881 337.066 265.613 336.996 265.384 336.855C265.156 336.714 264.978 336.518 264.852 336.265C264.725 336.012 264.662 335.717 264.662 335.379C264.662 335.039 264.725 334.742 264.852 334.488C264.978 334.234 265.156 334.036 265.384 333.896C265.613 333.755 265.881 333.685 266.188 333.685C266.494 333.685 266.762 333.755 266.991 333.896C267.22 334.036 267.397 334.234 267.524 334.488C267.65 334.742 267.713 335.039 267.713 335.379C267.713 335.717 267.65 336.012 267.524 336.265C267.397 336.518 267.22 336.714 266.991 336.855C266.762 336.996 266.494 337.066 266.188 337.066ZM266.19 336.531C266.389 336.531 266.553 336.479 266.684 336.374C266.815 336.268 266.911 336.129 266.974 335.954C267.038 335.779 267.07 335.587 267.07 335.376C267.07 335.168 267.038 334.976 266.974 334.801C266.911 334.625 266.815 334.484 266.684 334.377C266.553 334.271 266.389 334.217 266.19 334.217C265.99 334.217 265.823 334.271 265.691 334.377C265.561 334.484 265.463 334.625 265.399 334.801C265.337 334.976 265.306 335.168 265.306 335.376C265.306 335.587 265.337 335.779 265.399 335.954C265.463 336.129 265.561 336.268 265.691 336.374C265.823 336.479 265.99 336.531 266.19 336.531ZM268.475 337V332.636H269.113V334.258H269.151C269.188 334.19 269.241 334.111 269.311 334.021C269.38 333.932 269.477 333.854 269.6 333.787C269.724 333.719 269.887 333.685 270.091 333.685C270.355 333.685 270.591 333.751 270.798 333.885C271.005 334.018 271.168 334.211 271.286 334.462C271.405 334.714 271.465 335.016 271.465 335.37C271.465 335.724 271.406 336.027 271.288 336.28C271.17 336.531 271.008 336.725 270.802 336.862C270.596 336.996 270.361 337.064 270.097 337.064C269.898 337.064 269.735 337.031 269.609 336.964C269.484 336.897 269.386 336.819 269.315 336.729C269.244 336.64 269.189 336.56 269.151 336.491H269.098V337H268.475ZM269.1 335.364C269.1 335.594 269.133 335.795 269.2 335.969C269.267 336.142 269.363 336.278 269.49 336.376C269.616 336.472 269.771 336.521 269.954 336.521C270.145 336.521 270.304 336.47 270.431 336.369C270.559 336.267 270.656 336.129 270.721 335.954C270.788 335.779 270.821 335.582 270.821 335.364C270.821 335.148 270.789 334.954 270.723 334.782C270.659 334.61 270.563 334.474 270.434 334.375C270.306 334.276 270.146 334.226 269.954 334.226C269.77 334.226 269.613 334.273 269.485 334.369C269.359 334.464 269.263 334.597 269.198 334.767C269.132 334.937 269.1 335.136 269.1 335.364ZM272.231 337V332.636H272.868V334.258H272.907C272.944 334.19 272.997 334.111 273.067 334.021C273.136 333.932 273.233 333.854 273.356 333.787C273.48 333.719 273.643 333.685 273.846 333.685C274.111 333.685 274.346 333.751 274.554 333.885C274.761 334.018 274.924 334.211 275.042 334.462C275.161 334.714 275.221 335.016 275.221 335.37C275.221 335.724 275.162 336.027 275.044 336.28C274.926 336.531 274.764 336.725 274.558 336.862C274.352 336.996 274.117 337.064 273.853 337.064C273.654 337.064 273.491 337.031 273.365 336.964C273.24 336.897 273.142 336.819 273.071 336.729C273 336.64 272.945 336.56 272.907 336.491H272.854V337H272.231ZM272.856 335.364C272.856 335.594 272.889 335.795 272.956 335.969C273.023 336.142 273.119 336.278 273.246 336.376C273.372 336.472 273.527 336.521 273.71 336.521C273.9 336.521 274.059 336.47 274.187 336.369C274.315 336.267 274.412 336.129 274.477 335.954C274.544 335.779 274.577 335.582 274.577 335.364C274.577 335.148 274.545 334.954 274.479 334.782C274.415 334.61 274.319 334.474 274.189 334.375C274.062 334.276 273.902 334.226 273.71 334.226C273.525 334.226 273.369 334.273 273.241 334.369C273.115 334.464 273.019 334.597 272.954 334.767C272.888 334.937 272.856 335.136 272.856 335.364ZM276.227 338.227C276.132 338.227 276.046 338.219 275.968 338.204C275.889 338.19 275.831 338.174 275.793 338.157L275.946 337.635C276.063 337.666 276.166 337.68 276.257 337.675C276.348 337.671 276.428 337.637 276.498 337.573C276.569 337.509 276.632 337.405 276.686 337.26L276.764 337.043L275.567 333.727H276.249L277.078 336.267H277.112L277.941 333.727H278.624L277.276 337.437C277.213 337.607 277.134 337.751 277.037 337.869C276.941 337.989 276.825 338.078 276.692 338.138C276.558 338.197 276.404 338.227 276.227 338.227Z" fill="white"/>
<rect x="292" y="277" width="24" height="9" rx="2" fill="#18181B" fill-opacity="0.8"/>
<rect x="292.25" y="277.25" width="23.5" height="8.5" rx="1.75" stroke="#27272A" stroke-opacity="0.8" stroke-width="0.5"/>
<path d="M295.013 284H294.314L295.884 279.636H296.645L298.215 284H297.517L296.283 280.429H296.249L295.013 284ZM295.13 282.291H297.397V282.845H295.13V282.291ZM300.434 279.636H301.233L302.622 283.028H302.673L304.062 279.636H304.861V284H304.235V280.842H304.194L302.907 283.994H302.387L301.1 280.84H301.06V284H300.434V279.636ZM306.72 284.072C306.512 284.072 306.325 284.034 306.157 283.957C305.989 283.879 305.857 283.766 305.759 283.619C305.662 283.471 305.614 283.29 305.614 283.075C305.614 282.891 305.649 282.739 305.72 282.619C305.791 282.5 305.887 282.406 306.008 282.336C306.129 282.266 306.264 282.214 306.413 282.178C306.562 282.143 306.714 282.116 306.869 282.097C307.065 282.075 307.224 282.056 307.346 282.042C307.468 282.026 307.557 282.001 307.612 281.967C307.668 281.933 307.695 281.878 307.695 281.801V281.786C307.695 281.6 307.643 281.456 307.538 281.354C307.434 281.251 307.279 281.2 307.073 281.2C306.859 281.2 306.69 281.248 306.566 281.343C306.444 281.437 306.359 281.541 306.313 281.656L305.714 281.52C305.785 281.321 305.889 281.161 306.025 281.038C306.163 280.915 306.321 280.825 306.5 280.77C306.679 280.713 306.867 280.685 307.065 280.685C307.195 280.685 307.334 280.7 307.48 280.732C307.628 280.761 307.766 280.817 307.894 280.898C308.023 280.979 308.129 281.094 308.211 281.245C308.293 281.394 308.335 281.588 308.335 281.827V284H307.712V283.553H307.687C307.646 283.635 307.584 283.716 307.502 283.795C307.419 283.875 307.313 283.941 307.184 283.994C307.055 284.046 306.9 284.072 306.72 284.072ZM306.858 283.561C307.034 283.561 307.185 283.526 307.31 283.457C307.436 283.387 307.532 283.296 307.597 283.184C307.664 283.07 307.698 282.949 307.698 282.82V282.398C307.675 282.42 307.631 282.442 307.565 282.462C307.502 282.48 307.428 282.496 307.346 282.511C307.264 282.523 307.183 282.536 307.105 282.547C307.027 282.557 306.962 282.565 306.909 282.572C306.786 282.588 306.673 282.614 306.57 282.651C306.47 282.688 306.389 282.741 306.328 282.811C306.268 282.879 306.238 282.97 306.238 283.084C306.238 283.241 306.296 283.361 306.413 283.442C306.529 283.521 306.678 283.561 306.858 283.561ZM309.183 284V280.727H309.82V284H309.183ZM309.505 280.222C309.394 280.222 309.299 280.185 309.219 280.112C309.141 280.036 309.102 279.947 309.102 279.843C309.102 279.738 309.141 279.648 309.219 279.575C309.299 279.499 309.394 279.462 309.505 279.462C309.616 279.462 309.71 279.499 309.788 279.575C309.868 279.648 309.908 279.738 309.908 279.843C309.908 279.947 309.868 280.036 309.788 280.112C309.71 280.185 309.616 280.222 309.505 280.222ZM311.314 282.057V284H310.677V280.727H311.289V281.26H311.329C311.405 281.087 311.522 280.947 311.683 280.842C311.845 280.737 312.049 280.685 312.294 280.685C312.517 280.685 312.713 280.732 312.88 280.825C313.048 280.918 313.178 281.055 313.27 281.239C313.363 281.422 313.409 281.648 313.409 281.918V284H312.772V281.995C312.772 281.758 312.71 281.572 312.586 281.439C312.463 281.304 312.293 281.237 312.077 281.237C311.929 281.237 311.798 281.268 311.683 281.332C311.569 281.396 311.479 281.49 311.412 281.614C311.347 281.736 311.314 281.884 311.314 282.057Z" fill="white"/>
<rect x="182" y="245" width="33" height="9" rx="2" fill="#18181B" fill-opacity="0.8"/>
<rect x="182.25" y="245.25" width="32.5" height="8.5" rx="1.75" stroke="#27272A" stroke-opacity="0.8" stroke-width="0.5"/>
<path d="M184.606 247.636H185.405L186.795 251.028H186.846L188.235 247.636H189.034V252H188.407V248.842H188.367L187.08 251.994H186.56L185.273 248.84H185.233V252H184.606V247.636ZM189.94 252V248.727H190.577V252H189.94ZM190.262 248.222C190.151 248.222 190.056 248.185 189.976 248.112C189.898 248.036 189.859 247.947 189.859 247.843C189.859 247.738 189.898 247.648 189.976 247.575C190.056 247.499 190.151 247.462 190.262 247.462C190.373 247.462 190.467 247.499 190.545 247.575C190.625 247.648 190.664 247.738 190.664 247.843C190.664 247.947 190.625 248.036 190.545 248.112C190.467 248.185 190.373 248.222 190.262 248.222ZM192.659 252.064C192.395 252.064 192.159 251.996 191.952 251.862C191.746 251.725 191.584 251.531 191.466 251.28C191.35 251.027 191.291 250.724 191.291 250.37C191.291 250.016 191.35 249.714 191.468 249.462C191.588 249.211 191.751 249.018 191.958 248.885C192.166 248.751 192.401 248.685 192.664 248.685C192.867 248.685 193.03 248.719 193.154 248.787C193.279 248.854 193.375 248.932 193.443 249.021C193.513 249.111 193.567 249.19 193.605 249.258H193.644V247.636H194.281V252H193.659V251.491H193.605C193.567 251.56 193.512 251.64 193.439 251.729C193.368 251.819 193.27 251.897 193.145 251.964C193.02 252.031 192.858 252.064 192.659 252.064ZM192.8 251.521C192.983 251.521 193.138 251.472 193.264 251.376C193.392 251.278 193.489 251.142 193.554 250.969C193.621 250.795 193.654 250.594 193.654 250.364C193.654 250.136 193.622 249.937 193.556 249.767C193.491 249.597 193.395 249.464 193.269 249.369C193.142 249.273 192.986 249.226 192.8 249.226C192.608 249.226 192.448 249.276 192.32 249.375C192.193 249.474 192.096 249.61 192.031 249.782C191.967 249.954 191.935 250.148 191.935 250.364C191.935 250.582 191.968 250.779 192.033 250.954C192.098 251.129 192.195 251.267 192.323 251.369C192.452 251.47 192.611 251.521 192.8 251.521ZM199.209 248.783C199.186 248.581 199.093 248.425 198.928 248.314C198.763 248.202 198.556 248.146 198.306 248.146C198.127 248.146 197.972 248.174 197.841 248.231C197.71 248.286 197.609 248.363 197.536 248.461C197.465 248.558 197.43 248.668 197.43 248.791C197.43 248.895 197.454 248.984 197.502 249.06C197.552 249.135 197.617 249.198 197.696 249.249C197.777 249.299 197.864 249.341 197.956 249.375C198.048 249.408 198.137 249.435 198.222 249.456L198.649 249.567C198.788 249.601 198.931 249.647 199.077 249.705C199.223 249.763 199.359 249.84 199.484 249.935C199.609 250.031 199.71 250.148 199.786 250.289C199.865 250.43 199.904 250.598 199.904 250.794C199.904 251.041 199.84 251.261 199.712 251.452C199.585 251.644 199.401 251.795 199.16 251.906C198.92 252.017 198.629 252.072 198.289 252.072C197.962 252.072 197.679 252.021 197.441 251.917C197.202 251.813 197.015 251.666 196.88 251.476C196.745 251.284 196.671 251.057 196.656 250.794H197.317C197.33 250.952 197.381 251.083 197.47 251.188C197.561 251.292 197.677 251.369 197.818 251.42C197.96 251.47 198.115 251.495 198.284 251.495C198.47 251.495 198.636 251.466 198.781 251.408C198.927 251.348 199.042 251.266 199.126 251.161C199.21 251.054 199.252 250.93 199.252 250.788C199.252 250.658 199.215 250.553 199.141 250.47C199.068 250.388 198.97 250.32 198.845 250.266C198.721 250.212 198.581 250.164 198.425 250.123L197.909 249.982C197.56 249.887 197.283 249.747 197.078 249.562C196.875 249.378 196.774 249.134 196.774 248.83C196.774 248.578 196.842 248.359 196.978 248.171C197.115 247.984 197.299 247.838 197.532 247.734C197.765 247.629 198.028 247.577 198.32 247.577C198.616 247.577 198.877 247.629 199.102 247.732C199.33 247.836 199.509 247.979 199.639 248.161C199.77 248.341 199.838 248.548 199.844 248.783H199.209ZM202.167 248.727V249.239H200.379V248.727H202.167ZM200.859 247.943H201.496V251.039C201.496 251.163 201.514 251.256 201.551 251.318C201.588 251.379 201.636 251.421 201.694 251.444C201.754 251.465 201.818 251.476 201.888 251.476C201.939 251.476 201.984 251.472 202.022 251.465C202.06 251.458 202.09 251.452 202.112 251.448L202.227 251.974C202.19 251.989 202.137 252.003 202.069 252.017C202.001 252.033 201.915 252.041 201.813 252.043C201.646 252.045 201.489 252.016 201.344 251.953C201.2 251.891 201.082 251.794 200.993 251.663C200.903 251.533 200.859 251.369 200.859 251.171V247.943ZM203.824 252.072C203.617 252.072 203.429 252.034 203.262 251.957C203.094 251.879 202.961 251.766 202.863 251.619C202.767 251.471 202.718 251.29 202.718 251.075C202.718 250.891 202.754 250.739 202.825 250.619C202.896 250.5 202.992 250.406 203.112 250.336C203.233 250.266 203.368 250.214 203.517 250.178C203.666 250.143 203.818 250.116 203.973 250.097C204.169 250.075 204.328 250.056 204.45 250.042C204.573 250.026 204.661 250.001 204.717 249.967C204.772 249.933 204.8 249.878 204.8 249.801V249.786C204.8 249.6 204.747 249.456 204.642 249.354C204.539 249.251 204.384 249.2 204.178 249.2C203.963 249.2 203.794 249.248 203.671 249.343C203.548 249.437 203.464 249.541 203.417 249.656L202.818 249.52C202.889 249.321 202.993 249.161 203.129 249.038C203.267 248.915 203.426 248.825 203.605 248.77C203.784 248.713 203.972 248.685 204.169 248.685C204.3 248.685 204.438 248.7 204.585 248.732C204.732 248.761 204.87 248.817 204.998 248.898C205.127 248.979 205.233 249.094 205.316 249.245C205.398 249.394 205.439 249.588 205.439 249.827V252H204.817V251.553H204.791C204.75 251.635 204.688 251.716 204.606 251.795C204.524 251.875 204.418 251.941 204.289 251.994C204.159 252.046 204.004 252.072 203.824 252.072ZM203.963 251.561C204.139 251.561 204.289 251.526 204.414 251.457C204.541 251.387 204.637 251.296 204.702 251.184C204.769 251.07 204.802 250.949 204.802 250.82V250.398C204.779 250.42 204.735 250.442 204.67 250.462C204.606 250.48 204.533 250.496 204.45 250.511C204.368 250.523 204.288 250.536 204.21 250.547C204.132 250.557 204.066 250.565 204.014 250.572C203.89 250.588 203.777 250.614 203.675 250.651C203.574 250.688 203.493 250.741 203.432 250.811C203.372 250.879 203.343 250.97 203.343 251.084C203.343 251.241 203.401 251.361 203.517 251.442C203.634 251.521 203.782 251.561 203.963 251.561ZM206.288 252V248.727H206.925V252H206.288ZM206.609 248.222C206.499 248.222 206.403 248.185 206.324 248.112C206.246 248.036 206.207 247.947 206.207 247.843C206.207 247.738 206.246 247.648 206.324 247.575C206.403 247.499 206.499 247.462 206.609 247.462C206.72 247.462 206.815 247.499 206.893 247.575C206.972 247.648 207.012 247.738 207.012 247.843C207.012 247.947 206.972 248.036 206.893 248.112C206.815 248.185 206.72 248.222 206.609 248.222ZM207.782 252V248.727H208.398V249.247H208.432C208.491 249.071 208.596 248.933 208.747 248.832C208.899 248.729 209.071 248.678 209.263 248.678C209.302 248.678 209.349 248.68 209.403 248.683C209.459 248.685 209.502 248.689 209.533 248.693V249.303C209.508 249.295 209.462 249.288 209.397 249.279C209.331 249.269 209.266 249.264 209.201 249.264C209.05 249.264 208.916 249.296 208.798 249.36C208.682 249.423 208.589 249.51 208.521 249.622C208.453 249.733 208.419 249.859 208.419 250.001V252H207.782ZM212.537 249.526L211.96 249.629C211.935 249.555 211.897 249.484 211.844 249.418C211.793 249.351 211.724 249.296 211.636 249.254C211.548 249.211 211.438 249.19 211.305 249.19C211.125 249.19 210.974 249.23 210.854 249.311C210.733 249.391 210.673 249.494 210.673 249.62C210.673 249.729 210.713 249.817 210.794 249.884C210.875 249.951 211.006 250.006 211.186 250.048L211.706 250.168C212.007 250.237 212.232 250.344 212.379 250.489C212.527 250.634 212.601 250.822 212.601 251.054C212.601 251.25 212.544 251.425 212.43 251.578C212.318 251.73 212.161 251.849 211.96 251.936C211.759 252.023 211.527 252.066 211.263 252.066C210.896 252.066 210.597 251.988 210.366 251.832C210.134 251.674 209.992 251.45 209.94 251.161L210.555 251.067C210.594 251.227 210.673 251.349 210.792 251.431C210.911 251.512 211.067 251.553 211.259 251.553C211.467 251.553 211.634 251.509 211.759 251.423C211.884 251.335 211.947 251.227 211.947 251.101C211.947 250.999 211.908 250.913 211.832 250.843C211.756 250.773 211.641 250.721 211.484 250.685L210.93 250.564C210.625 250.494 210.399 250.384 210.253 250.232C210.108 250.08 210.036 249.887 210.036 249.654C210.036 249.461 210.089 249.292 210.197 249.147C210.305 249.002 210.455 248.889 210.645 248.808C210.835 248.726 211.053 248.685 211.299 248.685C211.653 248.685 211.931 248.761 212.134 248.915C212.337 249.067 212.472 249.271 212.537 249.526Z" fill="white"/>
<rect x="178" y="176" width="27" height="9" rx="2" fill="#18181B" fill-opacity="0.8"/>
<rect x="178.25" y="176.25" width="26.5" height="8.5" rx="1.75" stroke="#27272A" stroke-opacity="0.8" stroke-width="0.5"/>
<path d="M180.492 178.636H181.291L182.68 182.028H182.731L184.121 178.636H184.92V183H184.293V179.842H184.253L182.966 182.994H182.446L181.159 179.84H181.119V183H180.492V178.636ZM185.826 183V179.727H186.463V183H185.826ZM186.147 179.222C186.037 179.222 185.941 179.185 185.862 179.112C185.784 179.036 185.745 178.947 185.745 178.843C185.745 178.738 185.784 178.648 185.862 178.575C185.941 178.499 186.037 178.462 186.147 178.462C186.258 178.462 186.353 178.499 186.431 178.575C186.51 178.648 186.55 178.738 186.55 178.843C186.55 178.947 186.51 179.036 186.431 179.112C186.353 179.185 186.258 179.222 186.147 179.222ZM188.545 183.064C188.281 183.064 188.045 182.996 187.838 182.862C187.632 182.725 187.47 182.531 187.352 182.28C187.235 182.027 187.177 181.724 187.177 181.37C187.177 181.016 187.236 180.714 187.354 180.462C187.473 180.211 187.637 180.018 187.844 179.885C188.051 179.751 188.286 179.685 188.549 179.685C188.752 179.685 188.916 179.719 189.039 179.787C189.164 179.854 189.261 179.932 189.329 180.021C189.399 180.111 189.453 180.19 189.491 180.258H189.529V178.636H190.166V183H189.544V182.491H189.491C189.453 182.56 189.397 182.64 189.325 182.729C189.254 182.819 189.156 182.897 189.031 182.964C188.906 183.031 188.744 183.064 188.545 183.064ZM188.686 182.521C188.869 182.521 189.024 182.472 189.15 182.376C189.278 182.278 189.375 182.142 189.44 181.969C189.507 181.795 189.54 181.594 189.54 181.364C189.54 181.136 189.507 180.937 189.442 180.767C189.377 180.597 189.281 180.464 189.154 180.369C189.028 180.273 188.872 180.226 188.686 180.226C188.494 180.226 188.334 180.276 188.206 180.375C188.078 180.474 187.982 180.61 187.916 180.782C187.853 180.954 187.821 181.148 187.821 181.364C187.821 181.582 187.853 181.779 187.919 181.954C187.984 182.129 188.081 182.267 188.208 182.369C188.338 182.47 188.497 182.521 188.686 182.521ZM192.5 179.203V178.636H195.877V179.203H194.515V183H193.859V179.203H192.5ZM197.476 183.066C197.169 183.066 196.901 182.996 196.672 182.855C196.444 182.714 196.266 182.518 196.14 182.265C196.013 182.012 195.95 181.717 195.95 181.379C195.95 181.039 196.013 180.742 196.14 180.488C196.266 180.234 196.444 180.036 196.672 179.896C196.901 179.755 197.169 179.685 197.476 179.685C197.783 179.685 198.05 179.755 198.279 179.896C198.508 180.036 198.685 180.234 198.812 180.488C198.938 180.742 199.001 181.039 199.001 181.379C199.001 181.717 198.938 182.012 198.812 182.265C198.685 182.518 198.508 182.714 198.279 182.855C198.05 182.996 197.783 183.066 197.476 183.066ZM197.478 182.531C197.677 182.531 197.842 182.479 197.972 182.374C198.103 182.268 198.199 182.129 198.262 181.954C198.326 181.779 198.358 181.587 198.358 181.376C198.358 181.168 198.326 180.976 198.262 180.801C198.199 180.625 198.103 180.484 197.972 180.377C197.842 180.271 197.677 180.217 197.478 180.217C197.278 180.217 197.111 180.271 196.979 180.377C196.849 180.484 196.751 180.625 196.687 180.801C196.625 180.976 196.594 181.168 196.594 181.376C196.594 181.587 196.625 181.779 196.687 181.954C196.751 182.129 196.849 182.268 196.979 182.374C197.111 182.479 197.278 182.531 197.478 182.531ZM199.712 184.227V179.727H200.335V180.258H200.388C200.425 180.19 200.478 180.111 200.548 180.021C200.617 179.932 200.714 179.854 200.837 179.787C200.961 179.719 201.124 179.685 201.328 179.685C201.592 179.685 201.828 179.751 202.035 179.885C202.242 180.018 202.405 180.211 202.523 180.462C202.642 180.714 202.702 181.016 202.702 181.37C202.702 181.724 202.643 182.027 202.525 182.28C202.407 182.531 202.245 182.725 202.039 182.862C201.833 182.996 201.598 183.064 201.334 183.064C201.135 183.064 200.972 183.031 200.846 182.964C200.721 182.897 200.623 182.819 200.552 182.729C200.481 182.64 200.426 182.56 200.388 182.491H200.35V184.227H199.712ZM200.337 181.364C200.337 181.594 200.37 181.795 200.437 181.969C200.504 182.142 200.6 182.278 200.727 182.376C200.853 182.472 201.008 182.521 201.191 182.521C201.381 182.521 201.541 182.47 201.668 182.369C201.796 182.267 201.893 182.129 201.958 181.954C202.025 181.779 202.058 181.582 202.058 181.364C202.058 181.148 202.026 180.954 201.96 180.782C201.896 180.61 201.8 180.474 201.671 180.375C201.543 180.276 201.383 180.226 201.191 180.226C201.006 180.226 200.85 180.273 200.722 180.369C200.596 180.464 200.5 180.597 200.435 180.767C200.369 180.937 200.337 181.136 200.337 181.364Z" fill="white"/>
<rect x="231" y="201" width="22" height="9" rx="2" fill="#18181B" fill-opacity="0.8"/>
<rect x="231.25" y="201.25" width="21.5" height="8.5" rx="1.75" stroke="#27272A" stroke-opacity="0.8" stroke-width="0.5"/>
<path d="M234.05 208H233.351L234.922 203.636H235.682L237.253 208H236.554L235.32 204.429H235.286L234.05 208ZM234.167 206.291H236.434V206.845H234.167V206.291ZM239.471 208V203.636H240.129V207.433H242.106V208H239.471ZM242.806 208V204.727H243.443V208H242.806ZM243.128 204.222C243.017 204.222 242.922 204.185 242.842 204.112C242.764 204.036 242.725 203.947 242.725 203.843C242.725 203.738 242.764 203.648 242.842 203.575C242.922 203.499 243.017 203.462 243.128 203.462C243.239 203.462 243.333 203.499 243.411 203.575C243.491 203.648 243.531 203.738 243.531 203.843C243.531 203.947 243.491 204.036 243.411 204.112C243.333 204.185 243.239 204.222 243.128 204.222ZM244.937 206.057V208H244.3V204.727H244.912V205.26H244.952C245.028 205.087 245.146 204.947 245.306 204.842C245.468 204.737 245.672 204.685 245.918 204.685C246.141 204.685 246.336 204.732 246.503 204.825C246.671 204.918 246.801 205.055 246.893 205.239C246.986 205.422 247.032 205.648 247.032 205.918V208H246.395V205.995C246.395 205.758 246.333 205.572 246.209 205.439C246.086 205.304 245.916 205.237 245.7 205.237C245.552 205.237 245.421 205.268 245.306 205.332C245.192 205.396 245.102 205.49 245.035 205.614C244.97 205.736 244.937 205.884 244.937 206.057ZM248.472 206.89L248.468 206.112H248.579L249.883 204.727H250.646L249.158 206.304H249.058L248.472 206.89ZM247.886 208V203.636H248.523V208H247.886ZM249.953 208L248.781 206.445L249.22 205.999L250.735 208H249.953Z" fill="white"/>
<rect x="293" y="210" width="17" height="9" rx="2" fill="#18181B" fill-opacity="0.8"/>
<rect x="293.25" y="210.25" width="16.5" height="8.5" rx="1.75" stroke="#27272A" stroke-opacity="0.8" stroke-width="0.5"/>
<path d="M295.159 212.636H295.907L297.047 214.62H297.094L298.234 212.636H298.982L297.399 215.287V217H296.742V215.287L295.159 212.636ZM300.007 217.072C299.799 217.072 299.612 217.034 299.444 216.957C299.277 216.879 299.144 216.766 299.046 216.619C298.949 216.471 298.901 216.29 298.901 216.075C298.901 215.891 298.936 215.739 299.007 215.619C299.078 215.5 299.174 215.406 299.295 215.336C299.416 215.266 299.551 215.214 299.7 215.178C299.849 215.143 300.001 215.116 300.156 215.097C300.352 215.075 300.511 215.056 300.633 215.042C300.755 215.026 300.844 215.001 300.899 214.967C300.955 214.933 300.983 214.878 300.983 214.801V214.786C300.983 214.6 300.93 214.456 300.825 214.354C300.721 214.251 300.566 214.2 300.36 214.2C300.146 214.2 299.977 214.248 299.853 214.343C299.731 214.437 299.647 214.541 299.6 214.656L299.001 214.52C299.072 214.321 299.176 214.161 299.312 214.038C299.45 213.915 299.608 213.825 299.787 213.77C299.966 213.713 300.154 213.685 300.352 213.685C300.483 213.685 300.621 213.7 300.767 213.732C300.915 213.761 301.053 213.817 301.181 213.898C301.31 213.979 301.416 214.094 301.498 214.245C301.581 214.394 301.622 214.588 301.622 214.827V217H301V216.553H300.974C300.933 216.635 300.871 216.716 300.789 216.795C300.706 216.875 300.6 216.941 300.471 216.994C300.342 217.046 300.187 217.072 300.007 217.072ZM300.145 216.561C300.321 216.561 300.472 216.526 300.597 216.457C300.723 216.387 300.819 216.296 300.884 216.184C300.951 216.07 300.985 215.949 300.985 215.82V215.398C300.962 215.42 300.918 215.442 300.853 215.462C300.789 215.48 300.715 215.496 300.633 215.511C300.551 215.523 300.47 215.536 300.392 215.547C300.314 215.557 300.249 215.565 300.196 215.572C300.073 215.588 299.96 215.614 299.858 215.651C299.757 215.688 299.676 215.741 299.615 215.811C299.555 215.879 299.525 215.97 299.525 216.084C299.525 216.241 299.583 216.361 299.7 216.442C299.816 216.521 299.965 216.561 300.145 216.561ZM302.47 217V213.727H303.086V214.247H303.12C303.18 214.071 303.285 213.933 303.435 213.832C303.587 213.729 303.759 213.678 303.951 213.678C303.991 213.678 304.038 213.68 304.092 213.683C304.147 213.685 304.19 213.689 304.222 213.693V214.303C304.196 214.295 304.151 214.288 304.085 214.279C304.02 214.269 303.955 214.264 303.889 214.264C303.739 214.264 303.604 214.296 303.487 214.36C303.37 214.423 303.278 214.51 303.21 214.622C303.141 214.733 303.107 214.859 303.107 215.001V217H302.47ZM305.881 217.064C305.617 217.064 305.381 216.996 305.174 216.862C304.968 216.725 304.806 216.531 304.688 216.28C304.571 216.027 304.513 215.724 304.513 215.37C304.513 215.016 304.572 214.714 304.69 214.462C304.809 214.211 304.973 214.018 305.18 213.885C305.387 213.751 305.622 213.685 305.885 213.685C306.088 213.685 306.252 213.719 306.375 213.787C306.5 213.854 306.597 213.932 306.665 214.021C306.735 214.111 306.789 214.19 306.827 214.258H306.865V212.636H307.502V217H306.88V216.491H306.827C306.789 216.56 306.733 216.64 306.661 216.729C306.59 216.819 306.492 216.897 306.367 216.964C306.242 217.031 306.08 217.064 305.881 217.064ZM306.022 216.521C306.205 216.521 306.36 216.472 306.486 216.376C306.614 216.278 306.71 216.142 306.776 215.969C306.843 215.795 306.876 215.594 306.876 215.364C306.876 215.136 306.843 214.937 306.778 214.767C306.713 214.597 306.617 214.464 306.49 214.369C306.364 214.273 306.208 214.226 306.022 214.226C305.83 214.226 305.67 214.276 305.542 214.375C305.414 214.474 305.318 214.61 305.252 214.782C305.188 214.954 305.157 215.148 305.157 215.364C305.157 215.582 305.189 215.779 305.255 215.954C305.32 216.129 305.416 216.267 305.544 216.369C305.674 216.47 305.833 216.521 306.022 216.521Z" fill="white"/>
<rect x="353" y="209" width="24" height="9" rx="2" fill="#18181B" fill-opacity="0.8"/>
<rect x="353.25" y="209.25" width="23.5" height="8.5" rx="1.75" stroke="#27272A" stroke-opacity="0.8" stroke-width="0.5"/>
<path d="M355.592 216V211.636H357.147C357.487 211.636 357.768 211.698 357.991 211.822C358.214 211.945 358.381 212.114 358.492 212.329C358.602 212.542 358.658 212.782 358.658 213.049C358.658 213.317 358.602 213.559 358.489 213.773C358.379 213.987 358.211 214.156 357.987 214.281C357.764 214.404 357.483 214.466 357.145 214.466H356.075V213.908H357.085C357.3 213.908 357.474 213.871 357.607 213.797C357.741 213.722 357.839 213.619 357.901 213.49C357.964 213.361 357.995 213.214 357.995 213.049C357.995 212.884 357.964 212.738 357.901 212.61C357.839 212.482 357.74 212.382 357.605 212.31C357.472 212.237 357.296 212.201 357.077 212.201H356.25V216H355.592ZM360.716 216.066C360.409 216.066 360.141 215.996 359.913 215.855C359.684 215.714 359.506 215.518 359.38 215.265C359.254 215.012 359.19 214.717 359.19 214.379C359.19 214.039 359.254 213.742 359.38 213.488C359.506 213.234 359.684 213.036 359.913 212.896C360.141 212.755 360.409 212.685 360.716 212.685C361.023 212.685 361.291 212.755 361.519 212.896C361.748 213.036 361.926 213.234 362.052 213.488C362.178 213.742 362.242 214.039 362.242 214.379C362.242 214.717 362.178 215.012 362.052 215.265C361.926 215.518 361.748 215.714 361.519 215.855C361.291 215.996 361.023 216.066 360.716 216.066ZM360.718 215.531C360.917 215.531 361.082 215.479 361.212 215.374C361.343 215.268 361.44 215.129 361.502 214.954C361.566 214.779 361.598 214.587 361.598 214.376C361.598 214.168 361.566 213.976 361.502 213.801C361.44 213.625 361.343 213.484 361.212 213.377C361.082 213.271 360.917 213.217 360.718 213.217C360.518 213.217 360.352 213.271 360.22 213.377C360.089 213.484 359.992 213.625 359.928 213.801C359.865 213.976 359.834 214.168 359.834 214.376C359.834 214.587 359.865 214.779 359.928 214.954C359.992 215.129 360.089 215.268 360.22 215.374C360.352 215.479 360.518 215.531 360.718 215.531ZM364.331 216.066C364.014 216.066 363.742 215.994 363.513 215.851C363.286 215.706 363.111 215.506 362.989 215.252C362.867 214.998 362.806 214.707 362.806 214.379C362.806 214.046 362.868 213.753 362.993 213.499C363.118 213.243 363.294 213.043 363.522 212.9C363.749 212.756 364.017 212.685 364.325 212.685C364.573 212.685 364.795 212.731 364.99 212.823C365.184 212.914 365.341 213.042 365.46 213.207C365.581 213.371 365.653 213.564 365.676 213.784H365.056C365.022 213.631 364.943 213.499 364.821 213.388C364.701 213.277 364.539 213.222 364.335 213.222C364.158 213.222 364.002 213.268 363.869 213.362C363.737 213.455 363.634 213.587 363.56 213.759C363.486 213.929 363.449 214.131 363.449 214.364C363.449 214.602 363.485 214.808 363.558 214.982C363.63 215.155 363.733 215.289 363.865 215.384C363.998 215.479 364.155 215.527 364.335 215.527C364.456 215.527 364.566 215.505 364.664 215.461C364.763 215.415 364.846 215.351 364.913 215.267C364.981 215.183 365.029 215.082 365.056 214.964H365.676C365.653 215.176 365.584 215.365 365.469 215.531C365.354 215.697 365.2 215.828 365.007 215.923C364.815 216.018 364.59 216.066 364.331 216.066ZM366.943 214.89L366.939 214.112H367.049L368.353 212.727H369.116L367.629 214.304H367.529L366.943 214.89ZM366.357 216V211.636H366.994V216H366.357ZM368.424 216L367.252 214.445L367.691 213.999L369.206 216H368.424ZM370.973 216.066C370.65 216.066 370.372 215.997 370.139 215.859C369.908 215.72 369.729 215.525 369.603 215.273C369.478 215.021 369.415 214.724 369.415 214.385C369.415 214.05 369.478 213.754 369.603 213.499C369.729 213.243 369.905 213.043 370.131 212.9C370.358 212.756 370.624 212.685 370.928 212.685C371.112 212.685 371.291 212.715 371.465 212.776C371.638 212.837 371.794 212.933 371.931 213.064C372.069 213.195 372.178 213.364 372.257 213.573C372.337 213.781 372.377 214.033 372.377 214.33V214.555H369.775V214.078H371.752C371.752 213.911 371.718 213.762 371.65 213.633C371.582 213.502 371.486 213.399 371.362 213.324C371.24 213.249 371.097 213.211 370.932 213.211C370.753 213.211 370.597 213.255 370.463 213.343C370.331 213.43 370.229 213.543 370.157 213.684C370.085 213.823 370.05 213.974 370.05 214.138V214.511C370.05 214.729 370.088 214.915 370.165 215.069C370.243 215.222 370.352 215.339 370.491 215.42C370.63 215.5 370.793 215.54 370.979 215.54C371.1 215.54 371.21 215.523 371.309 215.489C371.409 215.453 371.495 215.401 371.567 215.331C371.639 215.261 371.695 215.175 371.733 215.073L372.336 215.182C372.288 215.359 372.201 215.515 372.076 215.648C371.953 215.781 371.797 215.884 371.61 215.957C371.424 216.03 371.211 216.066 370.973 216.066ZM374.611 212.727V213.239H372.824V212.727H374.611ZM373.303 211.943H373.94V215.039C373.94 215.163 373.959 215.256 373.995 215.318C374.032 215.379 374.08 215.421 374.138 215.444C374.198 215.465 374.263 215.476 374.332 215.476C374.383 215.476 374.428 215.472 374.466 215.465C374.505 215.458 374.535 215.452 374.556 215.448L374.671 215.974C374.634 215.989 374.581 216.003 374.513 216.017C374.445 216.033 374.36 216.041 374.258 216.043C374.09 216.045 373.934 216.016 373.789 215.953C373.644 215.891 373.527 215.794 373.437 215.663C373.348 215.533 373.303 215.369 373.303 215.171V211.943Z" fill="white"/>
<rect x="355" y="163" width="28" height="9" rx="2" fill="#18181B" fill-opacity="0.8"/>
<rect x="355.25" y="163.25" width="27.5" height="8.5" rx="1.75" stroke="#27272A" stroke-opacity="0.8" stroke-width="0.5"/>
<path d="M358.287 170H357.589L359.159 165.636H359.92L361.49 170H360.791L359.557 166.429H359.523L358.287 170ZM358.405 168.291H360.672V168.845H358.405V168.291ZM363.708 170V165.636H366.444V166.203H364.366V167.533H366.301V168.097H364.366V169.433H366.469V170H363.708ZM367.909 165.636V170H367.272V165.636H367.909ZM368.817 170V165.636H369.454V167.258H369.493C369.53 167.19 369.583 167.111 369.653 167.021C369.722 166.932 369.819 166.854 369.942 166.787C370.066 166.719 370.229 166.685 370.432 166.685C370.697 166.685 370.932 166.751 371.14 166.885C371.347 167.018 371.51 167.211 371.628 167.462C371.747 167.714 371.807 168.016 371.807 168.37C371.807 168.724 371.748 169.027 371.63 169.28C371.512 169.531 371.35 169.725 371.144 169.862C370.938 169.996 370.703 170.064 370.439 170.064C370.24 170.064 370.077 170.031 369.951 169.964C369.826 169.897 369.728 169.819 369.657 169.729C369.586 169.64 369.531 169.56 369.493 169.491H369.439V170H368.817ZM369.442 168.364C369.442 168.594 369.475 168.795 369.542 168.969C369.608 169.142 369.705 169.278 369.831 169.376C369.958 169.472 370.113 169.521 370.296 169.521C370.486 169.521 370.645 169.47 370.773 169.369C370.901 169.267 370.998 169.129 371.063 168.954C371.13 168.779 371.163 168.582 371.163 168.364C371.163 168.148 371.131 167.954 371.065 167.782C371.001 167.61 370.905 167.474 370.775 167.375C370.648 167.276 370.488 167.226 370.296 167.226C370.111 167.226 369.955 167.273 369.827 167.369C369.701 167.464 369.605 167.597 369.54 167.767C369.474 167.937 369.442 168.136 369.442 168.364ZM373.901 170.066C373.594 170.066 373.326 169.996 373.097 169.855C372.869 169.714 372.691 169.518 372.565 169.265C372.438 169.012 372.375 168.717 372.375 168.379C372.375 168.039 372.438 167.742 372.565 167.488C372.691 167.234 372.869 167.036 373.097 166.896C373.326 166.755 373.594 166.685 373.901 166.685C374.207 166.685 374.475 166.755 374.704 166.896C374.933 167.036 375.11 167.234 375.237 167.488C375.363 167.742 375.426 168.039 375.426 168.379C375.426 168.717 375.363 169.012 375.237 169.265C375.11 169.518 374.933 169.714 374.704 169.855C374.475 169.996 374.207 170.066 373.901 170.066ZM373.903 169.531C374.102 169.531 374.266 169.479 374.397 169.374C374.528 169.268 374.624 169.129 374.687 168.954C374.751 168.779 374.783 168.587 374.783 168.376C374.783 168.168 374.751 167.976 374.687 167.801C374.624 167.625 374.528 167.484 374.397 167.377C374.266 167.271 374.102 167.217 373.903 167.217C373.702 167.217 373.536 167.271 373.404 167.377C373.273 167.484 373.176 167.625 373.112 167.801C373.05 167.976 373.018 168.168 373.018 168.376C373.018 168.587 373.05 168.779 373.112 168.954C373.176 169.129 373.273 169.268 373.404 169.374C373.536 169.479 373.702 169.531 373.903 169.531ZM376.747 170L375.784 166.727H376.442L377.084 169.131H377.116L377.759 166.727H378.418L379.057 169.12H379.089L379.726 166.727H380.384L379.423 170H378.773L378.109 167.637H378.06L377.395 170H376.747Z" fill="white"/>
<rect x="302" y="85" width="22" height="9" rx="2" fill="#18181B" fill-opacity="0.8"/>
<rect x="302.25" y="85.25" width="21.5" height="8.5" rx="1.75" stroke="#27272A" stroke-opacity="0.8" stroke-width="0.5"/>
<path d="M308.499 89.0554H307.834C307.809 88.9134 307.761 88.7884 307.692 88.6804C307.622 88.5724 307.537 88.4808 307.436 88.4055C307.335 88.3303 307.222 88.2734 307.097 88.2351C306.974 88.1967 306.842 88.1776 306.703 88.1776C306.452 88.1776 306.226 88.2408 306.028 88.3672C305.83 88.4936 305.674 88.679 305.559 88.9233C305.445 89.1676 305.388 89.4659 305.388 89.8182C305.388 90.1733 305.445 90.473 305.559 90.7173C305.674 90.9616 305.831 91.1463 306.03 91.2713C306.229 91.3963 306.452 91.4588 306.701 91.4588C306.839 91.4588 306.969 91.4403 307.093 91.4034C307.218 91.3651 307.331 91.3089 307.432 91.2351C307.533 91.1612 307.618 91.071 307.687 90.9645C307.758 90.8565 307.807 90.733 307.834 90.5938L308.499 90.5959C308.464 90.8104 308.395 91.0078 308.293 91.1882C308.192 91.3672 308.062 91.522 307.903 91.6527C307.745 91.782 307.565 91.8821 307.361 91.9531C307.158 92.0241 306.937 92.0597 306.697 92.0597C306.319 92.0597 305.982 91.9702 305.687 91.7912C305.391 91.6108 305.158 91.353 304.988 91.0178C304.819 90.6825 304.734 90.2827 304.734 89.8182C304.734 89.3523 304.82 88.9524 304.99 88.6186C305.16 88.2834 305.393 88.0263 305.689 87.8473C305.984 87.6669 306.32 87.5767 306.697 87.5767C306.928 87.5767 307.144 87.6101 307.344 87.6768C307.546 87.7422 307.727 87.8388 307.888 87.9666C308.048 88.093 308.181 88.2479 308.286 88.4311C308.391 88.6129 308.462 88.821 308.499 89.0554ZM309.236 92V88.7273H309.852V89.2472H309.886C309.945 89.071 310.051 88.9325 310.201 88.8317C310.353 88.7294 310.525 88.6783 310.717 88.6783C310.756 88.6783 310.803 88.6797 310.857 88.6825C310.913 88.6854 310.956 88.6889 310.987 88.6932V89.3026C310.962 89.2955 310.916 89.2876 310.851 89.2791C310.786 89.2692 310.72 89.2642 310.655 89.2642C310.504 89.2642 310.37 89.2962 310.252 89.3601C310.136 89.4226 310.043 89.5099 309.975 89.6222C309.907 89.733 309.873 89.8594 309.873 90.0014V92H309.236ZM312.462 92.0724C312.254 92.0724 312.067 92.0341 311.899 91.9574C311.732 91.8793 311.599 91.7663 311.501 91.6186C311.404 91.4709 311.356 91.2898 311.356 91.0753C311.356 90.8906 311.391 90.7386 311.462 90.6193C311.533 90.5 311.629 90.4055 311.75 90.3359C311.871 90.2663 312.006 90.2138 312.155 90.1783C312.304 90.1428 312.456 90.1158 312.611 90.0973C312.807 90.0746 312.966 90.0561 313.088 90.0419C313.21 90.0263 313.299 90.0014 313.354 89.9673C313.41 89.9332 313.438 89.8778 313.438 89.8011V89.7862C313.438 89.6001 313.385 89.456 313.28 89.3537C313.176 89.2514 313.021 89.2003 312.815 89.2003C312.601 89.2003 312.432 89.2479 312.308 89.343C312.186 89.4368 312.102 89.5412 312.055 89.6562L311.456 89.5199C311.527 89.321 311.631 89.1605 311.767 89.0384C311.905 88.9148 312.063 88.8253 312.242 88.7699C312.421 88.7131 312.609 88.6847 312.807 88.6847C312.938 88.6847 313.076 88.7003 313.222 88.7315C313.37 88.7614 313.508 88.8168 313.636 88.8977C313.765 88.9787 313.871 89.0945 313.953 89.245C314.036 89.3942 314.077 89.5881 314.077 89.8267V92H313.455V91.5526H313.429C313.388 91.6349 313.326 91.7159 313.244 91.7955C313.161 91.875 313.055 91.9411 312.926 91.9936C312.797 92.0462 312.642 92.0724 312.462 92.0724ZM312.6 91.5611C312.776 91.5611 312.927 91.5263 313.052 91.4567C313.178 91.3871 313.274 91.2962 313.34 91.1839C313.406 91.0703 313.44 90.9489 313.44 90.8196V90.3977C313.417 90.4205 313.373 90.4418 313.308 90.4616C313.244 90.4801 313.171 90.4964 313.088 90.5107C313.006 90.5234 312.926 90.5355 312.847 90.5469C312.769 90.5568 312.704 90.5653 312.651 90.5724C312.528 90.5881 312.415 90.6143 312.313 90.6513C312.212 90.6882 312.131 90.7415 312.07 90.8111C312.01 90.8793 311.98 90.9702 311.98 91.0838C311.98 91.2415 312.038 91.3608 312.155 91.4418C312.271 91.5213 312.42 91.5611 312.6 91.5611ZM315.562 90.0568V92H314.925V88.7273H315.537V89.2599H315.577C315.653 89.0866 315.771 88.9474 315.931 88.8423C316.093 88.7372 316.297 88.6847 316.543 88.6847C316.766 88.6847 316.961 88.7315 317.128 88.8253C317.296 88.9176 317.426 89.0554 317.518 89.2386C317.611 89.4219 317.657 89.6484 317.657 89.9183V92H317.02V89.995C317.02 89.7578 316.958 89.5724 316.834 89.4389C316.711 89.304 316.541 89.2365 316.325 89.2365C316.177 89.2365 316.046 89.2685 315.931 89.3324C315.817 89.3963 315.727 89.4901 315.66 89.6136C315.595 89.7358 315.562 89.8835 315.562 90.0568ZM319.922 92.0661C319.599 92.0661 319.322 91.9972 319.089 91.8594C318.857 91.7202 318.678 91.5249 318.552 91.2734C318.427 91.0206 318.364 90.7244 318.364 90.3849C318.364 90.0497 318.427 89.7543 318.552 89.4986C318.678 89.2429 318.854 89.0433 319.08 88.8999C319.307 88.7564 319.573 88.6847 319.877 88.6847C320.062 88.6847 320.241 88.7152 320.414 88.7763C320.587 88.8374 320.743 88.9332 320.881 89.0639C321.018 89.1946 321.127 89.3643 321.207 89.5732C321.286 89.7805 321.326 90.0327 321.326 90.3295V90.5554H318.724V90.0781H320.702C320.702 89.9105 320.668 89.7621 320.599 89.6328C320.531 89.5021 320.435 89.3991 320.312 89.3239C320.19 89.2486 320.046 89.2109 319.881 89.2109C319.702 89.2109 319.546 89.255 319.413 89.343C319.28 89.4297 319.178 89.5433 319.106 89.6839C319.035 89.8232 318.999 89.9744 318.999 90.1378V90.5107C318.999 90.7294 319.038 90.9155 319.114 91.0689C319.192 91.2223 319.301 91.3395 319.44 91.4205C319.579 91.5 319.742 91.5398 319.928 91.5398C320.049 91.5398 320.159 91.5227 320.258 91.4886C320.358 91.4531 320.444 91.4006 320.516 91.331C320.589 91.2614 320.644 91.1754 320.682 91.0732L321.285 91.1818C321.237 91.3594 321.15 91.5149 321.025 91.6484C320.902 91.7805 320.746 91.8835 320.559 91.9574C320.373 92.0298 320.16 92.0661 319.922 92.0661Z" fill="white"/>
<rect x="171" y="53" width="37" height="9" rx="2" fill="#18181B" fill-opacity="0.8"/>
<rect x="171.25" y="53.25" width="36.5" height="8.5" rx="1.75" stroke="#27272A" stroke-opacity="0.8" stroke-width="0.5"/>
<path d="M175.109 60H173.696V55.6364H175.154C175.581 55.6364 175.948 55.7237 176.255 55.8984C176.562 56.0717 176.797 56.321 176.96 56.6463C177.125 56.9702 177.208 57.3587 177.208 57.8118C177.208 58.2663 177.124 58.657 176.958 58.9837C176.794 59.3104 176.555 59.5618 176.242 59.7379C175.93 59.9126 175.552 60 175.109 60ZM174.355 59.4247H175.073C175.405 59.4247 175.681 59.3622 175.901 59.2372C176.122 59.1108 176.286 58.9283 176.396 58.6896C176.505 58.4496 176.56 58.157 176.56 57.8118C176.56 57.4695 176.505 57.179 176.396 56.9403C176.288 56.7017 176.127 56.5206 175.912 56.397C175.698 56.2734 175.431 56.2116 175.113 56.2116H174.355V59.4247ZM178.026 60V55.6364H180.762V56.2031H178.685V57.5327H180.619V58.0973H178.685V59.4332H180.788V60H178.026ZM181.642 60V55.6364H184.347V56.2031H182.3V57.5327H184.154V58.0973H182.3V60H181.642ZM189.125 56.7827C189.102 56.581 189.009 56.4247 188.844 56.3139C188.679 56.2017 188.472 56.1456 188.222 56.1456C188.043 56.1456 187.888 56.174 187.757 56.2308C187.626 56.2862 187.525 56.3629 187.452 56.4609C187.381 56.5575 187.346 56.6676 187.346 56.7912C187.346 56.8949 187.37 56.9844 187.418 57.0597C187.468 57.1349 187.533 57.1982 187.612 57.2493C187.693 57.299 187.78 57.3409 187.872 57.375C187.964 57.4077 188.053 57.4347 188.138 57.456L188.565 57.5668C188.704 57.6009 188.847 57.647 188.993 57.7053C189.139 57.7635 189.275 57.8402 189.4 57.9354C189.525 58.0305 189.626 58.1484 189.702 58.2891C189.781 58.4297 189.82 58.598 189.82 58.794C189.82 59.0412 189.756 59.2607 189.628 59.4524C189.501 59.6442 189.317 59.7955 189.076 59.9062C188.836 60.017 188.545 60.0724 188.205 60.0724C187.878 60.0724 187.595 60.0206 187.357 59.9169C187.118 59.8132 186.931 59.6662 186.796 59.4759C186.661 59.2841 186.587 59.0568 186.572 58.794H187.233C187.246 58.9517 187.297 59.0831 187.386 59.1882C187.477 59.2919 187.593 59.3693 187.734 59.4205C187.876 59.4702 188.031 59.495 188.2 59.495C188.386 59.495 188.552 59.4659 188.697 59.4077C188.843 59.348 188.958 59.2656 189.042 59.1605C189.126 59.054 189.168 58.9297 189.168 58.7876C189.168 58.6584 189.131 58.5526 189.057 58.4702C188.984 58.3878 188.886 58.3196 188.761 58.2656C188.637 58.2116 188.497 58.1641 188.341 58.1229L187.825 57.9822C187.476 57.8871 187.199 57.7472 186.994 57.5625C186.791 57.3778 186.69 57.1335 186.69 56.8295C186.69 56.5781 186.758 56.3587 186.894 56.1712C187.031 55.9837 187.215 55.8381 187.448 55.7344C187.681 55.6293 187.944 55.5767 188.237 55.5767C188.532 55.5767 188.793 55.6286 189.018 55.7322C189.246 55.8359 189.425 55.9787 189.555 56.1605C189.686 56.3409 189.754 56.5483 189.76 56.7827H189.125ZM190.555 61.2273V56.7273H191.177V57.2578H191.231C191.268 57.1896 191.321 57.1108 191.39 57.0213C191.46 56.9318 191.557 56.8537 191.68 56.7869C191.804 56.7188 191.967 56.6847 192.17 56.6847C192.434 56.6847 192.67 56.7514 192.878 56.8849C193.085 57.0185 193.248 57.2109 193.366 57.4624C193.485 57.7138 193.545 58.0163 193.545 58.37C193.545 58.7237 193.486 59.027 193.368 59.2798C193.25 59.5312 193.088 59.7251 192.882 59.8615C192.676 59.9964 192.441 60.0639 192.177 60.0639C191.978 60.0639 191.815 60.0305 191.689 59.9638C191.564 59.897 191.466 59.8189 191.395 59.7294C191.324 59.6399 191.269 59.5604 191.231 59.4908H191.192V61.2273H190.555ZM191.18 58.3636C191.18 58.5937 191.213 58.7955 191.28 58.9688C191.346 59.142 191.443 59.2777 191.569 59.3757C191.696 59.4723 191.851 59.5206 192.034 59.5206C192.224 59.5206 192.383 59.4702 192.511 59.3693C192.639 59.267 192.736 59.1286 192.801 58.9538C192.868 58.7791 192.901 58.5824 192.901 58.3636C192.901 58.1477 192.868 57.9538 192.803 57.782C192.739 57.6101 192.643 57.4744 192.513 57.375C192.385 57.2756 192.226 57.2259 192.034 57.2259C191.849 57.2259 191.693 57.2734 191.565 57.3686C191.439 57.4638 191.343 57.5966 191.278 57.767C191.212 57.9375 191.18 58.1364 191.18 58.3636ZM195.211 60.0724C195.003 60.0724 194.816 60.0341 194.648 59.9574C194.481 59.8793 194.348 59.7663 194.25 59.6186C194.153 59.4709 194.105 59.2898 194.105 59.0753C194.105 58.8906 194.14 58.7386 194.211 58.6193C194.282 58.5 194.378 58.4055 194.499 58.3359C194.62 58.2663 194.755 58.2138 194.904 58.1783C195.053 58.1428 195.205 58.1158 195.36 58.0973C195.556 58.0746 195.715 58.0561 195.837 58.0419C195.959 58.0263 196.048 58.0014 196.104 57.9673C196.159 57.9332 196.187 57.8778 196.187 57.8011V57.7862C196.187 57.6001 196.134 57.456 196.029 57.3537C195.925 57.2514 195.77 57.2003 195.564 57.2003C195.35 57.2003 195.181 57.2479 195.057 57.343C194.935 57.4368 194.851 57.5412 194.804 57.6562L194.205 57.5199C194.276 57.321 194.38 57.1605 194.516 57.0384C194.654 56.9148 194.812 56.8253 194.991 56.7699C195.17 56.7131 195.358 56.6847 195.556 56.6847C195.687 56.6847 195.825 56.7003 195.971 56.7315C196.119 56.7614 196.257 56.8168 196.385 56.8977C196.514 56.9787 196.62 57.0945 196.702 57.245C196.785 57.3942 196.826 57.5881 196.826 57.8267V60H196.204V59.5526H196.178C196.137 59.6349 196.075 59.7159 195.993 59.7955C195.91 59.875 195.805 59.9411 195.675 59.9936C195.546 60.0462 195.391 60.0724 195.211 60.0724ZM195.349 59.5611C195.525 59.5611 195.676 59.5263 195.801 59.4567C195.927 59.3871 196.023 59.2962 196.089 59.1839C196.155 59.0703 196.189 58.9489 196.189 58.8196V58.3977C196.166 58.4205 196.122 58.4418 196.057 58.4616C195.993 58.4801 195.92 58.4964 195.837 58.5107C195.755 58.5234 195.675 58.5355 195.596 58.5469C195.518 58.5568 195.453 58.5653 195.4 58.5724C195.277 58.5881 195.164 58.6143 195.062 58.6513C194.961 58.6882 194.88 58.7415 194.819 58.8111C194.759 58.8793 194.729 58.9702 194.729 59.0838C194.729 59.2415 194.787 59.3608 194.904 59.4418C195.02 59.5213 195.169 59.5611 195.349 59.5611ZM198.384 60L197.421 56.7273H198.079L198.721 59.1307H198.752L199.396 56.7273H200.054L200.694 59.12H200.725L201.363 56.7273H202.021L201.06 60H200.41L199.745 57.6371H199.696L199.032 60H198.384ZM203.263 58.0568V60H202.626V56.7273H203.237V57.2599H203.278C203.353 57.0866 203.471 56.9474 203.631 56.8423C203.793 56.7372 203.997 56.6847 204.243 56.6847C204.466 56.6847 204.661 56.7315 204.829 56.8253C204.996 56.9176 205.126 57.0554 205.219 57.2386C205.311 57.4219 205.357 57.6484 205.357 57.9183V60H204.72V57.995C204.72 57.7578 204.658 57.5724 204.535 57.4389C204.411 57.304 204.241 57.2365 204.025 57.2365C203.878 57.2365 203.746 57.2685 203.631 57.3324C203.518 57.3963 203.427 57.4901 203.361 57.6136C203.295 57.7358 203.263 57.8835 203.263 58.0568Z" fill="white"/>
<rect x="37" y="78" width="18" height="9" rx="2" fill="#18181B" fill-opacity="0.8"/>
<rect x="37.25" y="78.25" width="17.5" height="8.5" rx="1.75" stroke="#27272A" stroke-opacity="0.8" stroke-width="0.5"/>
<path d="M40.1478 85H39.449L41.0193 80.6364H41.7799L43.3502 85H42.6514L41.4177 81.429H41.3836L40.1478 85ZM40.265 83.2912H42.532V83.8452H40.265V83.2912ZM43.9292 85V81.7273H44.545V82.2472H44.5791C44.6388 82.071 44.7439 81.9325 44.8944 81.8317C45.0464 81.7294 45.2183 81.6783 45.4101 81.6783C45.4498 81.6783 45.4967 81.6797 45.5507 81.6825C45.6061 81.6854 45.6494 81.6889 45.6807 81.6932V82.3026C45.6551 82.2955 45.6096 82.2876 45.5443 82.2791C45.479 82.2692 45.4136 82.2642 45.3483 82.2642C45.1977 82.2642 45.0635 82.2962 44.9456 82.3601C44.8291 82.4226 44.7368 82.5099 44.6686 82.6222C44.6004 82.733 44.5663 82.8594 44.5663 83.0014V85H43.9292ZM47.4933 85.0661C47.1766 85.0661 46.9039 84.9943 46.6752 84.8509C46.4479 84.706 46.2732 84.5064 46.151 84.2521C46.0289 83.9979 45.9678 83.7067 45.9678 83.3786C45.9678 83.0462 46.0303 82.7528 46.1553 82.4986C46.2803 82.2429 46.4564 82.0433 46.6837 81.8999C46.911 81.7564 47.1787 81.6847 47.4869 81.6847C47.7355 81.6847 47.9571 81.7308 48.1517 81.8232C48.3463 81.9141 48.5033 82.0419 48.6226 82.2067C48.7433 82.3714 48.8151 82.5639 48.8378 82.7841H48.2178C48.1837 82.6307 48.1056 82.4986 47.9834 82.3878C47.8627 82.277 47.7007 82.2216 47.4976 82.2216C47.32 82.2216 47.1645 82.2685 47.031 82.3622C46.8989 82.4545 46.7959 82.5866 46.722 82.7585C46.6482 82.929 46.6112 83.1307 46.6112 83.3636C46.6112 83.6023 46.6475 83.8082 46.7199 83.9815C46.7923 84.1548 46.8946 84.2891 47.0267 84.3842C47.1602 84.4794 47.3172 84.527 47.4976 84.527C47.6183 84.527 47.7277 84.505 47.8257 84.4609C47.9252 84.4155 48.0083 84.3509 48.075 84.267C48.1432 84.1832 48.1908 84.0824 48.2178 83.9645H48.8378C48.8151 84.1761 48.7462 84.3651 48.6311 84.5312C48.5161 84.6974 48.3619 84.8281 48.1688 84.9233C47.977 85.0185 47.7519 85.0661 47.4933 85.0661ZM50.1562 83.0568V85H49.5191V80.6364H50.1476V82.2599H50.1881C50.2648 82.0838 50.382 81.9439 50.5397 81.8402C50.6974 81.7365 50.9033 81.6847 51.1576 81.6847C51.382 81.6847 51.578 81.7308 51.7456 81.8232C51.9147 81.9155 52.0454 82.0533 52.1377 82.2365C52.2314 82.4183 52.2783 82.6456 52.2783 82.9183V85H51.6412V82.995C51.6412 82.755 51.5795 82.5689 51.4559 82.4368C51.3323 82.3033 51.1604 82.2365 50.9403 82.2365C50.7897 82.2365 50.6547 82.2685 50.5354 82.3324C50.4175 82.3963 50.3245 82.4901 50.2563 82.6136C50.1895 82.7358 50.1562 82.8835 50.1562 83.0568Z" fill="white"/>
<rect x="78" y="136" width="22" height="9" rx="2" fill="#18181B" fill-opacity="0.8"/>
<rect x="78.25" y="136.25" width="21.5" height="8.5" rx="1.75" stroke="#27272A" stroke-opacity="0.8" stroke-width="0.5"/>
<path d="M80.4517 139.203V138.636H83.8288V139.203H82.4673V143H81.8111V139.203H80.4517ZM85.4279 143.066C85.1211 143.066 84.8533 142.996 84.6246 142.855C84.396 142.714 84.2184 142.518 84.092 142.265C83.9656 142.012 83.9023 141.717 83.9023 141.379C83.9023 141.039 83.9656 140.742 84.092 140.488C84.2184 140.234 84.396 140.036 84.6246 139.896C84.8533 139.755 85.1211 139.685 85.4279 139.685C85.7347 139.685 86.0025 139.755 86.2312 139.896C86.4599 140.036 86.6374 140.234 86.7638 140.488C86.8903 140.742 86.9535 141.039 86.9535 141.379C86.9535 141.717 86.8903 142.012 86.7638 142.265C86.6374 142.518 86.4599 142.714 86.2312 142.855C86.0025 142.996 85.7347 143.066 85.4279 143.066ZM85.43 142.531C85.6289 142.531 85.7937 142.479 85.9244 142.374C86.055 142.268 86.1516 142.129 86.2141 141.954C86.2781 141.779 86.31 141.587 86.31 141.376C86.31 141.168 86.2781 140.976 86.2141 140.801C86.1516 140.625 86.055 140.484 85.9244 140.377C85.7937 140.271 85.6289 140.217 85.43 140.217C85.2298 140.217 85.0636 140.271 84.9315 140.377C84.8008 140.484 84.7035 140.625 84.6396 140.801C84.5771 140.976 84.5458 141.168 84.5458 141.376C84.5458 141.587 84.5771 141.779 84.6396 141.954C84.7035 142.129 84.8008 142.268 84.9315 142.374C85.0636 142.479 85.2298 142.531 85.43 142.531ZM88.2745 143L87.3114 139.727H87.9698L88.6112 142.131H88.6431L89.2866 139.727H89.945L90.5842 142.12H90.6161L91.2532 139.727H91.9116L90.9506 143H90.3008L89.636 140.637H89.587L88.9222 143H88.2745ZM93.8271 143.066C93.5046 143.066 93.2269 142.997 92.994 142.859C92.7624 142.72 92.5835 142.525 92.457 142.273C92.332 142.021 92.2695 141.724 92.2695 141.385C92.2695 141.05 92.332 140.754 92.457 140.499C92.5835 140.243 92.7596 140.043 92.9854 139.9C93.2127 139.756 93.4783 139.685 93.7823 139.685C93.967 139.685 94.146 139.715 94.3192 139.776C94.4925 139.837 94.6481 139.933 94.7859 140.064C94.9237 140.195 95.0323 140.364 95.1119 140.573C95.1914 140.781 95.2312 141.033 95.2312 141.33V141.555H92.6296V141.078H94.6069C94.6069 140.911 94.5728 140.762 94.5046 140.633C94.4364 140.502 94.3406 140.399 94.217 140.324C94.0948 140.249 93.9513 140.211 93.7866 140.211C93.6076 140.211 93.4513 140.255 93.3178 140.343C93.1857 140.43 93.0835 140.543 93.011 140.684C92.94 140.823 92.9045 140.974 92.9045 141.138V141.511C92.9045 141.729 92.9428 141.915 93.0195 142.069C93.0977 142.222 93.2063 142.339 93.3455 142.42C93.4847 142.5 93.6474 142.54 93.8335 142.54C93.9542 142.54 94.0643 142.523 94.1637 142.489C94.2631 142.453 94.3491 142.401 94.4215 142.331C94.494 142.261 94.5494 142.175 94.5877 142.073L95.1907 142.182C95.1424 142.359 95.0558 142.515 94.9308 142.648C94.8072 142.781 94.6516 142.884 94.4641 142.957C94.2781 143.03 94.0657 143.066 93.8271 143.066ZM95.938 143V139.727H96.5538V140.247H96.5879C96.6475 140.071 96.7527 139.933 96.9032 139.832C97.0552 139.729 97.2271 139.678 97.4189 139.678C97.4586 139.678 97.5055 139.68 97.5595 139.683C97.6149 139.685 97.6582 139.689 97.6895 139.693V140.303C97.6639 140.295 97.6184 140.288 97.5531 140.279C97.4877 140.269 97.4224 140.264 97.3571 140.264C97.2065 140.264 97.0723 140.296 96.9544 140.36C96.8379 140.423 96.7456 140.51 96.6774 140.622C96.6092 140.733 96.5751 140.859 96.5751 141.001V143H95.938Z" fill="white"/>
<rect y="151" width="27" height="9" rx="2" fill="#18181B" fill-opacity="0.8"/>
<rect x="0.25" y="151.25" width="26.5" height="8.5" rx="1.75" stroke="#27272A" stroke-opacity="0.8" stroke-width="0.5"/>
<path d="M2.55655 158V153.636H4.15456C4.46422 153.636 4.72061 153.687 4.92374 153.79C5.12686 153.891 5.27885 154.028 5.37971 154.201C5.48056 154.373 5.53098 154.567 5.53098 154.783C5.53098 154.964 5.4976 155.118 5.43084 155.243C5.36408 155.366 5.27459 155.466 5.16238 155.541C5.05158 155.615 4.92942 155.669 4.7959 155.703V155.746C4.94078 155.753 5.08212 155.8 5.2199 155.886C5.35911 155.972 5.47417 156.093 5.56507 156.251C5.65598 156.408 5.70144 156.6 5.70144 156.826C5.70144 157.049 5.64888 157.249 5.54377 157.427C5.44007 157.603 5.27956 157.743 5.06223 157.847C4.8449 157.949 4.56721 158 4.22914 158H2.55655ZM3.21493 157.435H4.16522C4.48056 157.435 4.70641 157.374 4.84277 157.252C4.97914 157.13 5.04732 156.977 5.04732 156.794C5.04732 156.656 5.01252 156.53 4.94292 156.415C4.87331 156.3 4.77388 156.208 4.64462 156.14C4.51678 156.072 4.36479 156.038 4.18865 156.038H3.21493V157.435ZM3.21493 155.524H4.09703C4.24476 155.524 4.37757 155.496 4.49547 155.439C4.61479 155.382 4.70925 155.303 4.77885 155.2C4.84988 155.097 4.88539 154.974 4.88539 154.834C4.88539 154.653 4.82218 154.502 4.69576 154.38C4.56934 154.258 4.37544 154.197 4.11408 154.197H3.21493V155.524ZM8.07022 158V153.636H10.806V154.203H8.7286V155.533H10.6633V156.097H8.7286V157.433H10.8316V158H8.07022ZM12.2714 153.636V158H11.6343V153.636H12.2714ZM13.1796 158V153.636H13.8167V155.258H13.855C13.892 155.19 13.9452 155.111 14.0148 155.021C14.0844 154.932 14.181 154.854 14.3046 154.787C14.4282 154.719 14.5915 154.685 14.7947 154.685C15.0589 154.685 15.2947 154.751 15.502 154.885C15.7094 155.018 15.8721 155.211 15.99 155.462C16.1093 155.714 16.1689 156.016 16.1689 156.37C16.1689 156.724 16.11 157.027 15.9921 157.28C15.8742 157.531 15.7123 157.725 15.5063 157.862C15.3003 157.996 15.0653 158.064 14.801 158.064C14.6022 158.064 14.4395 158.031 14.3131 157.964C14.1881 157.897 14.0901 157.819 14.0191 157.729C13.9481 157.64 13.8934 157.56 13.855 157.491H13.8018V158H13.1796ZM13.8039 156.364C13.8039 156.594 13.8373 156.795 13.904 156.969C13.9708 157.142 14.0674 157.278 14.1938 157.376C14.3202 157.472 14.4751 157.521 14.6583 157.521C14.8486 157.521 15.0077 157.47 15.1356 157.369C15.2634 157.267 15.36 157.129 15.4253 156.954C15.4921 156.779 15.5255 156.582 15.5255 156.364C15.5255 156.148 15.4928 155.954 15.4275 155.782C15.3635 155.61 15.267 155.474 15.1377 155.375C15.0099 155.276 14.8501 155.226 14.6583 155.226C14.4736 155.226 14.3174 155.273 14.1895 155.369C14.0631 155.464 13.9672 155.597 13.9019 155.767C13.8366 155.937 13.8039 156.136 13.8039 156.364ZM18.2629 158.066C17.9561 158.066 17.6883 157.996 17.4596 157.855C17.2309 157.714 17.0534 157.518 16.9269 157.265C16.8005 157.012 16.7373 156.717 16.7373 156.379C16.7373 156.039 16.8005 155.742 16.9269 155.488C17.0534 155.234 17.2309 155.036 17.4596 154.896C17.6883 154.755 17.9561 154.685 18.2629 154.685C18.5697 154.685 18.8374 154.755 19.0661 154.896C19.2948 155.036 19.4724 155.234 19.5988 155.488C19.7252 155.742 19.7884 156.039 19.7884 156.379C19.7884 156.717 19.7252 157.012 19.5988 157.265C19.4724 157.518 19.2948 157.714 19.0661 157.855C18.8374 157.996 18.5697 158.066 18.2629 158.066ZM18.265 157.531C18.4639 157.531 18.6286 157.479 18.7593 157.374C18.89 157.268 18.9866 157.129 19.0491 156.954C19.113 156.779 19.145 156.587 19.145 156.376C19.145 156.168 19.113 155.976 19.0491 155.801C18.9866 155.625 18.89 155.484 18.7593 155.377C18.6286 155.271 18.4639 155.217 18.265 155.217C18.0647 155.217 17.8985 155.271 17.7664 155.377C17.6357 155.484 17.5384 155.625 17.4745 155.801C17.412 155.976 17.3808 156.168 17.3808 156.376C17.3808 156.587 17.412 156.779 17.4745 156.954C17.5384 157.129 17.6357 157.268 17.7664 157.374C17.8985 157.479 18.0647 157.531 18.265 157.531ZM21.1095 158L20.1464 154.727H20.8048L21.4461 157.131H21.4781L22.1215 154.727H22.7799L23.4191 157.12H23.4511L24.0882 154.727H24.7465L23.7856 158H23.1357L22.471 155.637H22.422L21.7572 158H21.1095Z" fill="white"/>
<rect x="132" y="181" width="22" height="9" rx="2" fill="#18181B" fill-opacity="0.8"/>
<rect x="132.25" y="181.25" width="21.5" height="8.5" rx="1.75" stroke="#27272A" stroke-opacity="0.8" stroke-width="0.5"/>
<path d="M134.819 188V183.636H136.417C136.727 183.636 136.983 183.687 137.186 183.79C137.39 183.891 137.542 184.028 137.642 184.201C137.743 184.373 137.794 184.567 137.794 184.783C137.794 184.964 137.76 185.118 137.694 185.243C137.627 185.366 137.537 185.466 137.425 185.541C137.314 185.615 137.192 185.669 137.059 185.703V185.746C137.203 185.753 137.345 185.8 137.483 185.886C137.622 185.972 137.737 186.093 137.828 186.251C137.919 186.408 137.964 186.6 137.964 186.826C137.964 187.049 137.912 187.249 137.806 187.427C137.703 187.603 137.542 187.743 137.325 187.847C137.108 187.949 136.83 188 136.492 188H134.819ZM135.478 187.435H136.428C136.743 187.435 136.969 187.374 137.105 187.252C137.242 187.13 137.31 186.977 137.31 186.794C137.31 186.656 137.275 186.53 137.206 186.415C137.136 186.3 137.037 186.208 136.907 186.14C136.779 186.072 136.627 186.038 136.451 186.038H135.478V187.435ZM135.478 185.524H136.36C136.507 185.524 136.64 185.496 136.758 185.439C136.877 185.382 136.972 185.303 137.042 185.2C137.113 185.097 137.148 184.974 137.148 184.834C137.148 184.653 137.085 184.502 136.958 184.38C136.832 184.258 136.638 184.197 136.377 184.197H135.478V185.524ZM140.333 188V183.636H140.991V187.433H142.969V188H140.333ZM143.669 188V184.727H144.306V188H143.669ZM143.99 184.222C143.879 184.222 143.784 184.185 143.705 184.112C143.627 184.036 143.588 183.947 143.588 183.843C143.588 183.738 143.627 183.648 143.705 183.575C143.784 183.499 143.879 183.462 143.99 183.462C144.101 183.462 144.195 183.499 144.274 183.575C144.353 183.648 144.393 183.738 144.393 183.843C144.393 183.947 144.353 184.036 144.274 184.112C144.195 184.185 144.101 184.222 143.99 184.222ZM145.8 186.057V188H145.163V184.727H145.774V185.26H145.815C145.89 185.087 146.008 184.947 146.168 184.842C146.33 184.737 146.534 184.685 146.78 184.685C147.003 184.685 147.198 184.732 147.366 184.825C147.533 184.918 147.663 185.055 147.756 185.239C147.848 185.422 147.894 185.648 147.894 185.918V188H147.257V185.995C147.257 185.758 147.195 185.572 147.072 185.439C146.948 185.304 146.778 185.237 146.562 185.237C146.415 185.237 146.283 185.268 146.168 185.332C146.055 185.396 145.964 185.49 145.898 185.614C145.832 185.736 145.8 185.884 145.8 186.057ZM149.335 186.89L149.33 186.112H149.441L150.745 184.727H151.508L150.021 186.304H149.92L149.335 186.89ZM148.749 188V183.636H149.386V188H148.749ZM150.815 188L149.643 186.445L150.082 185.999L151.597 188H150.815Z" fill="white"/>
<rect x="53" y="245" width="24" height="9" rx="2" fill="#18181B" fill-opacity="0.8"/>
<rect x="53.25" y="245.25" width="23.5" height="8.5" rx="1.75" stroke="#27272A" stroke-opacity="0.8" stroke-width="0.5"/>
<path d="M55.7821 252V247.636H57.3801C57.6898 247.636 57.9462 247.687 58.1493 247.79C58.3525 247.891 58.5044 248.028 58.6053 248.201C58.7061 248.373 58.7566 248.567 58.7566 248.783C58.7566 248.964 58.7232 249.118 58.6564 249.243C58.5897 249.366 58.5002 249.466 58.388 249.541C58.2772 249.615 58.155 249.669 58.0215 249.703V249.746C58.1664 249.753 58.3077 249.8 58.4455 249.886C58.5847 249.972 58.6998 250.093 58.7907 250.251C58.8816 250.408 58.927 250.6 58.927 250.826C58.927 251.049 58.8745 251.249 58.7694 251.427C58.6657 251.603 58.5051 251.743 58.2878 251.847C58.0705 251.949 57.7928 252 57.4547 252H55.7821ZM56.4405 251.435H57.3908C57.7061 251.435 57.932 251.374 58.0684 251.252C58.2047 251.13 58.2729 250.977 58.2729 250.794C58.2729 250.656 58.2381 250.53 58.1685 250.415C58.0989 250.3 57.9995 250.208 57.8702 250.14C57.7424 250.072 57.5904 250.038 57.4142 250.038H56.4405V251.435ZM56.4405 249.524H57.3226C57.4703 249.524 57.6032 249.496 57.7211 249.439C57.8404 249.382 57.9348 249.303 58.0044 249.2C58.0755 249.097 58.111 248.974 58.111 248.834C58.111 248.653 58.0478 248.502 57.9213 248.38C57.7949 248.258 57.601 248.197 57.3397 248.197H56.4405V249.524ZM61.2958 247.636H62.0948L63.484 251.028H63.5352L64.9244 247.636H65.7234V252H65.0969V248.842H65.0565L63.7695 251.994H63.2496L61.9627 248.84H61.9222V252H61.2958V247.636ZM67.5819 252.072C67.3745 252.072 67.187 252.034 67.0194 251.957C66.8517 251.879 66.7189 251.766 66.6209 251.619C66.5243 251.471 66.476 251.29 66.476 251.075C66.476 250.891 66.5115 250.739 66.5826 250.619C66.6536 250.5 66.7495 250.406 66.8702 250.336C66.9909 250.266 67.1259 250.214 67.275 250.178C67.4242 250.143 67.5762 250.116 67.731 250.097C67.927 250.075 68.0861 250.056 68.2083 250.042C68.3304 250.026 68.4192 250.001 68.4746 249.967C68.53 249.933 68.5577 249.878 68.5577 249.801V249.786C68.5577 249.6 68.5051 249.456 68.4 249.354C68.2963 249.251 68.1415 249.2 67.9355 249.2C67.7211 249.2 67.552 249.248 67.4284 249.343C67.3063 249.437 67.2218 249.541 67.1749 249.656L66.5762 249.52C66.6472 249.321 66.7509 249.161 66.8873 249.038C67.025 248.915 67.1834 248.825 67.3624 248.77C67.5414 248.713 67.7296 248.685 67.927 248.685C68.0577 248.685 68.1962 248.7 68.3425 248.732C68.4902 248.761 68.628 248.817 68.7559 248.898C68.8851 248.979 68.9909 249.094 69.0733 249.245C69.1557 249.394 69.1969 249.588 69.1969 249.827V252H68.5748V251.553H68.5492C68.508 251.635 68.4462 251.716 68.3638 251.795C68.2814 251.875 68.1756 251.941 68.0463 251.994C67.9171 252.046 67.7623 252.072 67.5819 252.072ZM67.7203 251.561C67.8965 251.561 68.0471 251.526 68.1721 251.457C68.2985 251.387 68.3944 251.296 68.4597 251.184C68.5265 251.07 68.5598 250.949 68.5598 250.82V250.398C68.5371 250.42 68.4931 250.442 68.4277 250.462C68.3638 250.48 68.2907 250.496 68.2083 250.511C68.1259 250.523 68.0456 250.536 67.9675 250.547C67.8894 250.557 67.824 250.565 67.7715 250.572C67.6479 250.588 67.535 250.614 67.4327 250.651C67.3319 250.688 67.2509 250.741 67.1898 250.811C67.1301 250.879 67.1003 250.97 67.1003 251.084C67.1003 251.241 67.1586 251.361 67.275 251.442C67.3915 251.521 67.54 251.561 67.7203 251.561ZM70.0455 252V248.727H70.6825V252H70.0455ZM70.3672 248.222C70.2564 248.222 70.1612 248.185 70.0817 248.112C70.0036 248.036 69.9645 247.947 69.9645 247.843C69.9645 247.738 70.0036 247.648 70.0817 247.575C70.1612 247.499 70.2564 247.462 70.3672 247.462C70.478 247.462 70.5724 247.499 70.6506 247.575C70.7301 247.648 70.7699 247.738 70.7699 247.843C70.7699 247.947 70.7301 248.036 70.6506 248.112C70.5724 248.185 70.478 248.222 70.3672 248.222ZM72.1767 250.057V252H71.5396V248.727H72.1511V249.26H72.1916C72.2669 249.087 72.3848 248.947 72.5453 248.842C72.7072 248.737 72.911 248.685 73.1568 248.685C73.3798 248.685 73.5751 248.732 73.7427 248.825C73.9103 248.918 74.0403 249.055 74.1326 249.239C74.225 249.422 74.2711 249.648 74.2711 249.918V252H73.6341V249.995C73.6341 249.758 73.5723 249.572 73.4487 249.439C73.3251 249.304 73.1554 249.237 72.9395 249.237C72.7917 249.237 72.6603 249.268 72.5453 249.332C72.4316 249.396 72.3414 249.49 72.2747 249.614C72.2093 249.736 72.1767 249.884 72.1767 250.057Z" fill="white"/>
<rect x="172" y="145" width="40" height="9" rx="2" fill="#18181B" fill-opacity="0.8"/>
<rect x="172.25" y="145.25" width="39.5" height="8.5" rx="1.75" stroke="#27272A" stroke-opacity="0.8" stroke-width="0.5"/>
<path d="M174.784 147.636H175.583L176.972 151.028H177.023L178.413 147.636H179.212V152H178.585V148.842H178.545L177.258 151.994H176.738L175.451 148.84H175.411V152H174.784V147.636ZM180.118 152V148.727H180.755V152H180.118ZM180.439 148.222C180.329 148.222 180.233 148.185 180.154 148.112C180.076 148.036 180.037 147.947 180.037 147.843C180.037 147.738 180.076 147.648 180.154 147.575C180.233 147.499 180.329 147.462 180.439 147.462C180.55 147.462 180.645 147.499 180.723 147.575C180.802 147.648 180.842 147.738 180.842 147.843C180.842 147.947 180.802 148.036 180.723 148.112C180.645 148.185 180.55 148.222 180.439 148.222ZM182.837 152.064C182.573 152.064 182.337 151.996 182.13 151.862C181.924 151.725 181.762 151.531 181.644 151.28C181.527 151.027 181.469 150.724 181.469 150.37C181.469 150.016 181.528 149.714 181.646 149.462C181.765 149.211 181.929 149.018 182.136 148.885C182.343 148.751 182.578 148.685 182.841 148.685C183.044 148.685 183.208 148.719 183.331 148.787C183.456 148.854 183.553 148.932 183.621 149.021C183.691 149.111 183.745 149.19 183.783 149.258H183.821V147.636H184.458V152H183.836V151.491H183.783C183.745 151.56 183.689 151.64 183.617 151.729C183.546 151.819 183.448 151.897 183.323 151.964C183.198 152.031 183.036 152.064 182.837 152.064ZM182.978 151.521C183.161 151.521 183.316 151.472 183.442 151.376C183.57 151.278 183.667 151.142 183.732 150.969C183.799 150.795 183.832 150.594 183.832 150.364C183.832 150.136 183.799 149.937 183.734 149.767C183.669 149.597 183.573 149.464 183.446 149.369C183.32 149.273 183.164 149.226 182.978 149.226C182.786 149.226 182.626 149.276 182.498 149.375C182.37 149.474 182.274 149.61 182.208 149.782C182.145 149.954 182.113 150.148 182.113 150.364C182.113 150.582 182.145 150.779 182.211 150.954C182.276 151.129 182.373 151.267 182.5 151.369C182.63 151.47 182.789 151.521 182.978 151.521ZM187.861 152L186.651 147.636H187.343L188.194 151.016H188.234L189.118 147.636H189.804L190.689 151.018H190.729L191.577 147.636H192.272L191.059 152H190.397L189.478 148.732H189.444L188.526 152H187.861ZM192.821 152V148.727H193.458V152H192.821ZM193.143 148.222C193.032 148.222 192.937 148.185 192.857 148.112C192.779 148.036 192.74 147.947 192.74 147.843C192.74 147.738 192.779 147.648 192.857 147.575C192.937 147.499 193.032 147.462 193.143 147.462C193.253 147.462 193.348 147.499 193.426 147.575C193.506 147.648 193.545 147.738 193.545 147.843C193.545 147.947 193.506 148.036 193.426 148.112C193.348 148.185 193.253 148.222 193.143 148.222ZM194.952 150.057V152H194.315V148.727H194.926V149.26H194.967C195.042 149.087 195.16 148.947 195.321 148.842C195.483 148.737 195.686 148.685 195.932 148.685C196.155 148.685 196.35 148.732 196.518 148.825C196.686 148.918 196.816 149.055 196.908 149.239C197 149.422 197.047 149.648 197.047 149.918V152H196.409V149.995C196.409 149.758 196.348 149.572 196.224 149.439C196.1 149.304 195.931 149.237 195.715 149.237C195.567 149.237 195.436 149.268 195.321 149.332C195.207 149.396 195.117 149.49 195.05 149.614C194.985 149.736 194.952 149.884 194.952 150.057ZM199.126 152.064C198.862 152.064 198.626 151.996 198.419 151.862C198.213 151.725 198.051 151.531 197.933 151.28C197.816 151.027 197.758 150.724 197.758 150.37C197.758 150.016 197.817 149.714 197.935 149.462C198.054 149.211 198.218 149.018 198.425 148.885C198.632 148.751 198.868 148.685 199.13 148.685C199.333 148.685 199.497 148.719 199.62 148.787C199.745 148.854 199.842 148.932 199.91 149.021C199.98 149.111 200.034 149.19 200.072 149.258H200.11V147.636H200.748V152H200.125V151.491H200.072C200.034 151.56 199.978 151.64 199.906 151.729C199.835 151.819 199.737 151.897 199.612 151.964C199.487 152.031 199.325 152.064 199.126 152.064ZM199.267 151.521C199.45 151.521 199.605 151.472 199.731 151.376C199.859 151.278 199.956 151.142 200.021 150.969C200.088 150.795 200.121 150.594 200.121 150.364C200.121 150.136 200.088 149.937 200.023 149.767C199.958 149.597 199.862 149.464 199.735 149.369C199.609 149.273 199.453 149.226 199.267 149.226C199.075 149.226 198.915 149.276 198.787 149.375C198.659 149.474 198.563 149.61 198.498 149.782C198.434 149.954 198.402 150.148 198.402 150.364C198.402 150.582 198.434 150.779 198.5 150.954C198.565 151.129 198.662 151.267 198.789 151.369C198.919 151.47 199.078 151.521 199.267 151.521ZM203.035 152.066C202.729 152.066 202.461 151.996 202.232 151.855C202.003 151.714 201.826 151.518 201.699 151.265C201.573 151.012 201.51 150.717 201.51 150.379C201.51 150.039 201.573 149.742 201.699 149.488C201.826 149.234 202.003 149.036 202.232 148.896C202.461 148.755 202.729 148.685 203.035 148.685C203.342 148.685 203.61 148.755 203.839 148.896C204.067 149.036 204.245 149.234 204.371 149.488C204.498 149.742 204.561 150.039 204.561 150.379C204.561 150.717 204.498 151.012 204.371 151.265C204.245 151.518 204.067 151.714 203.839 151.855C203.61 151.996 203.342 152.066 203.035 152.066ZM203.037 151.531C203.236 151.531 203.401 151.479 203.532 151.374C203.662 151.268 203.759 151.129 203.822 150.954C203.885 150.779 203.917 150.587 203.917 150.376C203.917 150.168 203.885 149.976 203.822 149.801C203.759 149.625 203.662 149.484 203.532 149.377C203.401 149.271 203.236 149.217 203.037 149.217C202.837 149.217 202.671 149.271 202.539 149.377C202.408 149.484 202.311 149.625 202.247 149.801C202.184 149.976 202.153 150.168 202.153 150.376C202.153 150.587 202.184 150.779 202.247 150.954C202.311 151.129 202.408 151.268 202.539 151.374C202.671 151.479 202.837 151.531 203.037 151.531ZM205.882 152L204.919 148.727H205.577L206.219 151.131H206.251L206.894 148.727H207.552L208.192 151.12H208.224L208.861 148.727H209.519L208.558 152H207.908L207.243 149.637H207.194L206.53 152H205.882Z" fill="white"/>
</svg>
