<svg width="469" height="473" viewBox="0 0 469 473" fill="none" xmlns="http://www.w3.org/2000/svg">
<path d="M422.972 207.596H432.291V189.227H422.972V207.596Z" fill="#271406"/>
<path d="M321.492 348.837H325.123V312.948H321.492V348.837Z" fill="#271406"/>
<path d="M326.744 122.102C326.744 119.335 328.987 117.092 331.754 117.092C334.521 117.092 336.764 119.335 336.764 122.102C336.764 124.869 334.521 127.112 331.754 127.112C328.987 127.112 326.744 124.869 326.744 122.102Z" fill="#271406"/>
<path fill-rule="evenodd" clip-rule="evenodd" d="M360.456 69.061V119.099L390.694 119.099V104.47H450.95V141.145H449.879V188.967L468.167 188.967V201.928L449.865 220.543V312.948V319.799H437.82L430.765 312.948H418.43V316.028H426.032V342.236H348.165V312.632H344.496V363.508H321.333L275.301 379.391H228.271V427.99C227.668 443.434 216.185 454.994 200.791 454.994C185.397 454.994 173.787 443.071 172.847 427.99V421.894H88.2128L27.1653 360.844V313.714H49.6121V311.759L34.4999 311.759V274.503H67.7868V252.706H60.4419V263.982H26.1021L0.49978 238.239V215.353L27.3095 177.127H62.3617V184.729L73.2139 184.729V177.127H99.1772V120.846L139.927 80.3121H172.891V18.234H263.344V58.3909L274.086 69.061H360.456ZM405.399 232.368V228.313V203.987L405.972 140.738H313.305V91.3635H296.704V183.652H263.846L256.323 176.128H254.317V212.811H236.929L230.341 218.893C230.042 220.438 231.292 221.07 232.649 221.218H238.73V222.738H287.42V207.535H303.093H317.514L332.561 218.684H369.267V246.448H362.026V255.679H388.837V251.456L412.864 251.457V237.659H405.399V232.368ZM348.307 240.937V275.952H344.561V264.88H325.403V294.703H297.686V339.022H280.512V329.684L239.51 329.684V353.427L206.985 353.429V364.351L203.454 364.374V392.169L199.507 391.91V366.1L186.804 366.334V362.177H203.287V353.998L213.936 318.591L261.339 304.401V253.711H294.834V240.937H348.307ZM405.474 327.609V312.579H363.104V327.609H405.474ZM422.972 207.596H432.291V189.227H422.972V207.596ZM250.381 253.462V274.002H244.87L213.307 288.531L200.945 288.627V296.046H198.778V262.98H150.683V255.465H158.699V233.307H206.293V209.232H220.993V253.462H250.381ZM321.492 348.837H325.123V312.948H321.492V348.837ZM253.313 69.7961L262.906 78.6144L257.988 83.6243V132.994H267.357V163.589H251.4L230.743 143.025H204.19L204.279 139.185H205.778L205.789 116.943H161.025V105.909H166.214L170.053 113.432H243.282V79.3258L253.313 69.7961ZM183.997 289.635V277.979H159.164V326.656H145.987L127.236 318.016H100.883V339.301H105.444L116.593 350.45L111.525 355.518L116.593 360.586L121.661 356.025L132.304 366.668V385.419H135.345L139.399 383.392H173.11V392.762H176.902V353.998H192.612V349.944L190.585 342.342V319.029L183.997 304.839V289.635ZM108.36 368.73L103.846 373.244L114.059 383.276V406.85H102.403L95.3079 396.818V386.787L73.009 364.216H60.3392V357.194H96.8283L108.36 368.73ZM184.097 153.764V139.514H149.991V105.909H144.17L140.962 113.432V203.213H83.7836L47.0489 211.989V219.394L100.837 238.323V252.706H89.3008V274.436L93.5304 274.503V295.044H126.729V240.983L117.607 231.418V208.548H180.449V213.244H184.097V195.346H169.3V153.764H184.097ZM331.754 117.092C328.987 117.092 326.744 119.335 326.744 122.102C326.744 124.869 328.987 127.112 331.754 127.112C334.521 127.112 336.764 124.869 336.764 122.102C336.764 119.335 334.521 117.092 331.754 117.092Z" fill="#271406"/>
<path d="M422.972 207.596H432.291V189.227H422.972V207.596Z" stroke="#B27C40"/>
<path d="M321.492 348.837H325.123V312.948H321.492V348.837Z" stroke="#B27C40"/>
<path d="M326.744 122.102C326.744 119.335 328.987 117.092 331.754 117.092C334.521 117.092 336.764 119.335 336.764 122.102C336.764 124.869 334.521 127.112 331.754 127.112C328.987 127.112 326.744 124.869 326.744 122.102Z" stroke="#B27C40"/>
<path fill-rule="evenodd" clip-rule="evenodd" d="M360.456 69.061V119.099L390.694 119.099V104.47H450.95V141.145H449.879V188.967L468.167 188.967V201.928L449.865 220.543V312.948V319.799H437.82L430.765 312.948H418.43V316.028H426.032V342.236H348.165V312.632H344.496V363.508H321.333L275.301 379.391H228.271V427.99C227.668 443.434 216.185 454.994 200.791 454.994C185.397 454.994 173.787 443.071 172.847 427.99V421.894H88.2128L27.1653 360.844V313.714H49.6121V311.759L34.4999 311.759V274.503H67.7868V252.706H60.4419V263.982H26.1021L0.49978 238.239V215.353L27.3095 177.127H62.3617V184.729L73.2139 184.729V177.127H99.1772V120.846L139.927 80.3121H172.891V18.234H263.344V58.3909L274.086 69.061H360.456ZM405.399 232.368V228.313V203.987L405.972 140.738H313.305V91.3635H296.704V183.652H263.846L256.323 176.128H254.317V212.811H236.929L230.341 218.893C230.042 220.438 231.292 221.07 232.649 221.218H238.73V222.738H287.42V207.535H303.093H317.514L332.561 218.684H369.267V246.448H362.026V255.679H388.837V251.456L412.864 251.457V237.659H405.399V232.368ZM348.307 240.937V275.952H344.561V264.88H325.403V294.703H297.686V339.022H280.512V329.684L239.51 329.684V353.427L206.985 353.429V364.351L203.454 364.374V392.169L199.507 391.91V366.1L186.804 366.334V362.177H203.287V353.998L213.936 318.591L261.339 304.401V253.711H294.834V240.937H348.307ZM405.474 327.609V312.579H363.104V327.609H405.474ZM422.972 207.596H432.291V189.227H422.972V207.596ZM250.381 253.462V274.002H244.87L213.307 288.531L200.945 288.627V296.046H198.778V262.98H150.683V255.465H158.699V233.307H206.293V209.232H220.993V253.462H250.381ZM321.492 348.837H325.123V312.948H321.492V348.837ZM253.313 69.7961L262.906 78.6144L257.988 83.6243V132.994H267.357V163.589H251.4L230.743 143.025H204.19L204.279 139.185H205.778L205.789 116.943H161.025V105.909H166.214L170.053 113.432H243.282V79.3258L253.313 69.7961ZM183.997 289.635V277.979H159.164V326.656H145.987L127.236 318.016H100.883V339.301H105.444L116.593 350.45L111.525 355.518L116.593 360.586L121.661 356.025L132.304 366.668V385.419H135.345L139.399 383.392H173.11V392.762H176.902V353.998H192.612V349.944L190.585 342.342V319.029L183.997 304.839V289.635ZM108.36 368.73L103.846 373.244L114.059 383.276V406.85H102.403L95.3079 396.818V386.787L73.009 364.216H60.3392V357.194H96.8283L108.36 368.73ZM184.097 153.764V139.514H149.991V105.909H144.17L140.962 113.432V203.213H83.7836L47.0489 211.989V219.394L100.837 238.323V252.706H89.3008V274.436L93.5304 274.503V295.044H126.729V240.983L117.607 231.418V208.548H180.449V213.244H184.097V195.346H169.3V153.764H184.097ZM331.754 117.092C328.987 117.092 326.744 119.335 326.744 122.102C326.744 124.869 328.987 127.112 331.754 127.112C334.521 127.112 336.764 124.869 336.764 122.102C336.764 119.335 334.521 117.092 331.754 117.092Z" stroke="#B27C40"/>
<path d="M297.689 339.301V345.553H289.92V342.259M289.92 339.301V342.259M289.92 342.259H286.543V339.301M344.413 312.948V294.421H348.506V289.412H371.589V280.815H348.308V275.952M325.326 312.948V294.703" stroke="#B27C40"/>
<path d="M332.994 141.145V126.448M337.555 141.145V96.0402M267.618 140.016H273.878V132.994M273.878 89.8587V132.994M267.618 132.994H273.878" stroke="#B27C40"/>
<path d="M262.549 132.994V128.475H257.988" stroke="#B27C40"/>
<path d="M235.852 253.462V246.213H228.088V253.462" stroke="#B27C40"/>
<path d="M294.685 240.937H265.411" stroke="#B27C40"/>
<path d="M348.11 233.307V240.329H340.586V233.307H348.11Z" stroke="#B27C40"/>
<path d="M453.423 189.29V196.07H449.865V189.29" stroke="#B27C40"/>
<path d="M431.818 122.9H435.366V130.502H421.176V122.9H424.723M431.818 122.9V119.353H424.723V122.9M431.818 122.9H424.723" stroke="#B27C40"/>
<path d="M449.901 278.126H442.572M449.901 270.237H427.759V278.126H439.097M442.572 278.126H439.097M442.572 278.126V281.351M449.901 285.078H442.572V281.351M439.097 278.126V281.351H442.572M398.877 312.579V305.346M398.877 305.346L398.616 302.058M398.877 305.346H391.866M390.653 312.579V305.346H391.866M388.234 255.68V263.282H381.139V255.68M405.902 312.579C405.902 312.178 405.902 305.398 405.902 302.058H398.616M398.616 302.058L397.172 295.044L390.158 296.547L391.866 305.346" stroke="#B27C40"/>
<path d="M317.013 241.438V236.929H275.22" stroke="#B27C40"/>
<path d="M220.822 215.386L229.944 208.291" stroke="#B27C40"/>
<path d="M217.315 208.873V183.823H209.843V209.374" stroke="#B27C40"/>
<path d="M206.802 209.562H202.748V232.921" stroke="#B27C40"/>
<path d="M176.901 277.979V270.884M176.901 263.282V270.884M176.901 270.884H172.847V263.282M145.48 225.272V217.671H137.878V225.272H145.48Z" stroke="#B27C40"/>
<path d="M126.635 295.125H133.73V288.03H126.635M186.804 366.668C186.804 367.073 186.804 373.731 186.804 377.11H199.507V366.668H186.804Z" stroke="#B27C40"/>
<path d="M263.563 27.6432H233.155V17.9941M263.563 43.2935H260.083V52.2397H263.563M210.857 17.9941L210.857 27.7459H172.828M172.889 52.3087H176.233V43.2838H173.227M140.162 143.025H127.42V120.95M99.362 148.637H106.643V141.04H99.362M127.211 190.719V189.199H128.225V158.791H127.211V157.271H129.745V190.719H127.211ZM127.211 190.719H120.623M49.5042 313.605V339.808M49.5042 339.808H51.7235M49.5042 339.808H47.6692M47.6692 339.808V313.961M47.6692 339.808C47.6692 340.213 47.6692 344.031 47.6692 345.889M47.6692 345.889H44.6284M47.6692 345.889H51.7235M32.6235 213.214L24.0081 227.911L17.4877 224.222L26.1032 209.525L32.6235 213.214ZM86.1854 332.206V315.988H79.0903V323.084H64.3933V332.206H86.1854Z" stroke="#B27C40"/>
<path d="M114.059 407.351H121.661V403.664M114.059 403.157H117.86M117.86 403.157H121.661V403.664M117.86 403.157V399.609H114.059M121.155 402.65H158.657V403.664H121.661" stroke="#B27C40"/>
<path d="M51.7241 347.917V346.396H50.2036V345.389H48.1714V340.316H50.2036V313.92H49.5034V311.412H34.4565V296.071H93.2808V357.039H60.8462L51.7241 347.917ZM86.6929 315.482H78.5835V322.577H63.8872V332.713H86.6929V315.482Z" fill="#F08234" fill-opacity="0.23"/>
<path d="M59.1147 316.853H57.5679L60.3843 308.853H62.1733L64.9937 316.853H63.4468L61.3101 310.493H61.2476L59.1147 316.853ZM59.1655 313.716H63.3843V314.88H59.1655V313.716Z" fill="white"/>
<path d="M361.499 263.481H369.736V255.967H389.373V251.458L402.468 251.625V302.058H398.57L397.54 295.044L389.817 296.547L391.876 305.064H390.332V312.078L402.468 312.57V312.579H361.499V263.481ZM388.741 256.124H380.632V263.813H388.741V256.124ZM370.48 280.515H362.583V289.533H370.48V280.515Z" fill="#F08234" fill-opacity="0.23"/>
<path d="M381.421 288.472V280.472H384.484C385.062 280.472 385.542 280.563 385.925 280.746C386.311 280.925 386.598 281.171 386.789 281.484C386.981 281.796 387.078 282.15 387.078 282.546C387.078 282.872 387.015 283.15 386.89 283.382C386.765 283.611 386.597 283.798 386.386 283.941C386.175 284.084 385.94 284.187 385.679 284.249V284.328C385.963 284.343 386.235 284.43 386.496 284.589C386.759 284.746 386.973 284.967 387.14 285.253C387.307 285.54 387.39 285.886 387.39 286.292C387.39 286.706 387.29 287.079 387.089 287.41C386.889 287.738 386.587 287.997 386.183 288.187C385.779 288.377 385.272 288.472 384.66 288.472H381.421ZM382.871 287.261H384.429C384.955 287.261 385.334 287.161 385.566 286.96C385.8 286.757 385.917 286.497 385.917 286.179C385.917 285.942 385.859 285.729 385.742 285.539C385.625 285.346 385.458 285.195 385.242 285.085C385.026 284.973 384.768 284.917 384.468 284.917H382.871V287.261ZM382.871 283.874H384.304C384.554 283.874 384.779 283.829 384.98 283.738C385.181 283.644 385.338 283.512 385.453 283.343C385.57 283.171 385.628 282.968 385.628 282.734C385.628 282.424 385.519 282.169 385.3 281.968C385.084 281.768 384.763 281.667 384.335 281.667H382.871V283.874Z" fill="white"/>
<path d="M344.384 294.703H325.899M345.157 312.948C344.751 312.948 331.443 312.946 325.193 312.946M364.147 281.851V288.421H370.679V281.851H364.147Z" stroke="#B27C40" stroke-opacity="0.23"/>
</svg>
