<svg width="410" height="474" viewBox="0 0 410 474" fill="none" xmlns="http://www.w3.org/2000/svg">
<path d="M308 226C308 227.105 307.105 228 306 228C304.895 228 304 227.105 304 226C304 224.895 304.895 224 306 224C307.105 224 308 224.895 308 226Z" fill="#171717"/>
<path d="M307 226C307 226.552 306.552 227 306 227C305.448 227 305 226.552 305 226C305 225.448 305.448 225 306 225C306.552 225 307 225.448 307 226Z" fill="white"/>
<path d="M80 179C80 180.105 79.1046 181 78 181C76.8954 181 76 180.105 76 179C76 177.895 76.8954 177 78 177C79.1046 177 80 177.895 80 179Z" fill="#171717"/>
<path d="M79 179C79 179.552 78.5523 180 78 180C77.4477 180 77 179.552 77 179C77 178.448 77.4477 178 78 178C78.5523 178 79 178.448 79 179Z" fill="white"/>
</svg>
