<svg width="435" height="473" viewBox="0 0 435 473" fill="none" xmlns="http://www.w3.org/2000/svg">
<path fill-rule="evenodd" clip-rule="evenodd" d="M20.9884 134.161V146.966H17.9472H7.12024V154.293V195.926L20.5455 208.996H27.6347V218.7H17.2668V256.848H76.284V243.201H89.133V252.985V259.629V276.388H78.8981V320.34H79.6956V326.189C82.9232 338.071 95.6931 345.418 100.843 345.418H111.154H136.088V348.074H135.066V372.89H136.088V375.615H132.513V385.277C132.513 385.277 133.516 389.158 134.798 391.338C136.171 393.674 137.909 395.295 139.344 396.578C141.01 398.068 143.162 399.6 145.234 400.437C148.267 401.661 151.029 401.835 151.029 401.835H184.443V445.55C184.443 445.55 185.617 449.672 187.403 451.605C189.158 453.503 193.084 455 193.084 455H217.232C217.232 455 220.197 453.938 222.881 451.862C225.291 449.998 225.922 447.095 225.922 447.095V380.895H224.214V372.909H315.126C315.126 372.909 319.099 371.496 321.747 368.602C324.17 365.954 325.171 363.717 325.171 363.717V314.494H314.523V283.507V277.275H327.783V287.672H372.787V252.764H362.491V219.564H375.449V228.605C375.449 228.605 375.449 230.357 377.277 231.834C379.105 233.312 379.568 233.527 379.568 233.527H406.39L414.979 230.714V229.659H416.234V228.354H417.641L420.654 221.523V191.405V184.706H413.277H406.892V178.327H420.654V158.135L426.38 154.067H429.293L434.115 151.756V129.974C434.115 129.974 434.121 128.417 433.362 126.328C432.458 123.839 430.569 120.531 427.658 117.334C425.413 114.869 422.248 112.379 419.398 111.174C416.419 109.915 413.874 109.716 413.874 109.716H368.669V113.282H362.491V106.15H335.167C335.167 106.15 332.52 106.698 329.598 108.311C327.23 109.618 324.767 111.78 322.702 113.686C320.453 115.762 318.201 118.938 317.023 121.748C315.784 124.704 315.678 127.245 315.678 127.245V137.04H309.701V103.136H246.465V38.1413L231.346 18H191.214L187.648 23.3744V72.045H86.992L73.5812 84.9535V99.5195H0.5V142.514H18.1801V134.161H20.9884ZM58.5749 225.407H48.7298V208.916H62.4442V202.126H68.9219H110.394V188.545H119.687V217.755H196.353V225.342H184.328V263.269V269.801H174.162V283.534H168.433V269.801H126.743V293.435L118.322 302.008L113.573 297.19V232.038L100.262 218.7H58.5749V225.407ZM54.9425 154.002V147.959H78.0248V177.953H54.9425V171.748H62.5616V154.002H54.9425ZM14.6327 123.012V113.82H34.5528V123.012H14.6327ZM55.8618 123.104V117.238H84.7216V123.104H65.4582H58.8699H55.8618ZM100.186 117.238V110.199H102.887V117.282H130.129L140.813 105.023V93.3169H157.328V128.434H154.732L149.369 123.104H119.63V168.114L129.925 168.236V173.895H100.077V156.131H108.567V123.104H98.336V117.238H100.186ZM154.28 139.413H157.397L157.374 156.175L167.786 166.426H191.475V172.752H187.943V191.292H157.512L157.374 203.229H140.935V150.708V144.307H149.316L154.28 139.413ZM144.373 297.61L129.799 312.629L135.606 318.917H154.731V345.418H151.809V348.074H152.993V372.89H151.809V375.615H155.989C155.989 375.615 157.491 377.949 158.849 378.861C160.207 379.774 162.944 380.287 162.944 380.287H200.509H206.52H208.37V372.909H206.52V352.062H256.09V321.655H249.875V338.819H201.119V307.681V303.782V297.61H150.897H144.373ZM273.112 336.158H270.321L270.232 303.782H236.194V297.996H246.473V252.856H236.106V246.689H268.558C268.558 246.689 271.419 246.525 274.232 245.332C275.887 244.631 277.431 243.26 278.62 242.198C280.064 240.908 281.702 239.044 282.67 237.232C283.716 235.274 284.035 233.414 284.035 233.414V201.431H277.398V195.734H289.322C289.322 195.734 291.564 194.776 292.556 193.646C293.53 192.537 294.197 190.242 294.197 190.242V171.705H310.626V218.972V226.311H317.62H317.849C317.849 226.311 322.055 227.237 324.052 228.953C325.934 230.571 327.491 234.298 327.491 234.298V243.558H341.301V252.913H331.214V255.077L330.196 255.936H327.968V259.437H314.603V249.286H292.169L287.301 253.231V254.95H286.695V290.13H279.665V309.943H286.738V313.966H273.112V336.158ZM212.613 217.755H222.957V172.691H212.73V166.392H236.062L246.405 156.087V140.727H271.681V148.699H261.649C261.649 148.699 258.981 149.531 257.836 150.784C256.634 152.099 256.088 154.998 256.088 154.998V195.734H262.815V215.855L253.094 225.342H218.6H212.613V217.755ZM184.335 155.798H176.751V93.3056H221.005H227.413V155.798H219.373V145.218H184.335V155.798ZM280.509 129.956H246.405V123.905H288.57V151.409H331.795H337.626V157.02H282.22V131.978L280.509 129.956ZM362.565 151.409H359.438V157.055H379.094H385.452V143.896H407.209L408.816 141.117C406.282 138.612 401.146 133.526 400.868 133.213C400.591 132.9 398.494 131.548 397.481 130.911H368.297V127.524H362.565V151.409ZM392.612 204.887H362.498V178.489H392.612V204.887Z" fill="#271406"/>
<path d="M100.843 345.418C95.6931 345.418 82.9232 338.071 79.6956 326.189V320.34H78.8981V276.388H89.133V259.629M100.843 345.418C100.843 345.418 107.676 345.418 111.154 345.418M100.843 345.418H111.154M111.154 345.418H136.088V348.074H135.066V372.89H136.088V375.615H132.513V385.277C132.513 385.277 133.516 389.158 134.798 391.338C136.171 393.674 137.909 395.295 139.344 396.578C141.01 398.068 143.162 399.6 145.234 400.437C148.267 401.661 151.029 401.835 151.029 401.835H184.443V445.55C184.443 445.55 185.617 449.672 187.403 451.605C189.158 453.503 193.084 455 193.084 455H217.232C217.232 455 220.197 453.938 222.881 451.862C225.291 449.998 225.922 447.095 225.922 447.095V380.895H224.214V372.909H315.126C315.126 372.909 319.099 371.496 321.747 368.602C324.17 365.954 325.171 363.717 325.171 363.717V314.494H314.523V283.507M314.523 277.275H327.783V287.672H372.787V252.764H362.491V219.564H375.449V228.605C375.449 228.605 375.449 230.357 377.277 231.834C379.105 233.312 379.568 233.527 379.568 233.527H406.39L414.979 230.714V229.659H416.234V228.354H417.641L420.654 221.523V191.405M314.523 277.275H307.801V283.507H314.523M314.523 277.275V283.507M184.328 269.801H174.162V283.534H168.433V269.801H126.743V293.435L118.322 302.008L113.573 297.19V232.038L100.262 218.7H58.5749V225.407H48.7298V208.916H62.4442V202.126M184.328 269.801V263.269M184.328 269.801H191.666V263.269H184.328M62.4442 202.126V195.653H68.9219V202.126M62.4442 202.126H68.9219M140.935 144.307H149.316L154.28 139.413H157.397L157.374 156.175L167.786 166.426H191.475V172.752H187.943V191.292H157.512L157.374 203.229H140.935V150.708M140.935 144.307H134.366V150.708H140.935M140.935 144.307V150.708M144.373 297.61L129.799 312.629L135.606 318.917H154.731V345.418H151.809V348.074H152.993V372.89H151.809V375.615H155.989C155.989 375.615 157.491 377.949 158.849 378.861C160.207 379.774 162.944 380.287 162.944 380.287H200.509M144.373 297.61V290.756H150.897V297.61M144.373 297.61H150.897M201.119 297.61H150.897M201.119 297.61H215.564V303.782H205.474M201.119 297.61V303.782M212.613 225.342V217.755H222.957V172.691H212.73V166.392H236.062L246.405 156.087V140.727H271.681V148.699H261.649C261.649 148.699 258.981 149.531 257.836 150.784C256.634 152.099 256.088 154.998 256.088 154.998V195.734H262.815V215.855L253.094 225.342H218.6M212.613 225.342V239.211H218.6V225.342M212.613 225.342H218.6M227.413 93.3056V155.798H219.373V145.218H184.335V155.798H176.751V93.3056H221.005M227.413 93.3056V86.1873H221.005V93.3056M227.413 93.3056H221.005M337.626 151.409V157.02H282.22V131.978L280.509 129.956H246.405V123.905H288.57V151.409H331.795M337.626 151.409H331.795M337.626 151.409V144.683H331.795V151.409M385.452 157.055V143.896H407.209L408.816 141.117C406.282 138.612 401.146 133.526 400.868 133.213C400.591 132.9 398.494 131.548 397.481 130.911H368.297V127.524H362.565V151.409H359.438V157.055H379.094M385.452 157.055V164.299H379.094V157.055M385.452 157.055H379.094M68.9219 202.126H110.394V188.545H119.687V217.755H196.353V225.342H184.328V263.269M29.466 174.6L27.3951 170.893L21.8952 173.903L25.0419 180.169L30.7881 176.967L29.466 174.6ZM27.3951 170.893L26.328 168.512L32.6214 165.119L35.7954 171.303L29.466 174.6M7.12024 154.293V146.966H17.9472M7.12024 154.293V195.926L20.5455 208.996H27.6347V218.7H17.2668V256.848H76.284V243.201H89.133V252.985M7.12024 154.293H14.4491V151.12M14.4491 147.191V151.12M14.4491 151.12H17.9472V146.966M17.9472 146.966H20.9884V134.161H18.1801V142.514H0.5V99.5195H73.5812V84.9535L86.992 72.045H187.648V23.3744L191.214 18H231.346L246.465 38.1413V103.136H309.701V137.04H315.678V127.245C315.678 127.245 315.784 124.704 317.023 121.748C318.201 118.938 320.453 115.762 322.702 113.686C324.767 111.78 327.23 109.618 329.598 108.311C332.52 106.698 335.167 106.15 335.167 106.15H362.491V113.282H368.669V109.716H413.874C413.874 109.716 416.419 109.915 419.398 111.174C422.248 112.379 425.413 114.869 427.658 117.334C430.569 120.531 432.458 123.839 433.362 126.328C434.121 128.417 434.115 129.974 434.115 129.974V151.756L429.293 154.067H426.38L420.654 158.135V178.327H406.892V184.706H413.277M58.8699 123.104H55.8618V117.238H84.7216V123.104H65.4582M58.8699 123.104V129.711H65.4582V123.104M58.8699 123.104H65.4582M89.133 252.985H96.0964V259.629H89.133M89.133 252.985V259.629M201.119 303.782H205.474M201.119 303.782V307.681M205.474 303.782V307.681H201.119M201.119 307.681V338.819H249.875V321.655H256.09V352.062H206.52V372.909H208.37V380.287H206.52M413.277 184.706H420.654V191.405M413.277 184.706V191.405H420.654M310.626 218.972V226.311H317.62M310.626 218.972V171.705H294.197V190.242C294.197 190.242 293.53 192.537 292.556 193.646C291.564 194.776 289.322 195.734 289.322 195.734H277.398V201.431H284.035V233.414C284.035 233.414 283.716 235.274 282.67 237.232C281.702 239.044 280.064 240.908 278.62 242.198C277.431 243.26 275.887 244.631 274.232 245.332C271.419 246.525 268.558 246.689 268.558 246.689H236.106V252.856H246.473V297.996H236.194V303.782H270.232L270.321 336.158H273.112V313.966H286.738V309.943H279.665V290.13H286.695V254.95H287.301V253.231L292.169 249.286H314.603V259.437H327.968V255.936H330.196L331.214 255.077V252.913H341.301V243.558H327.491V234.298C327.491 234.298 325.934 230.571 324.052 228.953C322.055 227.237 317.849 226.311 317.849 226.311H317.62M310.626 218.972H317.62V226.311M200.509 380.287V387.385H206.52V380.287M200.509 380.287H206.52M54.9425 147.959V154.002H62.5616V171.748H54.9425V177.953H78.0248V147.959H54.9425ZM14.6327 113.82V123.012H34.5528V113.82H14.6327ZM100.186 110.199V117.238H98.336V123.104H108.567V156.131H100.077V173.895H129.925V168.236L119.63 168.114V123.104H149.369L154.732 128.434H157.328V93.3169H140.813V105.023L130.129 117.282H102.887V110.199H100.186ZM362.498 204.887H392.612V178.489H362.498V204.887ZM400.101 212.467V218.828H406.17V212.467H400.101ZM322.771 196.574L334.952 192.034L337.254 198.077L325.104 202.809L322.771 196.574Z" stroke="#B27C40"/>
<path d="M28.1855 99.5272V113.82M73.5413 117.288V99.4891M34.4637 123.017H55.8081M17.2124 250.005H76.3662M184.466 415.744H186.769V422.752H184.466M200.908 454.967V451.63H208.002V454.967M225.996 442.31H223.132V435.714H225.799M286.66 310.039V308.036M286.66 290.045V300.898M286.66 300.898H290.827V308.036H286.66M286.66 300.898V308.036M191.471 172.763H212.66V179.481H215.987M215.987 179.481V172.763M215.987 179.481V186.07H222.932M256.072 171.567H259.948V174.604M259.948 174.604H256.201M259.948 174.604H263.016V195.76M262.952 215.464V225.541H252.939" stroke="#B27C40" stroke-width="0.5"/>
<circle cx="211.172" cy="274.319" r="5.13981" stroke="#B27C40"/>
<circle cx="297.363" cy="344.885" r="3.08195" stroke="#B27C40"/>
<path d="M34.3354 117.193H56.0035" stroke="#F08234" stroke-opacity="0.2" stroke-dasharray="2 2"/>
<path d="M191.348 166.403H213.016" stroke="#F08234" stroke-opacity="0.2" stroke-dasharray="2 2"/>
<path d="M337.538 151.456H359.818M337.539 157H359.818" stroke="#F08234" stroke-opacity="0.2" stroke-dasharray="2 2"/>
<path d="M21.4464 123.451V147.436H18.4404V151.639H14.9044V154.775H7.44287V171.167H25.7602L26.7104 170.423L25.7602 168.151L32.8247 164.433L36.3362 171.167H62.2394V154.477H54.5139V147.453H78.3927V123.451H65.9575V130.019H58.3973V123.451H21.4464Z" fill="#F08234" fill-opacity="0.23"/>
<path d="M37.7559 146.763V138.763H40.8184C41.3965 138.763 41.877 138.854 42.2598 139.036C42.6452 139.216 42.9329 139.462 43.123 139.775C43.3158 140.087 43.4121 140.441 43.4121 140.837C43.4121 141.163 43.3496 141.441 43.2246 141.673C43.0996 141.902 42.9316 142.089 42.7207 142.232C42.5098 142.375 42.2741 142.478 42.0137 142.54V142.619C42.2975 142.634 42.5697 142.721 42.8301 142.88C43.0931 143.036 43.3079 143.258 43.4746 143.544C43.6413 143.831 43.7246 144.177 43.7246 144.583C43.7246 144.997 43.6243 145.37 43.4238 145.701C43.2233 146.029 42.9212 146.288 42.5176 146.478C42.1139 146.668 41.6061 146.763 40.9941 146.763H37.7559ZM39.2051 145.552H40.7637C41.2897 145.552 41.6686 145.452 41.9004 145.251C42.1348 145.048 42.252 144.788 42.252 144.47C42.252 144.233 42.1934 144.02 42.0762 143.829C41.959 143.637 41.7923 143.486 41.5762 143.376C41.36 143.264 41.1022 143.208 40.8027 143.208H39.2051V145.552ZM39.2051 142.165H40.6387C40.8887 142.165 41.1139 142.12 41.3145 142.029C41.515 141.935 41.6725 141.803 41.7871 141.634C41.9043 141.462 41.9629 141.259 41.9629 141.025C41.9629 140.715 41.8535 140.46 41.6348 140.259C41.4186 140.059 41.097 139.958 40.6699 139.958H39.2051V142.165Z" fill="white"/>
<path fill-rule="evenodd" clip-rule="evenodd" d="M375.969 219.198V205.428H393.163V178.1H406.366V185.132H412.805V191.778H420.133V221.389L417.285 227.887H415.772V229.097H414.488V230.298L406.264 233.08H379.698L377.094 231.114L375.969 229.335V219.198ZM399.685 211.966V219.299H406.652V211.966H399.685Z" fill="#F08234" fill-opacity="0.23"/>
<path d="M404.295 202.029H402.749L405.565 194.029H407.354L410.174 202.029H408.627L406.491 195.67H406.428L404.295 202.029ZM404.346 198.892H408.565V200.056H404.346V198.892Z" fill="white"/>
</svg>
