<svg width="493" height="473" viewBox="0 0 493 473" fill="none" xmlns="http://www.w3.org/2000/svg">
<path fill-rule="evenodd" clip-rule="evenodd" d="M416.529 188.223V203.849H397.996L397.996 148.079L377.469 127.487L377.469 112.572H397.805V92.595L300.006 45.6357H268.19L268.19 18H191.054V82.7911H120.632C120.46 103.446 120.513 142.089 120.513 142.089H147.044V148.333H43.3023L43.356 234.579H25.6464L0.55398 259.815V403.422H119.654V454.614H231.846C233.544 453.341 234.707 453.324 237.01 452.935L245.788 450.869C248.068 450.25 248.767 449.51 249.403 447.771C252.41 442.218 253.448 438.924 255.599 434.345L262.312 413.175V410.076L266.959 404.396V392.681H395.466V350.178H469.222V318.164H458.724C458.552 302.329 458.724 270.658 458.724 270.658H491.481V208.15C491.481 197.741 482.533 188.223 472.123 188.223H416.529ZM295.448 356.891V327.975V327.458H287.097V321.146H246.527V290.797H235.461V301.64H243.723V331.589H212.741V323.844H202.171V330.283H210.554V403.455H238.043V356.891H295.448ZM202.676 252.078L210.159 252.069V299.575H222.552V301.64H170.319V353.277H117.214V342.433L121.345 336.237V329.007C119.57 325.315 117.497 325.34 117.497 320.176H118.789L131.411 308.035V278.768H123.41H115.792V272.221H123.41L123.628 272.221L155.293 272.223V279.92C155.293 279.92 186.497 280.098 202.676 279.926V252.078ZM287.025 120.353V76.0786H268.215V116.517H251.234V119.158H280.371V170.956H248.253V188.291H338.204V127.7H344.113V120.353H287.025ZM174.85 108.039H222.552V224.393H252.501V211.277H266.959V236.496H155.27V261.425H152.292V220.955H113.983V216.947H121.585L124.542 206.489L127.554 203.641L125.747 200.3L121.257 190.281L120.216 183.481L154.773 174.423V171.444C155.52 170.714 157.035 169.188 157.122 168.926C157.21 168.663 160.006 166.918 161.393 166.078H164.819V143.26V142.089L170.263 132.22L171.865 129.177C172.615 127.469 173.436 126.912 174.85 125.866V108.039ZM417.005 230.382V252.962H366.799V245.099H333.577V293.757H287.097V305.771H272.639V291.227H304.558V236.062H288.087V222.163H330.773V213.342H347.641V242.302H390.37L398.158 233.997V230.382H417.005ZM439.357 318.164V311.451H400.812V276.855H358.288V327.458C341.213 327.458 331.639 327.458 314.564 327.458V356.891H373.429V318.164H439.357ZM470.12 236.035V245.165H458.861V236.035H470.12ZM437.456 274.789V289.764H430.724V274.789H437.456ZM68.8864 230.466H71.858V261.364H89.0071V284.6H22.6066V279.982H69.1124V268.69H63.805C62.7399 267.773 61.5241 266.534 61.4202 265.003C61.5251 263.414 62.651 262.58 63.805 261.364H68.8864V230.466ZM92.1231 341.917H87.9769V322.373H100.485V319.989H87.9769V308.093H76.8744V349.662H89.2584V380.361H154.392V373.213H92.1231V341.917ZM57.3158 315.582V338.982H54.558V331.589H29.2562V338.982H26.2588V315.582H57.3158ZM60.149 373.091V380.442H14.04V373.091H60.149ZM85.8858 187.797H95.5418V178.14L85.8858 178.087V187.797Z" fill="#271406"/>
<path d="M151.681 183.481L164.819 178.453V171.882L154.773 174.423L120.216 183.481L121.257 190.281L125.747 200.3L127.554 203.641L131.156 200.3C132.587 198.414 135.491 194.598 135.662 194.427C135.833 194.256 146.413 187.058 151.681 183.481Z" fill="#271406"/>
<path d="M154.773 174.423L164.819 171.882V166.078H161.393C160.006 166.918 157.21 168.663 157.122 168.926C157.035 169.188 155.52 170.714 154.773 171.444V174.423Z" fill="#271406"/>
<path d="M120.513 142.089C120.513 142.089 120.46 103.446 120.632 82.7911H191.054V18H268.19L268.19 45.6357H300.006L397.805 92.595V112.572H377.469L377.469 127.487L397.996 148.079L397.996 203.849H416.529V188.223H472.123C482.533 188.223 491.481 197.741 491.481 208.15V270.658M120.513 142.089C120.927 142.089 138.266 142.089 147.044 142.089M120.513 142.089H147.044M147.044 142.089V148.333H43.3023L43.356 234.579H25.6464L0.55398 259.815V403.422H119.654V454.614H231.846C233.544 453.341 234.707 453.324 237.01 452.935L245.788 450.869C248.068 450.25 248.767 449.51 249.403 447.771C252.41 442.218 253.448 438.924 255.599 434.345L262.312 413.175V410.076L266.959 404.396V392.681H395.466V350.178H469.222V318.164H458.724C458.552 302.329 458.724 270.658 458.724 270.658M458.724 270.658C458.724 270.658 480.638 270.658 491.481 270.658M458.724 270.658H491.481M123.41 272.221V278.768M123.41 272.221L123.628 272.221M123.41 272.221H115.792M127.554 203.641L131.156 200.3C132.587 198.414 135.491 194.598 135.662 194.427C135.833 194.256 146.413 187.058 151.681 183.481L164.819 178.453V171.882M127.554 203.641L124.542 206.489L121.585 216.947H113.983V220.955H152.292V261.425H155.27V236.496H266.959V211.277H252.501V224.393H222.552V108.039H174.85V125.866C173.436 126.912 172.615 127.469 171.865 129.177L170.263 132.22L164.819 142.089V143.26V166.078M127.554 203.641L125.747 200.3L121.257 190.281L120.216 183.481L154.773 174.423M164.819 171.882L154.773 174.423M164.819 171.882V166.078M154.773 174.423V171.444C155.52 170.714 157.035 169.188 157.122 168.926C157.21 168.663 160.006 166.918 161.393 166.078H164.819M95.5418 178.087V178.14M95.5418 178.14V187.797H85.8858V178.087L95.5418 178.14ZM123.41 278.768H131.411V308.035L118.789 320.176H117.497C117.497 325.34 119.57 325.315 121.345 329.007V336.237L117.214 342.433V353.277H170.319V301.64H222.552V299.575H210.159V252.069L202.676 252.078V279.926C186.497 280.098 155.293 279.92 155.293 279.92V272.223L123.628 272.221M123.41 278.768H115.792V272.221M115.792 272.221L123.628 272.221M295.448 327.975V356.891H238.043V403.455H210.554V330.283H202.171V323.844H212.741V331.589H243.723V301.64H235.461V290.797H246.527V321.146H287.097V327.458H295.448V327.975ZM287.025 76.0786V120.353H344.113V127.7H338.204V188.291H248.253V170.956H280.371V119.158H251.234V116.517H268.215V76.0786H287.025ZM417.005 252.962V230.382H398.158V233.997L390.37 242.302H347.641V213.342H330.773V222.163H288.087V236.062H304.558V291.227H272.639V305.771H287.097V293.757H333.577V245.099H366.799V252.962H417.005ZM439.357 311.451V318.164H373.429V356.891H314.564V327.458C331.639 327.458 341.213 327.458 358.288 327.458V276.855H400.812V311.451H439.357ZM470.12 245.165V236.035H458.861V245.165H470.12ZM437.456 289.764V274.789H430.724V289.764H437.456ZM71.858 230.466H68.8864V261.364H63.805C62.651 262.58 61.5251 263.414 61.4202 265.003C61.5241 266.534 62.7399 267.773 63.805 268.69H69.1124V279.982H22.6066V284.6H89.0071V261.364H71.858V230.466ZM87.9769 308.093H76.8744V349.662H89.2584V380.361H154.392V373.213H92.1231V341.917H87.9769V322.373H100.485V319.989H87.9769V308.093ZM57.3158 338.982V315.582H26.2588V338.982H29.2562V331.589H54.558V338.982H57.3158ZM60.149 380.442V373.091H14.04V380.442H60.149Z" stroke="#B27C40"/>
<path d="M287.319 188.111C287.319 188.524 287.319 193.617 287.319 196.199H280.385V188.111" stroke="#B27C40"/>
<path d="M222.551 119.351H230.813V112.051M230.813 112.051L230.814 108.026H222.552L222.551 112.051H230.813Z" stroke="#B27C40"/>
<path d="M246.821 290.797V288.215M210.159 274.789H214.29M214.29 274.789H246.821V288.215M214.29 274.789V259.815H210.159M246.821 299.058H251.985V288.215H246.821" stroke="#B27C40"/>
<path d="M304.654 282.535H300.523M288.13 290.797V282.535H300.523M300.523 282.535V278.404H304.654M295.493 327.458V321.182H287.097M373.529 356.891V365.669H366.317V356.891M395.049 341.4H468.889" stroke="#B27C40"/>
<path d="M413.843 311.451C413.843 311.038 413.843 308.148 413.843 306.599H409.306M409.306 306.599V311.451M409.306 306.599L409.306 302.673H400.819M470.135 236.062V219.51H462.855V235.546M429.888 188.2L429.888 192.413H425.757M416.527 196.441H425.275L425.275 188.2M348.028 220.959H356.376V213.342H348.028M344.411 127.74H352.156V120.325H344.411M309.894 119.802V99.1486M309.894 90.8868V75.3959H302.588V90.8868H306.719M309.894 90.8868H306.719M309.894 90.8868V99.1486M306.719 90.8868V99.1486H309.894M264.023 153.109H262.415V151.512M264.023 153.109V151.512H262.415M264.023 153.109L262.415 151.512M264.023 136.006H262.474V134.457M264.023 136.006V134.457H262.474M264.023 136.006L262.474 134.457M86.1152 187.57L82.5148 189.37L78.1942 188.41L75.8539 187.87H56.3514V181.569H57.2515V178.028H86.1152M114.055 220.853V228.932H120.869M120.869 228.932H124.949V221.097H120.869V228.932ZM380.559 185.459L389.876 176.56L382.152 160.157L361.884 153.355L349.449 158.35L345.339 173.907L351.114 185.145L370.232 189.59L380.559 185.459Z" stroke="#B27C40"/>
<path d="M21.3814 373.415V365.153H14.0804V373.415M30.1191 380.644V403.88M60.2812 373.284L76.807 349.566M89.3392 380.644V388.389H96.5279V380.644M119.279 433.498H129.586V437.203M129.586 455V440.9M119.279 440.9H129.586M129.586 440.9V437.203M139.934 455V446.277L129.586 437.203" stroke="#B27C40"/>
<path d="M430.562 275.039V235.775H458.99V237.135H431.758V275.039H430.562Z" stroke="#B27C40" stroke-width="0.5"/>
<path d="M246.304 288.647C255.832 286.329 262.906 277.74 262.906 267.499C262.906 255.479 253.161 245.734 241.141 245.734C229.121 245.734 219.377 255.479 219.377 267.499C219.377 270.25 219.889 272.882 220.82 275.305H220.285C219.375 272.876 218.877 270.246 218.877 267.499C218.877 255.202 228.845 245.234 241.141 245.234C253.438 245.234 263.406 255.203 263.406 267.499C263.406 278.018 256.111 286.833 246.304 289.162V288.647Z" fill="#B27C40"/>
<path d="M45.8958 315.58V306.695H38.1655V315.58H45.8958Z" stroke="#B27C40"/>
<path d="M247.337 299.575H252.501V287.699H247.337V263.369H287.614V290.281H272.123V306.288H247.337V299.575Z" fill="#F08234" fill-opacity="0.23"/>
<path d="M210.675 274.273H214.806V263.43H210.675L247.337 263.389V274.273L210.675 274.314V274.273Z" fill="#F08234" fill-opacity="0.23"/>
<path d="M267.748 283.208V275.208H270.811C271.389 275.208 271.869 275.299 272.252 275.481C272.638 275.661 272.925 275.907 273.115 276.219C273.308 276.532 273.405 276.886 273.405 277.282C273.405 277.607 273.342 277.886 273.217 278.118C273.092 278.347 272.924 278.533 272.713 278.676C272.502 278.82 272.267 278.923 272.006 278.985V279.063C272.29 279.079 272.562 279.166 272.823 279.325C273.086 279.481 273.3 279.703 273.467 279.989C273.634 280.275 273.717 280.622 273.717 281.028C273.717 281.442 273.617 281.815 273.416 282.145C273.216 282.473 272.914 282.732 272.51 282.923C272.106 283.113 271.599 283.208 270.987 283.208H267.748ZM269.198 281.997H270.756C271.282 281.997 271.661 281.897 271.893 281.696C272.127 281.493 272.244 281.232 272.244 280.915C272.244 280.678 272.186 280.464 272.069 280.274C271.951 280.081 271.785 279.93 271.569 279.821C271.352 279.709 271.095 279.653 270.795 279.653H269.198V281.997ZM269.198 278.61H270.631C270.881 278.61 271.106 278.565 271.307 278.473C271.507 278.38 271.665 278.248 271.78 278.079C271.897 277.907 271.955 277.704 271.955 277.469C271.955 277.16 271.846 276.904 271.627 276.704C271.411 276.503 271.089 276.403 270.662 276.403H269.198V278.61Z" fill="white"/>
<path d="M21.9131 364.637H13.8096V372.898H0V308.353H37.876V315.065H25.9922L25.9912 332.105H25.9141V339.244H28.916V332.105H54.0361V339.851H54.082V372.898H21.9131V364.637Z" fill="#F08234" fill-opacity="0.2"/>
<path d="M38.4778 357.564H36.9309L39.7473 349.564H41.5364L44.3567 357.564H42.8098L40.6731 351.204H40.6106L38.4778 357.564ZM38.5286 354.427H42.7473V355.591H38.5286V354.427Z" fill="white"/>
<path d="M459.046 274.273H431.994V237.429H459.046V274.273Z" fill="#F08234" fill-opacity="0.23"/>
<path d="M459.046 290.28H438.392V274.273H459.046V290.28Z" fill="#F08234" fill-opacity="0.23"/>
<path d="M492.093 270.142H459.046V245.357H492.093V270.142Z" fill="#F08234" fill-opacity="0.23"/>
<path d="M456.355 259.318H454.895C454.853 259.078 454.776 258.866 454.664 258.681C454.552 258.494 454.413 258.335 454.246 258.204C454.079 258.074 453.889 257.977 453.676 257.912C453.465 257.844 453.237 257.81 452.992 257.81C452.557 257.81 452.172 257.919 451.836 258.138C451.5 258.354 451.237 258.672 451.047 259.091C450.857 259.508 450.762 260.017 450.762 260.619C450.762 261.231 450.857 261.746 451.047 262.165C451.24 262.582 451.503 262.897 451.836 263.111C452.172 263.322 452.556 263.427 452.988 263.427C453.228 263.427 453.452 263.396 453.66 263.333C453.871 263.268 454.06 263.173 454.227 263.048C454.396 262.923 454.538 262.77 454.652 262.587C454.77 262.405 454.85 262.197 454.895 261.962L456.355 261.97C456.301 262.35 456.182 262.707 456 263.04C455.82 263.374 455.585 263.668 455.293 263.923C455.001 264.176 454.66 264.374 454.27 264.517C453.879 264.658 453.445 264.728 452.969 264.728C452.266 264.728 451.638 264.565 451.086 264.24C450.534 263.914 450.099 263.444 449.781 262.829C449.464 262.215 449.305 261.478 449.305 260.619C449.305 259.757 449.465 259.02 449.785 258.408C450.105 257.793 450.542 257.323 451.094 256.997C451.646 256.672 452.271 256.509 452.969 256.509C453.414 256.509 453.828 256.572 454.211 256.697C454.594 256.822 454.935 257.005 455.234 257.247C455.534 257.487 455.78 257.781 455.973 258.13C456.168 258.477 456.296 258.872 456.355 259.318Z" fill="white"/>
</svg>
