<svg width="414" height="473" viewBox="0 0 414 473" fill="none" xmlns="http://www.w3.org/2000/svg">
<rect x="286" y="130" width="28" height="9" rx="2" transform="rotate(180 286 130)" fill="#18181B" fill-opacity="0.8"/>
<rect x="285.75" y="129.75" width="27.5" height="8.5" rx="1.75" transform="rotate(180 285.75 129.75)" stroke="#27272A" stroke-opacity="0.8" stroke-width="0.5"/>
<path d="M260.822 128V123.636H262.42C262.73 123.636 262.986 123.687 263.189 123.79C263.392 123.891 263.544 124.028 263.645 124.201C263.746 124.373 263.797 124.567 263.797 124.783C263.797 124.964 263.763 125.118 263.696 125.243C263.63 125.366 263.54 125.466 263.428 125.541C263.317 125.615 263.195 125.669 263.062 125.703V125.746C263.206 125.753 263.348 125.8 263.486 125.886C263.625 125.972 263.74 126.093 263.831 126.251C263.922 126.408 263.967 126.6 263.967 126.826C263.967 127.049 263.915 127.249 263.809 127.427C263.706 127.603 263.545 127.743 263.328 127.847C263.111 127.949 262.833 128 262.495 128H260.822ZM261.481 127.435H262.431C262.746 127.435 262.972 127.374 263.108 127.252C263.245 127.13 263.313 126.977 263.313 126.794C263.313 126.656 263.278 126.53 263.209 126.415C263.139 126.3 263.04 126.208 262.91 126.14C262.782 126.072 262.63 126.038 262.454 126.038H261.481V127.435ZM261.481 125.524H262.363C262.51 125.524 262.643 125.496 262.761 125.439C262.88 125.382 262.975 125.303 263.044 125.2C263.116 125.097 263.151 124.974 263.151 124.834C263.151 124.653 263.088 124.502 262.961 124.38C262.835 124.258 262.641 124.197 262.38 124.197H261.481V125.524ZM266.336 128V123.636H266.994V127.433H268.972V128H266.336ZM271.05 128.066C270.743 128.066 270.475 127.996 270.247 127.855C270.018 127.714 269.84 127.518 269.714 127.265C269.588 127.012 269.524 126.717 269.524 126.379C269.524 126.039 269.588 125.742 269.714 125.488C269.84 125.234 270.018 125.036 270.247 124.896C270.475 124.755 270.743 124.685 271.05 124.685C271.357 124.685 271.625 124.755 271.853 124.896C272.082 125.036 272.259 125.234 272.386 125.488C272.512 125.742 272.576 126.039 272.576 126.379C272.576 126.717 272.512 127.012 272.386 127.265C272.259 127.518 272.082 127.714 271.853 127.855C271.625 127.996 271.357 128.066 271.05 128.066ZM271.052 127.531C271.251 127.531 271.416 127.479 271.546 127.374C271.677 127.268 271.774 127.129 271.836 126.954C271.9 126.779 271.932 126.587 271.932 126.376C271.932 126.168 271.9 125.976 271.836 125.801C271.774 125.625 271.677 125.484 271.546 125.377C271.416 125.271 271.251 125.217 271.052 125.217C270.852 125.217 270.686 125.271 270.554 125.377C270.423 125.484 270.326 125.625 270.262 125.801C270.199 125.976 270.168 126.168 270.168 126.376C270.168 126.587 270.199 126.779 270.262 126.954C270.326 127.129 270.423 127.268 270.554 127.374C270.686 127.479 270.852 127.531 271.052 127.531ZM273.338 128V123.636H273.975V125.258H274.013C274.05 125.19 274.103 125.111 274.173 125.021C274.243 124.932 274.339 124.854 274.463 124.787C274.586 124.719 274.75 124.685 274.953 124.685C275.217 124.685 275.453 124.751 275.66 124.885C275.868 125.018 276.03 125.211 276.148 125.462C276.267 125.714 276.327 126.016 276.327 126.37C276.327 126.724 276.268 127.027 276.15 127.28C276.032 127.531 275.87 127.725 275.665 127.862C275.459 127.996 275.223 128.064 274.959 128.064C274.76 128.064 274.598 128.031 274.471 127.964C274.346 127.897 274.248 127.819 274.177 127.729C274.106 127.64 274.052 127.56 274.013 127.491H273.96V128H273.338ZM273.962 126.364C273.962 126.594 273.995 126.795 274.062 126.969C274.129 127.142 274.226 127.278 274.352 127.376C274.478 127.472 274.633 127.521 274.816 127.521C275.007 127.521 275.166 127.47 275.294 127.369C275.422 127.267 275.518 127.129 275.584 126.954C275.65 126.779 275.684 126.582 275.684 126.364C275.684 126.148 275.651 125.954 275.586 125.782C275.522 125.61 275.425 125.474 275.296 125.375C275.168 125.276 275.008 125.226 274.816 125.226C274.632 125.226 274.476 125.273 274.348 125.369C274.221 125.464 274.125 125.597 274.06 125.767C273.995 125.937 273.962 126.136 273.962 126.364ZM277.094 128V123.636H277.731V125.258H277.769C277.806 125.19 277.859 125.111 277.929 125.021C277.998 124.932 278.095 124.854 278.219 124.787C278.342 124.719 278.506 124.685 278.709 124.685C278.973 124.685 279.209 124.751 279.416 124.885C279.623 125.018 279.786 125.211 279.904 125.462C280.023 125.714 280.083 126.016 280.083 126.37C280.083 126.724 280.024 127.027 279.906 127.28C279.788 127.531 279.626 127.725 279.42 127.862C279.214 127.996 278.979 128.064 278.715 128.064C278.516 128.064 278.354 128.031 278.227 127.964C278.102 127.897 278.004 127.819 277.933 127.729C277.862 127.64 277.807 127.56 277.769 127.491H277.716V128H277.094ZM277.718 126.364C277.718 126.594 277.751 126.795 277.818 126.969C277.885 127.142 277.981 127.278 278.108 127.376C278.234 127.472 278.389 127.521 278.572 127.521C278.763 127.521 278.922 127.47 279.05 127.369C279.177 127.267 279.274 127.129 279.339 126.954C279.406 126.779 279.44 126.582 279.44 126.364C279.44 126.148 279.407 125.954 279.342 125.782C279.278 125.61 279.181 125.474 279.052 125.375C278.924 125.276 278.764 125.226 278.572 125.226C278.388 125.226 278.231 125.273 278.104 125.369C277.977 125.464 277.881 125.597 277.816 125.767C277.751 125.937 277.718 126.136 277.718 126.364ZM281.09 129.227C280.995 129.227 280.908 129.219 280.83 129.204C280.752 129.19 280.693 129.174 280.655 129.157L280.809 128.635C280.925 128.666 281.029 128.68 281.12 128.675C281.21 128.671 281.291 128.637 281.36 128.573C281.431 128.509 281.494 128.405 281.548 128.26L281.627 128.043L280.429 124.727H281.111L281.94 127.267H281.974L282.803 124.727H283.487L282.138 128.437C282.076 128.607 281.996 128.751 281.899 128.869C281.803 128.989 281.688 129.078 281.554 129.138C281.421 129.197 281.266 129.227 281.09 129.227Z" fill="white"/>
<rect x="263" y="188" width="38" height="9" rx="2" transform="rotate(180 263 188)" fill="#18181B" fill-opacity="0.8"/>
<rect x="262.75" y="187.75" width="37.5" height="8.5" rx="1.75" transform="rotate(180 262.75 187.75)" stroke="#27272A" stroke-opacity="0.8" stroke-width="0.5"/>
<path d="M227.924 181.636H228.723L230.112 185.028H230.163L231.552 181.636H232.351V186H231.725V182.842H231.684L230.397 185.994H229.878L228.591 182.84H228.55V186H227.924V181.636ZM233.257 186V182.727H233.894V186H233.257ZM233.579 182.222C233.468 182.222 233.373 182.185 233.294 182.112C233.215 182.036 233.176 181.947 233.176 181.843C233.176 181.738 233.215 181.648 233.294 181.575C233.373 181.499 233.468 181.462 233.579 181.462C233.69 181.462 233.784 181.499 233.862 181.575C233.942 181.648 233.982 181.738 233.982 181.843C233.982 181.947 233.942 182.036 233.862 182.112C233.784 182.185 233.69 182.222 233.579 182.222ZM235.977 186.064C235.712 186.064 235.477 185.996 235.269 185.862C235.063 185.725 234.901 185.531 234.783 185.28C234.667 185.027 234.609 184.724 234.609 184.37C234.609 184.016 234.668 183.714 234.786 183.462C234.905 183.211 235.068 183.018 235.276 182.885C235.483 182.751 235.718 182.685 235.981 182.685C236.184 182.685 236.347 182.719 236.471 182.787C236.596 182.854 236.693 182.932 236.761 183.021C236.83 183.111 236.884 183.19 236.923 183.258H236.961V181.636H237.598V186H236.976V185.491H236.923C236.884 185.56 236.829 185.64 236.756 185.729C236.685 185.819 236.587 185.897 236.462 185.964C236.337 186.031 236.176 186.064 235.977 186.064ZM236.117 185.521C236.301 185.521 236.455 185.472 236.582 185.376C236.71 185.278 236.806 185.142 236.872 184.969C236.938 184.795 236.972 184.594 236.972 184.364C236.972 184.136 236.939 183.937 236.874 183.767C236.808 183.597 236.712 183.464 236.586 183.369C236.46 183.273 236.303 183.226 236.117 183.226C235.926 183.226 235.766 183.276 235.638 183.375C235.51 183.474 235.413 183.61 235.348 183.782C235.284 183.954 235.252 184.148 235.252 184.364C235.252 184.582 235.285 184.779 235.35 184.954C235.416 185.129 235.512 185.267 235.64 185.369C235.769 185.47 235.928 185.521 236.117 185.521ZM240.146 186V181.636H241.744C242.054 181.636 242.31 181.687 242.514 181.79C242.717 181.891 242.869 182.028 242.97 182.201C243.07 182.373 243.121 182.567 243.121 182.783C243.121 182.964 243.087 183.118 243.021 183.243C242.954 183.366 242.864 183.466 242.752 183.541C242.641 183.615 242.519 183.669 242.386 183.703V183.746C242.531 183.753 242.672 183.8 242.81 183.886C242.949 183.972 243.064 184.093 243.155 184.251C243.246 184.408 243.291 184.6 243.291 184.826C243.291 185.049 243.239 185.249 243.134 185.427C243.03 185.603 242.869 185.743 242.652 185.847C242.435 185.949 242.157 186 241.819 186H240.146ZM240.805 185.435H241.755C242.07 185.435 242.296 185.374 242.433 185.252C242.569 185.13 242.637 184.977 242.637 184.794C242.637 184.656 242.602 184.53 242.533 184.415C242.463 184.3 242.364 184.208 242.234 184.14C242.107 184.072 241.955 184.038 241.778 184.038H240.805V185.435ZM240.805 183.524H241.687C241.835 183.524 241.967 183.496 242.085 183.439C242.205 183.382 242.299 183.303 242.369 183.2C242.44 183.097 242.475 182.974 242.475 182.834C242.475 182.653 242.412 182.502 242.286 182.38C242.159 182.258 241.965 182.197 241.704 182.197H240.805V183.524ZM245.4 186.066C245.093 186.066 244.825 185.996 244.596 185.855C244.368 185.714 244.19 185.518 244.064 185.265C243.937 185.012 243.874 184.717 243.874 184.379C243.874 184.039 243.937 183.742 244.064 183.488C244.19 183.234 244.368 183.036 244.596 182.896C244.825 182.755 245.093 182.685 245.4 182.685C245.706 182.685 245.974 182.755 246.203 182.896C246.432 183.036 246.609 183.234 246.736 183.488C246.862 183.742 246.925 184.039 246.925 184.379C246.925 184.717 246.862 185.012 246.736 185.265C246.609 185.518 246.432 185.714 246.203 185.855C245.974 185.996 245.706 186.066 245.4 186.066ZM245.402 185.531C245.601 185.531 245.765 185.479 245.896 185.374C246.027 185.268 246.123 185.129 246.186 184.954C246.25 184.779 246.282 184.587 246.282 184.376C246.282 184.168 246.25 183.976 246.186 183.801C246.123 183.625 246.027 183.484 245.896 183.377C245.765 183.271 245.601 183.217 245.402 183.217C245.201 183.217 245.035 183.271 244.903 183.377C244.772 183.484 244.675 183.625 244.611 183.801C244.549 183.976 244.517 184.168 244.517 184.376C244.517 184.587 244.549 184.779 244.611 184.954C244.675 185.129 244.772 185.268 244.903 185.374C245.035 185.479 245.201 185.531 245.402 185.531ZM249.164 182.727V183.239H247.376V182.727H249.164ZM247.856 181.943H248.493V185.039C248.493 185.163 248.511 185.256 248.548 185.318C248.585 185.379 248.633 185.421 248.691 185.444C248.751 185.465 248.815 185.476 248.885 185.476C248.936 185.476 248.981 185.472 249.019 185.465C249.057 185.458 249.087 185.452 249.109 185.448L249.224 185.974C249.187 185.989 249.134 186.003 249.066 186.017C248.998 186.033 248.913 186.041 248.81 186.043C248.643 186.045 248.486 186.016 248.342 185.953C248.197 185.891 248.079 185.794 247.99 185.663C247.9 185.533 247.856 185.369 247.856 185.171V181.943ZM251.396 182.727V183.239H249.609V182.727H251.396ZM250.088 181.943H250.725V185.039C250.725 185.163 250.744 185.256 250.781 185.318C250.818 185.379 250.865 185.421 250.923 185.444C250.983 185.465 251.048 185.476 251.117 185.476C251.168 185.476 251.213 185.472 251.252 185.465C251.29 185.458 251.32 185.452 251.341 185.448L251.456 185.974C251.419 185.989 251.367 186.003 251.298 186.017C251.23 186.033 251.145 186.041 251.043 186.043C250.875 186.045 250.719 186.016 250.574 185.953C250.429 185.891 250.312 185.794 250.222 185.663C250.133 185.533 250.088 185.369 250.088 185.171V181.943ZM253.445 186.066C253.138 186.066 252.87 185.996 252.641 185.855C252.413 185.714 252.235 185.518 252.109 185.265C251.982 185.012 251.919 184.717 251.919 184.379C251.919 184.039 251.982 183.742 252.109 183.488C252.235 183.234 252.413 183.036 252.641 182.896C252.87 182.755 253.138 182.685 253.445 182.685C253.751 182.685 254.019 182.755 254.248 182.896C254.476 183.036 254.654 183.234 254.78 183.488C254.907 183.742 254.97 184.039 254.97 184.379C254.97 184.717 254.907 185.012 254.78 185.265C254.654 185.518 254.476 185.714 254.248 185.855C254.019 185.996 253.751 186.066 253.445 186.066ZM253.447 185.531C253.646 185.531 253.81 185.479 253.941 185.374C254.072 185.268 254.168 185.129 254.231 184.954C254.295 184.779 254.327 184.587 254.327 184.376C254.327 184.168 254.295 183.976 254.231 183.801C254.168 183.625 254.072 183.484 253.941 183.377C253.81 183.271 253.646 183.217 253.447 183.217C253.246 183.217 253.08 183.271 252.948 183.377C252.817 183.484 252.72 183.625 252.656 183.801C252.594 183.976 252.562 184.168 252.562 184.376C252.562 184.587 252.594 184.779 252.656 184.954C252.72 185.129 252.817 185.268 252.948 185.374C253.08 185.479 253.246 185.531 253.447 185.531ZM255.681 186V182.727H256.293V183.26H256.333C256.401 183.08 256.513 182.939 256.668 182.838C256.823 182.736 257.008 182.685 257.224 182.685C257.443 182.685 257.626 182.736 257.774 182.838C257.923 182.94 258.033 183.081 258.104 183.26H258.138C258.216 183.085 258.34 182.946 258.511 182.842C258.681 182.737 258.884 182.685 259.12 182.685C259.417 182.685 259.659 182.778 259.847 182.964C260.036 183.15 260.13 183.43 260.13 183.805V186H259.493V183.865C259.493 183.643 259.433 183.483 259.312 183.384C259.191 183.284 259.047 183.234 258.879 183.234C258.672 183.234 258.511 183.298 258.396 183.426C258.281 183.553 258.223 183.715 258.223 183.914V186H257.588V183.825C257.588 183.647 257.533 183.504 257.422 183.396C257.311 183.288 257.167 183.234 256.989 183.234C256.869 183.234 256.757 183.266 256.655 183.33C256.554 183.393 256.472 183.48 256.41 183.592C256.349 183.705 256.318 183.835 256.318 183.982V186H255.681Z" fill="white"/>
<rect x="347" y="188" width="24" height="9" rx="2" transform="rotate(180 347 188)" fill="#18181B" fill-opacity="0.8"/>
<rect x="346.75" y="187.75" width="23.5" height="8.5" rx="1.75" transform="rotate(180 346.75 187.75)" stroke="#27272A" stroke-opacity="0.8" stroke-width="0.5"/>
<path d="M325.782 186V181.636H327.38C327.69 181.636 327.946 181.687 328.149 181.79C328.352 181.891 328.504 182.028 328.605 182.201C328.706 182.373 328.757 182.567 328.757 182.783C328.757 182.964 328.723 183.118 328.656 183.243C328.59 183.366 328.5 183.466 328.388 183.541C328.277 183.615 328.155 183.669 328.021 183.703V183.746C328.166 183.753 328.308 183.8 328.445 183.886C328.585 183.972 328.7 184.093 328.791 184.251C328.882 184.408 328.927 184.6 328.927 184.826C328.927 185.049 328.874 185.249 328.769 185.427C328.666 185.603 328.505 185.743 328.288 185.847C328.07 185.949 327.793 186 327.455 186H325.782ZM326.441 185.435H327.391C327.706 185.435 327.932 185.374 328.068 185.252C328.205 185.13 328.273 184.977 328.273 184.794C328.273 184.656 328.238 184.53 328.169 184.415C328.099 184.3 327.999 184.208 327.87 184.14C327.742 184.072 327.59 184.038 327.414 184.038H326.441V185.435ZM326.441 183.524H327.323C327.47 183.524 327.603 183.496 327.721 183.439C327.84 183.382 327.935 183.303 328.004 183.2C328.075 183.097 328.111 182.974 328.111 182.834C328.111 182.653 328.048 182.502 327.921 182.38C327.795 182.258 327.601 182.197 327.34 182.197H326.441V183.524ZM331.296 181.636H332.095L333.484 185.028H333.535L334.924 181.636H335.723V186H335.097V182.842H335.056L333.77 185.994H333.25L331.963 182.84H331.922V186H331.296V181.636ZM337.582 186.072C337.374 186.072 337.187 186.034 337.019 185.957C336.852 185.879 336.719 185.766 336.621 185.619C336.524 185.471 336.476 185.29 336.476 185.075C336.476 184.891 336.512 184.739 336.583 184.619C336.654 184.5 336.749 184.406 336.87 184.336C336.991 184.266 337.126 184.214 337.275 184.178C337.424 184.143 337.576 184.116 337.731 184.097C337.927 184.075 338.086 184.056 338.208 184.042C338.33 184.026 338.419 184.001 338.475 183.967C338.53 183.933 338.558 183.878 338.558 183.801V183.786C338.558 183.6 338.505 183.456 338.4 183.354C338.296 183.251 338.142 183.2 337.936 183.2C337.721 183.2 337.552 183.248 337.428 183.343C337.306 183.437 337.222 183.541 337.175 183.656L336.576 183.52C336.647 183.321 336.751 183.161 336.887 183.038C337.025 182.915 337.183 182.825 337.362 182.77C337.541 182.713 337.73 182.685 337.927 182.685C338.058 182.685 338.196 182.7 338.343 182.732C338.49 182.761 338.628 182.817 338.756 182.898C338.885 182.979 338.991 183.094 339.073 183.245C339.156 183.394 339.197 183.588 339.197 183.827V186H338.575V185.553H338.549C338.508 185.635 338.446 185.716 338.364 185.795C338.281 185.875 338.176 185.941 338.046 185.994C337.917 186.046 337.762 186.072 337.582 186.072ZM337.72 185.561C337.896 185.561 338.047 185.526 338.172 185.457C338.298 185.387 338.394 185.296 338.46 185.184C338.526 185.07 338.56 184.949 338.56 184.82V184.398C338.537 184.42 338.493 184.442 338.428 184.462C338.364 184.48 338.291 184.496 338.208 184.511C338.126 184.523 338.046 184.536 337.968 184.547C337.889 184.557 337.824 184.565 337.771 184.572C337.648 184.588 337.535 184.614 337.433 184.651C337.332 184.688 337.251 184.741 337.19 184.811C337.13 184.879 337.1 184.97 337.1 185.084C337.1 185.241 337.159 185.361 337.275 185.442C337.392 185.521 337.54 185.561 337.72 185.561ZM340.045 186V182.727H340.683V186H340.045ZM340.367 182.222C340.256 182.222 340.161 182.185 340.082 182.112C340.004 182.036 339.964 181.947 339.964 181.843C339.964 181.738 340.004 181.648 340.082 181.575C340.161 181.499 340.256 181.462 340.367 181.462C340.478 181.462 340.572 181.499 340.651 181.575C340.73 181.648 340.77 181.738 340.77 181.843C340.77 181.947 340.73 182.036 340.651 182.112C340.572 182.185 340.478 182.222 340.367 182.222ZM342.177 184.057V186H341.54V182.727H342.151V183.26H342.192C342.267 183.087 342.385 182.947 342.545 182.842C342.707 182.737 342.911 182.685 343.157 182.685C343.38 182.685 343.575 182.732 343.743 182.825C343.91 182.918 344.04 183.055 344.133 183.239C344.225 183.422 344.271 183.648 344.271 183.918V186H343.634V183.995C343.634 183.758 343.572 183.572 343.449 183.439C343.325 183.304 343.155 183.237 342.939 183.237C342.792 183.237 342.66 183.268 342.545 183.332C342.432 183.396 342.341 183.49 342.275 183.614C342.209 183.736 342.177 183.884 342.177 184.057Z" fill="white"/>
<rect x="316" y="246" width="30" height="9" rx="2" transform="rotate(180 316 246)" fill="#18181B" fill-opacity="0.8"/>
<rect x="315.75" y="245.75" width="29.5" height="8.5" rx="1.75" transform="rotate(180 315.75 245.75)" stroke="#27272A" stroke-opacity="0.8" stroke-width="0.5"/>
<path d="M288.691 244V239.636H290.289C290.599 239.636 290.855 239.687 291.059 239.79C291.262 239.891 291.414 240.028 291.514 240.201C291.615 240.373 291.666 240.567 291.666 240.783C291.666 240.964 291.632 241.118 291.566 241.243C291.499 241.366 291.409 241.466 291.297 241.541C291.186 241.615 291.064 241.669 290.931 241.703V241.746C291.076 241.753 291.217 241.8 291.355 241.886C291.494 241.972 291.609 242.093 291.7 242.251C291.791 242.408 291.836 242.6 291.836 242.826C291.836 243.049 291.784 243.249 291.679 243.427C291.575 243.603 291.414 243.743 291.197 243.847C290.98 243.949 290.702 244 290.364 244H288.691ZM289.35 243.435H290.3C290.615 243.435 290.841 243.374 290.978 243.252C291.114 243.13 291.182 242.977 291.182 242.794C291.182 242.656 291.147 242.53 291.078 242.415C291.008 242.3 290.909 242.208 290.779 242.14C290.652 242.072 290.5 242.038 290.323 242.038H289.35V243.435ZM289.35 241.524H290.232C290.38 241.524 290.512 241.496 290.63 241.439C290.75 241.382 290.844 241.303 290.914 241.2C290.985 241.097 291.02 240.974 291.02 240.834C291.02 240.653 290.957 240.502 290.831 240.38C290.704 240.258 290.51 240.197 290.249 240.197H289.35V241.524ZM294.205 239.636H295.004L296.393 243.028H296.444L297.834 239.636H298.633V244H298.006V240.842H297.966L296.679 243.994H296.159L294.872 240.84H294.831V244H294.205V239.636ZM300.491 244.072C300.284 244.072 300.096 244.034 299.929 243.957C299.761 243.879 299.628 243.766 299.53 243.619C299.434 243.471 299.385 243.29 299.385 243.075C299.385 242.891 299.421 242.739 299.492 242.619C299.563 242.5 299.659 242.406 299.779 242.336C299.9 242.266 300.035 242.214 300.184 242.178C300.333 242.143 300.485 242.116 300.64 242.097C300.836 242.075 300.995 242.056 301.117 242.042C301.24 242.026 301.328 242.001 301.384 241.967C301.439 241.933 301.467 241.878 301.467 241.801V241.786C301.467 241.6 301.414 241.456 301.309 241.354C301.206 241.251 301.051 241.2 300.845 241.2C300.63 241.2 300.461 241.248 300.338 241.343C300.215 241.437 300.131 241.541 300.084 241.656L299.485 241.52C299.556 241.321 299.66 241.161 299.796 241.038C299.934 240.915 300.093 240.825 300.272 240.77C300.451 240.713 300.639 240.685 300.836 240.685C300.967 240.685 301.105 240.7 301.252 240.732C301.399 240.761 301.537 240.817 301.665 240.898C301.794 240.979 301.9 241.094 301.983 241.245C302.065 241.394 302.106 241.588 302.106 241.827V244H301.484V243.553H301.458C301.417 243.635 301.355 243.716 301.273 243.795C301.191 243.875 301.085 243.941 300.956 243.994C300.826 244.046 300.671 244.072 300.491 244.072ZM300.63 243.561C300.806 243.561 300.956 243.526 301.081 243.457C301.208 243.387 301.304 243.296 301.369 243.184C301.436 243.07 301.469 242.949 301.469 242.82V242.398C301.446 242.42 301.402 242.442 301.337 242.462C301.273 242.48 301.2 242.496 301.117 242.511C301.035 242.523 300.955 242.536 300.877 242.547C300.799 242.557 300.733 242.565 300.681 242.572C300.557 242.588 300.444 242.614 300.342 242.651C300.241 242.688 300.16 242.741 300.099 242.811C300.039 242.879 300.009 242.97 300.009 243.084C300.009 243.241 300.068 243.361 300.184 243.442C300.301 243.521 300.449 243.561 300.63 243.561ZM302.955 244V240.727H303.57V241.247H303.604C303.664 241.071 303.769 240.933 303.92 240.832C304.072 240.729 304.244 240.678 304.435 240.678C304.475 240.678 304.522 240.68 304.576 240.683C304.631 240.685 304.675 240.689 304.706 240.693V241.303C304.68 241.295 304.635 241.288 304.57 241.279C304.504 241.269 304.439 241.264 304.374 241.264C304.223 241.264 304.089 241.296 303.971 241.36C303.854 241.423 303.762 241.51 303.694 241.622C303.626 241.733 303.592 241.859 303.592 242.001V244H302.955ZM305.843 242.89L305.839 242.112H305.95L307.254 240.727H308.017L306.529 242.304H306.429L305.843 242.89ZM305.257 244V239.636H305.894V244H305.257ZM307.324 244L306.152 242.445L306.591 241.999L308.106 244H307.324ZM309.873 244.066C309.551 244.066 309.273 243.997 309.04 243.859C308.808 243.72 308.629 243.525 308.503 243.273C308.378 243.021 308.315 242.724 308.315 242.385C308.315 242.05 308.378 241.754 308.503 241.499C308.629 241.243 308.805 241.043 309.031 240.9C309.259 240.756 309.524 240.685 309.828 240.685C310.013 240.685 310.192 240.715 310.365 240.776C310.538 240.837 310.694 240.933 310.832 241.064C310.97 241.195 311.078 241.364 311.158 241.573C311.237 241.781 311.277 242.033 311.277 242.33V242.555H308.676V242.078H310.653C310.653 241.911 310.619 241.762 310.551 241.633C310.482 241.502 310.386 241.399 310.263 241.324C310.141 241.249 309.997 241.211 309.832 241.211C309.653 241.211 309.497 241.255 309.364 241.343C309.232 241.43 309.129 241.543 309.057 241.684C308.986 241.823 308.95 241.974 308.95 242.138V242.511C308.95 242.729 308.989 242.915 309.065 243.069C309.144 243.222 309.252 243.339 309.391 243.42C309.531 243.5 309.693 243.54 309.879 243.54C310 243.54 310.11 243.523 310.21 243.489C310.309 243.453 310.395 243.401 310.467 243.331C310.54 243.261 310.595 243.175 310.634 243.073L311.237 243.182C311.188 243.359 311.102 243.515 310.977 243.648C310.853 243.781 310.698 243.884 310.51 243.957C310.324 244.03 310.112 244.066 309.873 244.066ZM313.512 240.727V241.239H311.724V240.727H313.512ZM312.203 239.943H312.84V243.039C312.84 243.163 312.859 243.256 312.896 243.318C312.933 243.379 312.98 243.421 313.039 243.444C313.098 243.465 313.163 243.476 313.233 243.476C313.284 243.476 313.328 243.472 313.367 243.465C313.405 243.458 313.435 243.452 313.456 243.448L313.571 243.974C313.534 243.989 313.482 244.003 313.414 244.017C313.345 244.033 313.26 244.041 313.158 244.043C312.99 244.045 312.834 244.016 312.689 243.953C312.544 243.891 312.427 243.794 312.338 243.663C312.248 243.533 312.203 243.369 312.203 243.171V239.943Z" fill="white"/>
<rect x="365" y="341" width="19" height="9" rx="2" transform="rotate(180 365 341)" fill="#18181B" fill-opacity="0.8"/>
<rect x="364.75" y="340.75" width="18.5" height="8.5" rx="1.75" transform="rotate(180 364.75 340.75)" stroke="#27272A" stroke-opacity="0.8" stroke-width="0.5"/>
<path d="M348.623 339V334.636H350.221C350.531 334.636 350.787 334.687 350.99 334.79C351.193 334.891 351.345 335.028 351.446 335.201C351.547 335.373 351.597 335.567 351.597 335.783C351.597 335.964 351.564 336.118 351.497 336.243C351.43 336.366 351.341 336.466 351.229 336.541C351.118 336.615 350.996 336.669 350.862 336.703V336.746C351.007 336.753 351.149 336.8 351.286 336.886C351.426 336.972 351.541 337.093 351.631 337.251C351.722 337.408 351.768 337.6 351.768 337.826C351.768 338.049 351.715 338.249 351.61 338.427C351.506 338.603 351.346 338.743 351.129 338.847C350.911 338.949 350.634 339 350.296 339H348.623ZM349.281 338.435H350.232C350.547 338.435 350.773 338.374 350.909 338.252C351.046 338.13 351.114 337.977 351.114 337.794C351.114 337.656 351.079 337.53 351.009 337.415C350.94 337.3 350.84 337.208 350.711 337.14C350.583 337.072 350.431 337.038 350.255 337.038H349.281V338.435ZM349.281 336.524H350.163C350.311 336.524 350.444 336.496 350.562 336.439C350.681 336.382 350.776 336.303 350.845 336.2C350.916 336.097 350.952 335.974 350.952 335.834C350.952 335.653 350.889 335.502 350.762 335.38C350.636 335.258 350.442 335.197 350.18 335.197H349.281V336.524ZM353.876 339.066C353.569 339.066 353.302 338.996 353.073 338.855C352.844 338.714 352.667 338.518 352.54 338.265C352.414 338.012 352.351 337.717 352.351 337.379C352.351 337.039 352.414 336.742 352.54 336.488C352.667 336.234 352.844 336.036 353.073 335.896C353.302 335.755 353.569 335.685 353.876 335.685C354.183 335.685 354.451 335.755 354.679 335.896C354.908 336.036 355.086 336.234 355.212 336.488C355.339 336.742 355.402 337.039 355.402 337.379C355.402 337.717 355.339 338.012 355.212 338.265C355.086 338.518 354.908 338.714 354.679 338.855C354.451 338.996 354.183 339.066 353.876 339.066ZM353.878 338.531C354.077 338.531 354.242 338.479 354.373 338.374C354.503 338.268 354.6 338.129 354.662 337.954C354.726 337.779 354.758 337.587 354.758 337.376C354.758 337.168 354.726 336.976 354.662 336.801C354.6 336.625 354.503 336.484 354.373 336.377C354.242 336.271 354.077 336.217 353.878 336.217C353.678 336.217 353.512 336.271 353.38 336.377C353.249 336.484 353.152 336.625 353.088 336.801C353.025 336.976 352.994 337.168 352.994 337.376C352.994 337.587 353.025 337.779 353.088 337.954C353.152 338.129 353.249 338.268 353.38 338.374C353.512 338.479 353.678 338.531 353.878 338.531ZM356.164 339V334.636H356.801V336.258H356.839C356.876 336.19 356.93 336.111 356.999 336.021C357.069 335.932 357.165 335.854 357.289 335.787C357.413 335.719 357.576 335.685 357.779 335.685C358.043 335.685 358.279 335.751 358.486 335.885C358.694 336.018 358.856 336.211 358.974 336.462C359.094 336.714 359.153 337.016 359.153 337.37C359.153 337.724 359.094 338.027 358.976 338.28C358.859 338.531 358.697 338.725 358.491 338.862C358.285 338.996 358.05 339.064 357.785 339.064C357.587 339.064 357.424 339.031 357.297 338.964C357.172 338.897 357.074 338.819 357.003 338.729C356.932 338.64 356.878 338.56 356.839 338.491H356.786V339H356.164ZM356.788 337.364C356.788 337.594 356.822 337.795 356.888 337.969C356.955 338.142 357.052 338.278 357.178 338.376C357.305 338.472 357.459 338.521 357.643 338.521C357.833 338.521 357.992 338.47 358.12 338.369C358.248 338.267 358.344 338.129 358.41 337.954C358.476 337.779 358.51 337.582 358.51 337.364C358.51 337.148 358.477 336.954 358.412 336.782C358.348 336.61 358.251 336.474 358.122 336.375C357.994 336.276 357.834 336.226 357.643 336.226C357.458 336.226 357.302 336.273 357.174 336.369C357.047 336.464 356.952 336.597 356.886 336.767C356.821 336.937 356.788 337.136 356.788 337.364ZM360.821 339.072C360.614 339.072 360.426 339.034 360.259 338.957C360.091 338.879 359.958 338.766 359.86 338.619C359.764 338.471 359.715 338.29 359.715 338.075C359.715 337.891 359.751 337.739 359.822 337.619C359.893 337.5 359.989 337.406 360.109 337.336C360.23 337.266 360.365 337.214 360.514 337.178C360.663 337.143 360.815 337.116 360.97 337.097C361.166 337.075 361.325 337.056 361.448 337.042C361.57 337.026 361.658 337.001 361.714 336.967C361.769 336.933 361.797 336.878 361.797 336.801V336.786C361.797 336.6 361.744 336.456 361.639 336.354C361.536 336.251 361.381 336.2 361.175 336.2C360.96 336.2 360.791 336.248 360.668 336.343C360.546 336.437 360.461 336.541 360.414 336.656L359.815 336.52C359.886 336.321 359.99 336.161 360.127 336.038C360.264 335.915 360.423 335.825 360.602 335.77C360.781 335.713 360.969 335.685 361.166 335.685C361.297 335.685 361.435 335.7 361.582 335.732C361.729 335.761 361.867 335.817 361.995 335.898C362.124 335.979 362.23 336.094 362.313 336.245C362.395 336.394 362.436 336.588 362.436 336.827V339H361.814V338.553H361.788C361.747 338.635 361.685 338.716 361.603 338.795C361.521 338.875 361.415 338.941 361.286 338.994C361.156 339.046 361.002 339.072 360.821 339.072ZM360.96 338.561C361.136 338.561 361.286 338.526 361.411 338.457C361.538 338.387 361.634 338.296 361.699 338.184C361.766 338.07 361.799 337.949 361.799 337.82V337.398C361.776 337.42 361.732 337.442 361.667 337.462C361.603 337.48 361.53 337.496 361.448 337.511C361.365 337.523 361.285 337.536 361.207 337.547C361.129 337.557 361.063 337.565 361.011 337.572C360.887 337.588 360.774 337.614 360.672 337.651C360.571 337.688 360.49 337.741 360.429 337.811C360.369 337.879 360.34 337.97 360.34 338.084C360.34 338.241 360.398 338.361 360.514 338.442C360.631 338.521 360.779 338.561 360.96 338.561Z" fill="white"/>
<rect x="240" y="252" width="33" height="9" rx="2" transform="rotate(180 240 252)" fill="#18181B" fill-opacity="0.8"/>
<rect x="239.75" y="251.75" width="32.5" height="8.5" rx="1.75" transform="rotate(180 239.75 251.75)" stroke="#27272A" stroke-opacity="0.8" stroke-width="0.5"/>
<path d="M213.111 247.055H212.446C212.42 246.913 212.373 246.788 212.303 246.68C212.233 246.572 212.148 246.481 212.047 246.406C211.946 246.33 211.834 246.273 211.709 246.235C211.585 246.197 211.454 246.178 211.314 246.178C211.063 246.178 210.838 246.241 210.639 246.367C210.441 246.494 210.285 246.679 210.17 246.923C210.057 247.168 210 247.466 210 247.818C210 248.173 210.057 248.473 210.17 248.717C210.285 248.962 210.442 249.146 210.641 249.271C210.84 249.396 211.064 249.459 211.312 249.459C211.45 249.459 211.581 249.44 211.704 249.403C211.829 249.365 211.942 249.309 212.043 249.235C212.144 249.161 212.229 249.071 212.299 248.964C212.37 248.857 212.419 248.733 212.446 248.594L213.111 248.596C213.075 248.81 213.006 249.008 212.904 249.188C212.803 249.367 212.673 249.522 212.514 249.653C212.356 249.782 212.176 249.882 211.973 249.953C211.77 250.024 211.548 250.06 211.308 250.06C210.93 250.06 210.593 249.97 210.298 249.791C210.003 249.611 209.77 249.353 209.599 249.018C209.43 248.683 209.346 248.283 209.346 247.818C209.346 247.352 209.431 246.952 209.601 246.619C209.772 246.283 210.005 246.026 210.3 245.847C210.596 245.667 210.932 245.577 211.308 245.577C211.54 245.577 211.755 245.61 211.956 245.677C212.157 245.742 212.339 245.839 212.499 245.967C212.66 246.093 212.792 246.248 212.897 246.431C213.003 246.613 213.074 246.821 213.111 247.055ZM215.226 250.066C214.919 250.066 214.651 249.996 214.422 249.855C214.194 249.714 214.016 249.518 213.89 249.265C213.763 249.012 213.7 248.717 213.7 248.379C213.7 248.039 213.763 247.742 213.89 247.488C214.016 247.234 214.194 247.036 214.422 246.896C214.651 246.755 214.919 246.685 215.226 246.685C215.533 246.685 215.8 246.755 216.029 246.896C216.258 247.036 216.435 247.234 216.562 247.488C216.688 247.742 216.751 248.039 216.751 248.379C216.751 248.717 216.688 249.012 216.562 249.265C216.435 249.518 216.258 249.714 216.029 249.855C215.8 249.996 215.533 250.066 215.226 250.066ZM215.228 249.531C215.427 249.531 215.592 249.479 215.722 249.374C215.853 249.268 215.949 249.129 216.012 248.954C216.076 248.779 216.108 248.587 216.108 248.376C216.108 248.168 216.076 247.976 216.012 247.801C215.949 247.625 215.853 247.484 215.722 247.377C215.592 247.271 215.427 247.217 215.228 247.217C215.028 247.217 214.861 247.271 214.729 247.377C214.599 247.484 214.501 247.625 214.437 247.801C214.375 247.976 214.344 248.168 214.344 248.376C214.344 248.587 214.375 248.779 214.437 248.954C214.501 249.129 214.599 249.268 214.729 249.374C214.861 249.479 215.028 249.531 215.228 249.531ZM219.536 248.643V246.727H220.175V250H219.548V249.433H219.514C219.439 249.608 219.318 249.754 219.152 249.87C218.987 249.985 218.782 250.043 218.536 250.043C218.326 250.043 218.14 249.996 217.978 249.904C217.818 249.81 217.691 249.672 217.599 249.489C217.508 249.305 217.462 249.079 217.462 248.809V246.727H218.1V248.732C218.1 248.955 218.161 249.133 218.285 249.265C218.408 249.397 218.569 249.463 218.766 249.463C218.886 249.463 219.004 249.433 219.122 249.374C219.242 249.314 219.34 249.224 219.418 249.103C219.498 248.982 219.537 248.829 219.536 248.643ZM221.031 250V246.727H221.647V247.247H221.681C221.74 247.071 221.845 246.933 221.996 246.832C222.148 246.729 222.32 246.678 222.512 246.678C222.551 246.678 222.598 246.68 222.652 246.683C222.708 246.685 222.751 246.689 222.782 246.693V247.303C222.757 247.295 222.711 247.288 222.646 247.279C222.581 247.269 222.515 247.264 222.45 247.264C222.299 247.264 222.165 247.296 222.047 247.36C221.931 247.423 221.838 247.51 221.77 247.622C221.702 247.733 221.668 247.859 221.668 248.001V250H221.031ZM225.055 246.727V247.239H223.267V246.727H225.055ZM223.746 245.943H224.383V249.039C224.383 249.163 224.402 249.256 224.439 249.318C224.476 249.379 224.523 249.421 224.582 249.444C224.641 249.465 224.706 249.476 224.775 249.476C224.827 249.476 224.871 249.472 224.91 249.465C224.948 249.458 224.978 249.452 224.999 249.448L225.114 249.974C225.077 249.989 225.025 250.003 224.957 250.017C224.888 250.033 224.803 250.041 224.701 250.043C224.533 250.045 224.377 250.016 224.232 249.953C224.087 249.891 223.97 249.794 223.881 249.663C223.791 249.533 223.746 249.369 223.746 249.171V245.943ZM226.162 251.227C226.067 251.227 225.98 251.219 225.902 251.204C225.824 251.19 225.766 251.174 225.727 251.157L225.881 250.635C225.997 250.666 226.101 250.68 226.192 250.675C226.283 250.671 226.363 250.637 226.433 250.573C226.504 250.509 226.566 250.405 226.62 250.26L226.699 250.043L225.502 246.727H226.183L227.012 249.267H227.046L227.875 246.727H228.559L227.21 250.437C227.148 250.607 227.068 250.751 226.972 250.869C226.875 250.989 226.76 251.078 226.627 251.138C226.493 251.197 226.338 251.227 226.162 251.227ZM230.016 250.072C229.809 250.072 229.622 250.034 229.454 249.957C229.286 249.879 229.153 249.766 229.055 249.619C228.959 249.471 228.911 249.29 228.911 249.075C228.911 248.891 228.946 248.739 229.017 248.619C229.088 248.5 229.184 248.406 229.305 248.336C229.426 248.266 229.56 248.214 229.71 248.178C229.859 248.143 230.011 248.116 230.166 248.097C230.362 248.075 230.521 248.056 230.643 248.042C230.765 248.026 230.854 248.001 230.909 247.967C230.965 247.933 230.992 247.878 230.992 247.801V247.786C230.992 247.6 230.94 247.456 230.835 247.354C230.731 247.251 230.576 247.2 230.37 247.2C230.156 247.2 229.987 247.248 229.863 247.343C229.741 247.437 229.656 247.541 229.609 247.656L229.011 247.52C229.082 247.321 229.185 247.161 229.322 247.038C229.46 246.915 229.618 246.825 229.797 246.77C229.976 246.713 230.164 246.685 230.362 246.685C230.492 246.685 230.631 246.7 230.777 246.732C230.925 246.761 231.063 246.817 231.19 246.898C231.32 246.979 231.426 247.094 231.508 247.245C231.59 247.394 231.631 247.588 231.631 247.827V250H231.009V249.553H230.984C230.943 249.635 230.881 249.716 230.798 249.795C230.716 249.875 230.61 249.941 230.481 249.994C230.352 250.046 230.197 250.072 230.016 250.072ZM230.155 249.561C230.331 249.561 230.482 249.526 230.607 249.457C230.733 249.387 230.829 249.296 230.894 249.184C230.961 249.07 230.994 248.949 230.994 248.82V248.398C230.972 248.42 230.928 248.442 230.862 248.462C230.798 248.48 230.725 248.496 230.643 248.511C230.56 248.523 230.48 248.536 230.402 248.547C230.324 248.557 230.259 248.565 230.206 248.572C230.082 248.588 229.97 248.614 229.867 248.651C229.766 248.688 229.685 248.741 229.624 248.811C229.565 248.879 229.535 248.97 229.535 249.084C229.535 249.241 229.593 249.361 229.71 249.442C229.826 249.521 229.975 249.561 230.155 249.561ZM232.48 250V246.727H233.096V247.247H233.13C233.19 247.071 233.295 246.933 233.445 246.832C233.597 246.729 233.769 246.678 233.961 246.678C234.001 246.678 234.047 246.68 234.101 246.683C234.157 246.685 234.2 246.689 234.231 246.693V247.303C234.206 247.295 234.16 247.288 234.095 247.279C234.03 247.269 233.964 247.264 233.899 247.264C233.748 247.264 233.614 247.296 233.496 247.36C233.38 247.423 233.288 247.51 233.219 247.622C233.151 247.733 233.117 247.859 233.117 248.001V250H232.48ZM235.891 250.064C235.627 250.064 235.391 249.996 235.183 249.862C234.977 249.725 234.815 249.531 234.698 249.28C234.581 249.027 234.523 248.724 234.523 248.37C234.523 248.016 234.582 247.714 234.7 247.462C234.819 247.211 234.982 247.018 235.19 246.885C235.397 246.751 235.632 246.685 235.895 246.685C236.098 246.685 236.261 246.719 236.385 246.787C236.51 246.854 236.607 246.932 236.675 247.021C236.744 247.111 236.798 247.19 236.837 247.258H236.875V245.636H237.512V250H236.89V249.491H236.837C236.798 249.56 236.743 249.64 236.671 249.729C236.6 249.819 236.502 249.897 236.377 249.964C236.252 250.031 236.09 250.064 235.891 250.064ZM236.031 249.521C236.215 249.521 236.369 249.472 236.496 249.376C236.624 249.278 236.72 249.142 236.786 248.969C236.852 248.795 236.886 248.594 236.886 248.364C236.886 248.136 236.853 247.937 236.788 247.767C236.722 247.597 236.627 247.464 236.5 247.369C236.374 247.273 236.217 247.226 236.031 247.226C235.84 247.226 235.68 247.276 235.552 247.375C235.424 247.474 235.328 247.61 235.262 247.782C235.198 247.954 235.166 248.148 235.166 248.364C235.166 248.582 235.199 248.779 235.264 248.954C235.33 249.129 235.426 249.267 235.554 249.369C235.683 249.47 235.842 249.521 236.031 249.521Z" fill="white"/>
<rect x="191" y="216" width="30" height="9" rx="2" transform="rotate(180 191 216)" fill="#18181B" fill-opacity="0.8"/>
<rect x="190.75" y="215.75" width="29.5" height="8.5" rx="1.75" transform="rotate(180 190.75 215.75)" stroke="#27272A" stroke-opacity="0.8" stroke-width="0.5"/>
<path d="M163.551 209.636H164.35L165.739 213.028H165.79L167.179 209.636H167.978V214H167.352V210.842H167.311L166.024 213.994H165.505L164.218 210.84H164.177V214H163.551V209.636ZM168.884 214V210.727H169.521V214H168.884ZM169.206 210.222C169.095 210.222 169 210.185 168.921 210.112C168.842 210.036 168.803 209.947 168.803 209.843C168.803 209.738 168.842 209.648 168.921 209.575C169 209.499 169.095 209.462 169.206 209.462C169.317 209.462 169.411 209.499 169.489 209.575C169.569 209.648 169.609 209.738 169.609 209.843C169.609 209.947 169.569 210.036 169.489 210.112C169.411 210.185 169.317 210.222 169.206 210.222ZM171.604 214.064C171.339 214.064 171.104 213.996 170.896 213.862C170.69 213.725 170.528 213.531 170.41 213.28C170.294 213.027 170.236 212.724 170.236 212.37C170.236 212.016 170.295 211.714 170.413 211.462C170.532 211.211 170.695 211.018 170.903 210.885C171.11 210.751 171.345 210.685 171.608 210.685C171.811 210.685 171.974 210.719 172.098 210.787C172.223 210.854 172.32 210.932 172.388 211.021C172.457 211.111 172.511 211.19 172.55 211.258H172.588V209.636H173.225V214H172.603V213.491H172.55C172.511 213.56 172.456 213.64 172.383 213.729C172.312 213.819 172.214 213.897 172.089 213.964C171.964 214.031 171.802 214.064 171.604 214.064ZM171.744 213.521C171.927 213.521 172.082 213.472 172.209 213.376C172.337 213.278 172.433 213.142 172.498 212.969C172.565 212.795 172.599 212.594 172.599 212.364C172.599 212.136 172.566 211.937 172.501 211.767C172.435 211.597 172.339 211.464 172.213 211.369C172.087 211.273 171.93 211.226 171.744 211.226C171.552 211.226 171.393 211.276 171.265 211.375C171.137 211.474 171.04 211.61 170.975 211.782C170.911 211.954 170.879 212.148 170.879 212.364C170.879 212.582 170.912 212.779 170.977 212.954C171.043 213.129 171.139 213.267 171.267 213.369C171.396 213.47 171.555 213.521 171.744 213.521ZM175.558 210.203V209.636H178.935V210.203H177.574V214H176.918V210.203H175.558ZM179.63 214V210.727H180.267V214H179.63ZM179.952 210.222C179.841 210.222 179.746 210.185 179.667 210.112C179.589 210.036 179.549 209.947 179.549 209.843C179.549 209.738 179.589 209.648 179.667 209.575C179.746 209.499 179.841 209.462 179.952 209.462C180.063 209.462 180.157 209.499 180.236 209.575C180.315 209.648 180.355 209.738 180.355 209.843C180.355 209.947 180.315 210.036 180.236 210.112C180.157 210.185 180.063 210.222 179.952 210.222ZM181.762 209.636V214H181.125V209.636H181.762ZM184.029 214.066C183.707 214.066 183.429 213.997 183.196 213.859C182.965 213.72 182.786 213.525 182.659 213.273C182.534 213.021 182.472 212.724 182.472 212.385C182.472 212.05 182.534 211.754 182.659 211.499C182.786 211.243 182.962 211.043 183.188 210.9C183.415 210.756 183.68 210.685 183.984 210.685C184.169 210.685 184.348 210.715 184.521 210.776C184.695 210.837 184.85 210.933 184.988 211.064C185.126 211.195 185.234 211.364 185.314 211.573C185.394 211.781 185.433 212.033 185.433 212.33V212.555H182.832V212.078H184.809C184.809 211.911 184.775 211.762 184.707 211.633C184.639 211.502 184.543 211.399 184.419 211.324C184.297 211.249 184.153 211.211 183.989 211.211C183.81 211.211 183.653 211.255 183.52 211.343C183.388 211.43 183.286 211.543 183.213 211.684C183.142 211.823 183.107 211.974 183.107 212.138V212.511C183.107 212.729 183.145 212.915 183.222 213.069C183.3 213.222 183.408 213.339 183.548 213.42C183.687 213.5 183.85 213.54 184.036 213.54C184.156 213.54 184.266 213.523 184.366 213.489C184.465 213.453 184.551 213.401 184.624 213.331C184.696 213.261 184.752 213.175 184.79 213.073L185.393 213.182C185.345 213.359 185.258 213.515 185.133 213.648C185.009 213.781 184.854 213.884 184.666 213.957C184.48 214.03 184.268 214.066 184.029 214.066ZM188.593 211.526L188.015 211.629C187.991 211.555 187.953 211.484 187.9 211.418C187.849 211.351 187.779 211.296 187.691 211.254C187.603 211.211 187.493 211.19 187.361 211.19C187.181 211.19 187.03 211.23 186.909 211.311C186.789 211.391 186.728 211.494 186.728 211.62C186.728 211.729 186.769 211.817 186.85 211.884C186.931 211.951 187.061 212.006 187.242 212.048L187.762 212.168C188.063 212.237 188.287 212.344 188.435 212.489C188.583 212.634 188.657 212.822 188.657 213.054C188.657 213.25 188.6 213.425 188.486 213.578C188.374 213.73 188.217 213.849 188.015 213.936C187.815 214.023 187.583 214.066 187.318 214.066C186.952 214.066 186.653 213.988 186.421 213.832C186.19 213.674 186.048 213.45 185.995 213.161L186.611 213.067C186.649 213.227 186.728 213.349 186.848 213.431C186.967 213.512 187.122 213.553 187.314 213.553C187.523 213.553 187.69 213.509 187.815 213.423C187.94 213.335 188.002 213.227 188.002 213.101C188.002 212.999 187.964 212.913 187.887 212.843C187.812 212.773 187.696 212.721 187.54 212.685L186.986 212.564C186.681 212.494 186.455 212.384 186.309 212.232C186.164 212.08 186.091 211.887 186.091 211.654C186.091 211.461 186.145 211.292 186.253 211.147C186.361 211.002 186.51 210.889 186.701 210.808C186.891 210.726 187.109 210.685 187.355 210.685C187.708 210.685 187.987 210.761 188.19 210.915C188.393 211.067 188.527 211.271 188.593 211.526Z" fill="white"/>
<rect x="228" y="318" width="27" height="9" rx="2" transform="rotate(180 228 318)" fill="#18181B" fill-opacity="0.8"/>
<rect x="227.75" y="317.75" width="26.5" height="8.5" rx="1.75" transform="rotate(180 227.75 317.75)" stroke="#27272A" stroke-opacity="0.8" stroke-width="0.5"/>
<path d="M203.492 311.636H204.291L205.68 315.028H205.731L207.121 311.636H207.92V316H207.293V312.842H207.253L205.966 315.994H205.446L204.159 312.84H204.119V316H203.492V311.636ZM208.826 316V312.727H209.463V316H208.826ZM209.147 312.222C209.037 312.222 208.941 312.185 208.862 312.112C208.784 312.036 208.745 311.947 208.745 311.843C208.745 311.738 208.784 311.648 208.862 311.575C208.941 311.499 209.037 311.462 209.147 311.462C209.258 311.462 209.353 311.499 209.431 311.575C209.51 311.648 209.55 311.738 209.55 311.843C209.55 311.947 209.51 312.036 209.431 312.112C209.353 312.185 209.258 312.222 209.147 312.222ZM211.545 316.064C211.281 316.064 211.045 315.996 210.838 315.862C210.632 315.725 210.47 315.531 210.352 315.28C210.235 315.027 210.177 314.724 210.177 314.37C210.177 314.016 210.236 313.714 210.354 313.462C210.473 313.211 210.637 313.018 210.844 312.885C211.051 312.751 211.286 312.685 211.549 312.685C211.752 312.685 211.916 312.719 212.039 312.787C212.164 312.854 212.261 312.932 212.329 313.021C212.399 313.111 212.453 313.19 212.491 313.258H212.529V311.636H213.166V316H212.544V315.491H212.491C212.453 315.56 212.397 315.64 212.325 315.729C212.254 315.819 212.156 315.897 212.031 315.964C211.906 316.031 211.744 316.064 211.545 316.064ZM211.686 315.521C211.869 315.521 212.024 315.472 212.15 315.376C212.278 315.278 212.375 315.142 212.44 314.969C212.507 314.795 212.54 314.594 212.54 314.364C212.54 314.136 212.507 313.937 212.442 313.767C212.377 313.597 212.281 313.464 212.154 313.369C212.028 313.273 211.872 313.226 211.686 313.226C211.494 313.226 211.334 313.276 211.206 313.375C211.078 313.474 210.982 313.61 210.916 313.782C210.853 313.954 210.821 314.148 210.821 314.364C210.821 314.582 210.853 314.779 210.919 314.954C210.984 315.129 211.081 315.267 211.208 315.369C211.338 315.47 211.497 315.521 211.686 315.521ZM215.5 312.203V311.636H218.877V312.203H217.515V316H216.859V312.203H215.5ZM220.476 316.066C220.169 316.066 219.901 315.996 219.672 315.855C219.444 315.714 219.266 315.518 219.14 315.265C219.013 315.012 218.95 314.717 218.95 314.379C218.95 314.039 219.013 313.742 219.14 313.488C219.266 313.234 219.444 313.036 219.672 312.896C219.901 312.755 220.169 312.685 220.476 312.685C220.783 312.685 221.05 312.755 221.279 312.896C221.508 313.036 221.685 313.234 221.812 313.488C221.938 313.742 222.001 314.039 222.001 314.379C222.001 314.717 221.938 315.012 221.812 315.265C221.685 315.518 221.508 315.714 221.279 315.855C221.05 315.996 220.783 316.066 220.476 316.066ZM220.478 315.531C220.677 315.531 220.842 315.479 220.972 315.374C221.103 315.268 221.199 315.129 221.262 314.954C221.326 314.779 221.358 314.587 221.358 314.376C221.358 314.168 221.326 313.976 221.262 313.801C221.199 313.625 221.103 313.484 220.972 313.377C220.842 313.271 220.677 313.217 220.478 313.217C220.278 313.217 220.111 313.271 219.979 313.377C219.849 313.484 219.751 313.625 219.687 313.801C219.625 313.976 219.594 314.168 219.594 314.376C219.594 314.587 219.625 314.779 219.687 314.954C219.751 315.129 219.849 315.268 219.979 315.374C220.111 315.479 220.278 315.531 220.478 315.531ZM222.712 317.227V312.727H223.335V313.258H223.388C223.425 313.19 223.478 313.111 223.548 313.021C223.617 312.932 223.714 312.854 223.837 312.787C223.961 312.719 224.124 312.685 224.328 312.685C224.592 312.685 224.828 312.751 225.035 312.885C225.242 313.018 225.405 313.211 225.523 313.462C225.642 313.714 225.702 314.016 225.702 314.37C225.702 314.724 225.643 315.027 225.525 315.28C225.407 315.531 225.245 315.725 225.039 315.862C224.833 315.996 224.598 316.064 224.334 316.064C224.135 316.064 223.972 316.031 223.846 315.964C223.721 315.897 223.623 315.819 223.552 315.729C223.481 315.64 223.426 315.56 223.388 315.491H223.35V317.227H222.712ZM223.337 314.364C223.337 314.594 223.37 314.795 223.437 314.969C223.504 315.142 223.6 315.278 223.727 315.376C223.853 315.472 224.008 315.521 224.191 315.521C224.381 315.521 224.541 315.47 224.668 315.369C224.796 315.267 224.893 315.129 224.958 314.954C225.025 314.779 225.058 314.582 225.058 314.364C225.058 314.148 225.026 313.954 224.96 313.782C224.896 313.61 224.8 313.474 224.671 313.375C224.543 313.276 224.383 313.226 224.191 313.226C224.006 313.226 223.85 313.273 223.722 313.369C223.596 313.464 223.5 313.597 223.435 313.767C223.369 313.937 223.337 314.136 223.337 314.364Z" fill="white"/>
<rect x="106" y="183" width="28" height="9" rx="2" transform="rotate(180 106 183)" fill="#18181B" fill-opacity="0.8"/>
<rect x="105.75" y="182.75" width="27.5" height="8.5" rx="1.75" transform="rotate(180 105.75 182.75)" stroke="#27272A" stroke-opacity="0.8" stroke-width="0.5"/>
<path d="M81.0531 181H80.3542L81.9245 176.636H82.6852L84.2555 181H83.5566L82.323 177.429H82.2889L81.0531 181ZM81.1703 179.291H83.4373V179.845H81.1703V179.291ZM86.4735 181V176.636H87.1319V180.433H89.1092V181H86.4735ZM91.1877 181.066C90.8809 181.066 90.6131 180.996 90.3844 180.855C90.1557 180.714 89.9782 180.518 89.8517 180.265C89.7253 180.012 89.6621 179.717 89.6621 179.379C89.6621 179.039 89.7253 178.742 89.8517 178.488C89.9782 178.234 90.1557 178.036 90.3844 177.896C90.6131 177.755 90.8809 177.685 91.1877 177.685C91.4945 177.685 91.7623 177.755 91.9909 177.896C92.2196 178.036 92.3972 178.234 92.5236 178.488C92.65 178.742 92.7132 179.039 92.7132 179.379C92.7132 179.717 92.65 180.012 92.5236 180.265C92.3972 180.518 92.2196 180.714 91.9909 180.855C91.7623 180.996 91.4945 181.066 91.1877 181.066ZM91.1898 180.531C91.3887 180.531 91.5534 180.479 91.6841 180.374C91.8148 180.268 91.9114 180.129 91.9739 179.954C92.0378 179.779 92.0698 179.587 92.0698 179.376C92.0698 179.168 92.0378 178.976 91.9739 178.801C91.9114 178.625 91.8148 178.484 91.6841 178.377C91.5534 178.271 91.3887 178.217 91.1898 178.217C90.9895 178.217 90.8233 178.271 90.6912 178.377C90.5605 178.484 90.4632 178.625 90.3993 178.801C90.3368 178.976 90.3056 179.168 90.3056 179.376C90.3056 179.587 90.3368 179.779 90.3993 179.954C90.4632 180.129 90.5605 180.268 90.6912 180.374C90.8233 180.479 90.9895 180.531 91.1898 180.531ZM93.4755 181V176.636H94.1126V178.258H94.1509C94.1879 178.19 94.2411 178.111 94.3107 178.021C94.3803 177.932 94.4769 177.854 94.6005 177.787C94.7241 177.719 94.8874 177.685 95.0906 177.685C95.3548 177.685 95.5906 177.751 95.7979 177.885C96.0053 178.018 96.168 178.211 96.2859 178.462C96.4052 178.714 96.4648 179.016 96.4648 179.37C96.4648 179.724 96.4059 180.027 96.288 180.28C96.1701 180.531 96.0082 180.725 95.8022 180.862C95.5962 180.996 95.3612 181.064 95.0969 181.064C94.8981 181.064 94.7354 181.031 94.609 180.964C94.484 180.897 94.386 180.819 94.315 180.729C94.244 180.64 94.1893 180.56 94.1509 180.491H94.0977V181H93.4755ZM94.0998 179.364C94.0998 179.594 94.1332 179.795 94.1999 179.969C94.2667 180.142 94.3633 180.278 94.4897 180.376C94.6161 180.472 94.771 180.521 94.9542 180.521C95.1445 180.521 95.3036 180.47 95.4315 180.369C95.5593 180.267 95.6559 180.129 95.7212 179.954C95.788 179.779 95.8214 179.582 95.8214 179.364C95.8214 179.148 95.7887 178.954 95.7234 178.782C95.6594 178.61 95.5629 178.474 95.4336 178.375C95.3058 178.276 95.146 178.226 94.9542 178.226C94.7695 178.226 94.6133 178.273 94.4854 178.369C94.359 178.464 94.2631 178.597 94.1978 178.767C94.1325 178.937 94.0998 179.136 94.0998 179.364ZM97.2314 181V176.636H97.8684V178.258H97.9068C97.9437 178.19 97.997 178.111 98.0666 178.021C98.1362 177.932 98.2328 177.854 98.3564 177.787C98.4799 177.719 98.6433 177.685 98.8464 177.685C99.1106 177.685 99.3464 177.751 99.5538 177.885C99.7612 178.018 99.9238 178.211 100.042 178.462C100.161 178.714 100.221 179.016 100.221 179.37C100.221 179.724 100.162 180.027 100.044 180.28C99.926 180.531 99.764 180.725 99.5581 180.862C99.3521 180.996 99.117 181.064 98.8528 181.064C98.6539 181.064 98.4913 181.031 98.3649 180.964C98.2399 180.897 98.1419 180.819 98.0708 180.729C97.9998 180.64 97.9451 180.56 97.9068 180.491H97.8535V181H97.2314ZM97.8556 179.364C97.8556 179.594 97.889 179.795 97.9558 179.969C98.0225 180.142 98.1191 180.278 98.2456 180.376C98.372 180.472 98.5268 180.521 98.71 180.521C98.9004 180.521 99.0595 180.47 99.1873 180.369C99.3152 180.267 99.4118 180.129 99.4771 179.954C99.5439 179.779 99.5772 179.582 99.5772 179.364C99.5772 179.148 99.5446 178.954 99.4792 178.782C99.4153 178.61 99.3187 178.474 99.1895 178.375C99.0616 178.276 98.9018 178.226 98.71 178.226C98.5254 178.226 98.3691 178.273 98.2413 178.369C98.1149 178.464 98.019 178.597 97.9537 178.767C97.8883 178.937 97.8556 179.136 97.8556 179.364ZM101.227 182.227C101.132 182.227 101.046 182.219 100.968 182.204C100.889 182.19 100.831 182.174 100.793 182.157L100.946 181.635C101.063 181.666 101.166 181.68 101.257 181.675C101.348 181.671 101.428 181.637 101.498 181.573C101.569 181.509 101.632 181.405 101.686 181.26L101.764 181.043L100.567 177.727H101.249L102.078 180.267H102.112L102.941 177.727H103.624L102.276 181.437C102.213 181.607 102.134 181.751 102.037 181.869C101.941 181.989 101.825 182.078 101.692 182.138C101.558 182.197 101.404 182.227 101.227 182.227Z" fill="white"/>
<rect x="106" y="240" width="24" height="9" rx="2" transform="rotate(180 106 240)" fill="#18181B" fill-opacity="0.8"/>
<rect x="105.75" y="239.75" width="23.5" height="8.5" rx="1.75" transform="rotate(180 105.75 239.75)" stroke="#27272A" stroke-opacity="0.8" stroke-width="0.5"/>
<path d="M85.0131 238H84.3142L85.8845 233.636H86.6452L88.2155 238H87.5166L86.2829 234.429H86.2488L85.0131 238ZM85.1302 236.291H87.3973V236.845H85.1302V236.291ZM90.4335 233.636H91.2325L92.6217 237.028H92.6729L94.0621 233.636H94.8611V238H94.2346V234.842H94.1942L92.9072 237.994H92.3873L91.1004 234.84H91.0599V238H90.4335V233.636ZM96.7195 238.072C96.5122 238.072 96.3247 238.034 96.157 237.957C95.9894 237.879 95.8566 237.766 95.7586 237.619C95.662 237.471 95.6137 237.29 95.6137 237.075C95.6137 236.891 95.6492 236.739 95.7203 236.619C95.7913 236.5 95.8872 236.406 96.0079 236.336C96.1286 236.266 96.2636 236.214 96.4127 236.178C96.5619 236.143 96.7139 236.116 96.8687 236.097C97.0647 236.075 97.2238 236.056 97.346 236.042C97.4681 236.026 97.5569 236.001 97.6123 235.967C97.6677 235.933 97.6954 235.878 97.6954 235.801V235.786C97.6954 235.6 97.6428 235.456 97.5377 235.354C97.434 235.251 97.2792 235.2 97.0732 235.2C96.8588 235.2 96.6897 235.248 96.5661 235.343C96.444 235.437 96.3595 235.541 96.3126 235.656L95.7139 235.52C95.7849 235.321 95.8886 235.161 96.0249 235.038C96.1627 234.915 96.3211 234.825 96.5001 234.77C96.6791 234.713 96.8673 234.685 97.0647 234.685C97.1954 234.685 97.3339 234.7 97.4802 234.732C97.6279 234.761 97.7657 234.817 97.8936 234.898C98.0228 234.979 98.1286 235.094 98.211 235.245C98.2934 235.394 98.3346 235.588 98.3346 235.827V238H97.7124V237.553H97.6869C97.6457 237.635 97.5839 237.716 97.5015 237.795C97.4191 237.875 97.3133 237.941 97.184 237.994C97.0548 238.046 96.8999 238.072 96.7195 238.072ZM96.858 237.561C97.0342 237.561 97.1847 237.526 97.3097 237.457C97.4362 237.387 97.532 237.296 97.5974 237.184C97.6642 237.07 97.6975 236.949 97.6975 236.82V236.398C97.6748 236.42 97.6308 236.442 97.5654 236.462C97.5015 236.48 97.4284 236.496 97.346 236.511C97.2636 236.523 97.1833 236.536 97.1052 236.547C97.0271 236.557 96.9617 236.565 96.9092 236.572C96.7856 236.588 96.6727 236.614 96.5704 236.651C96.4695 236.688 96.3886 236.741 96.3275 236.811C96.2678 236.879 96.238 236.97 96.238 237.084C96.238 237.241 96.2963 237.361 96.4127 237.442C96.5292 237.521 96.6776 237.561 96.858 237.561ZM99.1831 238V234.727H99.8202V238H99.1831ZM99.5049 234.222C99.3941 234.222 99.2989 234.185 99.2194 234.112C99.1412 234.036 99.1022 233.947 99.1022 233.843C99.1022 233.738 99.1412 233.648 99.2194 233.575C99.2989 233.499 99.3941 233.462 99.5049 233.462C99.6157 233.462 99.7101 233.499 99.7883 233.575C99.8678 233.648 99.9076 233.738 99.9076 233.843C99.9076 233.947 99.8678 234.036 99.7883 234.112C99.7101 234.185 99.6157 234.222 99.5049 234.222ZM101.314 236.057V238H100.677V234.727H101.289V235.26H101.329C101.405 235.087 101.522 234.947 101.683 234.842C101.845 234.737 102.049 234.685 102.294 234.685C102.517 234.685 102.713 234.732 102.88 234.825C103.048 234.918 103.178 235.055 103.27 235.239C103.363 235.422 103.409 235.648 103.409 235.918V238H102.772V235.995C102.772 235.758 102.71 235.572 102.586 235.439C102.463 235.304 102.293 235.237 102.077 235.237C101.929 235.237 101.798 235.268 101.683 235.332C101.569 235.396 101.479 235.49 101.412 235.614C101.347 235.736 101.314 235.884 101.314 236.057Z" fill="white"/>
<rect x="143" y="339" width="22" height="9" rx="2" transform="rotate(180 143 339)" fill="#18181B" fill-opacity="0.8"/>
<rect x="142.75" y="338.75" width="21.5" height="8.5" rx="1.75" transform="rotate(180 142.75 338.75)" stroke="#27272A" stroke-opacity="0.8" stroke-width="0.5"/>
<path d="M124.05 337H123.351L124.922 332.636H125.682L127.253 337H126.554L125.32 333.429H125.286L124.05 337ZM124.167 335.291H126.434V335.845H124.167V335.291ZM129.471 337V332.636H130.129V336.433H132.106V337H129.471ZM132.806 337V333.727H133.443V337H132.806ZM133.128 333.222C133.017 333.222 132.922 333.185 132.842 333.112C132.764 333.036 132.725 332.947 132.725 332.843C132.725 332.738 132.764 332.648 132.842 332.575C132.922 332.499 133.017 332.462 133.128 332.462C133.239 332.462 133.333 332.499 133.411 332.575C133.491 332.648 133.531 332.738 133.531 332.843C133.531 332.947 133.491 333.036 133.411 333.112C133.333 333.185 133.239 333.222 133.128 333.222ZM134.937 335.057V337H134.3V333.727H134.912V334.26H134.952C135.028 334.087 135.146 333.947 135.306 333.842C135.468 333.737 135.672 333.685 135.918 333.685C136.141 333.685 136.336 333.732 136.503 333.825C136.671 333.918 136.801 334.055 136.893 334.239C136.986 334.422 137.032 334.648 137.032 334.918V337H136.395V334.995C136.395 334.758 136.333 334.572 136.209 334.439C136.086 334.304 135.916 334.237 135.7 334.237C135.552 334.237 135.421 334.268 135.306 334.332C135.192 334.396 135.102 334.49 135.035 334.614C134.97 334.736 134.937 334.884 134.937 335.057ZM138.472 335.89L138.468 335.112H138.579L139.883 333.727H140.646L139.158 335.304H139.058L138.472 335.89ZM137.886 337V332.636H138.523V337H137.886ZM139.953 337L138.781 335.445L139.22 334.999L140.735 337H139.953Z" fill="white"/>
<rect x="102" y="386" width="24" height="9" rx="2" transform="rotate(180 102 386)" fill="#18181B" fill-opacity="0.8"/>
<rect x="101.75" y="385.75" width="23.5" height="8.5" rx="1.75" transform="rotate(180 101.75 385.75)" stroke="#27272A" stroke-opacity="0.8" stroke-width="0.5"/>
<path d="M80.7148 384V379.636H82.3128C82.6224 379.636 82.8788 379.687 83.0819 379.79C83.2851 379.891 83.4371 380.028 83.5379 380.201C83.6388 380.373 83.6892 380.567 83.6892 380.783C83.6892 380.964 83.6558 381.118 83.589 381.243C83.5223 381.366 83.4328 381.466 83.3206 381.541C83.2098 381.615 83.0876 381.669 82.9541 381.703V381.746C83.099 381.753 83.2403 381.8 83.3781 381.886C83.5173 381.972 83.6324 382.093 83.7233 382.251C83.8142 382.408 83.8596 382.6 83.8596 382.826C83.8596 383.049 83.8071 383.249 83.702 383.427C83.5983 383.603 83.4378 383.743 83.2204 383.847C83.0031 383.949 82.7254 384 82.3873 384H80.7148ZM81.3731 383.435H82.3234C82.6388 383.435 82.8646 383.374 83.001 383.252C83.1373 383.13 83.2055 382.977 83.2055 382.794C83.2055 382.656 83.1707 382.53 83.1011 382.415C83.0315 382.3 82.9321 382.208 82.8028 382.14C82.675 382.072 82.523 382.038 82.3469 382.038H81.3731V383.435ZM81.3731 381.524H82.2552C82.403 381.524 82.5358 381.496 82.6537 381.439C82.773 381.382 82.8675 381.303 82.9371 381.2C83.0081 381.097 83.0436 380.974 83.0436 380.834C83.0436 380.653 82.9804 380.502 82.854 380.38C82.7275 380.258 82.5336 380.197 82.2723 380.197H81.3731V381.524ZM86.597 384H85.8982L87.4685 379.636H88.2291L89.7994 384H89.1006L87.8669 380.429H87.8328L86.597 384ZM86.7142 382.291H88.9813V382.845H86.7142V382.291ZM91.0155 379.636V384H90.3785V379.636H91.0155ZM92.5097 379.636V384H91.8726V379.636H92.5097ZM94.7773 384.066C94.4548 384.066 94.1771 383.997 93.9442 383.859C93.7126 383.72 93.5336 383.525 93.4072 383.273C93.2822 383.021 93.2197 382.724 93.2197 382.385C93.2197 382.05 93.2822 381.754 93.4072 381.499C93.5336 381.243 93.7098 381.043 93.9356 380.9C94.1629 380.756 94.4285 380.685 94.7325 380.685C94.9172 380.685 95.0961 380.715 95.2694 380.776C95.4427 380.837 95.5983 380.933 95.7361 381.064C95.8738 381.195 95.9825 381.364 96.0621 381.573C96.1416 381.781 96.1814 382.033 96.1814 382.33V382.555H93.5798V382.078H95.5571C95.5571 381.911 95.523 381.762 95.4548 381.633C95.3866 381.502 95.2907 381.399 95.1672 381.324C95.045 381.249 94.9015 381.211 94.7368 381.211C94.5578 381.211 94.4015 381.255 94.268 381.343C94.1359 381.43 94.0336 381.543 93.9612 381.684C93.8902 381.823 93.8547 381.974 93.8547 382.138V382.511C93.8547 382.729 93.893 382.915 93.9697 383.069C94.0479 383.222 94.1565 383.339 94.2957 383.42C94.4349 383.5 94.5976 383.54 94.7836 383.54C94.9044 383.54 95.0145 383.523 95.1139 383.489C95.2133 383.453 95.2993 383.401 95.3717 383.331C95.4442 383.261 95.4996 383.175 95.5379 383.073L96.1409 383.182C96.0926 383.359 96.0059 383.515 95.8809 383.648C95.7574 383.781 95.6018 383.884 95.4143 383.957C95.2282 384.03 95.0159 384.066 94.7773 384.066ZM97.1972 385.227C97.102 385.227 97.0154 385.219 96.9372 385.204C96.8591 385.19 96.8009 385.174 96.7625 385.157L96.9159 384.635C97.0324 384.666 97.1361 384.68 97.227 384.675C97.3179 384.671 97.3982 384.637 97.4678 384.573C97.5388 384.509 97.6013 384.405 97.6553 384.26L97.7341 384.043L96.5367 380.727H97.2185L98.0473 383.267H98.0814L98.9102 380.727H99.5942L98.2455 384.437C98.183 384.607 98.1034 384.751 98.0068 384.869C97.9102 384.989 97.7952 385.078 97.6617 385.138C97.5281 385.197 97.3733 385.227 97.1972 385.227Z" fill="white"/>
<rect x="28" y="274" width="22" height="9" rx="2" transform="rotate(180 28 274)" fill="#18181B" fill-opacity="0.8"/>
<rect x="27.75" y="273.75" width="21.5" height="8.5" rx="1.75" transform="rotate(180 27.75 273.75)" stroke="#27272A" stroke-opacity="0.8" stroke-width="0.5"/>
<path d="M8.81339 272V267.636H11.5492V268.203H9.47177V269.533H11.4064V270.097H9.47177V271.433H11.5748V272H8.81339ZM13.0146 267.636V272H12.3775V267.636H13.0146ZM13.9228 272V267.636H14.5598V269.258H14.5982C14.6351 269.19 14.6884 269.111 14.758 269.021C14.8276 268.932 14.9242 268.854 15.0478 268.787C15.1713 268.719 15.3347 268.685 15.5378 268.685C15.802 268.685 16.0378 268.751 16.2452 268.885C16.4526 269.018 16.6152 269.211 16.7331 269.462C16.8525 269.714 16.9121 270.016 16.9121 270.37C16.9121 270.724 16.8532 271.027 16.7353 271.28C16.6174 271.531 16.4554 271.725 16.2495 271.862C16.0435 271.996 15.8084 272.064 15.5442 272.064C15.3453 272.064 15.1827 272.031 15.0563 271.964C14.9313 271.897 14.8333 271.819 14.7623 271.729C14.6912 271.64 14.6365 271.56 14.5982 271.491H14.5449V272H13.9228ZM14.5471 270.364C14.5471 270.594 14.5804 270.795 14.6472 270.969C14.714 271.142 14.8105 271.278 14.937 271.376C15.0634 271.472 15.2182 271.521 15.4015 271.521C15.5918 271.521 15.7509 271.47 15.8787 271.369C16.0066 271.267 16.1032 271.129 16.1685 270.954C16.2353 270.779 16.2686 270.582 16.2686 270.364C16.2686 270.148 16.236 269.954 16.1706 269.782C16.1067 269.61 16.0101 269.474 15.8809 269.375C15.753 269.276 15.5932 269.226 15.4015 269.226C15.2168 269.226 15.0605 269.273 14.9327 269.369C14.8063 269.464 14.7104 269.597 14.6451 269.767C14.5797 269.937 14.5471 270.136 14.5471 270.364ZM19.006 272.066C18.6992 272.066 18.4315 271.996 18.2028 271.855C17.9741 271.714 17.7965 271.518 17.6701 271.265C17.5437 271.012 17.4805 270.717 17.4805 270.379C17.4805 270.039 17.5437 269.742 17.6701 269.488C17.7965 269.234 17.9741 269.036 18.2028 268.896C18.4315 268.755 18.6992 268.685 19.006 268.685C19.3129 268.685 19.5806 268.755 19.8093 268.896C20.038 269.036 20.2156 269.234 20.342 269.488C20.4684 269.742 20.5316 270.039 20.5316 270.379C20.5316 270.717 20.4684 271.012 20.342 271.265C20.2156 271.518 20.038 271.714 19.8093 271.855C19.5806 271.996 19.3129 272.066 19.006 272.066ZM19.0082 271.531C19.207 271.531 19.3718 271.479 19.5025 271.374C19.6332 271.268 19.7298 271.129 19.7923 270.954C19.8562 270.779 19.8881 270.587 19.8881 270.376C19.8881 270.168 19.8562 269.976 19.7923 269.801C19.7298 269.625 19.6332 269.484 19.5025 269.377C19.3718 269.271 19.207 269.217 19.0082 269.217C18.8079 269.217 18.6417 269.271 18.5096 269.377C18.3789 269.484 18.2816 269.625 18.2177 269.801C18.1552 269.976 18.1239 270.168 18.1239 270.376C18.1239 270.587 18.1552 270.779 18.2177 270.954C18.2816 271.129 18.3789 271.268 18.5096 271.374C18.6417 271.479 18.8079 271.531 19.0082 271.531ZM21.8526 272L20.8896 268.727H21.5479L22.1893 271.131H22.2212L22.8647 268.727H23.5231L24.1623 271.12H24.1942L24.8313 268.727H25.4897L24.5288 272H23.8789L23.2141 269.637H23.1651L22.5004 272H21.8526Z" fill="white"/>
<rect x="210" y="49" width="37" height="9" rx="2" transform="rotate(180 210 49)" fill="#18181B" fill-opacity="0.8"/>
<rect x="209.75" y="48.75" width="36.5" height="8.5" rx="1.75" transform="rotate(180 209.75 48.75)" stroke="#27272A" stroke-opacity="0.8" stroke-width="0.5"/>
<path d="M176.006 47H175.307L176.878 42.6364H177.638L179.209 47H178.51L177.276 43.429H177.242L176.006 47ZM176.123 45.2912H178.39V45.8452H176.123V45.2912ZM179.108 43.2031V42.6364H182.485V43.2031H181.124V47H180.467V43.2031H179.108ZM183.231 47V42.6364H183.89V44.7202H183.943L185.773 42.6364H186.602L184.842 44.6009L186.608 47H185.816L184.405 45.0504L183.89 45.6428V47H183.231ZM191.184 43.7827C191.161 43.581 191.067 43.4247 190.902 43.3139C190.738 43.2017 190.53 43.1456 190.28 43.1456C190.101 43.1456 189.946 43.174 189.816 43.2308C189.685 43.2862 189.583 43.3629 189.511 43.4609C189.44 43.5575 189.404 43.6676 189.404 43.7912C189.404 43.8949 189.429 43.9844 189.477 44.0597C189.527 44.1349 189.591 44.1982 189.671 44.2493C189.752 44.299 189.838 44.3409 189.931 44.375C190.023 44.4077 190.112 44.4347 190.197 44.456L190.623 44.5668C190.762 44.6009 190.905 44.647 191.051 44.7053C191.198 44.7635 191.333 44.8402 191.458 44.9354C191.583 45.0305 191.684 45.1484 191.761 45.2891C191.839 45.4297 191.878 45.598 191.878 45.794C191.878 46.0412 191.814 46.2607 191.686 46.4524C191.56 46.6442 191.376 46.7955 191.135 46.9062C190.895 47.017 190.604 47.0724 190.263 47.0724C189.936 47.0724 189.654 47.0206 189.415 46.9169C189.176 46.8132 188.99 46.6662 188.855 46.4759C188.72 46.2841 188.645 46.0568 188.631 45.794H189.292C189.304 45.9517 189.355 46.0831 189.445 46.1882C189.536 46.2919 189.652 46.3693 189.792 46.4205C189.934 46.4702 190.09 46.495 190.259 46.495C190.445 46.495 190.61 46.4659 190.755 46.4077C190.902 46.348 191.017 46.2656 191.1 46.1605C191.184 46.054 191.226 45.9297 191.226 45.7876C191.226 45.6584 191.189 45.5526 191.115 45.4702C191.043 45.3878 190.944 45.3196 190.819 45.2656C190.696 45.2116 190.556 45.1641 190.4 45.1229L189.884 44.9822C189.534 44.8871 189.257 44.7472 189.053 44.5625C188.85 44.3778 188.748 44.1335 188.748 43.8295C188.748 43.5781 188.816 43.3587 188.953 43.1712C189.089 42.9837 189.274 42.8381 189.507 42.7344C189.74 42.6293 190.002 42.5767 190.295 42.5767C190.591 42.5767 190.851 42.6286 191.077 42.7322C191.304 42.8359 191.483 42.9787 191.614 43.1605C191.745 43.3409 191.813 43.5483 191.819 43.7827H191.184ZM192.614 48.2273V43.7273H193.236V44.2578H193.289C193.326 44.1896 193.379 44.1108 193.449 44.0213C193.519 43.9318 193.615 43.8537 193.739 43.7869C193.862 43.7188 194.026 43.6847 194.229 43.6847C194.493 43.6847 194.729 43.7514 194.936 43.8849C195.144 44.0185 195.306 44.2109 195.424 44.4624C195.544 44.7138 195.603 45.0163 195.603 45.37C195.603 45.7237 195.544 46.027 195.426 46.2798C195.308 46.5312 195.146 46.7251 194.941 46.8615C194.735 46.9964 194.499 47.0639 194.235 47.0639C194.036 47.0639 193.874 47.0305 193.747 46.9638C193.622 46.897 193.524 46.8189 193.453 46.7294C193.382 46.6399 193.328 46.5604 193.289 46.4908H193.251V48.2273H192.614ZM193.238 45.3636C193.238 45.5937 193.271 45.7955 193.338 45.9688C193.405 46.142 193.502 46.2777 193.628 46.3757C193.754 46.4723 193.909 46.5206 194.093 46.5206C194.283 46.5206 194.442 46.4702 194.57 46.3693C194.698 46.267 194.794 46.1286 194.86 45.9538C194.926 45.7791 194.96 45.5824 194.96 45.3636C194.96 45.1477 194.927 44.9538 194.862 44.782C194.798 44.6101 194.701 44.4744 194.572 44.375C194.444 44.2756 194.284 44.2259 194.093 44.2259C193.908 44.2259 193.752 44.2734 193.624 44.3686C193.497 44.4638 193.401 44.5966 193.336 44.767C193.271 44.9375 193.238 45.1364 193.238 45.3636ZM197.269 47.0724C197.062 47.0724 196.874 47.0341 196.707 46.9574C196.539 46.8793 196.406 46.7663 196.308 46.6186C196.212 46.4709 196.164 46.2898 196.164 46.0753C196.164 45.8906 196.199 45.7386 196.27 45.6193C196.341 45.5 196.437 45.4055 196.558 45.3359C196.678 45.2663 196.813 45.2138 196.963 45.1783C197.112 45.1428 197.264 45.1158 197.419 45.0973C197.615 45.0746 197.774 45.0561 197.896 45.0419C198.018 45.0263 198.107 45.0014 198.162 44.9673C198.218 44.9332 198.245 44.8778 198.245 44.8011V44.7862C198.245 44.6001 198.193 44.456 198.088 44.3537C197.984 44.2514 197.829 44.2003 197.623 44.2003C197.409 44.2003 197.24 44.2479 197.116 44.343C196.994 44.4368 196.909 44.5412 196.862 44.6562L196.264 44.5199C196.335 44.321 196.438 44.1605 196.575 44.0384C196.713 43.9148 196.871 43.8253 197.05 43.7699C197.229 43.7131 197.417 43.6847 197.615 43.6847C197.745 43.6847 197.884 43.7003 198.03 43.7315C198.178 43.7614 198.316 43.8168 198.443 43.8977C198.573 43.9787 198.678 44.0945 198.761 44.245C198.843 44.3942 198.884 44.5881 198.884 44.8267V47H198.262V46.5526H198.237C198.195 46.6349 198.134 46.7159 198.051 46.7955C197.969 46.875 197.863 46.9411 197.734 46.9936C197.605 47.0462 197.45 47.0724 197.269 47.0724ZM197.408 46.5611C197.584 46.5611 197.735 46.5263 197.86 46.4567C197.986 46.3871 198.082 46.2962 198.147 46.1839C198.214 46.0703 198.247 45.9489 198.247 45.8196V45.3977C198.225 45.4205 198.181 45.4418 198.115 45.4616C198.051 45.4801 197.978 45.4964 197.896 45.5107C197.813 45.5234 197.733 45.5355 197.655 45.5469C197.577 45.5568 197.512 45.5653 197.459 45.5724C197.335 45.5881 197.222 45.6143 197.12 45.6513C197.019 45.6882 196.938 45.7415 196.877 45.8111C196.818 45.8793 196.788 45.9702 196.788 46.0838C196.788 46.2415 196.846 46.3608 196.963 46.4418C197.079 46.5213 197.227 46.5611 197.408 46.5611ZM200.442 47L199.479 43.7273H200.138L200.779 46.1307H200.811L201.455 43.7273H202.113L202.752 46.12H202.784L203.421 43.7273H204.08L203.119 47H202.469L201.804 44.6371H201.755L201.09 47H200.442ZM205.321 45.0568V47H204.684V43.7273H205.296V44.2599H205.336C205.411 44.0866 205.529 43.9474 205.69 43.8423C205.852 43.7372 206.056 43.6847 206.301 43.6847C206.524 43.6847 206.72 43.7315 206.887 43.8253C207.055 43.9176 207.185 44.0554 207.277 44.2386C207.369 44.4219 207.416 44.6484 207.416 44.9183V47H206.779V44.995C206.779 44.7578 206.717 44.5724 206.593 44.4389C206.47 44.304 206.3 44.2365 206.084 44.2365C205.936 44.2365 205.805 44.2685 205.69 44.3324C205.576 44.3963 205.486 44.4901 205.419 44.6136C205.354 44.7358 205.321 44.8835 205.321 45.0568Z" fill="white"/>
<rect x="225" y="426" width="37" height="9" rx="2" transform="rotate(180 225 426)" fill="#18181B" fill-opacity="0.8"/>
<rect x="224.75" y="425.75" width="36.5" height="8.5" rx="1.75" transform="rotate(180 224.75 425.75)" stroke="#27272A" stroke-opacity="0.8" stroke-width="0.5"/>
<path d="M192.109 424H190.696V419.636H192.154C192.581 419.636 192.948 419.724 193.255 419.898C193.562 420.072 193.797 420.321 193.96 420.646C194.125 420.97 194.208 421.359 194.208 421.812C194.208 422.266 194.124 422.657 193.958 422.984C193.794 423.31 193.555 423.562 193.242 423.738C192.93 423.913 192.552 424 192.109 424ZM191.355 423.425H192.073C192.405 423.425 192.681 423.362 192.901 423.237C193.122 423.111 193.286 422.928 193.396 422.69C193.505 422.45 193.56 422.157 193.56 421.812C193.56 421.469 193.505 421.179 193.396 420.94C193.288 420.702 193.127 420.521 192.912 420.397C192.698 420.273 192.431 420.212 192.113 420.212H191.355V423.425ZM195.026 424V419.636H197.762V420.203H195.685V421.533H197.619V422.097H195.685V423.433H197.788V424H195.026ZM198.642 424V419.636H201.347V420.203H199.3V421.533H201.154V422.097H199.3V424H198.642ZM206.125 420.783C206.102 420.581 206.009 420.425 205.844 420.314C205.679 420.202 205.472 420.146 205.222 420.146C205.043 420.146 204.888 420.174 204.757 420.231C204.626 420.286 204.525 420.363 204.452 420.461C204.381 420.558 204.346 420.668 204.346 420.791C204.346 420.895 204.37 420.984 204.418 421.06C204.468 421.135 204.533 421.198 204.612 421.249C204.693 421.299 204.78 421.341 204.872 421.375C204.964 421.408 205.053 421.435 205.138 421.456L205.565 421.567C205.704 421.601 205.847 421.647 205.993 421.705C206.139 421.763 206.275 421.84 206.4 421.935C206.525 422.031 206.626 422.148 206.702 422.289C206.781 422.43 206.82 422.598 206.82 422.794C206.82 423.041 206.756 423.261 206.628 423.452C206.501 423.644 206.317 423.795 206.076 423.906C205.836 424.017 205.545 424.072 205.205 424.072C204.878 424.072 204.595 424.021 204.357 423.917C204.118 423.813 203.931 423.666 203.796 423.476C203.661 423.284 203.587 423.057 203.572 422.794H204.233C204.246 422.952 204.297 423.083 204.386 423.188C204.477 423.292 204.593 423.369 204.734 423.42C204.876 423.47 205.031 423.495 205.2 423.495C205.386 423.495 205.552 423.466 205.697 423.408C205.843 423.348 205.958 423.266 206.042 423.161C206.126 423.054 206.168 422.93 206.168 422.788C206.168 422.658 206.131 422.553 206.057 422.47C205.984 422.388 205.886 422.32 205.761 422.266C205.637 422.212 205.497 422.164 205.341 422.123L204.825 421.982C204.476 421.887 204.199 421.747 203.994 421.562C203.791 421.378 203.69 421.134 203.69 420.83C203.69 420.578 203.758 420.359 203.894 420.171C204.031 419.984 204.215 419.838 204.448 419.734C204.681 419.629 204.944 419.577 205.237 419.577C205.532 419.577 205.793 419.629 206.018 419.732C206.246 419.836 206.425 419.979 206.555 420.161C206.686 420.341 206.754 420.548 206.76 420.783H206.125ZM207.555 425.227V420.727H208.177V421.258H208.231C208.268 421.19 208.321 421.111 208.39 421.021C208.46 420.932 208.557 420.854 208.68 420.787C208.804 420.719 208.967 420.685 209.17 420.685C209.434 420.685 209.67 420.751 209.878 420.885C210.085 421.018 210.248 421.211 210.366 421.462C210.485 421.714 210.545 422.016 210.545 422.37C210.545 422.724 210.486 423.027 210.368 423.28C210.25 423.531 210.088 423.725 209.882 423.862C209.676 423.996 209.441 424.064 209.177 424.064C208.978 424.064 208.815 424.031 208.689 423.964C208.564 423.897 208.466 423.819 208.395 423.729C208.324 423.64 208.269 423.56 208.231 423.491H208.192V425.227H207.555ZM208.18 422.364C208.18 422.594 208.213 422.795 208.28 422.969C208.346 423.142 208.443 423.278 208.569 423.376C208.696 423.472 208.851 423.521 209.034 423.521C209.224 423.521 209.383 423.47 209.511 423.369C209.639 423.267 209.736 423.129 209.801 422.954C209.868 422.779 209.901 422.582 209.901 422.364C209.901 422.148 209.868 421.954 209.803 421.782C209.739 421.61 209.643 421.474 209.513 421.375C209.385 421.276 209.226 421.226 209.034 421.226C208.849 421.226 208.693 421.273 208.565 421.369C208.439 421.464 208.343 421.597 208.278 421.767C208.212 421.937 208.18 422.136 208.18 422.364ZM212.211 424.072C212.003 424.072 211.816 424.034 211.648 423.957C211.481 423.879 211.348 423.766 211.25 423.619C211.153 423.471 211.105 423.29 211.105 423.075C211.105 422.891 211.14 422.739 211.211 422.619C211.282 422.5 211.378 422.406 211.499 422.336C211.62 422.266 211.755 422.214 211.904 422.178C212.053 422.143 212.205 422.116 212.36 422.097C212.556 422.075 212.715 422.056 212.837 422.042C212.959 422.026 213.048 422.001 213.104 421.967C213.159 421.933 213.187 421.878 213.187 421.801V421.786C213.187 421.6 213.134 421.456 213.029 421.354C212.925 421.251 212.77 421.2 212.564 421.2C212.35 421.2 212.181 421.248 212.057 421.343C211.935 421.437 211.851 421.541 211.804 421.656L211.205 421.52C211.276 421.321 211.38 421.161 211.516 421.038C211.654 420.915 211.812 420.825 211.991 420.77C212.17 420.713 212.358 420.685 212.556 420.685C212.687 420.685 212.825 420.7 212.971 420.732C213.119 420.761 213.257 420.817 213.385 420.898C213.514 420.979 213.62 421.094 213.702 421.245C213.785 421.394 213.826 421.588 213.826 421.827V424H213.204V423.553H213.178C213.137 423.635 213.075 423.716 212.993 423.795C212.91 423.875 212.805 423.941 212.675 423.994C212.546 424.046 212.391 424.072 212.211 424.072ZM212.349 423.561C212.525 423.561 212.676 423.526 212.801 423.457C212.927 423.387 213.023 423.296 213.089 423.184C213.155 423.07 213.189 422.949 213.189 422.82V422.398C213.166 422.42 213.122 422.442 213.057 422.462C212.993 422.48 212.92 422.496 212.837 422.511C212.755 422.523 212.675 422.536 212.596 422.547C212.518 422.557 212.453 422.565 212.4 422.572C212.277 422.588 212.164 422.614 212.062 422.651C211.961 422.688 211.88 422.741 211.819 422.811C211.759 422.879 211.729 422.97 211.729 423.084C211.729 423.241 211.787 423.361 211.904 423.442C212.02 423.521 212.169 423.561 212.349 423.561ZM215.384 424L214.421 420.727H215.079L215.721 423.131H215.752L216.396 420.727H217.054L217.694 423.12H217.725L218.363 420.727H219.021L218.06 424H217.41L216.745 421.637H216.696L216.032 424H215.384ZM220.263 422.057V424H219.626V420.727H220.237V421.26H220.278C220.353 421.087 220.471 420.947 220.631 420.842C220.793 420.737 220.997 420.685 221.243 420.685C221.466 420.685 221.661 420.732 221.829 420.825C221.996 420.918 222.126 421.055 222.219 421.239C222.311 421.422 222.357 421.648 222.357 421.918V424H221.72V421.995C221.72 421.758 221.658 421.572 221.535 421.439C221.411 421.304 221.241 421.237 221.025 421.237C220.878 421.237 220.746 421.268 220.631 421.332C220.518 421.396 220.427 421.49 220.361 421.614C220.295 421.736 220.263 421.884 220.263 422.057Z" fill="white"/>
</svg>
