<svg width="493" height="473" viewBox="0 0 493 473" fill="none" xmlns="http://www.w3.org/2000/svg">
<path d="M412.5 221C412.5 222.105 411.605 223 410.5 223C409.395 223 408.5 222.105 408.5 221C408.5 219.895 409.395 219 410.5 219C411.605 219 412.5 219.895 412.5 221Z" fill="#171717"/>
<path d="M411.5 221C411.5 221.552 411.052 222 410.5 222C409.948 222 409.5 221.552 409.5 221C409.5 220.448 409.948 220 410.5 220C411.052 220 411.5 220.448 411.5 221Z" fill="white"/>
<path d="M102.5 316C102.5 317.105 101.605 318 100.5 318C99.3954 318 98.5 317.105 98.5 316C98.5 314.895 99.3954 314 100.5 314C101.605 314 102.5 314.895 102.5 316Z" fill="#171717"/>
<path d="M101.5 316C101.5 316.552 101.052 317 100.5 317C99.9477 317 99.5 316.552 99.5 316C99.5 315.448 99.9477 315 100.5 315C101.052 315 101.5 315.448 101.5 316Z" fill="white"/>
</svg>
