<svg width="414" height="473" viewBox="0 0 414 473" fill="none" xmlns="http://www.w3.org/2000/svg">
<rect x="128" y="343" width="28" height="9" rx="2" fill="#18181B" fill-opacity="0.8"/>
<rect x="128.25" y="343.25" width="27.5" height="8.5" rx="1.75" stroke="#27272A" stroke-opacity="0.8" stroke-width="0.5"/>
<path d="M130.822 350V345.636H132.42C132.73 345.636 132.986 345.687 133.189 345.79C133.392 345.891 133.544 346.028 133.645 346.201C133.746 346.373 133.797 346.567 133.797 346.783C133.797 346.964 133.763 347.118 133.696 347.243C133.63 347.366 133.54 347.466 133.428 347.541C133.317 347.615 133.195 347.669 133.062 347.703V347.746C133.206 347.753 133.348 347.8 133.486 347.886C133.625 347.972 133.74 348.093 133.831 348.251C133.922 348.408 133.967 348.6 133.967 348.826C133.967 349.049 133.915 349.249 133.809 349.427C133.706 349.603 133.545 349.743 133.328 349.847C133.111 349.949 132.833 350 132.495 350H130.822ZM131.481 349.435H132.431C132.746 349.435 132.972 349.374 133.108 349.252C133.245 349.13 133.313 348.977 133.313 348.794C133.313 348.656 133.278 348.53 133.209 348.415C133.139 348.3 133.04 348.208 132.91 348.14C132.782 348.072 132.63 348.038 132.454 348.038H131.481V349.435ZM131.481 347.524H132.363C132.51 347.524 132.643 347.496 132.761 347.439C132.88 347.382 132.975 347.303 133.044 347.2C133.116 347.097 133.151 346.974 133.151 346.834C133.151 346.653 133.088 346.502 132.961 346.38C132.835 346.258 132.641 346.197 132.38 346.197H131.481V347.524ZM136.336 350V345.636H136.994V349.433H138.972V350H136.336ZM141.05 350.066C140.743 350.066 140.475 349.996 140.247 349.855C140.018 349.714 139.84 349.518 139.714 349.265C139.588 349.012 139.524 348.717 139.524 348.379C139.524 348.039 139.588 347.742 139.714 347.488C139.84 347.234 140.018 347.036 140.247 346.896C140.475 346.755 140.743 346.685 141.05 346.685C141.357 346.685 141.625 346.755 141.853 346.896C142.082 347.036 142.259 347.234 142.386 347.488C142.512 347.742 142.576 348.039 142.576 348.379C142.576 348.717 142.512 349.012 142.386 349.265C142.259 349.518 142.082 349.714 141.853 349.855C141.625 349.996 141.357 350.066 141.05 350.066ZM141.052 349.531C141.251 349.531 141.416 349.479 141.546 349.374C141.677 349.268 141.774 349.129 141.836 348.954C141.9 348.779 141.932 348.587 141.932 348.376C141.932 348.168 141.9 347.976 141.836 347.801C141.774 347.625 141.677 347.484 141.546 347.377C141.416 347.271 141.251 347.217 141.052 347.217C140.852 347.217 140.686 347.271 140.554 347.377C140.423 347.484 140.326 347.625 140.262 347.801C140.199 347.976 140.168 348.168 140.168 348.376C140.168 348.587 140.199 348.779 140.262 348.954C140.326 349.129 140.423 349.268 140.554 349.374C140.686 349.479 140.852 349.531 141.052 349.531ZM143.338 350V345.636H143.975V347.258H144.013C144.05 347.19 144.103 347.111 144.173 347.021C144.243 346.932 144.339 346.854 144.463 346.787C144.586 346.719 144.75 346.685 144.953 346.685C145.217 346.685 145.453 346.751 145.66 346.885C145.868 347.018 146.03 347.211 146.148 347.462C146.267 347.714 146.327 348.016 146.327 348.37C146.327 348.724 146.268 349.027 146.15 349.28C146.032 349.531 145.87 349.725 145.665 349.862C145.459 349.996 145.223 350.064 144.959 350.064C144.76 350.064 144.598 350.031 144.471 349.964C144.346 349.897 144.248 349.819 144.177 349.729C144.106 349.64 144.052 349.56 144.013 349.491H143.96V350H143.338ZM143.962 348.364C143.962 348.594 143.995 348.795 144.062 348.969C144.129 349.142 144.226 349.278 144.352 349.376C144.478 349.472 144.633 349.521 144.816 349.521C145.007 349.521 145.166 349.47 145.294 349.369C145.422 349.267 145.518 349.129 145.584 348.954C145.65 348.779 145.684 348.582 145.684 348.364C145.684 348.148 145.651 347.954 145.586 347.782C145.522 347.61 145.425 347.474 145.296 347.375C145.168 347.276 145.008 347.226 144.816 347.226C144.632 347.226 144.476 347.273 144.348 347.369C144.221 347.464 144.125 347.597 144.06 347.767C143.995 347.937 143.962 348.136 143.962 348.364ZM147.094 350V345.636H147.731V347.258H147.769C147.806 347.19 147.859 347.111 147.929 347.021C147.998 346.932 148.095 346.854 148.219 346.787C148.342 346.719 148.506 346.685 148.709 346.685C148.973 346.685 149.209 346.751 149.416 346.885C149.623 347.018 149.786 347.211 149.904 347.462C150.023 347.714 150.083 348.016 150.083 348.37C150.083 348.724 150.024 349.027 149.906 349.28C149.788 349.531 149.626 349.725 149.42 349.862C149.214 349.996 148.979 350.064 148.715 350.064C148.516 350.064 148.354 350.031 148.227 349.964C148.102 349.897 148.004 349.819 147.933 349.729C147.862 349.64 147.807 349.56 147.769 349.491H147.716V350H147.094ZM147.718 348.364C147.718 348.594 147.751 348.795 147.818 348.969C147.885 349.142 147.981 349.278 148.108 349.376C148.234 349.472 148.389 349.521 148.572 349.521C148.763 349.521 148.922 349.47 149.05 349.369C149.177 349.267 149.274 349.129 149.339 348.954C149.406 348.779 149.44 348.582 149.44 348.364C149.44 348.148 149.407 347.954 149.342 347.782C149.278 347.61 149.181 347.474 149.052 347.375C148.924 347.276 148.764 347.226 148.572 347.226C148.388 347.226 148.231 347.273 148.104 347.369C147.977 347.464 147.881 347.597 147.816 347.767C147.751 347.937 147.718 348.136 147.718 348.364ZM151.09 351.227C150.995 351.227 150.908 351.219 150.83 351.204C150.752 351.19 150.693 351.174 150.655 351.157L150.809 350.635C150.925 350.666 151.029 350.68 151.12 350.675C151.21 350.671 151.291 350.637 151.36 350.573C151.431 350.509 151.494 350.405 151.548 350.26L151.627 350.043L150.429 346.727H151.111L151.94 349.267H151.974L152.803 346.727H153.487L152.138 350.437C152.076 350.607 151.996 350.751 151.899 350.869C151.803 350.989 151.688 351.078 151.554 351.138C151.421 351.197 151.266 351.227 151.09 351.227Z" fill="white"/>
<rect x="151" y="285" width="38" height="9" rx="2" fill="#18181B" fill-opacity="0.8"/>
<rect x="151.25" y="285.25" width="37.5" height="8.5" rx="1.75" stroke="#27272A" stroke-opacity="0.8" stroke-width="0.5"/>
<path d="M153.924 287.636H154.723L156.112 291.028H156.163L157.552 287.636H158.351V292H157.725V288.842H157.684L156.397 291.994H155.878L154.591 288.84H154.55V292H153.924V287.636ZM159.257 292V288.727H159.894V292H159.257ZM159.579 288.222C159.468 288.222 159.373 288.185 159.294 288.112C159.215 288.036 159.176 287.947 159.176 287.843C159.176 287.738 159.215 287.648 159.294 287.575C159.373 287.499 159.468 287.462 159.579 287.462C159.69 287.462 159.784 287.499 159.862 287.575C159.942 287.648 159.982 287.738 159.982 287.843C159.982 287.947 159.942 288.036 159.862 288.112C159.784 288.185 159.69 288.222 159.579 288.222ZM161.977 292.064C161.712 292.064 161.477 291.996 161.269 291.862C161.063 291.725 160.901 291.531 160.783 291.28C160.667 291.027 160.609 290.724 160.609 290.37C160.609 290.016 160.668 289.714 160.786 289.462C160.905 289.211 161.068 289.018 161.276 288.885C161.483 288.751 161.718 288.685 161.981 288.685C162.184 288.685 162.347 288.719 162.471 288.787C162.596 288.854 162.693 288.932 162.761 289.021C162.83 289.111 162.884 289.19 162.923 289.258H162.961V287.636H163.598V292H162.976V291.491H162.923C162.884 291.56 162.829 291.64 162.756 291.729C162.685 291.819 162.587 291.897 162.462 291.964C162.337 292.031 162.176 292.064 161.977 292.064ZM162.117 291.521C162.301 291.521 162.455 291.472 162.582 291.376C162.71 291.278 162.806 291.142 162.872 290.969C162.938 290.795 162.972 290.594 162.972 290.364C162.972 290.136 162.939 289.937 162.874 289.767C162.808 289.597 162.712 289.464 162.586 289.369C162.46 289.273 162.303 289.226 162.117 289.226C161.926 289.226 161.766 289.276 161.638 289.375C161.51 289.474 161.413 289.61 161.348 289.782C161.284 289.954 161.252 290.148 161.252 290.364C161.252 290.582 161.285 290.779 161.35 290.954C161.416 291.129 161.512 291.267 161.64 291.369C161.769 291.47 161.928 291.521 162.117 291.521ZM166.146 292V287.636H167.744C168.054 287.636 168.31 287.687 168.514 287.79C168.717 287.891 168.869 288.028 168.97 288.201C169.07 288.373 169.121 288.567 169.121 288.783C169.121 288.964 169.087 289.118 169.021 289.243C168.954 289.366 168.864 289.466 168.752 289.541C168.641 289.615 168.519 289.669 168.386 289.703V289.746C168.531 289.753 168.672 289.8 168.81 289.886C168.949 289.972 169.064 290.093 169.155 290.251C169.246 290.408 169.291 290.6 169.291 290.826C169.291 291.049 169.239 291.249 169.134 291.427C169.03 291.603 168.869 291.743 168.652 291.847C168.435 291.949 168.157 292 167.819 292H166.146ZM166.805 291.435H167.755C168.07 291.435 168.296 291.374 168.433 291.252C168.569 291.13 168.637 290.977 168.637 290.794C168.637 290.656 168.602 290.53 168.533 290.415C168.463 290.3 168.364 290.208 168.234 290.14C168.107 290.072 167.955 290.038 167.778 290.038H166.805V291.435ZM166.805 289.524H167.687C167.835 289.524 167.967 289.496 168.085 289.439C168.205 289.382 168.299 289.303 168.369 289.2C168.44 289.097 168.475 288.974 168.475 288.834C168.475 288.653 168.412 288.502 168.286 288.38C168.159 288.258 167.965 288.197 167.704 288.197H166.805V289.524ZM171.4 292.066C171.093 292.066 170.825 291.996 170.596 291.855C170.368 291.714 170.19 291.518 170.064 291.265C169.937 291.012 169.874 290.717 169.874 290.379C169.874 290.039 169.937 289.742 170.064 289.488C170.19 289.234 170.368 289.036 170.596 288.896C170.825 288.755 171.093 288.685 171.4 288.685C171.706 288.685 171.974 288.755 172.203 288.896C172.432 289.036 172.609 289.234 172.736 289.488C172.862 289.742 172.925 290.039 172.925 290.379C172.925 290.717 172.862 291.012 172.736 291.265C172.609 291.518 172.432 291.714 172.203 291.855C171.974 291.996 171.706 292.066 171.4 292.066ZM171.402 291.531C171.601 291.531 171.765 291.479 171.896 291.374C172.027 291.268 172.123 291.129 172.186 290.954C172.25 290.779 172.282 290.587 172.282 290.376C172.282 290.168 172.25 289.976 172.186 289.801C172.123 289.625 172.027 289.484 171.896 289.377C171.765 289.271 171.601 289.217 171.402 289.217C171.201 289.217 171.035 289.271 170.903 289.377C170.772 289.484 170.675 289.625 170.611 289.801C170.549 289.976 170.517 290.168 170.517 290.376C170.517 290.587 170.549 290.779 170.611 290.954C170.675 291.129 170.772 291.268 170.903 291.374C171.035 291.479 171.201 291.531 171.402 291.531ZM175.164 288.727V289.239H173.376V288.727H175.164ZM173.856 287.943H174.493V291.039C174.493 291.163 174.511 291.256 174.548 291.318C174.585 291.379 174.633 291.421 174.691 291.444C174.751 291.465 174.815 291.476 174.885 291.476C174.936 291.476 174.981 291.472 175.019 291.465C175.057 291.458 175.087 291.452 175.109 291.448L175.224 291.974C175.187 291.989 175.134 292.003 175.066 292.017C174.998 292.033 174.913 292.041 174.81 292.043C174.643 292.045 174.486 292.016 174.342 291.953C174.197 291.891 174.079 291.794 173.99 291.663C173.9 291.533 173.856 291.369 173.856 291.171V287.943ZM177.396 288.727V289.239H175.609V288.727H177.396ZM176.088 287.943H176.725V291.039C176.725 291.163 176.744 291.256 176.781 291.318C176.818 291.379 176.865 291.421 176.923 291.444C176.983 291.465 177.048 291.476 177.117 291.476C177.168 291.476 177.213 291.472 177.252 291.465C177.29 291.458 177.32 291.452 177.341 291.448L177.456 291.974C177.419 291.989 177.367 292.003 177.298 292.017C177.23 292.033 177.145 292.041 177.043 292.043C176.875 292.045 176.719 292.016 176.574 291.953C176.429 291.891 176.312 291.794 176.222 291.663C176.133 291.533 176.088 291.369 176.088 291.171V287.943ZM179.445 292.066C179.138 292.066 178.87 291.996 178.641 291.855C178.413 291.714 178.235 291.518 178.109 291.265C177.982 291.012 177.919 290.717 177.919 290.379C177.919 290.039 177.982 289.742 178.109 289.488C178.235 289.234 178.413 289.036 178.641 288.896C178.87 288.755 179.138 288.685 179.445 288.685C179.751 288.685 180.019 288.755 180.248 288.896C180.476 289.036 180.654 289.234 180.78 289.488C180.907 289.742 180.97 290.039 180.97 290.379C180.97 290.717 180.907 291.012 180.78 291.265C180.654 291.518 180.476 291.714 180.248 291.855C180.019 291.996 179.751 292.066 179.445 292.066ZM179.447 291.531C179.646 291.531 179.81 291.479 179.941 291.374C180.072 291.268 180.168 291.129 180.231 290.954C180.295 290.779 180.327 290.587 180.327 290.376C180.327 290.168 180.295 289.976 180.231 289.801C180.168 289.625 180.072 289.484 179.941 289.377C179.81 289.271 179.646 289.217 179.447 289.217C179.246 289.217 179.08 289.271 178.948 289.377C178.817 289.484 178.72 289.625 178.656 289.801C178.594 289.976 178.562 290.168 178.562 290.376C178.562 290.587 178.594 290.779 178.656 290.954C178.72 291.129 178.817 291.268 178.948 291.374C179.08 291.479 179.246 291.531 179.447 291.531ZM181.681 292V288.727H182.293V289.26H182.333C182.401 289.08 182.513 288.939 182.668 288.838C182.823 288.736 183.008 288.685 183.224 288.685C183.443 288.685 183.626 288.736 183.774 288.838C183.923 288.94 184.033 289.081 184.104 289.26H184.138C184.216 289.085 184.34 288.946 184.511 288.842C184.681 288.737 184.884 288.685 185.12 288.685C185.417 288.685 185.659 288.778 185.847 288.964C186.036 289.15 186.13 289.43 186.13 289.805V292H185.493V289.865C185.493 289.643 185.433 289.483 185.312 289.384C185.191 289.284 185.047 289.234 184.879 289.234C184.672 289.234 184.511 289.298 184.396 289.426C184.281 289.553 184.223 289.715 184.223 289.914V292H183.588V289.825C183.588 289.647 183.533 289.504 183.422 289.396C183.311 289.288 183.167 289.234 182.989 289.234C182.869 289.234 182.757 289.266 182.655 289.33C182.554 289.393 182.472 289.48 182.41 289.592C182.349 289.705 182.318 289.835 182.318 289.982V292H181.681Z" fill="white"/>
<rect x="67" y="285" width="24" height="9" rx="2" fill="#18181B" fill-opacity="0.8"/>
<rect x="67.25" y="285.25" width="23.5" height="8.5" rx="1.75" stroke="#27272A" stroke-opacity="0.8" stroke-width="0.5"/>
<path d="M69.7821 292V287.636H71.3801C71.6898 287.636 71.9462 287.687 72.1493 287.79C72.3525 287.891 72.5044 288.028 72.6053 288.201C72.7061 288.373 72.7566 288.567 72.7566 288.783C72.7566 288.964 72.7232 289.118 72.6564 289.243C72.5897 289.366 72.5002 289.466 72.388 289.541C72.2772 289.615 72.155 289.669 72.0215 289.703V289.746C72.1664 289.753 72.3077 289.8 72.4455 289.886C72.5847 289.972 72.6998 290.093 72.7907 290.251C72.8816 290.408 72.927 290.6 72.927 290.826C72.927 291.049 72.8745 291.249 72.7694 291.427C72.6657 291.603 72.5051 291.743 72.2878 291.847C72.0705 291.949 71.7928 292 71.4547 292H69.7821ZM70.4405 291.435H71.3908C71.7061 291.435 71.932 291.374 72.0684 291.252C72.2047 291.13 72.2729 290.977 72.2729 290.794C72.2729 290.656 72.2381 290.53 72.1685 290.415C72.0989 290.3 71.9995 290.208 71.8702 290.14C71.7424 290.072 71.5904 290.038 71.4142 290.038H70.4405V291.435ZM70.4405 289.524H71.3226C71.4703 289.524 71.6032 289.496 71.7211 289.439C71.8404 289.382 71.9348 289.303 72.0044 289.2C72.0755 289.097 72.111 288.974 72.111 288.834C72.111 288.653 72.0478 288.502 71.9213 288.38C71.7949 288.258 71.601 288.197 71.3397 288.197H70.4405V289.524ZM75.2958 287.636H76.0948L77.484 291.028H77.5352L78.9244 287.636H79.7234V292H79.0969V288.842H79.0565L77.7695 291.994H77.2496L75.9627 288.84H75.9222V292H75.2958V287.636ZM81.5819 292.072C81.3745 292.072 81.187 292.034 81.0194 291.957C80.8517 291.879 80.7189 291.766 80.6209 291.619C80.5243 291.471 80.476 291.29 80.476 291.075C80.476 290.891 80.5115 290.739 80.5826 290.619C80.6536 290.5 80.7495 290.406 80.8702 290.336C80.9909 290.266 81.1259 290.214 81.275 290.178C81.4242 290.143 81.5762 290.116 81.731 290.097C81.927 290.075 82.0861 290.056 82.2083 290.042C82.3304 290.026 82.4192 290.001 82.4746 289.967C82.53 289.933 82.5577 289.878 82.5577 289.801V289.786C82.5577 289.6 82.5051 289.456 82.4 289.354C82.2963 289.251 82.1415 289.2 81.9355 289.2C81.7211 289.2 81.552 289.248 81.4284 289.343C81.3063 289.437 81.2218 289.541 81.1749 289.656L80.5762 289.52C80.6472 289.321 80.7509 289.161 80.8873 289.038C81.025 288.915 81.1834 288.825 81.3624 288.77C81.5414 288.713 81.7296 288.685 81.927 288.685C82.0577 288.685 82.1962 288.7 82.3425 288.732C82.4902 288.761 82.628 288.817 82.7559 288.898C82.8851 288.979 82.9909 289.094 83.0733 289.245C83.1557 289.394 83.1969 289.588 83.1969 289.827V292H82.5748V291.553H82.5492C82.508 291.635 82.4462 291.716 82.3638 291.795C82.2814 291.875 82.1756 291.941 82.0463 291.994C81.9171 292.046 81.7623 292.072 81.5819 292.072ZM81.7203 291.561C81.8965 291.561 82.0471 291.526 82.1721 291.457C82.2985 291.387 82.3944 291.296 82.4597 291.184C82.5265 291.07 82.5598 290.949 82.5598 290.82V290.398C82.5371 290.42 82.4931 290.442 82.4277 290.462C82.3638 290.48 82.2907 290.496 82.2083 290.511C82.1259 290.523 82.0456 290.536 81.9675 290.547C81.8894 290.557 81.824 290.565 81.7715 290.572C81.6479 290.588 81.535 290.614 81.4327 290.651C81.3319 290.688 81.2509 290.741 81.1898 290.811C81.1301 290.879 81.1003 290.97 81.1003 291.084C81.1003 291.241 81.1586 291.361 81.275 291.442C81.3915 291.521 81.54 291.561 81.7203 291.561ZM84.0455 292V288.727H84.6825V292H84.0455ZM84.3672 288.222C84.2564 288.222 84.1612 288.185 84.0817 288.112C84.0036 288.036 83.9645 287.947 83.9645 287.843C83.9645 287.738 84.0036 287.648 84.0817 287.575C84.1612 287.499 84.2564 287.462 84.3672 287.462C84.478 287.462 84.5724 287.499 84.6506 287.575C84.7301 287.648 84.7699 287.738 84.7699 287.843C84.7699 287.947 84.7301 288.036 84.6506 288.112C84.5724 288.185 84.478 288.222 84.3672 288.222ZM86.1767 290.057V292H85.5396V288.727H86.1511V289.26H86.1916C86.2669 289.087 86.3848 288.947 86.5453 288.842C86.7072 288.737 86.911 288.685 87.1568 288.685C87.3798 288.685 87.5751 288.732 87.7427 288.825C87.9103 288.918 88.0403 289.055 88.1326 289.239C88.225 289.422 88.2711 289.648 88.2711 289.918V292H87.6341V289.995C87.6341 289.758 87.5723 289.572 87.4487 289.439C87.3251 289.304 87.1554 289.237 86.9395 289.237C86.7917 289.237 86.6603 289.268 86.5453 289.332C86.4316 289.396 86.3414 289.49 86.2747 289.614C86.2093 289.736 86.1767 289.884 86.1767 290.057Z" fill="white"/>
<rect x="98" y="227" width="30" height="9" rx="2" fill="#18181B" fill-opacity="0.8"/>
<rect x="98.25" y="227.25" width="29.5" height="8.5" rx="1.75" stroke="#27272A" stroke-opacity="0.8" stroke-width="0.5"/>
<path d="M100.691 234V229.636H102.289C102.599 229.636 102.855 229.687 103.059 229.79C103.262 229.891 103.414 230.028 103.514 230.201C103.615 230.373 103.666 230.567 103.666 230.783C103.666 230.964 103.632 231.118 103.566 231.243C103.499 231.366 103.409 231.466 103.297 231.541C103.186 231.615 103.064 231.669 102.931 231.703V231.746C103.076 231.753 103.217 231.8 103.355 231.886C103.494 231.972 103.609 232.093 103.7 232.251C103.791 232.408 103.836 232.6 103.836 232.826C103.836 233.049 103.784 233.249 103.679 233.427C103.575 233.603 103.414 233.743 103.197 233.847C102.98 233.949 102.702 234 102.364 234H100.691ZM101.35 233.435H102.3C102.615 233.435 102.841 233.374 102.978 233.252C103.114 233.13 103.182 232.977 103.182 232.794C103.182 232.656 103.147 232.53 103.078 232.415C103.008 232.3 102.909 232.208 102.779 232.14C102.652 232.072 102.5 232.038 102.323 232.038H101.35V233.435ZM101.35 231.524H102.232C102.38 231.524 102.512 231.496 102.63 231.439C102.75 231.382 102.844 231.303 102.914 231.2C102.985 231.097 103.02 230.974 103.02 230.834C103.02 230.653 102.957 230.502 102.831 230.38C102.704 230.258 102.51 230.197 102.249 230.197H101.35V231.524ZM106.205 229.636H107.004L108.393 233.028H108.444L109.834 229.636H110.633V234H110.006V230.842H109.966L108.679 233.994H108.159L106.872 230.84H106.831V234H106.205V229.636ZM112.491 234.072C112.284 234.072 112.096 234.034 111.929 233.957C111.761 233.879 111.628 233.766 111.53 233.619C111.434 233.471 111.385 233.29 111.385 233.075C111.385 232.891 111.421 232.739 111.492 232.619C111.563 232.5 111.659 232.406 111.779 232.336C111.9 232.266 112.035 232.214 112.184 232.178C112.333 232.143 112.485 232.116 112.64 232.097C112.836 232.075 112.995 232.056 113.117 232.042C113.24 232.026 113.328 232.001 113.384 231.967C113.439 231.933 113.467 231.878 113.467 231.801V231.786C113.467 231.6 113.414 231.456 113.309 231.354C113.206 231.251 113.051 231.2 112.845 231.2C112.63 231.2 112.461 231.248 112.338 231.343C112.215 231.437 112.131 231.541 112.084 231.656L111.485 231.52C111.556 231.321 111.66 231.161 111.796 231.038C111.934 230.915 112.093 230.825 112.272 230.77C112.451 230.713 112.639 230.685 112.836 230.685C112.967 230.685 113.105 230.7 113.252 230.732C113.399 230.761 113.537 230.817 113.665 230.898C113.794 230.979 113.9 231.094 113.983 231.245C114.065 231.394 114.106 231.588 114.106 231.827V234H113.484V233.553H113.458C113.417 233.635 113.355 233.716 113.273 233.795C113.191 233.875 113.085 233.941 112.956 233.994C112.826 234.046 112.671 234.072 112.491 234.072ZM112.63 233.561C112.806 233.561 112.956 233.526 113.081 233.457C113.208 233.387 113.304 233.296 113.369 233.184C113.436 233.07 113.469 232.949 113.469 232.82V232.398C113.446 232.42 113.402 232.442 113.337 232.462C113.273 232.48 113.2 232.496 113.117 232.511C113.035 232.523 112.955 232.536 112.877 232.547C112.799 232.557 112.733 232.565 112.681 232.572C112.557 232.588 112.444 232.614 112.342 232.651C112.241 232.688 112.16 232.741 112.099 232.811C112.039 232.879 112.009 232.97 112.009 233.084C112.009 233.241 112.068 233.361 112.184 233.442C112.301 233.521 112.449 233.561 112.63 233.561ZM114.955 234V230.727H115.57V231.247H115.604C115.664 231.071 115.769 230.933 115.92 230.832C116.072 230.729 116.244 230.678 116.435 230.678C116.475 230.678 116.522 230.68 116.576 230.683C116.631 230.685 116.675 230.689 116.706 230.693V231.303C116.68 231.295 116.635 231.288 116.57 231.279C116.504 231.269 116.439 231.264 116.374 231.264C116.223 231.264 116.089 231.296 115.971 231.36C115.854 231.423 115.762 231.51 115.694 231.622C115.626 231.733 115.592 231.859 115.592 232.001V234H114.955ZM117.843 232.89L117.839 232.112H117.95L119.254 230.727H120.017L118.529 232.304H118.429L117.843 232.89ZM117.257 234V229.636H117.894V234H117.257ZM119.324 234L118.152 232.445L118.591 231.999L120.106 234H119.324ZM121.873 234.066C121.551 234.066 121.273 233.997 121.04 233.859C120.808 233.72 120.629 233.525 120.503 233.273C120.378 233.021 120.315 232.724 120.315 232.385C120.315 232.05 120.378 231.754 120.503 231.499C120.629 231.243 120.805 231.043 121.031 230.9C121.259 230.756 121.524 230.685 121.828 230.685C122.013 230.685 122.192 230.715 122.365 230.776C122.538 230.837 122.694 230.933 122.832 231.064C122.97 231.195 123.078 231.364 123.158 231.573C123.237 231.781 123.277 232.033 123.277 232.33V232.555H120.676V232.078H122.653C122.653 231.911 122.619 231.762 122.551 231.633C122.482 231.502 122.386 231.399 122.263 231.324C122.141 231.249 121.997 231.211 121.832 231.211C121.653 231.211 121.497 231.255 121.364 231.343C121.232 231.43 121.129 231.543 121.057 231.684C120.986 231.823 120.95 231.974 120.95 232.138V232.511C120.95 232.729 120.989 232.915 121.065 233.069C121.144 233.222 121.252 233.339 121.391 233.42C121.531 233.5 121.693 233.54 121.879 233.54C122 233.54 122.11 233.523 122.21 233.489C122.309 233.453 122.395 233.401 122.467 233.331C122.54 233.261 122.595 233.175 122.634 233.073L123.237 233.182C123.188 233.359 123.102 233.515 122.977 233.648C122.853 233.781 122.698 233.884 122.51 233.957C122.324 234.03 122.112 234.066 121.873 234.066ZM125.512 230.727V231.239H123.724V230.727H125.512ZM124.203 229.943H124.84V233.039C124.84 233.163 124.859 233.256 124.896 233.318C124.933 233.379 124.98 233.421 125.039 233.444C125.098 233.465 125.163 233.476 125.233 233.476C125.284 233.476 125.328 233.472 125.367 233.465C125.405 233.458 125.435 233.452 125.456 233.448L125.571 233.974C125.534 233.989 125.482 234.003 125.414 234.017C125.345 234.033 125.26 234.041 125.158 234.043C124.99 234.045 124.834 234.016 124.689 233.953C124.544 233.891 124.427 233.794 124.338 233.663C124.248 233.533 124.203 233.369 124.203 233.171V229.943Z" fill="white"/>
<rect x="49" y="132" width="19" height="9" rx="2" fill="#18181B" fill-opacity="0.8"/>
<rect x="49.25" y="132.25" width="18.5" height="8.5" rx="1.75" stroke="#27272A" stroke-opacity="0.8" stroke-width="0.5"/>
<path d="M51.623 139V134.636H53.221C53.5306 134.636 53.787 134.687 53.9901 134.79C54.1933 134.891 54.3453 135.028 54.4461 135.201C54.547 135.373 54.5974 135.567 54.5974 135.783C54.5974 135.964 54.564 136.118 54.4972 136.243C54.4305 136.366 54.341 136.466 54.2288 136.541C54.118 136.615 53.9958 136.669 53.8623 136.703V136.746C54.0072 136.753 54.1485 136.8 54.2863 136.886C54.4255 136.972 54.5406 137.093 54.6315 137.251C54.7224 137.408 54.7678 137.6 54.7678 137.826C54.7678 138.049 54.7153 138.249 54.6102 138.427C54.5065 138.603 54.346 138.743 54.1286 138.847C53.9113 138.949 53.6336 139 53.2955 139H51.623ZM52.2813 138.435H53.2316C53.547 138.435 53.7728 138.374 53.9092 138.252C54.0455 138.13 54.1137 137.977 54.1137 137.794C54.1137 137.656 54.0789 137.53 54.0093 137.415C53.9397 137.3 53.8403 137.208 53.711 137.14C53.5832 137.072 53.4312 137.038 53.2551 137.038H52.2813V138.435ZM52.2813 136.524H53.1634C53.3112 136.524 53.444 136.496 53.5619 136.439C53.6812 136.382 53.7757 136.303 53.8453 136.2C53.9163 136.097 53.9518 135.974 53.9518 135.834C53.9518 135.653 53.8886 135.502 53.7622 135.38C53.6357 135.258 53.4419 135.197 53.1805 135.197H52.2813V136.524ZM56.8762 139.066C56.5693 139.066 56.3016 138.996 56.0729 138.855C55.8442 138.714 55.6666 138.518 55.5402 138.265C55.4138 138.012 55.3506 137.717 55.3506 137.379C55.3506 137.039 55.4138 136.742 55.5402 136.488C55.6666 136.234 55.8442 136.036 56.0729 135.896C56.3016 135.755 56.5693 135.685 56.8762 135.685C57.183 135.685 57.4507 135.755 57.6794 135.896C57.9081 136.036 58.0857 136.234 58.2121 136.488C58.3385 136.742 58.4017 137.039 58.4017 137.379C58.4017 137.717 58.3385 138.012 58.2121 138.265C58.0857 138.518 57.9081 138.714 57.6794 138.855C57.4507 138.996 57.183 139.066 56.8762 139.066ZM56.8783 138.531C57.0771 138.531 57.2419 138.479 57.3726 138.374C57.5033 138.268 57.5999 138.129 57.6624 137.954C57.7263 137.779 57.7583 137.587 57.7583 137.376C57.7583 137.168 57.7263 136.976 57.6624 136.801C57.5999 136.625 57.5033 136.484 57.3726 136.377C57.2419 136.271 57.0771 136.217 56.8783 136.217C56.678 136.217 56.5118 136.271 56.3797 136.377C56.249 136.484 56.1517 136.625 56.0878 136.801C56.0253 136.976 55.9941 137.168 55.9941 137.376C55.9941 137.587 56.0253 137.779 56.0878 137.954C56.1517 138.129 56.249 138.268 56.3797 138.374C56.5118 138.479 56.678 138.531 56.8783 138.531ZM59.164 139V134.636H59.801V136.258H59.8394C59.8763 136.19 59.9296 136.111 59.9992 136.021C60.0688 135.932 60.1654 135.854 60.289 135.787C60.4126 135.719 60.5759 135.685 60.779 135.685C61.0432 135.685 61.279 135.751 61.4864 135.885C61.6938 136.018 61.8564 136.211 61.9743 136.462C62.0937 136.714 62.1533 137.016 62.1533 137.37C62.1533 137.724 62.0944 138.027 61.9765 138.28C61.8586 138.531 61.6966 138.725 61.4907 138.862C61.2847 138.996 61.0496 139.064 60.7854 139.064C60.5866 139.064 60.4239 139.031 60.2975 138.964C60.1725 138.897 60.0745 138.819 60.0035 138.729C59.9324 138.64 59.8778 138.56 59.8394 138.491H59.7861V139H59.164ZM59.7883 137.364C59.7883 137.594 59.8216 137.795 59.8884 137.969C59.9552 138.142 60.0518 138.278 60.1782 138.376C60.3046 138.472 60.4594 138.521 60.6427 138.521C60.833 138.521 60.9921 138.47 61.1199 138.369C61.2478 138.267 61.3444 138.129 61.4097 137.954C61.4765 137.779 61.5099 137.582 61.5099 137.364C61.5099 137.148 61.4772 136.954 61.4118 136.782C61.3479 136.61 61.2513 136.474 61.1221 136.375C60.9942 136.276 60.8344 136.226 60.6427 136.226C60.458 136.226 60.3018 136.273 60.1739 136.369C60.0475 136.464 59.9516 136.597 59.8863 136.767C59.8209 136.937 59.7883 137.136 59.7883 137.364ZM63.8211 139.072C63.6137 139.072 63.4262 139.034 63.2586 138.957C63.091 138.879 62.9582 138.766 62.8602 138.619C62.7636 138.471 62.7153 138.29 62.7153 138.075C62.7153 137.891 62.7508 137.739 62.8218 137.619C62.8928 137.5 62.9887 137.406 63.1095 137.336C63.2302 137.266 63.3651 137.214 63.5143 137.178C63.6634 137.143 63.8154 137.116 63.9703 137.097C64.1663 137.075 64.3254 137.056 64.4475 137.042C64.5697 137.026 64.6585 137.001 64.7139 136.967C64.7693 136.933 64.797 136.878 64.797 136.801V136.786C64.797 136.6 64.7444 136.456 64.6393 136.354C64.5356 136.251 64.3808 136.2 64.1748 136.2C63.9603 136.2 63.7913 136.248 63.6677 136.343C63.5455 136.437 63.461 136.541 63.4142 136.656L62.8154 136.52C62.8865 136.321 62.9901 136.161 63.1265 136.038C63.2643 135.915 63.4227 135.825 63.6017 135.77C63.7806 135.713 63.9688 135.685 64.1663 135.685C64.297 135.685 64.4355 135.7 64.5818 135.732C64.7295 135.761 64.8673 135.817 64.9951 135.898C65.1244 135.979 65.2302 136.094 65.3126 136.245C65.395 136.394 65.4362 136.588 65.4362 136.827V139H64.814V138.553H64.7884C64.7472 138.635 64.6855 138.716 64.6031 138.795C64.5207 138.875 64.4149 138.941 64.2856 138.994C64.1563 139.046 64.0015 139.072 63.8211 139.072ZM63.9596 138.561C64.1357 138.561 64.2863 138.526 64.4113 138.457C64.5377 138.387 64.6336 138.296 64.699 138.184C64.7657 138.07 64.7991 137.949 64.7991 137.82V137.398C64.7764 137.42 64.7323 137.442 64.667 137.462C64.6031 137.48 64.5299 137.496 64.4475 137.511C64.3651 137.523 64.2849 137.536 64.2068 137.547C64.1286 137.557 64.0633 137.565 64.0107 137.572C63.8872 137.588 63.7742 137.614 63.672 137.651C63.5711 137.688 63.4901 137.741 63.4291 137.811C63.3694 137.879 63.3396 137.97 63.3396 138.084C63.3396 138.241 63.3978 138.361 63.5143 138.442C63.6308 138.521 63.7792 138.561 63.9596 138.561Z" fill="white"/>
<rect x="174" y="221" width="33" height="9" rx="2" fill="#18181B" fill-opacity="0.8"/>
<rect x="174.25" y="221.25" width="32.5" height="8.5" rx="1.75" stroke="#27272A" stroke-opacity="0.8" stroke-width="0.5"/>
<path d="M180.111 225.055H179.446C179.42 224.913 179.373 224.788 179.303 224.68C179.233 224.572 179.148 224.481 179.047 224.406C178.946 224.33 178.834 224.273 178.709 224.235C178.585 224.197 178.454 224.178 178.314 224.178C178.063 224.178 177.838 224.241 177.639 224.367C177.441 224.494 177.285 224.679 177.17 224.923C177.057 225.168 177 225.466 177 225.818C177 226.173 177.057 226.473 177.17 226.717C177.285 226.962 177.442 227.146 177.641 227.271C177.84 227.396 178.064 227.459 178.312 227.459C178.45 227.459 178.581 227.44 178.704 227.403C178.829 227.365 178.942 227.309 179.043 227.235C179.144 227.161 179.229 227.071 179.299 226.964C179.37 226.857 179.419 226.733 179.446 226.594L180.111 226.596C180.075 226.81 180.006 227.008 179.904 227.188C179.803 227.367 179.673 227.522 179.514 227.653C179.356 227.782 179.176 227.882 178.973 227.953C178.77 228.024 178.548 228.06 178.308 228.06C177.93 228.06 177.593 227.97 177.298 227.791C177.003 227.611 176.77 227.353 176.599 227.018C176.43 226.683 176.346 226.283 176.346 225.818C176.346 225.352 176.431 224.952 176.601 224.619C176.772 224.283 177.005 224.026 177.3 223.847C177.596 223.667 177.932 223.577 178.308 223.577C178.54 223.577 178.755 223.61 178.956 223.677C179.157 223.742 179.339 223.839 179.499 223.967C179.66 224.093 179.792 224.248 179.897 224.431C180.003 224.613 180.074 224.821 180.111 225.055ZM182.226 228.066C181.919 228.066 181.651 227.996 181.422 227.855C181.194 227.714 181.016 227.518 180.89 227.265C180.763 227.012 180.7 226.717 180.7 226.379C180.7 226.039 180.763 225.742 180.89 225.488C181.016 225.234 181.194 225.036 181.422 224.896C181.651 224.755 181.919 224.685 182.226 224.685C182.533 224.685 182.8 224.755 183.029 224.896C183.258 225.036 183.435 225.234 183.562 225.488C183.688 225.742 183.751 226.039 183.751 226.379C183.751 226.717 183.688 227.012 183.562 227.265C183.435 227.518 183.258 227.714 183.029 227.855C182.8 227.996 182.533 228.066 182.226 228.066ZM182.228 227.531C182.427 227.531 182.592 227.479 182.722 227.374C182.853 227.268 182.949 227.129 183.012 226.954C183.076 226.779 183.108 226.587 183.108 226.376C183.108 226.168 183.076 225.976 183.012 225.801C182.949 225.625 182.853 225.484 182.722 225.377C182.592 225.271 182.427 225.217 182.228 225.217C182.028 225.217 181.861 225.271 181.729 225.377C181.599 225.484 181.501 225.625 181.437 225.801C181.375 225.976 181.344 226.168 181.344 226.376C181.344 226.587 181.375 226.779 181.437 226.954C181.501 227.129 181.599 227.268 181.729 227.374C181.861 227.479 182.028 227.531 182.228 227.531ZM186.536 226.643V224.727H187.175V228H186.548V227.433H186.514C186.439 227.608 186.318 227.754 186.152 227.87C185.987 227.985 185.782 228.043 185.536 228.043C185.326 228.043 185.14 227.996 184.978 227.904C184.818 227.81 184.691 227.672 184.599 227.489C184.508 227.305 184.462 227.079 184.462 226.809V224.727H185.1V226.732C185.1 226.955 185.161 227.133 185.285 227.265C185.408 227.397 185.569 227.463 185.766 227.463C185.886 227.463 186.004 227.433 186.122 227.374C186.242 227.314 186.34 227.224 186.418 227.103C186.498 226.982 186.537 226.829 186.536 226.643ZM188.031 228V224.727H188.647V225.247H188.681C188.74 225.071 188.845 224.933 188.996 224.832C189.148 224.729 189.32 224.678 189.512 224.678C189.551 224.678 189.598 224.68 189.652 224.683C189.708 224.685 189.751 224.689 189.782 224.693V225.303C189.757 225.295 189.711 225.288 189.646 225.279C189.581 225.269 189.515 225.264 189.45 225.264C189.299 225.264 189.165 225.296 189.047 225.36C188.931 225.423 188.838 225.51 188.77 225.622C188.702 225.733 188.668 225.859 188.668 226.001V228H188.031ZM192.055 224.727V225.239H190.267V224.727H192.055ZM190.746 223.943H191.383V227.039C191.383 227.163 191.402 227.256 191.439 227.318C191.476 227.379 191.523 227.421 191.582 227.444C191.641 227.465 191.706 227.476 191.775 227.476C191.827 227.476 191.871 227.472 191.91 227.465C191.948 227.458 191.978 227.452 191.999 227.448L192.114 227.974C192.077 227.989 192.025 228.003 191.957 228.017C191.888 228.033 191.803 228.041 191.701 228.043C191.533 228.045 191.377 228.016 191.232 227.953C191.087 227.891 190.97 227.794 190.881 227.663C190.791 227.533 190.746 227.369 190.746 227.171V223.943ZM193.162 229.227C193.067 229.227 192.98 229.219 192.902 229.204C192.824 229.19 192.766 229.174 192.727 229.157L192.881 228.635C192.997 228.666 193.101 228.68 193.192 228.675C193.283 228.671 193.363 228.637 193.433 228.573C193.504 228.509 193.566 228.405 193.62 228.26L193.699 228.043L192.502 224.727H193.183L194.012 227.267H194.046L194.875 224.727H195.559L194.21 228.437C194.148 228.607 194.068 228.751 193.972 228.869C193.875 228.989 193.76 229.078 193.627 229.138C193.493 229.197 193.338 229.227 193.162 229.227ZM197.016 228.072C196.809 228.072 196.622 228.034 196.454 227.957C196.286 227.879 196.153 227.766 196.055 227.619C195.959 227.471 195.911 227.29 195.911 227.075C195.911 226.891 195.946 226.739 196.017 226.619C196.088 226.5 196.184 226.406 196.305 226.336C196.426 226.266 196.56 226.214 196.71 226.178C196.859 226.143 197.011 226.116 197.166 226.097C197.362 226.075 197.521 226.056 197.643 226.042C197.765 226.026 197.854 226.001 197.909 225.967C197.965 225.933 197.992 225.878 197.992 225.801V225.786C197.992 225.6 197.94 225.456 197.835 225.354C197.731 225.251 197.576 225.2 197.37 225.2C197.156 225.2 196.987 225.248 196.863 225.343C196.741 225.437 196.656 225.541 196.609 225.656L196.011 225.52C196.082 225.321 196.185 225.161 196.322 225.038C196.46 224.915 196.618 224.825 196.797 224.77C196.976 224.713 197.164 224.685 197.362 224.685C197.492 224.685 197.631 224.7 197.777 224.732C197.925 224.761 198.063 224.817 198.19 224.898C198.32 224.979 198.426 225.094 198.508 225.245C198.59 225.394 198.631 225.588 198.631 225.827V228H198.009V227.553H197.984C197.943 227.635 197.881 227.716 197.798 227.795C197.716 227.875 197.61 227.941 197.481 227.994C197.352 228.046 197.197 228.072 197.016 228.072ZM197.155 227.561C197.331 227.561 197.482 227.526 197.607 227.457C197.733 227.387 197.829 227.296 197.894 227.184C197.961 227.07 197.994 226.949 197.994 226.82V226.398C197.972 226.42 197.928 226.442 197.862 226.462C197.798 226.48 197.725 226.496 197.643 226.511C197.56 226.523 197.48 226.536 197.402 226.547C197.324 226.557 197.259 226.565 197.206 226.572C197.082 226.588 196.97 226.614 196.867 226.651C196.766 226.688 196.685 226.741 196.624 226.811C196.565 226.879 196.535 226.97 196.535 227.084C196.535 227.241 196.593 227.361 196.71 227.442C196.826 227.521 196.975 227.561 197.155 227.561ZM199.48 228V224.727H200.096V225.247H200.13C200.19 225.071 200.295 224.933 200.445 224.832C200.597 224.729 200.769 224.678 200.961 224.678C201.001 224.678 201.047 224.68 201.101 224.683C201.157 224.685 201.2 224.689 201.231 224.693V225.303C201.206 225.295 201.16 225.288 201.095 225.279C201.03 225.269 200.964 225.264 200.899 225.264C200.748 225.264 200.614 225.296 200.496 225.36C200.38 225.423 200.288 225.51 200.219 225.622C200.151 225.733 200.117 225.859 200.117 226.001V228H199.48ZM202.891 228.064C202.627 228.064 202.391 227.996 202.183 227.862C201.977 227.725 201.815 227.531 201.698 227.28C201.581 227.027 201.523 226.724 201.523 226.37C201.523 226.016 201.582 225.714 201.7 225.462C201.819 225.211 201.982 225.018 202.19 224.885C202.397 224.751 202.632 224.685 202.895 224.685C203.098 224.685 203.261 224.719 203.385 224.787C203.51 224.854 203.607 224.932 203.675 225.021C203.744 225.111 203.798 225.19 203.837 225.258H203.875V223.636H204.512V228H203.89V227.491H203.837C203.798 227.56 203.743 227.64 203.671 227.729C203.6 227.819 203.502 227.897 203.377 227.964C203.252 228.031 203.09 228.064 202.891 228.064ZM203.031 227.521C203.215 227.521 203.369 227.472 203.496 227.376C203.624 227.278 203.72 227.142 203.786 226.969C203.852 226.795 203.886 226.594 203.886 226.364C203.886 226.136 203.853 225.937 203.788 225.767C203.722 225.597 203.627 225.464 203.5 225.369C203.374 225.273 203.217 225.226 203.031 225.226C202.84 225.226 202.68 225.276 202.552 225.375C202.424 225.474 202.328 225.61 202.262 225.782C202.198 225.954 202.166 226.148 202.166 226.364C202.166 226.582 202.199 226.779 202.264 226.954C202.33 227.129 202.426 227.267 202.554 227.369C202.683 227.47 202.842 227.521 203.031 227.521Z" fill="white"/>
<rect x="223" y="257" width="30" height="9" rx="2" fill="#18181B" fill-opacity="0.8"/>
<rect x="223.25" y="257.25" width="29.5" height="8.5" rx="1.75" stroke="#27272A" stroke-opacity="0.8" stroke-width="0.5"/>
<path d="M225.551 259.636H226.35L227.739 263.028H227.79L229.179 259.636H229.978V264H229.352V260.842H229.311L228.024 263.994H227.505L226.218 260.84H226.177V264H225.551V259.636ZM230.884 264V260.727H231.521V264H230.884ZM231.206 260.222C231.095 260.222 231 260.185 230.921 260.112C230.842 260.036 230.803 259.947 230.803 259.843C230.803 259.738 230.842 259.648 230.921 259.575C231 259.499 231.095 259.462 231.206 259.462C231.317 259.462 231.411 259.499 231.489 259.575C231.569 259.648 231.609 259.738 231.609 259.843C231.609 259.947 231.569 260.036 231.489 260.112C231.411 260.185 231.317 260.222 231.206 260.222ZM233.604 264.064C233.339 264.064 233.104 263.996 232.896 263.862C232.69 263.725 232.528 263.531 232.41 263.28C232.294 263.027 232.236 262.724 232.236 262.37C232.236 262.016 232.295 261.714 232.413 261.462C232.532 261.211 232.695 261.018 232.903 260.885C233.11 260.751 233.345 260.685 233.608 260.685C233.811 260.685 233.974 260.719 234.098 260.787C234.223 260.854 234.32 260.932 234.388 261.021C234.457 261.111 234.511 261.19 234.55 261.258H234.588V259.636H235.225V264H234.603V263.491H234.55C234.511 263.56 234.456 263.64 234.383 263.729C234.312 263.819 234.214 263.897 234.089 263.964C233.964 264.031 233.802 264.064 233.604 264.064ZM233.744 263.521C233.927 263.521 234.082 263.472 234.209 263.376C234.337 263.278 234.433 263.142 234.498 262.969C234.565 262.795 234.599 262.594 234.599 262.364C234.599 262.136 234.566 261.937 234.501 261.767C234.435 261.597 234.339 261.464 234.213 261.369C234.087 261.273 233.93 261.226 233.744 261.226C233.552 261.226 233.393 261.276 233.265 261.375C233.137 261.474 233.04 261.61 232.975 261.782C232.911 261.954 232.879 262.148 232.879 262.364C232.879 262.582 232.912 262.779 232.977 262.954C233.043 263.129 233.139 263.267 233.267 263.369C233.396 263.47 233.555 263.521 233.744 263.521ZM237.558 260.203V259.636H240.935V260.203H239.574V264H238.918V260.203H237.558ZM241.63 264V260.727H242.267V264H241.63ZM241.952 260.222C241.841 260.222 241.746 260.185 241.667 260.112C241.589 260.036 241.549 259.947 241.549 259.843C241.549 259.738 241.589 259.648 241.667 259.575C241.746 259.499 241.841 259.462 241.952 259.462C242.063 259.462 242.157 259.499 242.236 259.575C242.315 259.648 242.355 259.738 242.355 259.843C242.355 259.947 242.315 260.036 242.236 260.112C242.157 260.185 242.063 260.222 241.952 260.222ZM243.762 259.636V264H243.125V259.636H243.762ZM246.029 264.066C245.707 264.066 245.429 263.997 245.196 263.859C244.965 263.72 244.786 263.525 244.659 263.273C244.534 263.021 244.472 262.724 244.472 262.385C244.472 262.05 244.534 261.754 244.659 261.499C244.786 261.243 244.962 261.043 245.188 260.9C245.415 260.756 245.68 260.685 245.984 260.685C246.169 260.685 246.348 260.715 246.521 260.776C246.695 260.837 246.85 260.933 246.988 261.064C247.126 261.195 247.234 261.364 247.314 261.573C247.394 261.781 247.433 262.033 247.433 262.33V262.555H244.832V262.078H246.809C246.809 261.911 246.775 261.762 246.707 261.633C246.639 261.502 246.543 261.399 246.419 261.324C246.297 261.249 246.153 261.211 245.989 261.211C245.81 261.211 245.653 261.255 245.52 261.343C245.388 261.43 245.286 261.543 245.213 261.684C245.142 261.823 245.107 261.974 245.107 262.138V262.511C245.107 262.729 245.145 262.915 245.222 263.069C245.3 263.222 245.408 263.339 245.548 263.42C245.687 263.5 245.85 263.54 246.036 263.54C246.156 263.54 246.266 263.523 246.366 263.489C246.465 263.453 246.551 263.401 246.624 263.331C246.696 263.261 246.752 263.175 246.79 263.073L247.393 263.182C247.345 263.359 247.258 263.515 247.133 263.648C247.009 263.781 246.854 263.884 246.666 263.957C246.48 264.03 246.268 264.066 246.029 264.066ZM250.593 261.526L250.015 261.629C249.991 261.555 249.953 261.484 249.9 261.418C249.849 261.351 249.779 261.296 249.691 261.254C249.603 261.211 249.493 261.19 249.361 261.19C249.181 261.19 249.03 261.23 248.909 261.311C248.789 261.391 248.728 261.494 248.728 261.62C248.728 261.729 248.769 261.817 248.85 261.884C248.931 261.951 249.061 262.006 249.242 262.048L249.762 262.168C250.063 262.237 250.287 262.344 250.435 262.489C250.583 262.634 250.657 262.822 250.657 263.054C250.657 263.25 250.6 263.425 250.486 263.578C250.374 263.73 250.217 263.849 250.015 263.936C249.815 264.023 249.583 264.066 249.318 264.066C248.952 264.066 248.653 263.988 248.421 263.832C248.19 263.674 248.048 263.45 247.995 263.161L248.611 263.067C248.649 263.227 248.728 263.349 248.848 263.431C248.967 263.512 249.122 263.553 249.314 263.553C249.523 263.553 249.69 263.509 249.815 263.423C249.94 263.335 250.002 263.227 250.002 263.101C250.002 262.999 249.964 262.913 249.887 262.843C249.812 262.773 249.696 262.721 249.54 262.685L248.986 262.564C248.681 262.494 248.455 262.384 248.309 262.232C248.164 262.08 248.091 261.887 248.091 261.654C248.091 261.461 248.145 261.292 248.253 261.147C248.361 261.002 248.51 260.889 248.701 260.808C248.891 260.726 249.109 260.685 249.355 260.685C249.708 260.685 249.987 260.761 250.19 260.915C250.393 261.067 250.527 261.271 250.593 261.526Z" fill="white"/>
<rect x="186" y="155" width="27" height="9" rx="2" fill="#18181B" fill-opacity="0.8"/>
<rect x="186.25" y="155.25" width="26.5" height="8.5" rx="1.75" stroke="#27272A" stroke-opacity="0.8" stroke-width="0.5"/>
<path d="M188.492 157.636H189.291L190.68 161.028H190.731L192.121 157.636H192.92V162H192.293V158.842H192.253L190.966 161.994H190.446L189.159 158.84H189.119V162H188.492V157.636ZM193.826 162V158.727H194.463V162H193.826ZM194.147 158.222C194.037 158.222 193.941 158.185 193.862 158.112C193.784 158.036 193.745 157.947 193.745 157.843C193.745 157.738 193.784 157.648 193.862 157.575C193.941 157.499 194.037 157.462 194.147 157.462C194.258 157.462 194.353 157.499 194.431 157.575C194.51 157.648 194.55 157.738 194.55 157.843C194.55 157.947 194.51 158.036 194.431 158.112C194.353 158.185 194.258 158.222 194.147 158.222ZM196.545 162.064C196.281 162.064 196.045 161.996 195.838 161.862C195.632 161.725 195.47 161.531 195.352 161.28C195.235 161.027 195.177 160.724 195.177 160.37C195.177 160.016 195.236 159.714 195.354 159.462C195.473 159.211 195.637 159.018 195.844 158.885C196.051 158.751 196.286 158.685 196.549 158.685C196.752 158.685 196.916 158.719 197.039 158.787C197.164 158.854 197.261 158.932 197.329 159.021C197.399 159.111 197.453 159.19 197.491 159.258H197.529V157.636H198.166V162H197.544V161.491H197.491C197.453 161.56 197.397 161.64 197.325 161.729C197.254 161.819 197.156 161.897 197.031 161.964C196.906 162.031 196.744 162.064 196.545 162.064ZM196.686 161.521C196.869 161.521 197.024 161.472 197.15 161.376C197.278 161.278 197.375 161.142 197.44 160.969C197.507 160.795 197.54 160.594 197.54 160.364C197.54 160.136 197.507 159.937 197.442 159.767C197.377 159.597 197.281 159.464 197.154 159.369C197.028 159.273 196.872 159.226 196.686 159.226C196.494 159.226 196.334 159.276 196.206 159.375C196.078 159.474 195.982 159.61 195.916 159.782C195.853 159.954 195.821 160.148 195.821 160.364C195.821 160.582 195.853 160.779 195.919 160.954C195.984 161.129 196.081 161.267 196.208 161.369C196.338 161.47 196.497 161.521 196.686 161.521ZM200.5 158.203V157.636H203.877V158.203H202.515V162H201.859V158.203H200.5ZM205.476 162.066C205.169 162.066 204.901 161.996 204.672 161.855C204.444 161.714 204.266 161.518 204.14 161.265C204.013 161.012 203.95 160.717 203.95 160.379C203.95 160.039 204.013 159.742 204.14 159.488C204.266 159.234 204.444 159.036 204.672 158.896C204.901 158.755 205.169 158.685 205.476 158.685C205.783 158.685 206.05 158.755 206.279 158.896C206.508 159.036 206.685 159.234 206.812 159.488C206.938 159.742 207.001 160.039 207.001 160.379C207.001 160.717 206.938 161.012 206.812 161.265C206.685 161.518 206.508 161.714 206.279 161.855C206.05 161.996 205.783 162.066 205.476 162.066ZM205.478 161.531C205.677 161.531 205.842 161.479 205.972 161.374C206.103 161.268 206.199 161.129 206.262 160.954C206.326 160.779 206.358 160.587 206.358 160.376C206.358 160.168 206.326 159.976 206.262 159.801C206.199 159.625 206.103 159.484 205.972 159.377C205.842 159.271 205.677 159.217 205.478 159.217C205.278 159.217 205.111 159.271 204.979 159.377C204.849 159.484 204.751 159.625 204.687 159.801C204.625 159.976 204.594 160.168 204.594 160.376C204.594 160.587 204.625 160.779 204.687 160.954C204.751 161.129 204.849 161.268 204.979 161.374C205.111 161.479 205.278 161.531 205.478 161.531ZM207.712 163.227V158.727H208.335V159.258H208.388C208.425 159.19 208.478 159.111 208.548 159.021C208.617 158.932 208.714 158.854 208.837 158.787C208.961 158.719 209.124 158.685 209.328 158.685C209.592 158.685 209.828 158.751 210.035 158.885C210.242 159.018 210.405 159.211 210.523 159.462C210.642 159.714 210.702 160.016 210.702 160.37C210.702 160.724 210.643 161.027 210.525 161.28C210.407 161.531 210.245 161.725 210.039 161.862C209.833 161.996 209.598 162.064 209.334 162.064C209.135 162.064 208.972 162.031 208.846 161.964C208.721 161.897 208.623 161.819 208.552 161.729C208.481 161.64 208.426 161.56 208.388 161.491H208.35V163.227H207.712ZM208.337 160.364C208.337 160.594 208.37 160.795 208.437 160.969C208.504 161.142 208.6 161.278 208.727 161.376C208.853 161.472 209.008 161.521 209.191 161.521C209.381 161.521 209.541 161.47 209.668 161.369C209.796 161.267 209.893 161.129 209.958 160.954C210.025 160.779 210.058 160.582 210.058 160.364C210.058 160.148 210.026 159.954 209.96 159.782C209.896 159.61 209.8 159.474 209.671 159.375C209.543 159.276 209.383 159.226 209.191 159.226C209.006 159.226 208.85 159.273 208.722 159.369C208.596 159.464 208.5 159.597 208.435 159.767C208.369 159.937 208.337 160.136 208.337 160.364Z" fill="white"/>
<rect x="308" y="290" width="28" height="9" rx="2" fill="#18181B" fill-opacity="0.8"/>
<rect x="308.25" y="290.25" width="27.5" height="8.5" rx="1.75" stroke="#27272A" stroke-opacity="0.8" stroke-width="0.5"/>
<path d="M311.053 297H310.354L311.925 292.636H312.685L314.256 297H313.557L312.323 293.429H312.289L311.053 297ZM311.17 295.291H313.437V295.845H311.17V295.291ZM316.474 297V292.636H317.132V296.433H319.109V297H316.474ZM321.188 297.066C320.881 297.066 320.613 296.996 320.384 296.855C320.156 296.714 319.978 296.518 319.852 296.265C319.725 296.012 319.662 295.717 319.662 295.379C319.662 295.039 319.725 294.742 319.852 294.488C319.978 294.234 320.156 294.036 320.384 293.896C320.613 293.755 320.881 293.685 321.188 293.685C321.494 293.685 321.762 293.755 321.991 293.896C322.22 294.036 322.397 294.234 322.524 294.488C322.65 294.742 322.713 295.039 322.713 295.379C322.713 295.717 322.65 296.012 322.524 296.265C322.397 296.518 322.22 296.714 321.991 296.855C321.762 296.996 321.494 297.066 321.188 297.066ZM321.19 296.531C321.389 296.531 321.553 296.479 321.684 296.374C321.815 296.268 321.911 296.129 321.974 295.954C322.038 295.779 322.07 295.587 322.07 295.376C322.07 295.168 322.038 294.976 321.974 294.801C321.911 294.625 321.815 294.484 321.684 294.377C321.553 294.271 321.389 294.217 321.19 294.217C320.99 294.217 320.823 294.271 320.691 294.377C320.561 294.484 320.463 294.625 320.399 294.801C320.337 294.976 320.306 295.168 320.306 295.376C320.306 295.587 320.337 295.779 320.399 295.954C320.463 296.129 320.561 296.268 320.691 296.374C320.823 296.479 320.99 296.531 321.19 296.531ZM323.475 297V292.636H324.113V294.258H324.151C324.188 294.19 324.241 294.111 324.311 294.021C324.38 293.932 324.477 293.854 324.6 293.787C324.724 293.719 324.887 293.685 325.091 293.685C325.355 293.685 325.591 293.751 325.798 293.885C326.005 294.018 326.168 294.211 326.286 294.462C326.405 294.714 326.465 295.016 326.465 295.37C326.465 295.724 326.406 296.027 326.288 296.28C326.17 296.531 326.008 296.725 325.802 296.862C325.596 296.996 325.361 297.064 325.097 297.064C324.898 297.064 324.735 297.031 324.609 296.964C324.484 296.897 324.386 296.819 324.315 296.729C324.244 296.64 324.189 296.56 324.151 296.491H324.098V297H323.475ZM324.1 295.364C324.1 295.594 324.133 295.795 324.2 295.969C324.267 296.142 324.363 296.278 324.49 296.376C324.616 296.472 324.771 296.521 324.954 296.521C325.145 296.521 325.304 296.47 325.431 296.369C325.559 296.267 325.656 296.129 325.721 295.954C325.788 295.779 325.821 295.582 325.821 295.364C325.821 295.148 325.789 294.954 325.723 294.782C325.659 294.61 325.563 294.474 325.434 294.375C325.306 294.276 325.146 294.226 324.954 294.226C324.77 294.226 324.613 294.273 324.485 294.369C324.359 294.464 324.263 294.597 324.198 294.767C324.132 294.937 324.1 295.136 324.1 295.364ZM327.231 297V292.636H327.868V294.258H327.907C327.944 294.19 327.997 294.111 328.067 294.021C328.136 293.932 328.233 293.854 328.356 293.787C328.48 293.719 328.643 293.685 328.846 293.685C329.111 293.685 329.346 293.751 329.554 293.885C329.761 294.018 329.924 294.211 330.042 294.462C330.161 294.714 330.221 295.016 330.221 295.37C330.221 295.724 330.162 296.027 330.044 296.28C329.926 296.531 329.764 296.725 329.558 296.862C329.352 296.996 329.117 297.064 328.853 297.064C328.654 297.064 328.491 297.031 328.365 296.964C328.24 296.897 328.142 296.819 328.071 296.729C328 296.64 327.945 296.56 327.907 296.491H327.854V297H327.231ZM327.856 295.364C327.856 295.594 327.889 295.795 327.956 295.969C328.023 296.142 328.119 296.278 328.246 296.376C328.372 296.472 328.527 296.521 328.71 296.521C328.9 296.521 329.059 296.47 329.187 296.369C329.315 296.267 329.412 296.129 329.477 295.954C329.544 295.779 329.577 295.582 329.577 295.364C329.577 295.148 329.545 294.954 329.479 294.782C329.415 294.61 329.319 294.474 329.189 294.375C329.062 294.276 328.902 294.226 328.71 294.226C328.525 294.226 328.369 294.273 328.241 294.369C328.115 294.464 328.019 294.597 327.954 294.767C327.888 294.937 327.856 295.136 327.856 295.364ZM331.227 298.227C331.132 298.227 331.046 298.219 330.968 298.204C330.889 298.19 330.831 298.174 330.793 298.157L330.946 297.635C331.063 297.666 331.166 297.68 331.257 297.675C331.348 297.671 331.428 297.637 331.498 297.573C331.569 297.509 331.632 297.405 331.686 297.26L331.764 297.043L330.567 293.727H331.249L332.078 296.267H332.112L332.941 293.727H333.624L332.276 297.437C332.213 297.607 332.134 297.751 332.037 297.869C331.941 297.989 331.825 298.078 331.692 298.138C331.558 298.197 331.404 298.227 331.227 298.227Z" fill="white"/>
<rect x="308" y="233" width="24" height="9" rx="2" fill="#18181B" fill-opacity="0.8"/>
<rect x="308.25" y="233.25" width="23.5" height="8.5" rx="1.75" stroke="#27272A" stroke-opacity="0.8" stroke-width="0.5"/>
<path d="M311.013 240H310.314L311.884 235.636H312.645L314.215 240H313.517L312.283 236.429H312.249L311.013 240ZM311.13 238.291H313.397V238.845H311.13V238.291ZM316.434 235.636H317.233L318.622 239.028H318.673L320.062 235.636H320.861V240H320.235V236.842H320.194L318.907 239.994H318.387L317.1 236.84H317.06V240H316.434V235.636ZM322.72 240.072C322.512 240.072 322.325 240.034 322.157 239.957C321.989 239.879 321.857 239.766 321.759 239.619C321.662 239.471 321.614 239.29 321.614 239.075C321.614 238.891 321.649 238.739 321.72 238.619C321.791 238.5 321.887 238.406 322.008 238.336C322.129 238.266 322.264 238.214 322.413 238.178C322.562 238.143 322.714 238.116 322.869 238.097C323.065 238.075 323.224 238.056 323.346 238.042C323.468 238.026 323.557 238.001 323.612 237.967C323.668 237.933 323.695 237.878 323.695 237.801V237.786C323.695 237.6 323.643 237.456 323.538 237.354C323.434 237.251 323.279 237.2 323.073 237.2C322.859 237.2 322.69 237.248 322.566 237.343C322.444 237.437 322.359 237.541 322.313 237.656L321.714 237.52C321.785 237.321 321.889 237.161 322.025 237.038C322.163 236.915 322.321 236.825 322.5 236.77C322.679 236.713 322.867 236.685 323.065 236.685C323.195 236.685 323.334 236.7 323.48 236.732C323.628 236.761 323.766 236.817 323.894 236.898C324.023 236.979 324.129 237.094 324.211 237.245C324.293 237.394 324.335 237.588 324.335 237.827V240H323.712V239.553H323.687C323.646 239.635 323.584 239.716 323.502 239.795C323.419 239.875 323.313 239.941 323.184 239.994C323.055 240.046 322.9 240.072 322.72 240.072ZM322.858 239.561C323.034 239.561 323.185 239.526 323.31 239.457C323.436 239.387 323.532 239.296 323.597 239.184C323.664 239.07 323.698 238.949 323.698 238.82V238.398C323.675 238.42 323.631 238.442 323.565 238.462C323.502 238.48 323.428 238.496 323.346 238.511C323.264 238.523 323.183 238.536 323.105 238.547C323.027 238.557 322.962 238.565 322.909 238.572C322.786 238.588 322.673 238.614 322.57 238.651C322.47 238.688 322.389 238.741 322.328 238.811C322.268 238.879 322.238 238.97 322.238 239.084C322.238 239.241 322.296 239.361 322.413 239.442C322.529 239.521 322.678 239.561 322.858 239.561ZM325.183 240V236.727H325.82V240H325.183ZM325.505 236.222C325.394 236.222 325.299 236.185 325.219 236.112C325.141 236.036 325.102 235.947 325.102 235.843C325.102 235.738 325.141 235.648 325.219 235.575C325.299 235.499 325.394 235.462 325.505 235.462C325.616 235.462 325.71 235.499 325.788 235.575C325.868 235.648 325.908 235.738 325.908 235.843C325.908 235.947 325.868 236.036 325.788 236.112C325.71 236.185 325.616 236.222 325.505 236.222ZM327.314 238.057V240H326.677V236.727H327.289V237.26H327.329C327.405 237.087 327.522 236.947 327.683 236.842C327.845 236.737 328.049 236.685 328.294 236.685C328.517 236.685 328.713 236.732 328.88 236.825C329.048 236.918 329.178 237.055 329.27 237.239C329.363 237.422 329.409 237.648 329.409 237.918V240H328.772V237.995C328.772 237.758 328.71 237.572 328.586 237.439C328.463 237.304 328.293 237.237 328.077 237.237C327.929 237.237 327.798 237.268 327.683 237.332C327.569 237.396 327.479 237.49 327.412 237.614C327.347 237.736 327.314 237.884 327.314 238.057Z" fill="white"/>
<rect x="271" y="134" width="22" height="9" rx="2" fill="#18181B" fill-opacity="0.8"/>
<rect x="271.25" y="134.25" width="21.5" height="8.5" rx="1.75" stroke="#27272A" stroke-opacity="0.8" stroke-width="0.5"/>
<path d="M274.05 141H273.351L274.922 136.636H275.682L277.253 141H276.554L275.32 137.429H275.286L274.05 141ZM274.167 139.291H276.434V139.845H274.167V139.291ZM279.471 141V136.636H280.129V140.433H282.106V141H279.471ZM282.806 141V137.727H283.443V141H282.806ZM283.128 137.222C283.017 137.222 282.922 137.185 282.842 137.112C282.764 137.036 282.725 136.947 282.725 136.843C282.725 136.738 282.764 136.648 282.842 136.575C282.922 136.499 283.017 136.462 283.128 136.462C283.239 136.462 283.333 136.499 283.411 136.575C283.491 136.648 283.531 136.738 283.531 136.843C283.531 136.947 283.491 137.036 283.411 137.112C283.333 137.185 283.239 137.222 283.128 137.222ZM284.937 139.057V141H284.3V137.727H284.912V138.26H284.952C285.028 138.087 285.146 137.947 285.306 137.842C285.468 137.737 285.672 137.685 285.918 137.685C286.141 137.685 286.336 137.732 286.503 137.825C286.671 137.918 286.801 138.055 286.893 138.239C286.986 138.422 287.032 138.648 287.032 138.918V141H286.395V138.995C286.395 138.758 286.333 138.572 286.209 138.439C286.086 138.304 285.916 138.237 285.7 138.237C285.552 138.237 285.421 138.268 285.306 138.332C285.192 138.396 285.102 138.49 285.035 138.614C284.97 138.736 284.937 138.884 284.937 139.057ZM288.472 139.89L288.468 139.112H288.579L289.883 137.727H290.646L289.158 139.304H289.058L288.472 139.89ZM287.886 141V136.636H288.523V141H287.886ZM289.953 141L288.781 139.445L289.22 138.999L290.735 141H289.953Z" fill="white"/>
<rect x="312" y="87" width="24" height="9" rx="2" fill="#18181B" fill-opacity="0.8"/>
<rect x="312.25" y="87.25" width="23.5" height="8.5" rx="1.75" stroke="#27272A" stroke-opacity="0.8" stroke-width="0.5"/>
<path d="M314.715 94V89.6364H316.313C316.622 89.6364 316.879 89.6875 317.082 89.7898C317.285 89.8906 317.437 90.0277 317.538 90.201C317.639 90.3729 317.689 90.5668 317.689 90.7827C317.689 90.9645 317.656 91.1179 317.589 91.2429C317.522 91.3665 317.433 91.4659 317.321 91.5412C317.21 91.6151 317.088 91.669 316.954 91.7031V91.7457C317.099 91.7528 317.24 91.7997 317.378 91.8864C317.517 91.9716 317.632 92.093 317.723 92.2507C317.814 92.4084 317.86 92.6001 317.86 92.826C317.86 93.049 317.807 93.2493 317.702 93.4268C317.598 93.603 317.438 93.7429 317.22 93.8466C317.003 93.9489 316.725 94 316.387 94H314.715ZM315.373 93.4354H316.323C316.639 93.4354 316.865 93.3743 317.001 93.2521C317.137 93.13 317.206 92.9773 317.206 92.794C317.206 92.6562 317.171 92.5298 317.101 92.4148C317.032 92.2997 316.932 92.2081 316.803 92.1399C316.675 92.0717 316.523 92.0376 316.347 92.0376H315.373V93.4354ZM315.373 91.5241H316.255C316.403 91.5241 316.536 91.4957 316.654 91.4389C316.773 91.3821 316.867 91.3026 316.937 91.2003C317.008 91.0966 317.044 90.9744 317.044 90.8338C317.044 90.6534 316.98 90.5021 316.854 90.38C316.728 90.2578 316.534 90.1967 316.272 90.1967H315.373V91.5241ZM320.597 94H319.898L321.468 89.6364H322.229L323.799 94H323.101L321.867 90.429H321.833L320.597 94ZM320.714 92.2912H322.981V92.8452H320.714V92.2912ZM325.016 89.6364V94H324.378V89.6364H325.016ZM326.51 89.6364V94H325.873V89.6364H326.51ZM328.777 94.0661C328.455 94.0661 328.177 93.9972 327.944 93.8594C327.713 93.7202 327.534 93.5249 327.407 93.2734C327.282 93.0206 327.22 92.7244 327.22 92.3849C327.22 92.0497 327.282 91.7543 327.407 91.4986C327.534 91.2429 327.71 91.0433 327.936 90.8999C328.163 90.7564 328.429 90.6847 328.733 90.6847C328.917 90.6847 329.096 90.7152 329.269 90.7763C329.443 90.8374 329.598 90.9332 329.736 91.0639C329.874 91.1946 329.983 91.3643 330.062 91.5732C330.142 91.7805 330.181 92.0327 330.181 92.3295V92.5554H327.58V92.0781H329.557C329.557 91.9105 329.523 91.7621 329.455 91.6328C329.387 91.5021 329.291 91.3991 329.167 91.3239C329.045 91.2486 328.902 91.2109 328.737 91.2109C328.558 91.2109 328.402 91.255 328.268 91.343C328.136 91.4297 328.034 91.5433 327.961 91.6839C327.89 91.8232 327.855 91.9744 327.855 92.1378V92.5107C327.855 92.7294 327.893 92.9155 327.97 93.0689C328.048 93.2223 328.157 93.3395 328.296 93.4205C328.435 93.5 328.598 93.5398 328.784 93.5398C328.904 93.5398 329.014 93.5227 329.114 93.4886C329.213 93.4531 329.299 93.4006 329.372 93.331C329.444 93.2614 329.5 93.1754 329.538 93.0732L330.141 93.1818C330.093 93.3594 330.006 93.5149 329.881 93.6484C329.757 93.7805 329.602 93.8835 329.414 93.9574C329.228 94.0298 329.016 94.0661 328.777 94.0661ZM331.197 95.2273C331.102 95.2273 331.015 95.2195 330.937 95.2038C330.859 95.1896 330.801 95.174 330.763 95.157L330.916 94.6349C331.032 94.6662 331.136 94.6797 331.227 94.6754C331.318 94.6712 331.398 94.6371 331.468 94.5732C331.539 94.5092 331.601 94.4048 331.655 94.2599L331.734 94.0426L330.537 90.7273H331.218L332.047 93.267H332.081L332.91 90.7273H333.594L332.245 94.4368C332.183 94.6072 332.103 94.7514 332.007 94.8693C331.91 94.9886 331.795 95.0781 331.662 95.1378C331.528 95.1974 331.373 95.2273 331.197 95.2273Z" fill="white"/>
<rect x="386" y="199" width="22" height="9" rx="2" fill="#18181B" fill-opacity="0.8"/>
<rect x="386.25" y="199.25" width="21.5" height="8.5" rx="1.75" stroke="#27272A" stroke-opacity="0.8" stroke-width="0.5"/>
<path d="M388.813 206V201.636H391.549V202.203H389.472V203.533H391.406V204.097H389.472V205.433H391.575V206H388.813ZM393.015 201.636V206H392.377V201.636H393.015ZM393.923 206V201.636H394.56V203.258H394.598C394.635 203.19 394.688 203.111 394.758 203.021C394.828 202.932 394.924 202.854 395.048 202.787C395.171 202.719 395.335 202.685 395.538 202.685C395.802 202.685 396.038 202.751 396.245 202.885C396.453 203.018 396.615 203.211 396.733 203.462C396.852 203.714 396.912 204.016 396.912 204.37C396.912 204.724 396.853 205.027 396.735 205.28C396.617 205.531 396.455 205.725 396.249 205.862C396.044 205.996 395.808 206.064 395.544 206.064C395.345 206.064 395.183 206.031 395.056 205.964C394.931 205.897 394.833 205.819 394.762 205.729C394.691 205.64 394.637 205.56 394.598 205.491H394.545V206H393.923ZM394.547 204.364C394.547 204.594 394.58 204.795 394.647 204.969C394.714 205.142 394.811 205.278 394.937 205.376C395.063 205.472 395.218 205.521 395.401 205.521C395.592 205.521 395.751 205.47 395.879 205.369C396.007 205.267 396.103 205.129 396.169 204.954C396.235 204.779 396.269 204.582 396.269 204.364C396.269 204.148 396.236 203.954 396.171 203.782C396.107 203.61 396.01 203.474 395.881 203.375C395.753 203.276 395.593 203.226 395.401 203.226C395.217 203.226 395.061 203.273 394.933 203.369C394.806 203.464 394.71 203.597 394.645 203.767C394.58 203.937 394.547 204.136 394.547 204.364ZM399.006 206.066C398.699 206.066 398.431 205.996 398.203 205.855C397.974 205.714 397.797 205.518 397.67 205.265C397.544 205.012 397.48 204.717 397.48 204.379C397.48 204.039 397.544 203.742 397.67 203.488C397.797 203.234 397.974 203.036 398.203 202.896C398.431 202.755 398.699 202.685 399.006 202.685C399.313 202.685 399.581 202.755 399.809 202.896C400.038 203.036 400.216 203.234 400.342 203.488C400.468 203.742 400.532 204.039 400.532 204.379C400.532 204.717 400.468 205.012 400.342 205.265C400.216 205.518 400.038 205.714 399.809 205.855C399.581 205.996 399.313 206.066 399.006 206.066ZM399.008 205.531C399.207 205.531 399.372 205.479 399.502 205.374C399.633 205.268 399.73 205.129 399.792 204.954C399.856 204.779 399.888 204.587 399.888 204.376C399.888 204.168 399.856 203.976 399.792 203.801C399.73 203.625 399.633 203.484 399.502 203.377C399.372 203.271 399.207 203.217 399.008 203.217C398.808 203.217 398.642 203.271 398.51 203.377C398.379 203.484 398.282 203.625 398.218 203.801C398.155 203.976 398.124 204.168 398.124 204.376C398.124 204.587 398.155 204.779 398.218 204.954C398.282 205.129 398.379 205.268 398.51 205.374C398.642 205.479 398.808 205.531 399.008 205.531ZM401.853 206L400.89 202.727H401.548L402.189 205.131H402.221L402.865 202.727H403.523L404.162 205.12H404.194L404.831 202.727H405.49L404.529 206H403.879L403.214 203.637H403.165L402.5 206H401.853Z" fill="white"/>
<rect x="204" y="424" width="37" height="9" rx="2" fill="#18181B" fill-opacity="0.8"/>
<rect x="204.25" y="424.25" width="36.5" height="8.5" rx="1.75" stroke="#27272A" stroke-opacity="0.8" stroke-width="0.5"/>
<path d="M207.006 431H206.307L207.878 426.636H208.638L210.209 431H209.51L208.276 427.429H208.242L207.006 431ZM207.123 429.291H209.39V429.845H207.123V429.291ZM210.108 427.203V426.636H213.485V427.203H212.124V431H211.467V427.203H210.108ZM214.231 431V426.636H214.89V428.72H214.943L216.773 426.636H217.602L215.842 428.601L217.608 431H216.816L215.405 429.05L214.89 429.643V431H214.231ZM222.184 427.783C222.161 427.581 222.067 427.425 221.902 427.314C221.738 427.202 221.53 427.146 221.28 427.146C221.101 427.146 220.946 427.174 220.816 427.231C220.685 427.286 220.583 427.363 220.511 427.461C220.44 427.558 220.404 427.668 220.404 427.791C220.404 427.895 220.429 427.984 220.477 428.06C220.527 428.135 220.591 428.198 220.671 428.249C220.752 428.299 220.838 428.341 220.931 428.375C221.023 428.408 221.112 428.435 221.197 428.456L221.623 428.567C221.762 428.601 221.905 428.647 222.051 428.705C222.198 428.763 222.333 428.84 222.458 428.935C222.583 429.031 222.684 429.148 222.761 429.289C222.839 429.43 222.878 429.598 222.878 429.794C222.878 430.041 222.814 430.261 222.686 430.452C222.56 430.644 222.376 430.795 222.135 430.906C221.895 431.017 221.604 431.072 221.263 431.072C220.936 431.072 220.654 431.021 220.415 430.917C220.176 430.813 219.99 430.666 219.855 430.476C219.72 430.284 219.645 430.057 219.631 429.794H220.292C220.304 429.952 220.355 430.083 220.445 430.188C220.536 430.292 220.652 430.369 220.792 430.42C220.934 430.47 221.09 430.495 221.259 430.495C221.445 430.495 221.61 430.466 221.755 430.408C221.902 430.348 222.017 430.266 222.1 430.161C222.184 430.054 222.226 429.93 222.226 429.788C222.226 429.658 222.189 429.553 222.115 429.47C222.043 429.388 221.944 429.32 221.819 429.266C221.696 429.212 221.556 429.164 221.4 429.123L220.884 428.982C220.534 428.887 220.257 428.747 220.053 428.562C219.85 428.378 219.748 428.134 219.748 427.83C219.748 427.578 219.816 427.359 219.953 427.171C220.089 426.984 220.274 426.838 220.507 426.734C220.74 426.629 221.002 426.577 221.295 426.577C221.591 426.577 221.851 426.629 222.077 426.732C222.304 426.836 222.483 426.979 222.614 427.161C222.745 427.341 222.813 427.548 222.819 427.783H222.184ZM223.614 432.227V427.727H224.236V428.258H224.289C224.326 428.19 224.379 428.111 224.449 428.021C224.519 427.932 224.615 427.854 224.739 427.787C224.862 427.719 225.026 427.685 225.229 427.685C225.493 427.685 225.729 427.751 225.936 427.885C226.144 428.018 226.306 428.211 226.424 428.462C226.544 428.714 226.603 429.016 226.603 429.37C226.603 429.724 226.544 430.027 226.426 430.28C226.308 430.531 226.146 430.725 225.941 430.862C225.735 430.996 225.499 431.064 225.235 431.064C225.036 431.064 224.874 431.031 224.747 430.964C224.622 430.897 224.524 430.819 224.453 430.729C224.382 430.64 224.328 430.56 224.289 430.491H224.251V432.227H223.614ZM224.238 429.364C224.238 429.594 224.271 429.795 224.338 429.969C224.405 430.142 224.502 430.278 224.628 430.376C224.754 430.472 224.909 430.521 225.093 430.521C225.283 430.521 225.442 430.47 225.57 430.369C225.698 430.267 225.794 430.129 225.86 429.954C225.926 429.779 225.96 429.582 225.96 429.364C225.96 429.148 225.927 428.954 225.862 428.782C225.798 428.61 225.701 428.474 225.572 428.375C225.444 428.276 225.284 428.226 225.093 428.226C224.908 428.226 224.752 428.273 224.624 428.369C224.497 428.464 224.401 428.597 224.336 428.767C224.271 428.937 224.238 429.136 224.238 429.364ZM228.269 431.072C228.062 431.072 227.874 431.034 227.707 430.957C227.539 430.879 227.406 430.766 227.308 430.619C227.212 430.471 227.164 430.29 227.164 430.075C227.164 429.891 227.199 429.739 227.27 429.619C227.341 429.5 227.437 429.406 227.558 429.336C227.678 429.266 227.813 429.214 227.963 429.178C228.112 429.143 228.264 429.116 228.419 429.097C228.615 429.075 228.774 429.056 228.896 429.042C229.018 429.026 229.107 429.001 229.162 428.967C229.218 428.933 229.245 428.878 229.245 428.801V428.786C229.245 428.6 229.193 428.456 229.088 428.354C228.984 428.251 228.829 428.2 228.623 428.2C228.409 428.2 228.24 428.248 228.116 428.343C227.994 428.437 227.909 428.541 227.862 428.656L227.264 428.52C227.335 428.321 227.438 428.161 227.575 428.038C227.713 427.915 227.871 427.825 228.05 427.77C228.229 427.713 228.417 427.685 228.615 427.685C228.745 427.685 228.884 427.7 229.03 427.732C229.178 427.761 229.316 427.817 229.443 427.898C229.573 427.979 229.678 428.094 229.761 428.245C229.843 428.394 229.884 428.588 229.884 428.827V431H229.262V430.553H229.237C229.195 430.635 229.134 430.716 229.051 430.795C228.969 430.875 228.863 430.941 228.734 430.994C228.605 431.046 228.45 431.072 228.269 431.072ZM228.408 430.561C228.584 430.561 228.735 430.526 228.86 430.457C228.986 430.387 229.082 430.296 229.147 430.184C229.214 430.07 229.247 429.949 229.247 429.82V429.398C229.225 429.42 229.181 429.442 229.115 429.462C229.051 429.48 228.978 429.496 228.896 429.511C228.813 429.523 228.733 429.536 228.655 429.547C228.577 429.557 228.512 429.565 228.459 429.572C228.335 429.588 228.222 429.614 228.12 429.651C228.019 429.688 227.938 429.741 227.877 429.811C227.818 429.879 227.788 429.97 227.788 430.084C227.788 430.241 227.846 430.361 227.963 430.442C228.079 430.521 228.227 430.561 228.408 430.561ZM231.442 431L230.479 427.727H231.138L231.779 430.131H231.811L232.455 427.727H233.113L233.752 430.12H233.784L234.421 427.727H235.08L234.119 431H233.469L232.804 428.637H232.755L232.09 431H231.442ZM236.321 429.057V431H235.684V427.727H236.296V428.26H236.336C236.411 428.087 236.529 427.947 236.69 427.842C236.852 427.737 237.056 427.685 237.301 427.685C237.524 427.685 237.72 427.732 237.887 427.825C238.055 427.918 238.185 428.055 238.277 428.239C238.369 428.422 238.416 428.648 238.416 428.918V431H237.779V428.995C237.779 428.758 237.717 428.572 237.593 428.439C237.47 428.304 237.3 428.237 237.084 428.237C236.936 428.237 236.805 428.268 236.69 428.332C236.576 428.396 236.486 428.49 236.419 428.614C236.354 428.736 236.321 428.884 236.321 429.057Z" fill="white"/>
<rect x="189" y="47" width="37" height="9" rx="2" fill="#18181B" fill-opacity="0.8"/>
<rect x="189.25" y="47.25" width="36.5" height="8.5" rx="1.75" stroke="#27272A" stroke-opacity="0.8" stroke-width="0.5"/>
<path d="M193.109 54H191.696V49.6364H193.154C193.581 49.6364 193.948 49.7237 194.255 49.8984C194.562 50.0717 194.797 50.321 194.96 50.6463C195.125 50.9702 195.208 51.3587 195.208 51.8118C195.208 52.2663 195.124 52.657 194.958 52.9837C194.794 53.3104 194.555 53.5618 194.242 53.7379C193.93 53.9126 193.552 54 193.109 54ZM192.355 53.4247H193.073C193.405 53.4247 193.681 53.3622 193.901 53.2372C194.122 53.1108 194.286 52.9283 194.396 52.6896C194.505 52.4496 194.56 52.157 194.56 51.8118C194.56 51.4695 194.505 51.179 194.396 50.9403C194.288 50.7017 194.127 50.5206 193.912 50.397C193.698 50.2734 193.431 50.2116 193.113 50.2116H192.355V53.4247ZM196.026 54V49.6364H198.762V50.2031H196.685V51.5327H198.619V52.0973H196.685V53.4332H198.788V54H196.026ZM199.642 54V49.6364H202.347V50.2031H200.3V51.5327H202.154V52.0973H200.3V54H199.642ZM207.125 50.7827C207.102 50.581 207.009 50.4247 206.844 50.3139C206.679 50.2017 206.472 50.1456 206.222 50.1456C206.043 50.1456 205.888 50.174 205.757 50.2308C205.626 50.2862 205.525 50.3629 205.452 50.4609C205.381 50.5575 205.346 50.6676 205.346 50.7912C205.346 50.8949 205.37 50.9844 205.418 51.0597C205.468 51.1349 205.533 51.1982 205.612 51.2493C205.693 51.299 205.78 51.3409 205.872 51.375C205.964 51.4077 206.053 51.4347 206.138 51.456L206.565 51.5668C206.704 51.6009 206.847 51.647 206.993 51.7053C207.139 51.7635 207.275 51.8402 207.4 51.9354C207.525 52.0305 207.626 52.1484 207.702 52.2891C207.781 52.4297 207.82 52.598 207.82 52.794C207.82 53.0412 207.756 53.2607 207.628 53.4524C207.501 53.6442 207.317 53.7955 207.076 53.9062C206.836 54.017 206.545 54.0724 206.205 54.0724C205.878 54.0724 205.595 54.0206 205.357 53.9169C205.118 53.8132 204.931 53.6662 204.796 53.4759C204.661 53.2841 204.587 53.0568 204.572 52.794H205.233C205.246 52.9517 205.297 53.0831 205.386 53.1882C205.477 53.2919 205.593 53.3693 205.734 53.4205C205.876 53.4702 206.031 53.495 206.2 53.495C206.386 53.495 206.552 53.4659 206.697 53.4077C206.843 53.348 206.958 53.2656 207.042 53.1605C207.126 53.054 207.168 52.9297 207.168 52.7876C207.168 52.6584 207.131 52.5526 207.057 52.4702C206.984 52.3878 206.886 52.3196 206.761 52.2656C206.637 52.2116 206.497 52.1641 206.341 52.1229L205.825 51.9822C205.476 51.8871 205.199 51.7472 204.994 51.5625C204.791 51.3778 204.69 51.1335 204.69 50.8295C204.69 50.5781 204.758 50.3587 204.894 50.1712C205.031 49.9837 205.215 49.8381 205.448 49.7344C205.681 49.6293 205.944 49.5767 206.237 49.5767C206.532 49.5767 206.793 49.6286 207.018 49.7322C207.246 49.8359 207.425 49.9787 207.555 50.1605C207.686 50.3409 207.754 50.5483 207.76 50.7827H207.125ZM208.555 55.2273V50.7273H209.177V51.2578H209.231C209.268 51.1896 209.321 51.1108 209.39 51.0213C209.46 50.9318 209.557 50.8537 209.68 50.7869C209.804 50.7188 209.967 50.6847 210.17 50.6847C210.434 50.6847 210.67 50.7514 210.878 50.8849C211.085 51.0185 211.248 51.2109 211.366 51.4624C211.485 51.7138 211.545 52.0163 211.545 52.37C211.545 52.7237 211.486 53.027 211.368 53.2798C211.25 53.5312 211.088 53.7251 210.882 53.8615C210.676 53.9964 210.441 54.0639 210.177 54.0639C209.978 54.0639 209.815 54.0305 209.689 53.9638C209.564 53.897 209.466 53.8189 209.395 53.7294C209.324 53.6399 209.269 53.5604 209.231 53.4908H209.192V55.2273H208.555ZM209.18 52.3636C209.18 52.5937 209.213 52.7955 209.28 52.9688C209.346 53.142 209.443 53.2777 209.569 53.3757C209.696 53.4723 209.851 53.5206 210.034 53.5206C210.224 53.5206 210.383 53.4702 210.511 53.3693C210.639 53.267 210.736 53.1286 210.801 52.9538C210.868 52.7791 210.901 52.5824 210.901 52.3636C210.901 52.1477 210.868 51.9538 210.803 51.782C210.739 51.6101 210.643 51.4744 210.513 51.375C210.385 51.2756 210.226 51.2259 210.034 51.2259C209.849 51.2259 209.693 51.2734 209.565 51.3686C209.439 51.4638 209.343 51.5966 209.278 51.767C209.212 51.9375 209.18 52.1364 209.18 52.3636ZM213.211 54.0724C213.003 54.0724 212.816 54.0341 212.648 53.9574C212.481 53.8793 212.348 53.7663 212.25 53.6186C212.153 53.4709 212.105 53.2898 212.105 53.0753C212.105 52.8906 212.14 52.7386 212.211 52.6193C212.282 52.5 212.378 52.4055 212.499 52.3359C212.62 52.2663 212.755 52.2138 212.904 52.1783C213.053 52.1428 213.205 52.1158 213.36 52.0973C213.556 52.0746 213.715 52.0561 213.837 52.0419C213.959 52.0263 214.048 52.0014 214.104 51.9673C214.159 51.9332 214.187 51.8778 214.187 51.8011V51.7862C214.187 51.6001 214.134 51.456 214.029 51.3537C213.925 51.2514 213.77 51.2003 213.564 51.2003C213.35 51.2003 213.181 51.2479 213.057 51.343C212.935 51.4368 212.851 51.5412 212.804 51.6562L212.205 51.5199C212.276 51.321 212.38 51.1605 212.516 51.0384C212.654 50.9148 212.812 50.8253 212.991 50.7699C213.17 50.7131 213.358 50.6847 213.556 50.6847C213.687 50.6847 213.825 50.7003 213.971 50.7315C214.119 50.7614 214.257 50.8168 214.385 50.8977C214.514 50.9787 214.62 51.0945 214.702 51.245C214.785 51.3942 214.826 51.5881 214.826 51.8267V54H214.204V53.5526H214.178C214.137 53.6349 214.075 53.7159 213.993 53.7955C213.91 53.875 213.805 53.9411 213.675 53.9936C213.546 54.0462 213.391 54.0724 213.211 54.0724ZM213.349 53.5611C213.525 53.5611 213.676 53.5263 213.801 53.4567C213.927 53.3871 214.023 53.2962 214.089 53.1839C214.155 53.0703 214.189 52.9489 214.189 52.8196V52.3977C214.166 52.4205 214.122 52.4418 214.057 52.4616C213.993 52.4801 213.92 52.4964 213.837 52.5107C213.755 52.5234 213.675 52.5355 213.596 52.5469C213.518 52.5568 213.453 52.5653 213.4 52.5724C213.277 52.5881 213.164 52.6143 213.062 52.6513C212.961 52.6882 212.88 52.7415 212.819 52.8111C212.759 52.8793 212.729 52.9702 212.729 53.0838C212.729 53.2415 212.787 53.3608 212.904 53.4418C213.02 53.5213 213.169 53.5611 213.349 53.5611ZM216.384 54L215.421 50.7273H216.079L216.721 53.1307H216.752L217.396 50.7273H218.054L218.694 53.12H218.725L219.363 50.7273H220.021L219.06 54H218.41L217.745 51.6371H217.696L217.032 54H216.384ZM221.263 52.0568V54H220.626V50.7273H221.237V51.2599H221.278C221.353 51.0866 221.471 50.9474 221.631 50.8423C221.793 50.7372 221.997 50.6847 222.243 50.6847C222.466 50.6847 222.661 50.7315 222.829 50.8253C222.996 50.9176 223.126 51.0554 223.219 51.2386C223.311 51.4219 223.357 51.6484 223.357 51.9183V54H222.72V51.995C222.72 51.7578 222.658 51.5724 222.535 51.4389C222.411 51.304 222.241 51.2365 222.025 51.2365C221.878 51.2365 221.746 51.2685 221.631 51.3324C221.518 51.3963 221.427 51.4901 221.361 51.6136C221.295 51.7358 221.263 51.8835 221.263 52.0568Z" fill="white"/>
</svg>
