<svg width="467" height="473" viewBox="0 0 467 473" fill="none" xmlns="http://www.w3.org/2000/svg">
<path fill-rule="evenodd" clip-rule="evenodd" d="M449.196 176.426V258.828H465.676V366.749H433.247V338.041H388.59V362.496H392.843V386.951H326.921V360.901H261.53V455H222.19V389.078H150.951V416.191H56.3212V388.015H78.118V384.825H74.9282V377.382H29.208V359.838H0.5V342.826H2.62653V284.347H0.5V268.398H11.1326L40.9039 289.663H75.9915V238.627H64.8272V255.107H33.4611V192.906H18.5754V164.73H41.4355V112.877H134.471V75.4161H218.468V18H237.075L251.961 19.0633V20.6582L271.1 19.0633V20.6582H282.796V71.6946H280.669V77.229H288.112V73.2896H358.287V86.0487H398.691V184.932H386.464V191.843H413.577V176.426H449.196ZM172.217 372.066V364.091H122.775V341.231H108.562V362.496H99.3833L94.067 368.876V384.825H90.8772V388.015H116.395V398.116H119.321V372.066H172.217ZM73.865 364.091V338.041H41.4355V364.091H73.865ZM127.56 315.181L140.319 291.258V289.131H132.876V272.651L138.192 262.018V241.816H108.421V259.36H93.0037V274.246H115.864V310.928L121.712 323.687H122.775V315.181H127.56ZM225.38 256.702V208.324H227.506V184.932H187.102V191.843H173.811V162.072H102.573V184.932H71.2068V181.21H69.0803V192.906H61.6375V215.766H69.0803L84.4976 199.818H108.421V224.804H127.56V208.855H159.457L171.685 221.083V290.195H183.381V262.55H230.164V259.36C229.795 257.964 229.386 257.337 228.038 256.702H225.38ZM350.313 129.111H319.478V153.034H305.124V136.554H278.011V153.034H275.353V140.807H227.506V168.451H187.102V145.06H86.0925V168.451H71.2068V172.173H69.0803V161.54H77.0548V138.68H172.748V96.6813H218.468V108.377H229.101V94.5547H322.136L325.858 98.8078V117.946H350.313V129.111ZM297.15 249.791H303.529V305.718H277.479V341.231H261.53V334.852H234.949V360.901L225.911 372.066H184.976V331.13H167.432V304.549H202.52V276.904H209.962V290.726H253.556V278.499L243.731 268.398V261.487H265.252V249.791H268.442V265.208H297.15V249.791ZM374.236 338.041V362.496H362.54V370.471H347.655V341.231H292.723V316.776H320.541V292.853H351.908V338.041H374.236ZM388.59 304.017H425.804V286.473C425.804 286.048 400.995 286.296 388.59 286.473V304.017ZM350.844 184.932V143.996H343.933V184.4H278.011V169.515H275.353V208.855H265.252V233.31H302.998L321.073 215.235H333.832V247.664H370.515L381.147 258.828H425.804V227.994H367.325V191.843H369.983V184.932H350.844Z" fill="#271406"/>
<path d="M449.196 258.828H448.696V259.328H449.196V258.828ZM449.196 176.426H449.696V175.926H449.196V176.426ZM465.676 258.828H466.176V258.328H465.676V258.828ZM465.676 366.749V367.249H466.176V366.749H465.676ZM433.247 366.749H432.747V367.249H433.247V366.749ZM433.247 338.041H433.747V337.541H433.247V338.041ZM388.59 338.041V337.541H388.09V338.041H388.59ZM388.59 362.496H388.09V362.996H388.59V362.496ZM392.843 362.496H393.343V361.996H392.843V362.496ZM392.843 386.951V387.451H393.343V386.951H392.843ZM326.921 386.951H326.421V387.451H326.921V386.951ZM326.921 360.901H327.421V360.401H326.921V360.901ZM261.53 360.901V360.401H261.03V360.901H261.53ZM261.53 455V455.5H262.03V455H261.53ZM222.19 455H221.69V455.5H222.19V455ZM222.19 389.078H222.69V388.578H222.19V389.078ZM150.951 389.078V388.578H150.451V389.078H150.951ZM150.951 416.191V416.691H151.451V416.191H150.951ZM56.3212 416.191H55.8212V416.691H56.3212V416.191ZM56.3212 388.015V387.515H55.8212V388.015H56.3212ZM78.118 388.015V388.515H78.618V388.015H78.118ZM78.118 384.825H78.618V384.325H78.118V384.825ZM74.9282 384.825H74.4282V385.325H74.9282V384.825ZM74.9282 377.382H75.4282V376.882H74.9282V377.382ZM29.208 377.382H28.708V377.882H29.208V377.382ZM29.208 359.838H29.708V359.338H29.208V359.838ZM0.5 359.838H0V360.338H0.5V359.838ZM0.5 342.826V342.326H0V342.826H0.5ZM2.62653 342.826V343.326H3.12653V342.826H2.62653ZM2.62653 284.347H3.12653V283.847H2.62653V284.347ZM0.5 284.347H0V284.847H0.5V284.347ZM0.5 268.398V267.898H0V268.398H0.5ZM11.1326 268.398L11.4232 267.991L11.2928 267.898H11.1326V268.398ZM40.9039 289.663L40.6133 290.07L40.7437 290.163H40.9039V289.663ZM75.9915 289.663V290.163H76.4915V289.663H75.9915ZM75.9915 238.627H76.4915V238.127H75.9915V238.627ZM64.8272 238.627V238.127H64.3272V238.627H64.8272ZM64.8272 255.107V255.607H65.3272V255.107H64.8272ZM33.4611 255.107H32.9611V255.607H33.4611V255.107ZM33.4611 192.906H33.9611V192.406H33.4611V192.906ZM18.5754 192.906H18.0754V193.406H18.5754V192.906ZM18.5754 164.73V164.23H18.0754V164.73H18.5754ZM41.4355 164.73V165.23H41.9355V164.73H41.4355ZM41.4355 112.877V112.377H40.9355V112.877H41.4355ZM134.471 112.877V113.377H134.971V112.877H134.471ZM134.471 75.4161V74.9161H133.971V75.4161H134.471ZM218.468 75.4161V75.9161H218.968V75.4161H218.468ZM218.468 18V17.5H217.968V18H218.468ZM237.075 18L237.111 17.5013L237.093 17.5H237.075V18ZM251.961 19.0633H252.461V18.5977L251.997 18.5645L251.961 19.0633ZM251.961 20.6582H251.461V21.2016L252.003 21.1564L251.961 20.6582ZM271.1 19.0633H271.6V18.5199L271.058 18.565L271.1 19.0633ZM271.1 20.6582H270.6V21.1582H271.1V20.6582ZM282.796 20.6582H283.296V20.1582H282.796V20.6582ZM282.796 71.6946V72.1946H283.296V71.6946H282.796ZM280.669 71.6946V71.1946H280.169V71.6946H280.669ZM280.669 77.229H280.169V77.729H280.669V77.229ZM288.112 77.229V77.729H288.612V77.229H288.112ZM288.112 73.2896V72.7896H287.612V73.2896H288.112ZM358.287 73.2896H358.787V72.7896H358.287V73.2896ZM358.287 86.0487H357.787V86.5487H358.287V86.0487ZM398.691 86.0487H399.191V85.5487H398.691V86.0487ZM398.691 184.932V185.432H399.191V184.932H398.691ZM386.464 184.932V184.432H385.964V184.932H386.464ZM386.464 191.843H385.964V192.343H386.464V191.843ZM413.577 191.843V192.343H414.077V191.843H413.577ZM413.577 176.426V175.926H413.077V176.426H413.577ZM172.217 364.091H172.717V363.591H172.217V364.091ZM172.217 372.066V372.566H172.717V372.066H172.217ZM122.775 364.091H122.275V364.591H122.775V364.091ZM122.775 341.231H123.275V340.731H122.775V341.231ZM108.562 341.231V340.731H108.062V341.231H108.562ZM108.562 362.496V362.996H109.062V362.496H108.562ZM99.3833 362.496V361.996H99.1491L98.9991 362.176L99.3833 362.496ZM94.067 368.876L93.6828 368.556L93.567 368.695V368.876H94.067ZM94.067 384.825V385.325H94.567V384.825H94.067ZM90.8772 384.825V384.325H90.3772V384.825H90.8772ZM90.8772 388.015H90.3772V388.515H90.8772V388.015ZM116.395 388.015H116.895V387.515H116.395V388.015ZM116.395 398.116H115.895V398.616H116.395V398.116ZM119.321 398.116V398.616H119.821V398.116H119.321ZM119.321 372.066V371.566H118.821V372.066H119.321ZM73.865 338.041H74.365V337.541H73.865V338.041ZM73.865 364.091V364.591H74.365V364.091H73.865ZM41.4355 338.041V337.541H40.9355V338.041H41.4355ZM41.4355 364.091H40.9355V364.591H41.4355V364.091ZM140.319 291.258L140.76 291.493L140.819 291.383V291.258H140.319ZM127.56 315.181V315.681H127.86L128.001 315.417L127.56 315.181ZM140.319 289.131H140.819V288.631H140.319V289.131ZM132.876 289.131H132.376V289.631H132.876V289.131ZM132.876 272.651L132.429 272.427L132.376 272.533V272.651H132.876ZM138.192 262.018L138.639 262.242L138.692 262.136V262.018H138.192ZM138.192 241.816H138.692V241.316H138.192V241.816ZM108.421 241.816V241.316H107.921V241.816H108.421ZM108.421 259.36V259.86H108.921V259.36H108.421ZM93.0037 259.36V258.86H92.5037V259.36H93.0037ZM93.0037 274.246H92.5037V274.746H93.0037V274.246ZM115.864 274.246H116.364V273.746H115.864V274.246ZM115.864 310.928H115.364V311.037L115.409 311.137L115.864 310.928ZM121.712 323.687L121.257 323.896L121.391 324.187H121.712V323.687ZM122.775 323.687V324.187H123.275V323.687H122.775ZM122.775 315.181V314.681H122.275V315.181H122.775ZM225.38 208.324V207.824H224.88V208.324H225.38ZM225.38 256.702H224.88V257.202H225.38V256.702ZM227.506 208.324V208.824H228.006V208.324H227.506ZM227.506 184.932H228.006V184.432H227.506V184.932ZM187.102 184.932V184.432H186.602V184.932H187.102ZM187.102 191.843V192.343H187.602V191.843H187.102ZM173.811 191.843H173.311V192.343H173.811V191.843ZM173.811 162.072H174.311V161.572H173.811V162.072ZM102.573 162.072V161.572H102.073V162.072H102.573ZM102.573 184.932V185.432H103.073V184.932H102.573ZM71.2068 184.932H70.7068V185.432H71.2068V184.932ZM71.2068 181.21H71.7068V180.71H71.2068V181.21ZM69.0803 181.21V180.71H68.5803V181.21H69.0803ZM69.0803 192.906V193.406H69.5803V192.906H69.0803ZM61.6375 192.906V192.406H61.1375V192.906H61.6375ZM61.6375 215.766H61.1375V216.266H61.6375V215.766ZM69.0803 215.766V216.266H69.2924L69.4398 216.114L69.0803 215.766ZM84.4976 199.818V199.318H84.2855L84.1381 199.47L84.4976 199.818ZM108.421 199.818H108.921V199.318H108.421V199.818ZM108.421 224.804H107.921V225.304H108.421V224.804ZM127.56 224.804V225.304H128.06V224.804H127.56ZM127.56 208.855V208.355H127.06V208.855H127.56ZM159.457 208.855L159.811 208.502L159.665 208.355H159.457V208.855ZM171.685 221.083H172.185V220.876L172.039 220.729L171.685 221.083ZM171.685 290.195H171.185V290.695H171.685V290.195ZM183.381 290.195V290.695H183.881V290.195H183.381ZM183.381 262.55V262.05H182.881V262.55H183.381ZM230.164 262.55V263.05H230.664V262.55H230.164ZM230.164 259.36H230.664V259.295L230.648 259.232L230.164 259.36ZM228.038 256.702L228.251 256.25L228.15 256.202H228.038V256.702ZM319.478 129.111V128.611H318.978V129.111H319.478ZM350.313 129.111V129.611H350.813V129.111H350.313ZM319.478 153.034V153.534H319.978V153.034H319.478ZM305.124 153.034H304.624V153.534H305.124V153.034ZM305.124 136.554H305.624V136.054H305.124V136.554ZM278.011 136.554V136.054H277.511V136.554H278.011ZM278.011 153.034V153.534H278.511V153.034H278.011ZM275.353 153.034H274.853V153.534H275.353V153.034ZM275.353 140.807H275.853V140.307H275.353V140.807ZM227.506 140.807V140.307H227.006V140.807H227.506ZM227.506 168.451V168.951H228.006V168.451H227.506ZM187.102 168.451H186.602V168.951H187.102V168.451ZM187.102 145.06H187.602V144.56H187.102V145.06ZM86.0925 145.06V144.56H85.5925V145.06H86.0925ZM86.0925 168.451V168.951H86.5925V168.451H86.0925ZM71.2068 168.451V167.951H70.7068V168.451H71.2068ZM71.2068 172.173V172.673H71.7068V172.173H71.2068ZM69.0803 172.173H68.5803V172.673H69.0803V172.173ZM69.0803 161.54V161.04H68.5803V161.54H69.0803ZM77.0548 161.54V162.04H77.5548V161.54H77.0548ZM77.0548 138.68V138.18H76.5548V138.68H77.0548ZM172.748 138.68V139.18H173.248V138.68H172.748ZM172.748 96.6813V96.1813H172.248V96.6813H172.748ZM218.468 96.6813H218.968V96.1813H218.468V96.6813ZM218.468 108.377H217.968V108.877H218.468V108.377ZM229.101 108.377V108.877H229.601V108.377H229.101ZM229.101 94.5547V94.0547H228.601V94.5547H229.101ZM322.136 94.5547L322.513 94.2255L322.363 94.0547H322.136V94.5547ZM325.858 98.8078H326.358V98.6199L326.234 98.4785L325.858 98.8078ZM325.858 117.946H325.358V118.446H325.858V117.946ZM350.313 117.946H350.813V117.446H350.313V117.946ZM303.529 249.791H304.029V249.291H303.529V249.791ZM297.15 249.791V249.291H296.65V249.791H297.15ZM303.529 305.718V306.218H304.029V305.718H303.529ZM277.479 305.718V305.218H276.979V305.718H277.479ZM277.479 341.231V341.731H277.979V341.231H277.479ZM261.53 341.231H261.03V341.731H261.53V341.231ZM261.53 334.852H262.03V334.352H261.53V334.852ZM234.949 334.852V334.352H234.449V334.852H234.949ZM234.949 360.901L235.338 361.216L235.449 361.078V360.901H234.949ZM225.911 372.066V372.566H226.15L226.3 372.38L225.911 372.066ZM184.976 372.066H184.476V372.566H184.976V372.066ZM184.976 331.13H185.476V330.63H184.976V331.13ZM167.432 331.13H166.932V331.63H167.432V331.13ZM167.432 304.549V304.049H166.932V304.549H167.432ZM202.52 304.549V305.049H203.02V304.549H202.52ZM202.52 276.904V276.404H202.02V276.904H202.52ZM209.962 276.904H210.462V276.404H209.962V276.904ZM209.962 290.726H209.462V291.226H209.962V290.726ZM253.556 290.726V291.226H254.056V290.726H253.556ZM253.556 278.499H254.056V278.296L253.914 278.15L253.556 278.499ZM243.731 268.398H243.231V268.601L243.373 268.746L243.731 268.398ZM243.731 261.487V260.987H243.231V261.487H243.731ZM265.252 261.487V261.987H265.752V261.487H265.252ZM265.252 249.791V249.291H264.752V249.791H265.252ZM268.442 249.791H268.942V249.291H268.442V249.791ZM268.442 265.208H267.942V265.708H268.442V265.208ZM297.15 265.208V265.708H297.65V265.208H297.15ZM374.236 362.496V362.996H374.736V362.496H374.236ZM374.236 338.041H374.736V337.541H374.236V338.041ZM362.54 362.496V361.996H362.04V362.496H362.54ZM362.54 370.471V370.971H363.04V370.471H362.54ZM347.655 370.471H347.155V370.971H347.655V370.471ZM347.655 341.231H348.155V340.731H347.655V341.231ZM292.723 341.231H292.223V341.731H292.723V341.231ZM292.723 316.776V316.276H292.223V316.776H292.723ZM320.541 316.776V317.276H321.041V316.776H320.541ZM320.541 292.853V292.353H320.041V292.853H320.541ZM351.908 292.853H352.408V292.353H351.908V292.853ZM351.908 338.041H351.408V338.541H351.908V338.041ZM425.804 304.017V304.517H426.304V304.017H425.804ZM388.59 304.017H388.09V304.517H388.59V304.017ZM388.59 286.473L388.583 285.973L388.09 285.98V286.473H388.59ZM350.844 143.996H351.344V143.496H350.844V143.996ZM350.844 184.932H350.344V185.432H350.844V184.932ZM343.933 143.996V143.496H343.433V143.996H343.933ZM343.933 184.4V184.9H344.433V184.4H343.933ZM278.011 184.4H277.511V184.9H278.011V184.4ZM278.011 169.515H278.511V169.015H278.011V169.515ZM275.353 169.515V169.015H274.853V169.515H275.353ZM275.353 208.855V209.355H275.853V208.855H275.353ZM265.252 208.855V208.355H264.752V208.855H265.252ZM265.252 233.31H264.752V233.81H265.252V233.31ZM302.998 233.31V233.81H303.205L303.351 233.664L302.998 233.31ZM321.073 215.235V214.735H320.866L320.719 214.881L321.073 215.235ZM333.832 215.235H334.332V214.735H333.832V215.235ZM333.832 247.664H333.332V248.164H333.832V247.664ZM370.515 247.664L370.877 247.319L370.729 247.164H370.515V247.664ZM381.147 258.828L380.785 259.173L380.933 259.328H381.147V258.828ZM425.804 258.828V259.328H426.304V258.828H425.804ZM425.804 227.994H426.304V227.494H425.804V227.994ZM367.325 227.994H366.825V228.494H367.325V227.994ZM367.325 191.843V191.343H366.825V191.843H367.325ZM369.983 191.843V192.343H370.483V191.843H369.983ZM369.983 184.932H370.483V184.432H369.983V184.932ZM449.196 258.828H449.696V176.426H449.196H448.696V258.828H449.196ZM465.676 258.828V258.328H449.196V258.828V259.328H465.676V258.828ZM465.676 366.749H466.176V258.828H465.676H465.176V366.749H465.676ZM433.247 366.749V367.249H465.676V366.749V366.249H433.247V366.749ZM433.247 338.041H432.747V366.749H433.247H433.747V338.041H433.247ZM388.59 338.041V338.541H433.247V338.041V337.541H388.59V338.041ZM388.59 362.496H389.09V338.041H388.59H388.09V362.496H388.59ZM392.843 362.496V361.996H388.59V362.496V362.996H392.843V362.496ZM392.843 386.951H393.343V362.496H392.843H392.343V386.951H392.843ZM326.921 386.951V387.451H392.843V386.951V386.451H326.921V386.951ZM326.921 360.901H326.421V386.951H326.921H327.421V360.901H326.921ZM261.53 360.901V361.401H326.921V360.901V360.401H261.53V360.901ZM261.53 455H262.03V360.901H261.53H261.03V455H261.53ZM222.19 455V455.5H261.53V455V454.5H222.19V455ZM222.19 389.078H221.69V455H222.19H222.69V389.078H222.19ZM150.951 389.078V389.578H222.19V389.078V388.578H150.951V389.078ZM150.951 416.191H151.451V389.078H150.951H150.451V416.191H150.951ZM56.3212 416.191V416.691H150.951V416.191V415.691H56.3212V416.191ZM56.3212 388.015H55.8212V416.191H56.3212H56.8212V388.015H56.3212ZM78.118 388.015V387.515H56.3212V388.015V388.515H78.118V388.015ZM78.118 384.825H77.618V388.015H78.118H78.618V384.825H78.118ZM74.9282 384.825V385.325H78.118V384.825V384.325H74.9282V384.825ZM74.9282 377.382H74.4282V384.825H74.9282H75.4282V377.382H74.9282ZM29.208 377.382V377.882H74.9282V377.382V376.882H29.208V377.382ZM29.208 359.838H28.708V377.382H29.208H29.708V359.838H29.208ZM0.5 359.838V360.338H29.208V359.838V359.338H0.5V359.838ZM0.5 342.826H0V359.838H0.5H1V342.826H0.5ZM2.62653 342.826V342.326H0.5V342.826V343.326H2.62653V342.826ZM2.62653 284.347H2.12653V342.826H2.62653H3.12653V284.347H2.62653ZM0.5 284.347V284.847H2.62653V284.347V283.847H0.5V284.347ZM0.5 268.398H0V284.347H0.5H1V268.398H0.5ZM11.1326 268.398V267.898H0.5V268.398V268.898H11.1326V268.398ZM40.9039 289.663L41.1945 289.256L11.4232 267.991L11.1326 268.398L10.842 268.805L40.6133 290.07L40.9039 289.663ZM75.9915 289.663V289.163H40.9039V289.663V290.163H75.9915V289.663ZM75.9915 238.627H75.4915V289.663H75.9915H76.4915V238.627H75.9915ZM64.8272 238.627V239.127H75.9915V238.627V238.127H64.8272V238.627ZM64.8272 255.107H65.3272V238.627H64.8272H64.3272V255.107H64.8272ZM33.4611 255.107V255.607H64.8272V255.107V254.607H33.4611V255.107ZM33.4611 192.906H32.9611V255.107H33.4611H33.9611V192.906H33.4611ZM18.5754 192.906V193.406H33.4611V192.906V192.406H18.5754V192.906ZM18.5754 164.73H18.0754V192.906H18.5754H19.0754V164.73H18.5754ZM41.4355 164.73V164.23H18.5754V164.73V165.23H41.4355V164.73ZM41.4355 112.877H40.9355V164.73H41.4355H41.9355V112.877H41.4355ZM134.471 112.877V112.377H41.4355V112.877V113.377H134.471V112.877ZM134.471 75.4161H133.971V112.877H134.471H134.971V75.4161H134.471ZM218.468 75.4161V74.9161H134.471V75.4161V75.9161H218.468V75.4161ZM218.468 18H217.968V75.4161H218.468H218.968V18H218.468ZM237.075 18V17.5H218.468V18V18.5H237.075V18ZM251.961 19.0633L251.997 18.5645L237.111 17.5013L237.075 18L237.04 18.4987L251.925 19.562L251.961 19.0633ZM251.961 20.6582H252.461V19.0633H251.961H251.461V20.6582H251.961ZM271.1 19.0633L271.058 18.565L251.92 20.1599L251.961 20.6582L252.003 21.1564L271.141 19.5615L271.1 19.0633ZM271.1 20.6582H271.6V19.0633H271.1H270.6V20.6582H271.1ZM282.796 20.6582V20.1582H271.1V20.6582V21.1582H282.796V20.6582ZM282.796 71.6946H283.296V20.6582H282.796H282.296V71.6946H282.796ZM280.669 71.6946V72.1946H282.796V71.6946V71.1946H280.669V71.6946ZM280.669 77.229H281.169V71.6946H280.669H280.169V77.229H280.669ZM288.112 77.229V76.729H280.669V77.229V77.729H288.112V77.229ZM288.112 73.2896H287.612V77.229H288.112H288.612V73.2896H288.112ZM358.287 73.2896V72.7896H288.112V73.2896V73.7896H358.287V73.2896ZM358.287 86.0487H358.787V73.2896H358.287H357.787V86.0487H358.287ZM398.691 86.0487V85.5487H358.287V86.0487V86.5487H398.691V86.0487ZM398.691 184.932H399.191V86.0487H398.691H398.191V184.932H398.691ZM386.464 184.932V185.432H398.691V184.932V184.432H386.464V184.932ZM386.464 191.843H386.964V184.932H386.464H385.964V191.843H386.464ZM413.577 191.843V191.343H386.464V191.843V192.343H413.577V191.843ZM413.577 176.426H413.077V191.843H413.577H414.077V176.426H413.577ZM449.196 176.426V175.926H413.577V176.426V176.926H449.196V176.426ZM172.217 364.091H171.717V372.066H172.217H172.717V364.091H172.217ZM122.775 364.091V364.591H172.217V364.091V363.591H122.775V364.091ZM122.775 341.231H122.275V364.091H122.775H123.275V341.231H122.775ZM108.562 341.231V341.731H122.775V341.231V340.731H108.562V341.231ZM108.562 362.496H109.062V341.231H108.562H108.062V362.496H108.562ZM99.3833 362.496V362.996H108.562V362.496V361.996H99.3833V362.496ZM94.067 368.876L94.4511 369.196L99.7674 362.816L99.3833 362.496L98.9991 362.176L93.6828 368.556L94.067 368.876ZM94.067 384.825H94.567V368.876H94.067H93.567V384.825H94.067ZM90.8772 384.825V385.325H94.067V384.825V384.325H90.8772V384.825ZM90.8772 388.015H91.3772V384.825H90.8772H90.3772V388.015H90.8772ZM116.395 388.015V387.515H90.8772V388.015V388.515H116.395V388.015ZM116.395 398.116H116.895V388.015H116.395H115.895V398.116H116.395ZM119.321 398.116V397.616H116.395V398.116V398.616H119.321V398.116ZM119.321 372.066H118.821V398.116H119.321H119.821V372.066H119.321ZM172.217 372.066V371.566H119.321V372.066V372.566H172.217V372.066ZM73.865 338.041H73.365V364.091H73.865H74.365V338.041H73.865ZM41.4355 338.041V338.541H73.865V338.041V337.541H41.4355V338.041ZM41.4355 364.091H41.9355V338.041H41.4355H40.9355V364.091H41.4355ZM73.865 364.091V363.591H41.4355V364.091V364.591H73.865V364.091ZM140.319 291.258L139.878 291.023L127.118 314.946L127.56 315.181L128.001 315.417L140.76 291.493L140.319 291.258ZM140.319 289.131H139.819V291.258H140.319H140.819V289.131H140.319ZM132.876 289.131V289.631H140.319V289.131V288.631H132.876V289.131ZM132.876 272.651H132.376V289.131H132.876H133.376V272.651H132.876ZM138.192 262.018L137.745 261.795L132.429 272.427L132.876 272.651L133.323 272.874L138.639 262.242L138.192 262.018ZM138.192 241.816H137.692V262.018H138.192H138.692V241.816H138.192ZM108.421 241.816V242.316H138.192V241.816V241.316H108.421V241.816ZM108.421 259.36H108.921V241.816H108.421H107.921V259.36H108.421ZM93.0037 259.36V259.86H108.421V259.36V258.86H93.0037V259.36ZM93.0037 274.246H93.5037V259.36H93.0037H92.5037V274.246H93.0037ZM115.864 274.246V273.746H93.0037V274.246V274.746H115.864V274.246ZM115.864 310.928H116.364V274.246H115.864H115.364V310.928H115.864ZM121.712 323.687L122.166 323.479L116.318 310.72L115.864 310.928L115.409 311.137L121.257 323.896L121.712 323.687ZM122.775 323.687V323.187H121.712V323.687V324.187H122.775V323.687ZM122.775 315.181H122.275V323.687H122.775H123.275V315.181H122.775ZM127.56 315.181V314.681H122.775V315.181V315.681H127.56V315.181ZM225.38 208.324H224.88V256.702H225.38H225.88V208.324H225.38ZM227.506 208.324V207.824H225.38V208.324V208.824H227.506V208.324ZM227.506 184.932H227.006V208.324H227.506H228.006V184.932H227.506ZM187.102 184.932V185.432H227.506V184.932V184.432H187.102V184.932ZM187.102 191.843H187.602V184.932H187.102H186.602V191.843H187.102ZM173.811 191.843V192.343H187.102V191.843V191.343H173.811V191.843ZM173.811 162.072H173.311V191.843H173.811H174.311V162.072H173.811ZM102.573 162.072V162.572H173.811V162.072V161.572H102.573V162.072ZM102.573 184.932H103.073V162.072H102.573H102.073V184.932H102.573ZM71.2068 184.932V185.432H102.573V184.932V184.432H71.2068V184.932ZM71.2068 181.21H70.7068V184.932H71.2068H71.7068V181.21H71.2068ZM69.0803 181.21V181.71H71.2068V181.21V180.71H69.0803V181.21ZM69.0803 192.906H69.5803V181.21H69.0803H68.5803V192.906H69.0803ZM61.6375 192.906V193.406H69.0803V192.906V192.406H61.6375V192.906ZM61.6375 215.766H62.1375V192.906H61.6375H61.1375V215.766H61.6375ZM69.0803 215.766V215.266H61.6375V215.766V216.266H69.0803V215.766ZM84.4976 199.818L84.1381 199.47L68.7208 215.419L69.0803 215.766L69.4398 216.114L84.8571 200.165L84.4976 199.818ZM108.421 199.818V199.318H84.4976V199.818V200.318H108.421V199.818ZM108.421 224.804H108.921V199.818H108.421H107.921V224.804H108.421ZM127.56 224.804V224.304H108.421V224.804V225.304H127.56V224.804ZM127.56 208.855H127.06V224.804H127.56H128.06V208.855H127.56ZM159.457 208.855V208.355H127.56V208.855V209.355H159.457V208.855ZM171.685 221.083L172.039 220.729L159.811 208.502L159.457 208.855L159.104 209.209L171.331 221.436L171.685 221.083ZM171.685 290.195H172.185V221.083H171.685H171.185V290.195H171.685ZM183.381 290.195V289.695H171.685V290.195V290.695H183.381V290.195ZM183.381 262.55H182.881V290.195H183.381H183.881V262.55H183.381ZM230.164 262.55V262.05H183.381V262.55V263.05H230.164V262.55ZM230.164 259.36H229.664V262.55H230.164H230.664V259.36H230.164ZM228.038 256.702L227.825 257.154C228.46 257.454 228.822 257.727 229.073 258.051C229.327 258.381 229.501 258.809 229.681 259.488L230.164 259.36L230.648 259.232C230.458 258.515 230.243 257.931 229.864 257.44C229.481 256.943 228.964 256.585 228.251 256.25L228.038 256.702ZM225.38 256.702V257.202H228.038V256.702V256.202H225.38V256.702ZM319.478 129.111V129.611H350.313V129.111V128.611H319.478V129.111ZM319.478 153.034H319.978V129.111H319.478H318.978V153.034H319.478ZM305.124 153.034V153.534H319.478V153.034V152.534H305.124V153.034ZM305.124 136.554H304.624V153.034H305.124H305.624V136.554H305.124ZM278.011 136.554V137.054H305.124V136.554V136.054H278.011V136.554ZM278.011 153.034H278.511V136.554H278.011H277.511V153.034H278.011ZM275.353 153.034V153.534H278.011V153.034V152.534H275.353V153.034ZM275.353 140.807H274.853V153.034H275.353H275.853V140.807H275.353ZM227.506 140.807V141.307H275.353V140.807V140.307H227.506V140.807ZM227.506 168.451H228.006V140.807H227.506H227.006V168.451H227.506ZM187.102 168.451V168.951H227.506V168.451V167.951H187.102V168.451ZM187.102 145.06H186.602V168.451H187.102H187.602V145.06H187.102ZM86.0925 145.06V145.56H187.102V145.06V144.56H86.0925V145.06ZM86.0925 168.451H86.5925V145.06H86.0925H85.5925V168.451H86.0925ZM71.2068 168.451V168.951H86.0925V168.451V167.951H71.2068V168.451ZM71.2068 172.173H71.7068V168.451H71.2068H70.7068V172.173H71.2068ZM69.0803 172.173V172.673H71.2068V172.173V171.673H69.0803V172.173ZM69.0803 161.54H68.5803V172.173H69.0803H69.5803V161.54H69.0803ZM77.0548 161.54V161.04H69.0803V161.54V162.04H77.0548V161.54ZM77.0548 138.68H76.5548V161.54H77.0548H77.5548V138.68H77.0548ZM172.748 138.68V138.18H77.0548V138.68V139.18H172.748V138.68ZM172.748 96.6813H172.248V138.68H172.748H173.248V96.6813H172.748ZM218.468 96.6813V96.1813H172.748V96.6813V97.1813H218.468V96.6813ZM218.468 108.377H218.968V96.6813H218.468H217.968V108.377H218.468ZM229.101 108.377V107.877H218.468V108.377V108.877H229.101V108.377ZM229.101 94.5547H228.601V108.377H229.101H229.601V94.5547H229.101ZM322.136 94.5547V94.0547H229.101V94.5547V95.0547H322.136V94.5547ZM325.858 98.8078L326.234 98.4785L322.513 94.2255L322.136 94.5547L321.76 94.884L325.481 99.1371L325.858 98.8078ZM325.858 117.946H326.358V98.8078H325.858H325.358V117.946H325.858ZM350.313 117.946V117.446H325.858V117.946V118.446H350.313V117.946ZM350.313 129.111H350.813V117.946H350.313H349.813V129.111H350.313ZM303.529 249.791V249.291H297.15V249.791V250.291H303.529V249.791ZM303.529 305.718H304.029V249.791H303.529H303.029V305.718H303.529ZM277.479 305.718V306.218H303.529V305.718V305.218H277.479V305.718ZM277.479 341.231H277.979V305.718H277.479H276.979V341.231H277.479ZM261.53 341.231V341.731H277.479V341.231V340.731H261.53V341.231ZM261.53 334.852H261.03V341.231H261.53H262.03V334.852H261.53ZM234.949 334.852V335.352H261.53V334.852V334.352H234.949V334.852ZM234.949 360.901H235.449V334.852H234.949H234.449V360.901H234.949ZM225.911 372.066L226.3 372.38L235.338 361.216L234.949 360.901L234.56 360.587L225.523 371.751L225.911 372.066ZM184.976 372.066V372.566H225.911V372.066V371.566H184.976V372.066ZM184.976 331.13H184.476V372.066H184.976H185.476V331.13H184.976ZM167.432 331.13V331.63H184.976V331.13V330.63H167.432V331.13ZM167.432 304.549H166.932V331.13H167.432H167.932V304.549H167.432ZM202.52 304.549V304.049H167.432V304.549V305.049H202.52V304.549ZM202.52 276.904H202.02V304.549H202.52H203.02V276.904H202.52ZM209.962 276.904V276.404H202.52V276.904V277.404H209.962V276.904ZM209.962 290.726H210.462V276.904H209.962H209.462V290.726H209.962ZM253.556 290.726V290.226H209.962V290.726V291.226H253.556V290.726ZM253.556 278.499H253.056V290.726H253.556H254.056V278.499H253.556ZM243.731 268.398L243.373 268.746L253.198 278.847L253.556 278.499L253.914 278.15L244.09 268.049L243.731 268.398ZM243.731 261.487H243.231V268.398H243.731H244.231V261.487H243.731ZM265.252 261.487V260.987H243.731V261.487V261.987H265.252V261.487ZM265.252 249.791H264.752V261.487H265.252H265.752V249.791H265.252ZM268.442 249.791V249.291H265.252V249.791V250.291H268.442V249.791ZM268.442 265.208H268.942V249.791H268.442H267.942V265.208H268.442ZM297.15 265.208V264.708H268.442V265.208V265.708H297.15V265.208ZM297.15 249.791H296.65V265.208H297.15H297.65V249.791H297.15ZM374.236 362.496H374.736V338.041H374.236H373.736V362.496H374.236ZM362.54 362.496V362.996H374.236V362.496V361.996H362.54V362.496ZM362.54 370.471H363.04V362.496H362.54H362.04V370.471H362.54ZM347.655 370.471V370.971H362.54V370.471V369.971H347.655V370.471ZM347.655 341.231H347.155V370.471H347.655H348.155V341.231H347.655ZM292.723 341.231V341.731H347.655V341.231V340.731H292.723V341.231ZM292.723 316.776H292.223V341.231H292.723H293.223V316.776H292.723ZM320.541 316.776V316.276H292.723V316.776V317.276H320.541V316.776ZM320.541 292.853H320.041V316.776H320.541H321.041V292.853H320.541ZM351.908 292.853V292.353H320.541V292.853V293.353H351.908V292.853ZM351.908 338.041H352.408V292.853H351.908H351.408V338.041H351.908ZM374.236 338.041V337.541H351.908V338.041V338.541H374.236V338.041ZM425.804 304.017V303.517H388.59V304.017V304.517H425.804V304.017ZM425.804 286.473H425.304V304.017H425.804H426.304V286.473H425.804ZM388.59 286.473L388.597 286.973C394.799 286.885 404.1 286.778 411.851 286.747C415.727 286.732 419.212 286.735 421.727 286.769C422.986 286.786 423.996 286.81 424.69 286.843C425.039 286.86 425.298 286.878 425.465 286.898C425.552 286.908 425.595 286.916 425.61 286.92C425.621 286.923 425.593 286.917 425.553 286.896C425.533 286.885 425.483 286.858 425.433 286.804C425.38 286.746 425.304 286.634 425.304 286.473H425.804H426.304C426.304 286.306 426.225 286.187 426.166 286.123C426.11 286.063 426.051 286.028 426.02 286.012C425.955 285.977 425.892 285.96 425.856 285.951C425.775 285.93 425.678 285.916 425.58 285.905C425.378 285.881 425.092 285.861 424.738 285.844C424.026 285.81 423.002 285.786 421.741 285.769C419.216 285.735 415.724 285.732 411.847 285.747C404.092 285.778 394.786 285.885 388.583 285.973L388.59 286.473ZM388.59 304.017H389.09V286.473H388.59H388.09V304.017H388.59ZM350.844 143.996H350.344V184.932H350.844H351.344V143.996H350.844ZM343.933 143.996V144.496H350.844V143.996V143.496H343.933V143.996ZM343.933 184.4H344.433V143.996H343.933H343.433V184.4H343.933ZM278.011 184.4V184.9H343.933V184.4V183.9H278.011V184.4ZM278.011 169.515H277.511V184.4H278.011H278.511V169.515H278.011ZM275.353 169.515V170.015H278.011V169.515V169.015H275.353V169.515ZM275.353 208.855H275.853V169.515H275.353H274.853V208.855H275.353ZM265.252 208.855V209.355H275.353V208.855V208.355H265.252V208.855ZM265.252 233.31H265.752V208.855H265.252H264.752V233.31H265.252ZM302.998 233.31V232.81H265.252V233.31V233.81H302.998V233.31ZM321.073 215.235L320.719 214.881L302.644 232.957L302.998 233.31L303.351 233.664L321.427 215.588L321.073 215.235ZM333.832 215.235V214.735H321.073V215.235V215.735H333.832V215.235ZM333.832 247.664H334.332V215.235H333.832H333.332V247.664H333.832ZM370.515 247.664V247.164H333.832V247.664V248.164H370.515V247.664ZM381.147 258.828L381.509 258.484L370.877 247.319L370.515 247.664L370.153 248.009L380.785 259.173L381.147 258.828ZM425.804 258.828V258.328H381.147V258.828V259.328H425.804V258.828ZM425.804 227.994H425.304V258.828H425.804H426.304V227.994H425.804ZM367.325 227.994V228.494H425.804V227.994V227.494H367.325V227.994ZM367.325 191.843H366.825V227.994H367.325H367.825V191.843H367.325ZM369.983 191.843V191.343H367.325V191.843V192.343H369.983V191.843ZM369.983 184.932H369.483V191.843H369.983H370.483V184.932H369.983ZM350.844 184.932V185.432H369.983V184.932V184.432H350.844V184.932Z" fill="#B27C40"/>
<path d="M127.56 224.804H139.255" stroke="#B27C40"/>
<path d="M183.381 275.841H188.697V272.119V271.588M188.697 271.588H189.229V262.55M188.697 271.588H183.381M115.864 302.422H108.421M108.421 302.422V309.865M108.421 302.422H100.447V309.865H108.421M108.421 341.231V309.865" stroke="#B27C40" stroke-width="0.5"/>
<path d="M100.446 259.36V243.943H108.421M40.9039 164.73H48.8783V157.287M41.4355 153.034H48.8783V157.287M41.4355 157.287H48.8783" stroke="#B27C40"/>
<path d="M41.4355 144.528H45.6886V127.251H41.4355M41.4355 117.946H48.8784V113.162M162.647 138.68V130.174H155.204M147.762 138.68V130.174H155.204M155.204 130.174V138.68" stroke="#B27C40"/>
<path d="M122.775 341.231V335.915H121.712V341.231M48.8783 338.041V330.067H41.4355V338.041M31.3345 321.029V306.144H23.8917V321.029H31.3345Z" stroke="#B27C40"/>
<path d="M171.685 262.55H166.9M171.685 255.639H161.052V262.55H166.9M166.9 262.55V266.803H171.685M171.685 290.195H157.331V289.131H171.685" stroke="#B27C40"/>
<path d="M167.432 319.966H159.457V324.219H167.432M158.926 324.219V331.13H167.432" stroke="#B27C40"/>
<path d="M359.35 321.029H366.793V314.118H359.35M441.753 366.749V359.307H438.032M433.247 359.307H438.032M438.032 359.307V355.054H433.247M347.655 348.674H339.68V341.231M303.529 271.056H311.504V263.613H303.529M268.442 249.791H284.922M398.691 95.0863H388.058L367.856 92.4282V94.0231H358.287V86.0486M350.313 117.946H359.35V125.389H350.313M338.617 184.4V143.996H344.465M318.946 184.4V176.957M285.454 184.4V176.957H278.011M227.506 184.932H242.923V191.843H227.506M227.506 204.071H232.291V208.324H227.506M225.38 225.867H234.417V233.31H225.38M243.455 262.55H241.86V261.487H243.455" stroke="#B27C40"/>
<path d="M230.164 262.55H231.759V261.169M230.164 262.55V261.169H231.759M230.164 262.55L231.759 261.169" stroke="#B27C40"/>
<path d="M398.159 227.994V220.019H390.185V227.994M449.196 227.462H441.753V235.437H449.196" stroke="#B27C40"/>
<path d="M465.676 266.803H456.639M456.639 266.803V258.828M456.639 266.803V276.904H465.676M456.639 266.803H449.196V258.828" stroke="#B27C40"/>
<path d="M396.564 286.473V278.499H388.59V286.473M465.676 318.371H444.943V309.333H465.676M409.855 304.017V311.46H402.412V304.017M334.895 247.664V265.208H333.832V247.664" stroke="#B27C40"/>
<path d="M430.057 176.426V178.552H441.221M441.221 178.552V176.426M441.221 178.552V184.4H449.196M386.463 184.932V161.009M386.463 156.755H398.691M386.463 156.755V161.009M386.463 156.755H382.742V161.009H386.463" stroke="#B27C40"/>
<path d="M183.631 304.299V262.8H202.27V304.299H183.631Z" stroke="#B27C40" stroke-width="0.5"/>
<path d="M40.9039 255.107V192.211M86.0925 168.451V184.932M231.759 208.324H242.392V233.842M352.971 278.499H334.895V247.664H370.515L381.147 258.828H352.971V278.499Z" stroke="#B27C40" stroke-width="0.5"/>
<path d="M334.895 278.499V284.347H351.376V278.499H359.35V338.041" stroke="#B27C40" stroke-width="0.5"/>
<circle cx="270.568" cy="145.06" r="4.28467" transform="rotate(-180 270.568 145.06)" stroke="#B27C40"/>
<circle cx="264.72" cy="143.465" r="1.87652" transform="rotate(-180 264.72 143.465)" stroke="#B27C40" stroke-width="0.5"/>
<circle cx="387.527" cy="225.867" r="2.40815" transform="rotate(-180 387.527 225.867)" stroke="#B27C40" stroke-width="0.5"/>
<path d="M426.336 337.51H417.83V327.016H426.336V337.51Z" fill="#F08234" fill-opacity="0.2"/>
<path d="M388.058 304.549H359.614V297.91H388.058V304.549Z" fill="#F08234" fill-opacity="0.2"/>
<path d="M359.35 321.561H367.325V313.586H359.35V304.549H401.88V311.991H410.387V304.549H417.83V337.51H359.35V321.561Z" fill="#F08234" fill-opacity="0.2"/>
<path d="M388.847 318.207V310.207H391.91C392.488 310.207 392.969 310.298 393.351 310.48C393.737 310.66 394.024 310.906 394.215 311.219C394.407 311.531 394.504 311.885 394.504 312.281C394.504 312.607 394.441 312.885 394.316 313.117C394.191 313.346 394.023 313.532 393.812 313.676C393.601 313.819 393.366 313.922 393.105 313.984V314.062C393.389 314.078 393.661 314.165 393.922 314.324C394.185 314.48 394.399 314.702 394.566 314.988C394.733 315.275 394.816 315.621 394.816 316.027C394.816 316.441 394.716 316.814 394.515 317.144C394.315 317.472 394.013 317.732 393.609 317.922C393.205 318.112 392.698 318.207 392.086 318.207H388.847ZM390.297 316.996H391.855C392.381 316.996 392.76 316.896 392.992 316.695C393.226 316.492 393.344 316.232 393.344 315.914C393.344 315.677 393.285 315.463 393.168 315.273C393.051 315.081 392.884 314.929 392.668 314.82C392.452 314.708 392.194 314.652 391.894 314.652H390.297V316.996ZM390.297 313.609H391.73C391.98 313.609 392.205 313.564 392.406 313.472C392.607 313.379 392.764 313.247 392.879 313.078C392.996 312.906 393.054 312.703 393.054 312.469C393.054 312.159 392.945 311.903 392.726 311.703C392.51 311.502 392.189 311.402 391.761 311.402H390.297V313.609Z" fill="white"/>
<path d="M40.9041 359.307H1.03181V343.358H40.9041V359.307Z" fill="#F08234" fill-opacity="0.23"/>
<path d="M3.02185 283.815H41.0804V283.816L33.4613 283.848L41.0804 289.157V290.195H54.015V283.815H54.058V337.51H49.4105V329.535H40.9037V343.358H3.02185V283.815ZM31.8666 305.612H23.3607V321.561H31.8666V305.612Z" fill="#F08234" fill-opacity="0.23"/>
<path d="M1.03137 268.929H11.1329L31.8663 283.815H1.03137V268.929Z" fill="#F08234" fill-opacity="0.23"/>
<path d="M17.7338 340.535H16.1869L19.0033 332.535H20.7924L23.6127 340.535H22.0658L19.9291 334.176H19.8666L17.7338 340.535ZM17.7845 337.399H22.0033V338.563H17.7845V337.399Z" fill="white"/>
</svg>
