<svg width="415" height="474" viewBox="0 0 415 474" fill="none" xmlns="http://www.w3.org/2000/svg">
<path d="M51 206C51 207.105 50.1046 208 49 208C47.8954 208 47 207.105 47 206C47 204.895 47.8954 204 49 204C50.1046 204 51 204.895 51 206Z" fill="#171717"/>
<path d="M50 206C50 206.552 49.5523 207 49 207C48.4477 207 48 206.552 48 206C48 205.448 48.4477 205 49 205C49.5523 205 50 205.448 50 206Z" fill="white"/>
<path d="M350 233C350 234.105 349.105 235 348 235C346.895 235 346 234.105 346 233C346 231.895 346.895 231 348 231C349.105 231 350 231.895 350 233Z" fill="#171717"/>
<path d="M349 233C349 233.552 348.552 234 348 234C347.448 234 347 233.552 347 233C347 232.448 347.448 232 348 232C348.552 232 349 232.448 349 233Z" fill="white"/>
</svg>
