<svg width="447" height="473" viewBox="0 0 447 473" fill="none" xmlns="http://www.w3.org/2000/svg">
<path fill-rule="evenodd" clip-rule="evenodd" d="M33.7206 296.556V323.299H110.663V294H108.85V293.164H116.517V298.165L169.67 342.112V363.015H176.194V365.879H169.855V396.429H173.247V398.778H169.728V449.378L184.491 455H225.378L230.489 450.4V417.178L226.4 413.6V403.889L226.911 400.311V396.441H253.488V389.315H256.554V396.441H277.25L296.93 415.644H324.529L333.523 407.467V352.267L328.107 344.6L330.662 343.578L332.195 345.622H333.217L356.216 330.358V321.471H413.192L413.192 295.901H401.703L401.744 276.822H418.568L436.457 223.978H446.434V181.438H430.062L413.69 181.438L409.369 186.156L405.044 181.812L409.889 176.973L375.605 142.849H346.7V83.3449L320.44 48.1556L291.819 46.6222V18H239.177L227.422 40.4889H202.89V45.6H200.335V40.4889H118.05L108.339 51.2222L114.472 57.3555L104.251 68.6L102.206 67.0667L85.3404 87H13.2772L0.5 99.7778V184.111L13.2772 196.889H41.898V219.889H27.0765V293.489H36.7872V296.044H33.7206V296.556ZM64.1032 302.547V295.903H60.8082V293.277H64.3858L73.9552 283.438V236.714H89.4291V235.286H90.4513V255.156H91.9845V256.178H90.4513V293.489H91.4734V294H90.4513V302.547H64.1032ZM62.3415 196.889V219.505H96.5843V201.552L115.209 183.089H163.302V153.956H92.4956L76.6519 170.311L85.3404 179V196.889H62.3415ZM113.961 207.059V255.156V256.689C115.936 259.643 117.136 261.232 119.583 263.844L170.716 305.985H199.524V276.782H186.536V176.744H177.09V178.648H184.726V207.059H113.961ZM190.113 396.733H193.18V398.778H190.113V396.733ZM213.112 396.733L210.046 396.733V398.778H213.112V396.733ZM227.934 350.222H198.802V363.511L193.413 363.511V366.067H233.044V363.511H227.934V350.222ZM250.421 363.511V366.067H253.488V372.711H256.554V369.133H279.553L279.553 276.741H226.911L226.911 306.267H256.554V363.511H250.421ZM323.507 332.844L321.974 330.289L335.773 320.768L335.773 291.444H380.749V283.778H357.75V257.2H309.707V233.689L303.265 226.801L300.429 236.744H278.963L276.487 227.044L270.501 233.178V236.724H256.554L256.554 262.358H293.353V305.96L290.286 305.244L290.286 305.96L310.01 305.96L310.01 316.489L321.736 333.954L323.507 332.844ZM100.162 130.444V103.867H101.695V130.444H100.162ZM30.6541 111.022H54.1641V109.489H30.6541V111.022ZM124.183 65.0222L113.961 76.7778L116.006 78.3111L126.227 66.5556L124.183 65.0222ZM202.89 57.8667H200.335V63.4889H202.89V57.8667ZM120.605 94.1555V130.444H163.537V126.867H183.272V118.933H176.314V93.6444H203.913V96.7111H206.64V93.6444H242.755V91.0889H202.89V75.7556H200.335V80.8667H160.981V79.3333H158.937V80.8667H144.115L135.938 74.7333L125.716 86.4889L126.227 87V88.0222L120.605 94.1555ZM206.64 107.158H203.817V139.554H216.69V176.956L227.235 209.667H263.199V220.911L271.376 212.607V209.667H308.174V212.733L315.84 219.889L322.996 212.733V196.705H309.617V173.337H282.962V121.82H206.64V107.158ZM270.354 108.042V91.0889H309.707V97.2222L320.782 107.159V108.042H270.354ZM296.713 121.807H320.951V122.852L309.631 132.932V159.47H296.713V121.807ZM213.368 252.6C218.59 252.6 222.823 248.367 222.823 243.144C222.823 237.922 218.59 233.689 213.368 233.689C208.146 233.689 203.913 237.922 203.913 243.144C203.913 248.367 208.146 252.6 213.368 252.6ZM53.9086 153.444C59.1305 153.444 63.3637 149.211 63.3637 143.989C63.3637 138.767 59.1305 134.533 53.9086 134.533C48.6866 134.533 44.4535 138.767 44.4535 143.989C44.4535 149.211 48.6866 153.444 53.9086 153.444Z" fill="#271406" stroke="#B27C40"/>
<path d="M135.427 130.091V136.225H148.715V130.091M100.162 103.513H93.5175V110.158H100.162M58.2525 152.069L63.3633 156.669L67.452 152.58L62.3412 147.469M156.892 182.736V189.38H163.299V182.736M27.0762 239.98H40.3644V246.625H27.0762" stroke="#B27C40"/>
<path d="M216.689 176.602L210.556 178.647L212.09 184.78L218.734 182.735M204.423 239.98H186.535M204.423 246.624H186.535M216.845 234.27L222.311 228.735L226.911 232.824L221.8 238.447M264.731 276.78V274.735M264.731 262.469V264.513M279.553 304.891H283.131V305.913H279.553M356.216 321.758V308.469H362.728V321.758M405.28 181.202L400.169 186.313L404.258 190.913L409.369 185.802M357.749 256.847H364.393V262.469H357.749M320.951 121.913H327.084V122.936H320.951M320.951 107.091H327.084V108.113H320.951M113.961 254.802H111.917V255.824H113.961M89.4287 219.535V221.069H90.4509V219.535M344.461 209.824V235.891H371.037V209.824H344.461ZM390.97 209.824H417.546V235.891H390.97V209.824ZM336.284 182.735L354.172 164.847L360.816 171.491L342.928 189.38L336.284 182.735ZM101.184 293.135H99.6504V294.158H101.184V293.135Z" stroke="#B27C40"/>
<path d="M30.654 103.513V109.136V116.291H17.3657V103.513H30.654Z" stroke="#B27C40"/>
<path d="M30.654 166.891H17.3657V179.669H30.654V166.891Z" stroke="#B27C40"/>
<path d="M20.943 166.891V150.024M20.943 116.291V139.802M21.9651 166.891V120.38M21.9651 116.291V120.38M21.9651 120.38H28.6093V116.291M20.943 139.802H14.2988V146.446H17.3653M20.943 139.802V146.446M20.943 146.446V150.024M20.943 146.446H17.3653M20.943 150.024H17.3653V146.446M54.5311 108.925H76.6514M183.469 126.513H190.113M203.912 126.513H196.757M196.757 126.513V129.835M196.757 126.513H190.113M203.912 133.158H196.757V129.835M196.757 129.835H190.113V126.513M236.622 93.2911V100.447M242.755 93.2911V100.447M242.755 100.447V103.513H236.622V100.447M242.755 100.447H236.622M36.7866 293.135H60.8077M60.8077 295.691H36.7866M351.616 256.847V249.691H357.749V253.269M357.749 256.847V253.269M357.749 253.269H361.327V256.335M371.037 220.047H390.97M390.97 226.18H371.037M302.041 305.913V313.58H310.218M327.084 107.091H346.505M327.084 108.113H346.505M327.084 121.913H346.505M327.084 122.935H346.505M156.892 40.1355V43.7133H160.981V40.1355M196.246 40.1355V43.2022M200.334 43.7133H196.246V43.2022M194.201 40.1355L193.69 41.1577V42.1799L194.712 43.2022H196.246M200.334 61.6022H198.29L197.268 60.5799V60.0688L198.801 59.0466H199.312L199.823 59.5577H200.334M200.334 75.4022H198.29L197.268 77.4466H196.246L195.735 78.4688V80.5133M181.424 150.535L193.69 146.958L195.224 153.091L183.469 156.158L181.424 150.535Z" stroke="#B27C40" stroke-width="0.5"/>
<path d="M328.107 106.58V123.447M341.395 106.58V123.447" stroke="#B27C40" stroke-opacity="0.23"/>
<path fill-rule="evenodd" clip-rule="evenodd" d="M32.187 120.38H72.0518V160.247H32.187V120.38ZM58.2524 152.547C56.9517 153.222 55.4744 153.602 53.9082 153.602C48.6863 153.602 44.4531 149.369 44.4531 144.147C44.4531 138.925 48.6863 134.691 53.9082 134.691C59.1301 134.691 63.3633 138.925 63.3633 144.147C63.3633 145.248 63.1752 146.305 62.8293 147.287L67.9631 152.58L63.3633 157.18L58.2524 152.547Z" fill="#F08234" fill-opacity="0.23"/>
<path d="M37.0645 133.936V125.936H40.127C40.7051 125.936 41.1855 126.027 41.5684 126.209C41.9538 126.389 42.2415 126.635 42.4316 126.948C42.6243 127.26 42.7207 127.614 42.7207 128.01C42.7207 128.336 42.6582 128.614 42.5332 128.846C42.4082 129.075 42.2402 129.261 42.0293 129.405C41.8184 129.548 41.5827 129.651 41.3223 129.713V129.791C41.6061 129.807 41.8783 129.894 42.1387 130.053C42.4017 130.209 42.6165 130.431 42.7832 130.717C42.9499 131.003 43.0332 131.35 43.0332 131.756C43.0332 132.17 42.9329 132.543 42.7324 132.873C42.5319 133.201 42.2298 133.461 41.8262 133.651C41.4225 133.841 40.9147 133.936 40.3027 133.936H37.0645ZM38.5137 132.725H40.0723C40.5983 132.725 40.9772 132.625 41.209 132.424C41.4434 132.221 41.5605 131.961 41.5605 131.643C41.5605 131.406 41.502 131.192 41.3848 131.002C41.2676 130.809 41.1009 130.658 40.8848 130.549C40.6686 130.437 40.4108 130.381 40.1113 130.381H38.5137V132.725ZM38.5137 129.338H39.9473C40.1973 129.338 40.4225 129.293 40.623 129.201C40.8236 129.108 40.9811 128.976 41.0957 128.807C41.2129 128.635 41.2715 128.432 41.2715 128.198C41.2715 127.888 41.1621 127.632 40.9434 127.432C40.7272 127.231 40.4056 127.131 39.9785 127.131H38.5137V129.338Z" fill="white"/>
<path fill-rule="evenodd" clip-rule="evenodd" d="M371.549 202.669H446.167V223.625H436.457L431.346 237.425H371.549V226.18H390.459V236.403H418.058V209.314H390.459V220.047H371.549V202.669Z" fill="#F08234" fill-opacity="0.23"/>
<path d="M432.085 218.78H433.632L430.816 210.78H429.027L426.207 218.78H427.753L429.89 212.421H429.953L432.085 218.78ZM432.035 215.644H427.816V216.808H432.035V215.644Z" fill="white"/>
</svg>
